<svg width="32" height="32" viewBox="0 0 32 32" fill="none" xmlns="http://www.w3.org/2000/svg">
<path d="M25.1016 8.33233H26.9149C26.6616 7.97233 26.3949 7.639 26.1149 7.30566L25.1016 8.33233Z" fill="black"/>
<path d="M24.7083 5.89473C24.375 5.61473 24.0416 5.34806 23.6816 5.09473V6.90806L24.7083 5.89473Z" fill="black"/>
<path d="M26.1204 7.30757L30.0537 3.37423C30.4404 2.98757 30.4404 2.34757 30.0537 1.9609C29.667 1.57423 29.027 1.57423 28.6404 1.9609L24.707 5.89423C25.2137 6.33423 25.6804 6.81423 26.1204 7.30757Z" fill="black"/>
<path d="M23.682 4.00098C23.682 3.45431 23.2286 3.00098 22.682 3.00098C22.1486 3.00098 21.722 3.42764 21.6953 3.94764C22.3886 4.28098 23.0553 4.65431 23.682 5.09431V4.00098Z" fill="black"/>
<path d="M29.011 9.33301C29.011 8.78634 28.5576 8.33301 28.011 8.33301H26.9043C27.3443 8.95967 27.731 9.62634 28.051 10.3197C28.5843 10.293 29.011 9.86634 29.011 9.33301Z" fill="black"/>
<path d="M17.0176 19.6661H17.4176C17.9376 19.6661 18.3509 19.1994 18.3509 18.6261C18.3509 17.9061 18.1509 17.7994 17.6976 17.6394L17.0176 17.3994V19.6661Z" fill="black"/>
<path d="M28.0673 10.3193C28.054 10.3193 28.0407 10.3327 28.014 10.3327H22.6807C22.5473 10.3327 22.4273 10.306 22.294 10.2527C22.054 10.146 21.854 9.95935 21.7473 9.70602C21.7073 9.58602 21.6807 9.46602 21.6807 9.33268V3.99935C21.6807 3.98602 21.694 3.97268 21.694 3.94602C19.9607 3.13268 18.0407 2.66602 16.014 2.66602C8.654 2.66602 2.68066 8.63935 2.68066 15.9993C2.68066 23.3594 8.654 29.3327 16.014 29.3327C23.374 29.3327 29.3473 23.3594 29.3473 15.9993C29.3473 13.9727 28.8807 12.0527 28.0673 10.3193ZM18.3473 15.7593C19.2007 16.0527 20.3473 16.6793 20.3473 18.6393C20.3473 20.306 19.0273 21.6793 17.414 21.6793H17.014V22.0127C17.014 22.5593 16.5607 23.0127 16.014 23.0127C15.4673 23.0127 15.014 22.5593 15.014 22.0127V21.6793H14.9073C13.134 21.6793 11.6807 20.186 11.6807 18.346C11.6807 17.786 12.134 17.3327 12.6807 17.3327C13.2273 17.3327 13.6807 17.786 13.6807 18.3327C13.6807 19.066 14.2273 19.666 14.9073 19.666H15.014V16.706L13.6807 16.2393C12.8273 15.946 11.6807 15.3194 11.6807 13.3594C11.6807 11.6927 13.0007 10.3193 14.614 10.3193H15.014V9.99935C15.014 9.45268 15.4673 8.99935 16.014 8.99935C16.5607 8.99935 17.014 9.45268 17.014 9.99935V10.3327H17.1207C18.894 10.3327 20.3473 11.826 20.3473 13.666C20.3473 14.2127 19.894 14.666 19.3473 14.666C18.8007 14.666 18.3473 14.2127 18.3473 13.666C18.3473 12.9327 17.8007 12.3327 17.1207 12.3327H17.014V15.2927L18.3473 15.7593Z" fill="black"/>
<path d="M13.6846 13.374C13.6846 14.094 13.8846 14.2007 14.3379 14.3607L15.0179 14.6007V12.334H14.6179C14.1112 12.334 13.6846 12.8007 13.6846 13.374Z" fill="black"/>
</svg>
