<svg width="32" height="32" viewBox="0 0 32 32" fill="none" xmlns="http://www.w3.org/2000/svg">
<path d="M2.68066 15.2803V21.947C2.68066 25.0003 5.14733 27.467 8.20066 27.467H23.814C26.8673 27.467 29.3473 24.987 29.3473 21.9337V15.2803C29.3473 14.387 28.6273 13.667 27.734 13.667H4.294C3.40066 13.667 2.68066 14.387 2.68066 15.2803ZM10.6807 23.0003H8.014C7.46733 23.0003 7.014 22.547 7.014 22.0003C7.014 21.4537 7.46733 21.0003 8.014 21.0003H10.6807C11.2273 21.0003 11.6807 21.4537 11.6807 22.0003C11.6807 22.547 11.2273 23.0003 10.6807 23.0003ZM19.3473 23.0003H14.014C13.4673 23.0003 13.014 22.547 13.014 22.0003C13.014 21.4537 13.4673 21.0003 14.014 21.0003H19.3473C19.894 21.0003 20.3473 21.4537 20.3473 22.0003C20.3473 22.547 19.894 23.0003 19.3473 23.0003Z" fill="black"/>
<path d="M18.014 6.14849V10.0552C18.014 10.9485 17.294 11.6685 16.4007 11.6685H4.294C3.38733 11.6685 2.68066 10.9218 2.68066 10.0285C2.694 8.52182 3.294 7.14849 4.294 6.14849C5.294 5.14849 6.68066 4.53516 8.20066 4.53516H16.4007C17.294 4.53516 18.014 5.25516 18.014 6.14849Z" fill="black"/>
<path d="M26.6472 2.66699H22.7272C21.0338 2.66699 20.0205 3.68033 20.0205 5.37366V9.29366C20.0205 10.987 21.0338 12.0003 22.7272 12.0003H26.6472C28.3405 12.0003 29.3538 10.987 29.3538 9.29366V5.37366C29.3538 3.68033 28.3405 2.66699 26.6472 2.66699ZM27.9005 7.90699C27.7672 8.04033 27.5672 8.13366 27.3538 8.14699H25.4738L25.4872 10.0003C25.4738 10.227 25.3938 10.4137 25.2338 10.5737C25.1005 10.707 24.9005 10.8003 24.6872 10.8003C24.2472 10.8003 23.8872 10.4403 23.8872 10.0003V8.13366L22.0205 8.14699C21.5805 8.14699 21.2205 7.77366 21.2205 7.33366C21.2205 6.89366 21.5805 6.53366 22.0205 6.53366L23.8872 6.54699V4.68033C23.8872 4.24033 24.2472 3.86699 24.6872 3.86699C25.1272 3.86699 25.4872 4.24033 25.4872 4.68033L25.4738 6.53366H27.3538C27.7938 6.53366 28.1538 6.89366 28.1538 7.33366C28.1405 7.56033 28.0472 7.74699 27.9005 7.90699Z" fill="black"/>
</svg>
