<svg width="24" height="23" viewBox="0 0 24 23" fill="none" xmlns="http://www.w3.org/2000/svg">
<path d="M3.68066 8.71187C3.68066 5.61931 6.18767 3.1123 9.28023 3.1123H16.1096C16.513 3.1123 16.84 3.43931 16.84 3.84268C16.84 4.24606 16.513 4.57306 16.1096 4.57306H9.28023C6.99443 4.57306 5.14142 6.42607 5.14142 8.71187V15.6328C5.14142 16.0362 4.81442 16.3632 4.41104 16.3632C4.00767 16.3632 3.68066 16.0362 3.68066 15.6328V8.71187Z" fill="black"/>
<path d="M18.4368 6.56286C15.2806 6.21012 12.0444 6.21012 8.88824 6.56286C7.98912 6.66335 7.26659 7.37094 7.16062 8.27703C6.78629 11.4775 6.78629 14.7107 7.16062 17.9112C7.26659 18.8173 7.98912 19.5249 8.88824 19.6254C12.0444 19.9782 15.2806 19.9782 18.4368 19.6254C19.3359 19.5249 20.0584 18.8173 20.1644 17.9112C20.5387 14.7107 20.5387 11.4775 20.1644 8.27703C20.0584 7.37094 19.3359 6.66335 18.4368 6.56286Z" fill="black"/>
</svg>
