<svg width="22" height="22" viewBox="0 0 22 22" fill="none" xmlns="http://www.w3.org/2000/svg">
<path d="M9.11132 13.546C8.94289 13.546 8.77445 13.484 8.64148 13.351C7.91455 12.6241 7.51562 11.6578 7.51562 10.6383C7.51562 8.51961 9.23543 6.7998 11.3542 6.7998C12.3736 6.7998 13.3399 7.19873 14.0668 7.92566C14.1909 8.04977 14.2619 8.2182 14.2619 8.3955C14.2619 8.5728 14.1909 8.74123 14.0668 8.86534L9.58116 13.351C9.44819 13.484 9.27975 13.546 9.11132 13.546ZM11.3542 8.12955C9.97122 8.12955 8.84537 9.2554 8.84537 10.6383C8.84537 11.0816 8.96062 11.5071 9.17337 11.8794L12.5953 8.45755C12.2229 8.24479 11.7974 8.12955 11.3542 8.12955Z" fill="black"/>
<path d="M5.68129 16.4109C5.53059 16.4109 5.37102 16.3577 5.24691 16.2513C4.29835 15.4446 3.44732 14.4517 2.72039 13.2992C1.7807 11.8365 1.7807 9.45185 2.72039 7.98027C4.88344 4.59385 8.03051 2.64355 11.3549 2.64355C13.3052 2.64355 15.2289 3.31729 16.9132 4.58498C17.2058 4.80661 17.2678 5.22326 17.0462 5.5158C16.8246 5.80835 16.4079 5.8704 16.1154 5.64878C14.6615 4.54952 13.0126 3.9733 11.3549 3.9733C8.49149 3.9733 5.75221 5.6931 3.83738 8.69833C3.1725 9.73553 3.1725 11.544 3.83738 12.5812C4.50225 13.6184 5.26464 14.5138 6.10681 15.2407C6.38162 15.48 6.41708 15.8967 6.17773 16.1804C6.05362 16.3311 5.86745 16.4109 5.68129 16.4109Z" fill="black"/>
<path d="M11.3538 18.6342C10.1748 18.6342 9.02234 18.3948 7.91422 17.925C7.57735 17.7832 7.41778 17.3931 7.55962 17.0562C7.70146 16.7194 8.09152 16.5598 8.42839 16.7016C9.36807 17.1006 10.3521 17.3045 11.345 17.3045C14.2083 17.3045 16.9476 15.5846 18.8625 12.5794C19.5273 11.5422 19.5273 9.73377 18.8625 8.69656C18.5876 8.26218 18.2862 7.84553 17.9671 7.45547C17.7366 7.17179 17.7809 6.75514 18.0646 6.51578C18.3483 6.28529 18.7649 6.32075 19.0043 6.6133C19.35 7.03881 19.6869 7.49979 19.9883 7.9785C20.928 9.44122 20.928 11.8259 19.9883 13.2975C17.8253 16.6839 14.6782 18.6342 11.3538 18.6342Z" fill="black"/>
<path d="M11.9692 14.4285C11.659 14.4285 11.3753 14.2068 11.3132 13.8877C11.2423 13.5242 11.4817 13.1785 11.8451 13.1164C12.8203 12.9391 13.6359 12.1236 13.8132 11.1484C13.8841 10.785 14.2298 10.5545 14.5933 10.6165C14.9567 10.6874 15.1961 11.0332 15.1252 11.3966C14.8415 12.9303 13.6181 14.1448 12.0933 14.4285C12.049 14.4196 12.0136 14.4285 11.9692 14.4285Z" fill="black"/>
<path d="M2.49078 20.1782C2.32235 20.1782 2.15391 20.1161 2.02094 19.9831C1.76385 19.7261 1.76385 19.3005 2.02094 19.0435L8.64307 12.4213C8.90015 12.1642 9.32567 12.1642 9.58276 12.4213C9.83984 12.6784 9.83984 13.1039 9.58276 13.361L2.96062 19.9831C2.82765 20.1161 2.65922 20.1782 2.49078 20.1782Z" fill="black"/>
<path d="M13.5943 9.06099C13.4259 9.06099 13.2574 8.99894 13.1245 8.86596C12.8674 8.60888 12.8674 8.18336 13.1245 7.92627L19.7466 1.30414C20.0037 1.04706 20.4292 1.04706 20.6863 1.30414C20.9434 1.56123 20.9434 1.98674 20.6863 2.24383L14.0641 8.86596C13.9312 8.99894 13.7627 9.06099 13.5943 9.06099Z" fill="black"/>
</svg>
