<svg width="24" height="24" viewBox="0 0 24 24" fill="none" xmlns="http://www.w3.org/2000/svg">
<path d="M20.0015 8.2906L13.7237 3.2683C12.4968 2.29068 10.5799 2.28109 9.36269 3.25872L3.08482 8.2906C2.18387 9.00944 1.63755 10.4471 1.82924 11.5781L3.0369 18.8048C3.31485 20.4246 4.81962 21.6994 6.45858 21.6994H16.6182C18.238 21.6994 19.7715 20.3959 20.0495 18.7953L21.2571 11.5685C21.4296 10.4471 20.8833 9.00944 20.0015 8.2906ZM12.2572 17.8656C12.2572 18.2585 11.9314 18.5844 11.5384 18.5844C11.1454 18.5844 10.8195 18.2585 10.8195 17.8656V14.9902C10.8195 14.5972 11.1454 14.2714 11.5384 14.2714C11.9314 14.2714 12.2572 14.5972 12.2572 14.9902V17.8656Z" fill="#34A8FA"/>
</svg>
