<svg width="51" height="48" viewBox="0 0 51 48" fill="none" xmlns="http://www.w3.org/2000/svg">
<g clip-path="url(#clip0_9_4595)">
<circle cx="23.9286" cy="23.9999" r="23.131" fill="white" stroke="#F1F5F9" stroke-width="1.59524"/>
<path d="M14.8957 31.3336C13.1677 31.3336 11.7757 30.8536 10.7437 29.8456C9.71172 28.8616 9.18372 27.5416 9.18372 25.8616V24.0136H11.8717V25.7176C11.8717 26.6776 12.1597 27.4216 12.7357 27.9496C13.3117 28.5016 13.9837 28.7656 14.7517 28.7656C15.5917 28.7656 16.2877 28.5016 16.8397 27.9496C17.3917 27.3976 17.6557 26.7016 17.6557 25.8616V13.6456H20.4157V25.8616C20.4157 27.4216 19.9117 28.7416 18.8557 29.7736C17.8237 30.8056 16.5037 31.3336 14.8957 31.3336ZM27.6857 31.1416H24.9497V13.6456H27.6857V21.2056L34.6697 13.6456H38.3177L30.4937 22.0216L38.7737 31.1416H35.0537L27.6857 22.8856V31.1416Z" fill="black"/>
</g>
<defs>
<clipPath id="clip0_9_4595">
<rect width="51" height="47.8571" fill="white" transform="translate(0 0.0712891)"/>
</clipPath>
</defs>
</svg>
