<svg width="45" height="31" viewBox="0 0 45 31" fill="none" xmlns="http://www.w3.org/2000/svg">
<g clip-path="url(#clip0_1_8584)">
<rect x="0.453125" y="0.40625" width="44" height="30" rx="3" fill="#151515"/>
<path fill-rule="evenodd" clip-rule="evenodd" d="M0.453125 22.4062H44.4531V30.4062H0.453125V22.4062Z" fill="#0A6A30"/>
<path fill-rule="evenodd" clip-rule="evenodd" d="M0.453125 20.4062H44.4531V22.4062H0.453125V20.4062Z" fill="white"/>
<path fill-rule="evenodd" clip-rule="evenodd" d="M0.453125 10.4062H44.4531V20.4062H0.453125V10.4062Z" fill="#F93939"/>
<path fill-rule="evenodd" clip-rule="evenodd" d="M0.453125 8.40625H44.4531V10.4062H0.453125V8.40625Z" fill="white"/>
<path fill-rule="evenodd" clip-rule="evenodd" d="M26.4633 12.2344C26.6141 12.2344 27.5109 10.8944 27.5109 9.23438C27.5109 7.57838 26.6141 6.23438 26.4633 6.23438C26.3166 6.23438 25.4157 7.57838 25.4157 9.23438C25.4157 10.8944 26.3166 12.2344 26.4633 12.2344ZM20.3054 11.3564C20.2006 11.4564 18.5663 11.1164 17.3427 9.94238C16.117 8.77038 15.7566 7.21438 15.8635 7.11438C15.9682 7.01438 17.5983 7.35437 18.8261 8.52837C20.054 9.70038 20.4122 11.2564 20.3075 11.3584L20.3054 11.3564ZM24.2423 20.4224C24.3471 20.3284 25.9814 20.6484 27.2071 21.7424C28.4328 22.8424 28.7932 24.2964 28.6884 24.3904C28.5837 24.4844 26.9494 24.1644 25.7216 23.0704C24.4959 21.9704 24.1355 20.5164 24.2423 20.4224ZM20.3054 20.4224C20.2006 20.3284 18.5663 20.6484 17.3427 21.7424C16.117 22.8424 15.7566 24.2964 15.8635 24.3904C15.9682 24.4844 17.5983 24.1644 18.8261 23.0704C20.054 21.9704 20.4122 20.5164 20.3075 20.4224H20.3054Z" fill="white"/>
<path fill-rule="evenodd" clip-rule="evenodd" d="M22.4529 24.4062C23.2009 24.4062 27.691 20.3762 27.691 15.4062C27.691 10.4363 23.2009 6.40625 22.4529 6.40625C21.7049 6.40625 17.2148 10.4363 17.2148 15.4062C17.2148 20.3762 21.7049 24.4062 22.4529 24.4062Z" fill="#F93939"/>
<path fill-rule="evenodd" clip-rule="evenodd" d="M18.2625 18.4062C18.4091 18.4062 19.3101 17.0623 19.3101 15.4062C19.3101 13.7502 18.4091 12.4062 18.2625 12.4062C18.1158 12.4062 17.2148 13.7502 17.2148 15.4062C17.2148 17.0623 18.1158 18.4062 18.2625 18.4062ZM26.6434 18.4062C26.7901 18.4062 27.691 17.0623 27.691 15.4062C27.691 13.7502 26.7901 12.4062 26.6434 12.4062C26.4967 12.4062 25.5958 13.7502 25.5958 15.4062C25.5958 17.0623 26.4967 18.4062 26.6434 18.4062Z" fill="#151515"/>
<path d="M23.5005 15.4062C23.5005 13.7494 23.0315 12.4062 22.4529 12.4062C21.8743 12.4062 21.4053 13.7494 21.4053 15.4062C21.4053 17.0631 21.8743 18.4062 22.4529 18.4062C23.0315 18.4062 23.5005 17.0631 23.5005 15.4062Z" fill="white"/>
</g>
<defs>
<clipPath id="clip0_1_8584">
<rect x="0.453125" y="0.40625" width="44" height="30" rx="3" fill="white"/>
</clipPath>
</defs>
</svg>
