<svg width="46" height="66" viewBox="0 0 46 66" fill="none" xmlns="http://www.w3.org/2000/svg">
<g filter="url(#filter0_d_0_1)">
<rect x="0.333984" width="45" height="45" rx="22.5" fill="url(#paint0_linear_0_1)"/>
</g>
<path d="M25 30.5C25 30.5 26 30.5 27 32.5C27 32.5 30.1765 27.5 33 26.5" stroke="white" stroke-width="1.5" stroke-linecap="round" stroke-linejoin="round"/>
<path d="M16.4992 23.5H16.4902" stroke="white" stroke-width="2" stroke-linecap="round" stroke-linejoin="round"/>
<path d="M22 31.5H21.5C17.7414 31.5 15.8621 31.5 14.6075 30.5091C14.4068 30.3506 14.2212 30.176 14.0528 29.9871C13 28.8062 13 27.0375 13 23.5C13 19.9625 13 18.1938 14.0528 17.0129C14.2212 16.824 14.4068 16.6494 14.6075 16.4909C15.8621 15.5 17.7414 15.5 21.5 15.5H24.5C28.2586 15.5 30.1379 15.5 31.3925 16.4909C31.5932 16.6494 31.7788 16.824 31.9472 17.0129C32.8957 18.0768 32.9897 19.618 32.999 22.5V23" stroke="white" stroke-width="1.5" stroke-linecap="round" stroke-linejoin="round"/>
<path d="M25.5 23.5C25.5 24.8807 24.3807 26 23 26C21.6193 26 20.5 24.8807 20.5 23.5C20.5 22.1193 21.6193 21 23 21C24.3807 21 25.5 22.1193 25.5 23.5Z" stroke="white" stroke-width="1.5"/>
<defs>
<filter id="filter0_d_0_1" x="-11.666" y="-3" width="69" height="69" filterUnits="userSpaceOnUse" color-interpolation-filters="sRGB">
<feFlood flood-opacity="0" result="BackgroundImageFix"/>
<feColorMatrix in="SourceAlpha" type="matrix" values="0 0 0 0 0 0 0 0 0 0 0 0 0 0 0 0 0 0 127 0" result="hardAlpha"/>
<feMorphology radius="1" operator="dilate" in="SourceAlpha" result="effect1_dropShadow_0_1"/>
<feOffset dy="9"/>
<feGaussianBlur stdDeviation="5.5"/>
<feComposite in2="hardAlpha" operator="out"/>
<feColorMatrix type="matrix" values="0 0 0 0 0.976471 0 0 0 0 0.443137 0 0 0 0 0.6 0 0 0 0.15 0"/>
<feBlend mode="normal" in2="BackgroundImageFix" result="effect1_dropShadow_0_1"/>
<feBlend mode="normal" in="SourceGraphic" in2="effect1_dropShadow_0_1" result="shape"/>
</filter>
<linearGradient id="paint0_linear_0_1" x1="22.834" y1="0" x2="22.834" y2="45" gradientUnits="userSpaceOnUse">
<stop stop-color="#FD8FB0"/>
<stop offset="1" stop-color="#F45B89"/>
</linearGradient>
</defs>
</svg>