<svg width="335" height="88" viewBox="0 0 335 88" fill="none" xmlns="http://www.w3.org/2000/svg">
<g clip-path="url(#clip0_9_3198)">
<rect width="335" height="88" rx="8" fill="#0B1D16"/>
<path d="M30.904 28.36L33.368 33H30.744L28.52 28.808H26.776V33H24.36V21.336H28.968C30.104 21.336 31.112 21.64 31.88 22.248C32.616 22.856 33.08 23.832 33.08 25.032C33.08 26.696 32.248 27.816 30.904 28.36ZM28.76 23.624H26.76V26.584H28.776C29.288 26.584 29.72 26.456 30.088 26.2C30.456 25.96 30.632 25.576 30.632 25.08C30.632 23.96 29.688 23.624 28.76 23.624ZM36.8942 28.12H40.3182C40.2862 27.816 40.1582 27.512 39.9022 27.224C39.6462 26.936 39.1662 26.744 38.6222 26.744C38.1422 26.744 37.7582 26.888 37.4382 27.192C37.1342 27.496 36.9422 27.816 36.8942 28.12ZM42.6062 29.672H36.8462C36.9102 30.152 37.1342 30.52 37.5022 30.808C37.8702 31.096 38.2862 31.24 38.7982 31.24C39.1502 31.24 39.4862 31.128 39.8062 30.936C40.1262 30.744 40.3663 30.488 40.4783 30.168L42.3982 30.824C42.1423 31.56 41.6782 32.136 41.0222 32.552C40.3663 32.968 39.6462 33.176 38.8302 33.176C38.0302 33.176 37.3102 33 36.6382 32.648C35.9822 32.312 35.4542 31.816 35.0542 31.176C34.6702 30.536 34.4622 29.816 34.4622 29.016C34.4622 28.264 34.6542 27.56 35.0382 26.92C35.4222 26.28 35.9342 25.784 36.5902 25.4C37.2302 25.032 37.9342 24.856 38.6862 24.856C39.8702 24.856 40.8142 25.224 41.5503 25.96C42.2863 26.696 42.6543 27.656 42.6543 28.84C42.6543 29.208 42.6383 29.48 42.6062 29.672ZM47.7625 25.048H49.8105V27.016H47.7625V33H45.4425V27.016H43.9225V25.048H45.4425V24.264C45.4265 22.632 46.2265 20.824 48.5625 20.824C49.0905 20.824 49.5225 20.888 49.8905 21V22.904C49.6985 22.84 49.4745 22.824 49.1705 22.824C48.2265 22.824 47.7625 23.256 47.7625 24.136V25.048ZM53.2136 28.12H56.6376C56.6056 27.816 56.4776 27.512 56.2216 27.224C55.9656 26.936 55.4856 26.744 54.9416 26.744C54.4616 26.744 54.0776 26.888 53.7576 27.192C53.4536 27.496 53.2616 27.816 53.2136 28.12ZM58.9256 29.672H53.1656C53.2296 30.152 53.4536 30.52 53.8216 30.808C54.1896 31.096 54.6056 31.24 55.1176 31.24C55.4696 31.24 55.8056 31.128 56.1256 30.936C56.4456 30.744 56.6856 30.488 56.7976 30.168L58.7176 30.824C58.4616 31.56 57.9976 32.136 57.3416 32.552C56.6856 32.968 55.9656 33.176 55.1496 33.176C54.3496 33.176 53.6296 33 52.9576 32.648C52.3016 32.312 51.7736 31.816 51.3736 31.176C50.9896 30.536 50.7816 29.816 50.7816 29.016C50.7816 28.264 50.9736 27.56 51.3576 26.92C51.7416 26.28 52.2536 25.784 52.9096 25.4C53.5496 25.032 54.2536 24.856 55.0056 24.856C56.1896 24.856 57.1336 25.224 57.8696 25.96C58.6056 26.696 58.9736 27.656 58.9736 28.84C58.9736 29.208 58.9576 29.48 58.9256 29.672ZM66.0134 25.048V27.32C65.8054 27.288 65.5654 27.256 65.2774 27.256C64.1254 27.256 63.3894 28.072 63.3894 29.512V33H61.1014V25.048H63.3094V26.2H63.3254C63.7414 25.336 64.5094 24.968 65.3894 24.968C65.5974 24.968 65.8054 25 66.0134 25.048ZM73.4721 33.16C72.7521 33.16 72.1281 32.936 71.6161 32.504C71.0881 32.056 70.8321 31.48 70.8321 30.776V30.712C70.8321 29.576 71.5201 28.92 72.4321 28.6C73.0721 28.36 73.6641 28.28 74.3361 28.28H75.1041C75.5201 28.28 75.7281 28.072 75.7281 27.736C75.7281 27.176 75.2801 26.744 74.4801 26.744C73.7761 26.744 73.2321 27.16 73.0561 27.832L71.0081 27.368C71.1041 26.824 71.3281 26.36 71.6961 25.976C72.0481 25.592 72.4801 25.304 72.9921 25.128C73.4881 24.952 74.0161 24.856 74.5921 24.856C76.5601 24.84 78.0161 25.96 78.0161 28.072V31.72C78.0161 32.2 78.0481 32.632 78.0801 33H75.9201C75.8881 32.792 75.8721 32.472 75.8721 32.008H75.8401C75.2961 32.76 74.5121 33.16 73.4721 33.16ZM74.1441 31.464C74.6241 31.464 75.0081 31.304 75.2961 31C75.5841 30.712 75.7281 30.344 75.7281 29.928V29.736H74.3361C74.0481 29.736 73.7921 29.816 73.5521 29.976C73.2961 30.136 73.1681 30.36 73.1681 30.648C73.1681 31.176 73.6001 31.464 74.1441 31.464ZM88.013 33H85.693V28.584C85.693 27.656 85.229 27.048 84.301 27.048C83.837 27.048 83.485 27.192 83.245 27.48C83.005 27.784 82.877 28.152 82.877 28.584V33H80.557V25.048H82.861V26.088H82.877C83.165 25.592 83.661 25.224 84.125 25.08C84.605 24.936 84.909 24.888 85.133 24.888C87.149 24.888 88.013 26.424 88.013 28.056V33ZM98.6166 33H96.3606V31.992H96.3286C95.8006 32.76 94.9846 33.16 93.8646 33.16C92.7446 33.16 91.7366 32.648 91.0966 31.88C90.4566 31.128 90.0726 30.088 90.0726 29.016C90.0726 27 91.6086 24.888 93.8966 24.888C94.2006 24.888 94.4726 24.92 94.9366 25.048C95.4006 25.176 95.8806 25.496 96.2646 25.96H96.2966V20.872H98.6166V33ZM95.8006 30.472C96.1686 30.088 96.3606 29.608 96.3606 29.016C96.3606 28.424 96.1686 27.944 95.8006 27.56C95.4166 27.176 94.9526 27 94.3926 27C93.8486 27 93.3846 27.176 93.0006 27.56C92.6166 27.944 92.4246 28.424 92.4246 29.016C92.4246 29.608 92.6166 30.088 93.0006 30.472C93.3686 30.856 93.8326 31.048 94.3926 31.048C94.9526 31.048 95.4166 30.856 95.8006 30.472ZM113.434 33H105.754V21.336H113.386V23.592H108.138V25.976H112.842V28.232H108.138V30.744H113.434V33ZM118.013 33.16C117.293 33.16 116.669 32.936 116.157 32.504C115.629 32.056 115.373 31.48 115.373 30.776V30.712C115.373 29.576 116.061 28.92 116.973 28.6C117.613 28.36 118.205 28.28 118.877 28.28H119.645C120.061 28.28 120.269 28.072 120.269 27.736C120.269 27.176 119.821 26.744 119.021 26.744C118.317 26.744 117.773 27.16 117.597 27.832L115.549 27.368C115.645 26.824 115.869 26.36 116.237 25.976C116.589 25.592 117.021 25.304 117.533 25.128C118.029 24.952 118.557 24.856 119.133 24.856C121.101 24.84 122.557 25.96 122.557 28.072V31.72C122.557 32.2 122.589 32.632 122.621 33H120.461C120.429 32.792 120.413 32.472 120.413 32.008H120.381C119.837 32.76 119.053 33.16 118.013 33.16ZM118.685 31.464C119.165 31.464 119.549 31.304 119.837 31C120.125 30.712 120.269 30.344 120.269 29.928V29.736H118.877C118.589 29.736 118.333 29.816 118.093 29.976C117.837 30.136 117.709 30.36 117.709 30.648C117.709 31.176 118.141 31.464 118.685 31.464ZM130.01 25.048V27.32C129.802 27.288 129.562 27.256 129.274 27.256C128.122 27.256 127.386 28.072 127.386 29.512V33H125.098V25.048H127.306V26.2H127.322C127.738 25.336 128.506 24.968 129.386 24.968C129.594 24.968 129.802 25 130.01 25.048ZM139.33 33H137.01V28.584C137.01 27.656 136.546 27.048 135.618 27.048C135.154 27.048 134.802 27.192 134.562 27.48C134.322 27.784 134.194 28.152 134.194 28.584V33H131.874V25.048H134.178V26.088H134.194C134.482 25.592 134.978 25.224 135.442 25.08C135.922 24.936 136.226 24.888 136.45 24.888C138.466 24.888 139.33 26.424 139.33 28.056V33Z" fill="white"/>
<path d="M24.212 52V43.252H25.136V52H24.212ZM32.6276 52H31.7516V48.532C31.7516 47.98 31.6196 47.548 31.3316 47.212C31.0556 46.888 30.6476 46.72 30.1076 46.72C29.5916 46.72 29.1596 46.9 28.8236 47.26C28.4996 47.62 28.3316 48.064 28.3316 48.604V52H27.4556V46.036H28.3076V47.128C28.7876 46.324 29.4716 45.928 30.3716 45.928C31.0796 45.928 31.6316 46.144 32.0396 46.576C32.4236 47.02 32.6276 47.596 32.6276 48.316V52ZM37.0147 52H36.0907L33.5587 46.036H34.5187L36.5587 51.04L38.6347 46.036H39.5587L37.0147 52ZM40.902 44.368C40.782 44.236 40.71 44.08 40.71 43.9C40.71 43.72 40.782 43.564 40.902 43.432C41.022 43.312 41.19 43.24 41.37 43.24C41.55 43.24 41.706 43.312 41.826 43.432C41.958 43.564 42.018 43.72 42.018 43.9C42.018 44.08 41.958 44.236 41.826 44.368C41.706 44.488 41.55 44.56 41.37 44.56C41.19 44.56 41.022 44.488 40.902 44.368ZM40.926 52V46.036H41.802V52H40.926ZM45.9817 52.048C44.6857 52.048 44.2897 51.328 44.2897 50.452V46.804H43.1857V46.036H44.2897V44.32H45.1537V46.036H46.6657V46.804H45.1537V50.44C45.1537 50.992 45.4777 51.28 46.1257 51.28C46.3297 51.28 46.5097 51.256 46.6657 51.232V51.952C46.4737 52.012 46.2457 52.048 45.9817 52.048ZM53.2543 49.288H48.4303C48.4663 49.876 48.6823 50.356 49.0903 50.74C49.4983 51.136 49.9903 51.328 50.5663 51.328C51.4663 51.328 52.1383 50.884 52.4143 50.056L53.1823 50.296C53.0143 50.86 52.6903 51.304 52.2103 51.628C51.7303 51.94 51.1903 52.108 50.5783 52.108C50.0143 52.108 49.4983 51.964 49.0303 51.688C48.5623 51.412 48.2023 51.04 47.9503 50.56C47.6863 50.092 47.5543 49.576 47.5543 49.012C47.5543 48.472 47.6743 47.968 47.9263 47.5C48.1663 47.02 48.5143 46.648 48.9703 46.36C49.4143 46.072 49.9183 45.928 50.4583 45.928C51.0463 45.928 51.5623 46.06 51.9943 46.336C52.4263 46.6 52.7503 46.972 52.9543 47.428C53.1703 47.884 53.2663 48.4 53.2663 49C53.2663 49.06 53.2663 49.156 53.2543 49.288ZM48.4423 48.544H52.3903C52.3303 47.992 52.1263 47.548 51.7903 47.2C51.4543 46.864 51.0103 46.696 50.4583 46.696C49.9423 46.696 49.5103 46.876 49.1263 47.236C48.7423 47.608 48.5143 48.04 48.4423 48.544ZM60.0727 48.556H61.7287V48.16C61.7287 47.2 61.2007 46.708 60.2047 46.708C59.7247 46.708 59.3167 46.864 59.0767 47.104C58.8367 47.344 58.6927 47.62 58.6447 47.92L57.8047 47.74C57.8167 47.44 58.1047 46.852 58.6447 46.42C59.0047 46.144 59.5807 45.928 60.2287 45.928C61.3207 45.928 62.0407 46.336 62.4007 47.164C62.5207 47.44 62.5807 47.764 62.5807 48.148V49.828C62.5807 50.824 62.6167 51.556 62.6767 52H61.8127C61.7647 51.736 61.7287 51.388 61.7287 50.956C61.2247 51.724 60.5647 52.108 59.7127 52.108C59.1247 52.108 58.6327 51.94 58.2727 51.604C57.9007 51.28 57.7087 50.86 57.7087 50.344V50.284C57.7087 48.988 59.0047 48.556 60.0727 48.556ZM61.7287 49.48V49.276H60.0607C59.7127 49.276 59.3887 49.336 59.0887 49.48C58.7887 49.612 58.5847 49.9 58.5847 50.272C58.5847 50.608 58.7047 50.86 58.9567 51.052C59.1967 51.244 59.4967 51.34 59.8687 51.34C60.3967 51.34 60.8407 51.16 61.2007 50.812C61.5487 50.476 61.7287 50.02 61.7287 49.48ZM70.1414 43.648C69.9014 43.648 69.6854 43.72 69.4814 43.888C69.2774 44.068 69.1454 44.428 69.1454 44.908V46.036H70.7054V46.792H69.1454V52H68.2814V46.792H67.1294V46.036H68.2814V44.932C68.2814 44.26 68.4494 43.756 68.7734 43.396C69.1094 43.048 69.5534 42.88 70.1054 42.88C70.3334 42.88 70.5494 42.916 70.7534 42.988V43.72C70.6094 43.672 70.3934 43.648 70.1414 43.648ZM72.0004 46.036H72.8524V47.212C73.1404 46.624 73.6204 46.228 74.0764 46.06C74.3044 45.976 74.5444 45.94 74.7844 45.94C74.9164 45.94 75.0124 45.94 75.0724 45.964V46.888C74.9764 46.864 74.8564 46.864 74.7364 46.864C73.3204 46.864 72.8764 48.028 72.8764 49.084V52H72.0004V46.036ZM76.3386 44.368C76.2186 44.236 76.1466 44.08 76.1466 43.9C76.1466 43.72 76.2186 43.564 76.3386 43.432C76.4586 43.312 76.6266 43.24 76.8066 43.24C76.9866 43.24 77.1426 43.312 77.2626 43.432C77.3946 43.564 77.4546 43.72 77.4546 43.9C77.4546 44.08 77.3946 44.236 77.2626 44.368C77.1426 44.488 76.9866 44.56 76.8066 44.56C76.6266 44.56 76.4586 44.488 76.3386 44.368ZM76.3626 52V46.036H77.2386V52H76.3626ZM84.5982 49.288H79.7742C79.8102 49.876 80.0262 50.356 80.4342 50.74C80.8422 51.136 81.3342 51.328 81.9102 51.328C82.8102 51.328 83.4822 50.884 83.7582 50.056L84.5262 50.296C84.3582 50.86 84.0342 51.304 83.5542 51.628C83.0742 51.94 82.5342 52.108 81.9222 52.108C81.3582 52.108 80.8422 51.964 80.3742 51.688C79.9062 51.412 79.5462 51.04 79.2942 50.56C79.0302 50.092 78.8982 49.576 78.8982 49.012C78.8982 48.472 79.0182 47.968 79.2702 47.5C79.5102 47.02 79.8582 46.648 80.3142 46.36C80.7582 46.072 81.2622 45.928 81.8022 45.928C82.3902 45.928 82.9062 46.06 83.3382 46.336C83.7702 46.6 84.0942 46.972 84.2982 47.428C84.5142 47.884 84.6102 48.4 84.6102 49C84.6102 49.06 84.6102 49.156 84.5982 49.288ZM79.7862 48.544H83.7342C83.6742 47.992 83.4702 47.548 83.1342 47.2C82.7982 46.864 82.3542 46.696 81.8022 46.696C81.2862 46.696 80.8542 46.876 80.4702 47.236C80.0862 47.608 79.8582 48.04 79.7862 48.544ZM91.4074 52H90.5314V48.532C90.5314 47.98 90.3994 47.548 90.1114 47.212C89.8354 46.888 89.4274 46.72 88.8874 46.72C88.3714 46.72 87.9394 46.9 87.6034 47.26C87.2794 47.62 87.1114 48.064 87.1114 48.604V52H86.2354V46.036H87.0874V47.128C87.5674 46.324 88.2514 45.928 89.1514 45.928C89.8594 45.928 90.4114 46.144 90.8194 46.576C91.2034 47.02 91.4074 47.596 91.4074 48.316V52ZM92.9898 49.012C92.9898 48.232 93.2778 47.464 93.7578 46.888C94.2378 46.3 94.9698 45.928 95.7858 45.928C96.3378 45.928 96.8298 46.084 97.2018 46.348C97.5738 46.612 97.8378 46.9 98.1018 47.284V42.904H98.9658V52H98.1138V50.728C97.5618 51.64 96.7818 52.084 95.7858 52.084C94.9578 52.084 94.2258 51.724 93.7458 51.16C93.2778 50.596 92.9898 49.828 92.9898 49.012ZM95.9658 51.328C97.1898 51.34 98.1378 50.2 98.1138 49C98.1138 48.22 97.7298 47.476 97.0698 47.032C96.7338 46.816 96.3618 46.708 95.9658 46.708C95.3298 46.708 94.8258 46.924 94.4538 47.368C94.0698 47.812 93.8778 48.364 93.8778 49.036C93.8778 49.864 94.2138 50.572 94.8498 51.004C95.1738 51.22 95.5458 51.328 95.9658 51.328ZM106.235 48.556H107.891V48.16C107.891 47.2 107.363 46.708 106.367 46.708C105.887 46.708 105.479 46.864 105.239 47.104C104.999 47.344 104.855 47.62 104.807 47.92L103.967 47.74C103.979 47.44 104.267 46.852 104.807 46.42C105.167 46.144 105.743 45.928 106.391 45.928C107.483 45.928 108.203 46.336 108.563 47.164C108.683 47.44 108.743 47.764 108.743 48.148V49.828C108.743 50.824 108.779 51.556 108.839 52H107.975C107.927 51.736 107.891 51.388 107.891 50.956C107.387 51.724 106.727 52.108 105.875 52.108C105.287 52.108 104.795 51.94 104.435 51.604C104.063 51.28 103.871 50.86 103.871 50.344V50.284C103.871 48.988 105.167 48.556 106.235 48.556ZM107.891 49.48V49.276H106.223C105.875 49.276 105.551 49.336 105.251 49.48C104.951 49.612 104.747 49.9 104.747 50.272C104.747 50.608 104.867 50.86 105.119 51.052C105.359 51.244 105.659 51.34 106.031 51.34C106.559 51.34 107.003 51.16 107.363 50.812C107.711 50.476 107.891 50.02 107.891 49.48ZM115.934 52H115.058V48.532C115.058 47.98 114.926 47.548 114.638 47.212C114.362 46.888 113.954 46.72 113.414 46.72C112.898 46.72 112.466 46.9 112.13 47.26C111.806 47.62 111.638 48.064 111.638 48.604V52H110.762V46.036H111.614V47.128C112.094 46.324 112.778 45.928 113.678 45.928C114.386 45.928 114.938 46.144 115.346 46.576C115.73 47.02 115.934 47.596 115.934 48.316V52ZM117.517 49.012C117.517 48.232 117.805 47.464 118.285 46.888C118.765 46.3 119.497 45.928 120.313 45.928C120.865 45.928 121.357 46.084 121.729 46.348C122.101 46.612 122.365 46.9 122.629 47.284V42.904H123.493V52H122.641V50.728C122.089 51.64 121.309 52.084 120.313 52.084C119.485 52.084 118.753 51.724 118.273 51.16C117.805 50.596 117.517 49.828 117.517 49.012ZM120.493 51.328C121.717 51.34 122.665 50.2 122.641 49C122.641 48.22 122.257 47.476 121.597 47.032C121.261 46.816 120.889 46.708 120.493 46.708C119.857 46.708 119.353 46.924 118.981 47.368C118.597 47.812 118.405 48.364 118.405 49.036C118.405 49.864 118.741 50.572 119.377 51.004C119.701 51.22 120.073 51.328 120.493 51.328ZM134.086 49.288H129.262C129.298 49.876 129.514 50.356 129.922 50.74C130.33 51.136 130.822 51.328 131.398 51.328C132.298 51.328 132.97 50.884 133.246 50.056L134.014 50.296C133.846 50.86 133.522 51.304 133.042 51.628C132.562 51.94 132.022 52.108 131.41 52.108C130.846 52.108 130.33 51.964 129.862 51.688C129.394 51.412 129.034 51.04 128.782 50.56C128.518 50.092 128.386 49.576 128.386 49.012C128.386 48.472 128.506 47.968 128.758 47.5C128.998 47.02 129.346 46.648 129.802 46.36C130.246 46.072 130.75 45.928 131.29 45.928C131.878 45.928 132.394 46.06 132.826 46.336C133.258 46.6 133.582 46.972 133.786 47.428C134.002 47.884 134.098 48.4 134.098 49C134.098 49.06 134.098 49.156 134.086 49.288ZM129.274 48.544H133.222C133.162 47.992 132.958 47.548 132.622 47.2C132.286 46.864 131.842 46.696 131.29 46.696C130.774 46.696 130.342 46.876 129.958 47.236C129.574 47.608 129.346 48.04 129.274 48.544ZM137.667 48.556H139.323V48.16C139.323 47.2 138.795 46.708 137.799 46.708C137.319 46.708 136.911 46.864 136.671 47.104C136.431 47.344 136.287 47.62 136.239 47.92L135.399 47.74C135.411 47.44 135.699 46.852 136.239 46.42C136.599 46.144 137.175 45.928 137.823 45.928C138.915 45.928 139.635 46.336 139.995 47.164C140.115 47.44 140.175 47.764 140.175 48.148V49.828C140.175 50.824 140.211 51.556 140.271 52H139.407C139.359 51.736 139.323 51.388 139.323 50.956C138.819 51.724 138.159 52.108 137.307 52.108C136.719 52.108 136.227 51.94 135.867 51.604C135.495 51.28 135.303 50.86 135.303 50.344V50.284C135.303 48.988 136.599 48.556 137.667 48.556ZM139.323 49.48V49.276H137.655C137.307 49.276 136.983 49.336 136.683 49.48C136.383 49.612 136.179 49.9 136.179 50.272C136.179 50.608 136.299 50.86 136.551 51.052C136.791 51.244 137.091 51.34 137.463 51.34C137.991 51.34 138.435 51.16 138.795 50.812C139.143 50.476 139.323 50.02 139.323 49.48ZM142.194 46.036H143.046V47.212C143.334 46.624 143.814 46.228 144.27 46.06C144.498 45.976 144.738 45.94 144.978 45.94C145.11 45.94 145.206 45.94 145.266 45.964V46.888C145.17 46.864 145.05 46.864 144.93 46.864C143.514 46.864 143.07 48.028 143.07 49.084V52H142.194V46.036ZM151.729 52H150.853V48.532C150.853 47.98 150.721 47.548 150.433 47.212C150.157 46.888 149.749 46.72 149.209 46.72C148.693 46.72 148.261 46.9 147.925 47.26C147.601 47.62 147.433 48.064 147.433 48.604V52H146.557V46.036H147.409V47.128C147.889 46.324 148.573 45.928 149.473 45.928C150.181 45.928 150.733 46.144 151.141 46.576C151.525 47.02 151.729 47.596 151.729 48.316V52ZM162.176 44.116H158.48L157.808 47.02C158.048 46.792 158.336 46.636 158.696 46.54C159.044 46.444 159.356 46.396 159.632 46.396C160.472 46.396 161.156 46.648 161.696 47.164C162.236 47.68 162.5 48.364 162.5 49.216C162.5 50.14 162.116 50.908 161.54 51.364C160.952 51.82 160.208 52.084 159.44 52.084C158.48 52.084 157.568 51.7 156.98 50.956C156.692 50.584 156.512 50.164 156.452 49.696L157.34 49.492C157.424 50.008 157.652 50.428 158.048 50.74C158.444 51.076 158.912 51.232 159.476 51.232C160.34 51.232 161.588 50.68 161.588 49.24C161.588 48.544 161.336 47.992 160.916 47.68C160.508 47.368 160.016 47.2 159.476 47.2C159.14 47.2 158.816 47.284 158.468 47.44C158.132 47.608 157.856 47.824 157.628 48.1L156.776 47.764L157.808 43.252H162.176V44.116ZM164.082 53.632V53.176C164.322 53.128 164.526 52.996 164.706 52.768C164.886 52.528 164.97 52.288 164.982 52.012C164.898 52.06 164.802 52.084 164.694 52.084C164.274 52.084 163.986 51.76 163.986 51.34C163.986 51.136 164.058 50.968 164.214 50.824C164.37 50.68 164.55 50.608 164.766 50.608C165.03 50.608 165.246 50.716 165.39 50.92C165.546 51.112 165.618 51.364 165.618 51.64C165.618 52.144 165.486 52.588 165.21 52.96C164.946 53.344 164.562 53.56 164.082 53.632ZM170 52.096C169.064 52.096 168.248 51.724 167.684 51.16C167.408 50.86 167.168 50.536 166.964 50.152C166.568 49.396 166.376 48.532 166.376 47.656C166.364 46.36 166.844 44.992 167.708 44.116C168.272 43.54 169.1 43.168 170.036 43.168C170.972 43.168 171.788 43.528 172.352 44.104C172.628 44.392 172.868 44.728 173.072 45.1C173.468 45.868 173.648 46.732 173.648 47.608C173.672 48.916 173.192 50.272 172.328 51.136C171.764 51.724 170.936 52.096 170 52.096ZM171.008 44.236C170.708 44.08 170.372 44.008 170.012 44.008C169.64 44.008 169.316 44.08 169.016 44.236C168.704 44.38 168.452 44.572 168.248 44.824C167.84 45.304 167.54 45.976 167.42 46.636C167.228 47.596 167.3 48.604 167.732 49.564C168.008 50.2 168.404 50.716 169.016 51.016C169.328 51.172 169.652 51.244 170.024 51.244C170.384 51.244 170.72 51.172 171.02 51.028C171.32 50.872 171.584 50.68 171.788 50.44C172.196 49.948 172.484 49.288 172.616 48.64C172.808 47.668 172.736 46.66 172.304 45.7C172.016 45.052 171.62 44.548 171.008 44.236ZM178.698 52.096C177.762 52.096 176.946 51.724 176.382 51.16C176.106 50.86 175.866 50.536 175.662 50.152C175.266 49.396 175.074 48.532 175.074 47.656C175.062 46.36 175.542 44.992 176.406 44.116C176.97 43.54 177.798 43.168 178.734 43.168C179.67 43.168 180.486 43.528 181.05 44.104C181.326 44.392 181.566 44.728 181.77 45.1C182.166 45.868 182.346 46.732 182.346 47.608C182.37 48.916 181.89 50.272 181.026 51.136C180.462 51.724 179.634 52.096 178.698 52.096ZM179.706 44.236C179.406 44.08 179.07 44.008 178.71 44.008C178.338 44.008 178.014 44.08 177.714 44.236C177.402 44.38 177.15 44.572 176.946 44.824C176.538 45.304 176.238 45.976 176.118 46.636C175.926 47.596 175.998 48.604 176.43 49.564C176.706 50.2 177.102 50.716 177.714 51.016C178.026 51.172 178.35 51.244 178.722 51.244C179.082 51.244 179.418 51.172 179.718 51.028C180.018 50.872 180.282 50.68 180.486 50.44C180.894 49.948 181.182 49.288 181.314 48.64C181.506 47.668 181.434 46.66 181.002 45.7C180.714 45.052 180.318 44.548 179.706 44.236ZM187.397 52.096C186.461 52.096 185.645 51.724 185.081 51.16C184.805 50.86 184.565 50.536 184.361 50.152C183.965 49.396 183.773 48.532 183.773 47.656C183.761 46.36 184.241 44.992 185.105 44.116C185.669 43.54 186.497 43.168 187.433 43.168C188.369 43.168 189.185 43.528 189.749 44.104C190.025 44.392 190.265 44.728 190.469 45.1C190.865 45.868 191.045 46.732 191.045 47.608C191.069 48.916 190.589 50.272 189.725 51.136C189.161 51.724 188.333 52.096 187.397 52.096ZM188.405 44.236C188.105 44.08 187.769 44.008 187.409 44.008C187.037 44.008 186.713 44.08 186.413 44.236C186.101 44.38 185.849 44.572 185.645 44.824C185.237 45.304 184.937 45.976 184.817 46.636C184.625 47.596 184.697 48.604 185.129 49.564C185.405 50.2 185.801 50.716 186.413 51.016C186.725 51.172 187.049 51.244 187.421 51.244C187.781 51.244 188.117 51.172 188.417 51.028C188.717 50.872 188.981 50.68 189.185 50.44C189.593 49.948 189.881 49.288 190.013 48.64C190.205 47.668 190.133 46.66 189.701 45.7C189.413 45.052 189.017 44.548 188.405 44.236ZM199.263 43.252H200.163V52H199.167L193.947 44.56V52H193.035V43.252H194.103L199.263 50.608V43.252ZM210.373 45.76L209.497 46.072C209.389 45.76 209.245 45.436 208.897 45.04C208.729 44.86 208.537 44.68 208.321 44.536C207.889 44.236 207.217 44.02 206.485 44.02C205.825 44.02 205.237 44.176 204.709 44.512C204.181 44.848 203.773 45.28 203.485 45.832C203.197 46.372 203.053 46.96 203.053 47.608C203.053 48.592 203.389 49.504 203.965 50.164C204.553 50.824 205.465 51.232 206.497 51.232C207.277 51.232 208.021 50.98 208.585 50.548C209.149 50.116 209.533 49.42 209.581 48.616H205.933V47.764H210.565V48.1C210.565 49.204 210.169 50.2 209.485 50.92C208.789 51.64 207.721 52.084 206.485 52.084C205.177 52.084 204.037 51.604 203.293 50.812C202.549 50.02 202.105 48.892 202.105 47.656C202.105 46.828 202.297 46.06 202.681 45.376C203.065 44.692 203.593 44.152 204.265 43.756C204.937 43.36 205.693 43.168 206.509 43.168C207.541 43.168 208.453 43.456 209.077 43.96C209.713 44.452 210.133 45.052 210.373 45.76ZM218.639 43.252H219.539V52H218.543L213.323 44.56V52H212.411V43.252H213.479L218.639 50.608V43.252ZM227.731 52.108C227.179 52.108 226.651 51.964 226.183 51.7C225.715 51.424 225.343 51.052 225.079 50.584C224.803 50.116 224.671 49.6 224.671 49.036C224.671 48.16 224.959 47.416 225.559 46.828C226.147 46.228 226.879 45.928 227.755 45.928C229.447 45.892 230.863 47.32 230.839 49C230.863 50.728 229.447 52.144 227.731 52.108ZM227.755 51.328C228.379 51.328 228.907 51.1 229.327 50.656C229.735 50.212 229.939 49.672 229.939 49.036C229.939 48.4 229.735 47.848 229.315 47.38C228.895 46.924 228.379 46.696 227.731 46.696C227.107 46.696 226.579 46.924 226.171 47.368C225.763 47.812 225.559 48.352 225.559 49C225.535 50.236 226.483 51.352 227.755 51.328ZM237.661 52H236.785V48.532C236.785 47.98 236.653 47.548 236.365 47.212C236.089 46.888 235.681 46.72 235.141 46.72C234.625 46.72 234.193 46.9 233.857 47.26C233.533 47.62 233.365 48.064 233.365 48.604V52H232.489V46.036H233.341V47.128C233.821 46.324 234.505 45.928 235.405 45.928C236.113 45.928 236.665 46.144 237.073 46.576C237.457 47.02 237.661 47.596 237.661 48.316V52ZM240.131 48.988C240.131 49.828 240.479 50.56 241.139 50.992C241.475 51.22 241.859 51.328 242.291 51.328C242.795 51.328 243.239 51.16 243.515 50.956C243.647 50.86 243.767 50.74 243.887 50.596C244.103 50.308 244.199 50.116 244.283 49.9L245.087 50.164C244.955 50.632 244.631 51.088 244.175 51.46C243.719 51.844 243.023 52.108 242.279 52.108C240.575 52.132 239.219 50.8 239.243 49.036C239.243 48.448 239.387 47.92 239.663 47.44C239.939 46.96 240.311 46.588 240.779 46.324C241.247 46.06 241.751 45.928 242.315 45.928C242.987 45.928 243.587 46.12 244.091 46.48C244.607 46.864 244.931 47.308 245.051 47.836L244.259 48.1C244.127 47.62 243.515 46.708 242.291 46.708C241.667 46.708 241.151 46.924 240.743 47.368C240.335 47.812 240.131 48.352 240.131 48.988ZM251.93 49.288H247.106C247.142 49.876 247.358 50.356 247.766 50.74C248.174 51.136 248.666 51.328 249.242 51.328C250.142 51.328 250.814 50.884 251.09 50.056L251.858 50.296C251.69 50.86 251.366 51.304 250.886 51.628C250.406 51.94 249.866 52.108 249.254 52.108C248.69 52.108 248.174 51.964 247.706 51.688C247.238 51.412 246.878 51.04 246.626 50.56C246.362 50.092 246.23 49.576 246.23 49.012C246.23 48.472 246.35 47.968 246.602 47.5C246.842 47.02 247.19 46.648 247.646 46.36C248.09 46.072 248.594 45.928 249.134 45.928C249.722 45.928 250.238 46.06 250.67 46.336C251.102 46.6 251.426 46.972 251.63 47.428C251.846 47.884 251.942 48.4 251.942 49C251.942 49.06 251.942 49.156 251.93 49.288ZM247.118 48.544H251.066C251.006 47.992 250.802 47.548 250.466 47.2C250.13 46.864 249.686 46.696 249.134 46.696C248.618 46.696 248.186 46.876 247.802 47.236C247.418 47.608 247.19 48.04 247.118 48.544ZM26.072 72.048C24.776 72.048 24.38 71.328 24.38 70.452V66.804H23.276V66.036H24.38V64.32H25.244V66.036H26.756V66.804H25.244V70.44C25.244 70.992 25.568 71.28 26.216 71.28C26.42 71.28 26.6 71.256 26.756 71.232V71.952C26.564 72.012 26.336 72.048 26.072 72.048ZM33.5182 72H32.6422V68.532C32.6422 67.98 32.5102 67.548 32.2222 67.212C31.9462 66.888 31.5382 66.72 30.9982 66.72C30.4822 66.72 30.0502 66.9 29.7142 67.26C29.3902 67.62 29.2222 68.064 29.2222 68.604V72H28.3462V62.904H29.2222V67.104C29.6902 66.312 30.3742 65.928 31.2622 65.928C31.9702 65.928 32.5222 66.144 32.9302 66.576C33.3142 67.02 33.5182 67.596 33.5182 68.316V72ZM40.8006 69.288H35.9766C36.0126 69.876 36.2286 70.356 36.6366 70.74C37.0446 71.136 37.5366 71.328 38.1126 71.328C39.0126 71.328 39.6846 70.884 39.9606 70.056L40.7286 70.296C40.5606 70.86 40.2366 71.304 39.7566 71.628C39.2766 71.94 38.7366 72.108 38.1246 72.108C37.5606 72.108 37.0446 71.964 36.5766 71.688C36.1086 71.412 35.7486 71.04 35.4966 70.56C35.2326 70.092 35.1006 69.576 35.1006 69.012C35.1006 68.472 35.2206 67.968 35.4726 67.5C35.7126 67.02 36.0606 66.648 36.5166 66.36C36.9606 66.072 37.4646 65.928 38.0046 65.928C38.5926 65.928 39.1086 66.06 39.5406 66.336C39.9726 66.6 40.2966 66.972 40.5006 67.428C40.7166 67.884 40.8126 68.4 40.8126 69C40.8126 69.06 40.8126 69.156 40.8006 69.288ZM35.9886 68.544H39.9366C39.8766 67.992 39.6726 67.548 39.3366 67.2C39.0006 66.864 38.5566 66.696 38.0046 66.696C37.4886 66.696 37.0566 66.876 36.6726 67.236C36.2886 67.608 36.0606 68.04 35.9886 68.544ZM43.2901 74.94H42.3421L43.8901 71.592L41.1781 66.036H42.1741L44.3581 70.644L46.4341 66.036H47.3701L43.2901 74.94ZM57.3842 69.012C57.3842 70.092 56.9162 71.064 56.0522 71.652C55.6202 71.94 55.1282 72.084 54.5762 72.084C53.6042 72.084 52.8362 71.652 52.2842 70.776V74.94H51.4082V66.036H52.2602V67.332C52.8722 66.396 53.6402 65.928 54.5762 65.928C55.4042 65.928 56.1482 66.3 56.6282 66.888C57.0962 67.464 57.3842 68.232 57.3842 69.012ZM54.4082 71.328C55.0442 71.328 55.5482 71.1 55.9322 70.668C56.3042 70.224 56.4962 69.684 56.4962 69.036C56.4962 68.196 56.1722 67.464 55.5242 67.032C55.2122 66.816 54.8282 66.708 54.4082 66.708C53.1962 66.684 52.2362 67.812 52.2722 69C52.2722 69.624 52.4642 70.176 52.8722 70.632C53.2802 71.1 53.7842 71.328 54.4082 71.328ZM64.3079 69.288H59.4839C59.5199 69.876 59.7359 70.356 60.1439 70.74C60.5519 71.136 61.0439 71.328 61.6199 71.328C62.5199 71.328 63.1919 70.884 63.4679 70.056L64.2359 70.296C64.0679 70.86 63.7439 71.304 63.2639 71.628C62.7839 71.94 62.2439 72.108 61.6319 72.108C61.0679 72.108 60.5519 71.964 60.0839 71.688C59.6159 71.412 59.2559 71.04 59.0039 70.56C58.7399 70.092 58.6079 69.576 58.6079 69.012C58.6079 68.472 58.7279 67.968 58.9799 67.5C59.2199 67.02 59.5679 66.648 60.0239 66.36C60.4679 66.072 60.9719 65.928 61.5119 65.928C62.0999 65.928 62.6159 66.06 63.0479 66.336C63.4799 66.6 63.8039 66.972 64.0079 67.428C64.2239 67.884 64.3199 68.4 64.3199 69C64.3199 69.06 64.3199 69.156 64.3079 69.288ZM59.4959 68.544H63.4439C63.3839 67.992 63.1799 67.548 62.8439 67.2C62.5079 66.864 62.0639 66.696 61.5119 66.696C60.9959 66.696 60.5639 66.876 60.1799 67.236C59.7959 67.608 59.5679 68.04 59.4959 68.544ZM65.9451 66.036H66.7971V67.212C67.0851 66.624 67.5651 66.228 68.0211 66.06C68.2491 65.976 68.4891 65.94 68.7291 65.94C68.8611 65.94 68.9571 65.94 69.0171 65.964V66.888C68.9211 66.864 68.8011 66.864 68.6811 66.864C67.2651 66.864 66.8211 68.028 66.8211 69.084V72H65.9451V66.036ZM72.6113 63.648C72.3713 63.648 72.1553 63.72 71.9513 63.888C71.7473 64.068 71.6153 64.428 71.6153 64.908V66.036H73.1753V66.792H71.6153V72H70.7513V66.792H69.5993V66.036H70.7513V64.932C70.7513 64.26 70.9193 63.756 71.2433 63.396C71.5793 63.048 72.0233 62.88 72.5753 62.88C72.8033 62.88 73.0193 62.916 73.2233 62.988V63.72C73.0793 63.672 72.8633 63.648 72.6113 63.648ZM76.7584 72.108C76.2064 72.108 75.6784 71.964 75.2104 71.7C74.7424 71.424 74.3704 71.052 74.1064 70.584C73.8304 70.116 73.6984 69.6 73.6984 69.036C73.6984 68.16 73.9864 67.416 74.5864 66.828C75.1744 66.228 75.9064 65.928 76.7824 65.928C78.4744 65.892 79.8904 67.32 79.8664 69C79.8904 70.728 78.4744 72.144 76.7584 72.108ZM76.7824 71.328C77.4064 71.328 77.9344 71.1 78.3544 70.656C78.7624 70.212 78.9664 69.672 78.9664 69.036C78.9664 68.4 78.7624 67.848 78.3424 67.38C77.9224 66.924 77.4064 66.696 76.7584 66.696C76.1344 66.696 75.6064 66.924 75.1984 67.368C74.7904 67.812 74.5864 68.352 74.5864 69C74.5624 70.236 75.5104 71.352 76.7824 71.328ZM81.516 66.036H82.368V67.212C82.656 66.624 83.136 66.228 83.592 66.06C83.82 65.976 84.06 65.94 84.3 65.94C84.432 65.94 84.528 65.94 84.588 65.964V66.888C84.492 66.864 84.372 66.864 84.252 66.864C82.836 66.864 82.392 68.028 82.392 69.084V72H81.516V66.036ZM90.7982 72H89.9462V68.496C89.9462 67.98 89.8142 67.548 89.5622 67.212C89.2982 66.888 88.9142 66.72 88.4102 66.72C87.9062 66.72 87.4982 66.9 87.1982 67.272C86.8982 67.644 86.7542 68.088 86.7542 68.604V72H85.8782V66.036H86.7302V67.068C87.2462 66.3 87.8102 65.928 88.6622 65.928C89.5262 65.928 90.2102 66.348 90.5702 67.128C91.0742 66.324 91.7822 65.928 92.6702 65.928C93.3662 65.928 93.9062 66.144 94.3022 66.588C94.6742 67.02 94.8662 67.596 94.8662 68.316V72H94.0022V68.532C94.0022 67.992 93.8822 67.56 93.6182 67.224C93.3662 66.9 92.9822 66.72 92.4542 66.72C91.9502 66.72 91.5542 66.9 91.2542 67.26C90.9542 67.608 90.7982 68.052 90.7982 68.568V72ZM102.21 72.048C100.914 72.048 100.518 71.328 100.518 70.452V66.804H99.4141V66.036H100.518V64.32H101.382V66.036H102.894V66.804H101.382V70.44C101.382 70.992 101.706 71.28 102.354 71.28C102.558 71.28 102.738 71.256 102.894 71.232V71.952C102.702 72.012 102.474 72.048 102.21 72.048ZM109.656 72H108.78V68.532C108.78 67.98 108.648 67.548 108.36 67.212C108.084 66.888 107.676 66.72 107.136 66.72C106.62 66.72 106.188 66.9 105.852 67.26C105.528 67.62 105.36 68.064 105.36 68.604V72H104.484V62.904H105.36V67.104C105.828 66.312 106.512 65.928 107.4 65.928C108.108 65.928 108.66 66.144 109.068 66.576C109.452 67.02 109.656 67.596 109.656 68.316V72ZM116.939 69.288H112.115C112.151 69.876 112.367 70.356 112.775 70.74C113.183 71.136 113.675 71.328 114.251 71.328C115.151 71.328 115.823 70.884 116.099 70.056L116.867 70.296C116.699 70.86 116.375 71.304 115.895 71.628C115.415 71.94 114.875 72.108 114.263 72.108C113.699 72.108 113.183 71.964 112.715 71.688C112.247 71.412 111.887 71.04 111.635 70.56C111.371 70.092 111.239 69.576 111.239 69.012C111.239 68.472 111.359 67.968 111.611 67.5C111.851 67.02 112.199 66.648 112.655 66.36C113.099 66.072 113.603 65.928 114.143 65.928C114.731 65.928 115.247 66.06 115.679 66.336C116.111 66.6 116.435 66.972 116.639 67.428C116.855 67.884 116.951 68.4 116.951 69C116.951 69.06 116.951 69.156 116.939 69.288ZM112.127 68.544H116.075C116.015 67.992 115.811 67.548 115.475 67.2C115.139 66.864 114.695 66.696 114.143 66.696C113.627 66.696 113.195 66.876 112.811 67.236C112.427 67.608 112.199 68.04 112.127 68.544ZM118.552 64.368C118.432 64.236 118.36 64.08 118.36 63.9C118.36 63.72 118.432 63.564 118.552 63.432C118.672 63.312 118.84 63.24 119.02 63.24C119.2 63.24 119.356 63.312 119.476 63.432C119.608 63.564 119.668 63.72 119.668 63.9C119.668 64.08 119.608 64.236 119.476 64.368C119.356 64.488 119.2 64.56 119.02 64.56C118.84 64.56 118.672 64.488 118.552 64.368ZM118.576 72V66.036H119.452V72H118.576ZM121.544 66.036H122.396V67.212C122.684 66.624 123.164 66.228 123.62 66.06C123.848 65.976 124.088 65.94 124.328 65.94C124.46 65.94 124.556 65.94 124.616 65.964V66.888C124.52 66.864 124.4 66.864 124.28 66.864C122.864 66.864 122.42 68.028 122.42 69.084V72H121.544V66.036ZM128.849 66.792H127.697V66.036H128.849V64.932C128.849 64.26 129.017 63.756 129.341 63.396C129.677 63.048 130.121 62.88 130.673 62.88C130.901 62.88 131.117 62.916 131.321 62.988V63.72C131.177 63.672 130.961 63.648 130.709 63.648C130.469 63.648 130.253 63.72 130.049 63.888C129.845 64.068 129.713 64.428 129.713 64.908V66.036H133.337V72H132.461V66.792H129.713V72H128.849V66.792ZM132.437 64.368C132.305 64.236 132.245 64.08 132.245 63.9C132.245 63.72 132.305 63.564 132.437 63.432C132.557 63.312 132.713 63.24 132.893 63.24C133.073 63.24 133.241 63.312 133.361 63.432C133.481 63.564 133.553 63.72 133.553 63.9C133.553 64.08 133.481 64.236 133.361 64.368C133.241 64.488 133.073 64.56 132.893 64.56C132.713 64.56 132.557 64.488 132.437 64.368ZM135.427 66.036H136.279V67.212C136.567 66.624 137.047 66.228 137.503 66.06C137.731 65.976 137.971 65.94 138.211 65.94C138.343 65.94 138.439 65.94 138.499 65.964V66.888C138.403 66.864 138.283 66.864 138.163 66.864C136.747 66.864 136.303 68.028 136.303 69.084V72H135.427V66.036ZM143.573 70.308C143.573 70.836 143.369 71.268 142.961 71.592C142.553 71.928 142.049 72.096 141.461 72.096C140.501 72.096 139.877 71.7 139.553 71.232C139.313 70.908 139.229 70.62 139.193 70.32L139.985 70.116C140.081 70.668 140.501 71.34 141.449 71.34C141.785 71.34 142.073 71.244 142.325 71.064C142.565 70.896 142.685 70.656 142.685 70.356C142.685 70.116 142.589 69.924 142.397 69.78C142.205 69.624 141.977 69.528 141.713 69.468L140.801 69.264C139.817 69.048 139.313 68.52 139.313 67.704C139.313 67.092 139.625 66.588 140.057 66.324C140.477 66.06 140.933 65.928 141.341 65.928C142.241 65.94 142.817 66.288 143.129 66.72C143.345 67.02 143.441 67.272 143.489 67.524L142.697 67.752C142.637 67.512 142.541 67.32 142.349 67.08C142.145 66.84 141.785 66.696 141.341 66.696C141.017 66.696 140.753 66.78 140.525 66.972C140.297 67.152 140.189 67.38 140.189 67.644C140.189 68.112 140.525 68.328 141.053 68.46L142.013 68.676C142.793 68.856 143.573 69.348 143.573 70.308ZM147.165 72.048C145.869 72.048 145.473 71.328 145.473 70.452V66.804H144.369V66.036H145.473V64.32H146.337V66.036H147.849V66.804H146.337V70.44C146.337 70.992 146.661 71.28 147.309 71.28C147.513 71.28 147.693 71.256 147.849 71.232V71.952C147.657 72.012 147.429 72.048 147.165 72.048ZM154.765 72.048C153.469 72.048 153.073 71.328 153.073 70.452V66.804H151.969V66.036H153.073V64.32H153.937V66.036H155.449V66.804H153.937V70.44C153.937 70.992 154.261 71.28 154.909 71.28C155.113 71.28 155.293 71.256 155.449 71.232V71.952C155.257 72.012 155.029 72.048 154.765 72.048ZM157.039 66.036H157.891V67.212C158.179 66.624 158.659 66.228 159.115 66.06C159.343 65.976 159.583 65.94 159.823 65.94C159.955 65.94 160.051 65.94 160.111 65.964V66.888C160.015 66.864 159.895 66.864 159.775 66.864C158.359 66.864 157.915 68.028 157.915 69.084V72H157.039V66.036ZM163.028 68.556H164.684V68.16C164.684 67.2 164.156 66.708 163.16 66.708C162.68 66.708 162.272 66.864 162.032 67.104C161.792 67.344 161.648 67.62 161.6 67.92L160.76 67.74C160.772 67.44 161.06 66.852 161.6 66.42C161.96 66.144 162.536 65.928 163.184 65.928C164.276 65.928 164.996 66.336 165.356 67.164C165.476 67.44 165.536 67.764 165.536 68.148V69.828C165.536 70.824 165.572 71.556 165.632 72H164.768C164.72 71.736 164.684 71.388 164.684 70.956C164.18 71.724 163.52 72.108 162.668 72.108C162.08 72.108 161.588 71.94 161.228 71.604C160.856 71.28 160.664 70.86 160.664 70.344V70.284C160.664 68.988 161.96 68.556 163.028 68.556ZM164.684 69.48V69.276H163.016C162.668 69.276 162.344 69.336 162.044 69.48C161.744 69.612 161.54 69.9 161.54 70.272C161.54 70.608 161.66 70.86 161.912 71.052C162.152 71.244 162.452 71.34 162.824 71.34C163.352 71.34 163.796 71.16 164.156 70.812C164.504 70.476 164.684 70.02 164.684 69.48ZM172.728 72H171.852V68.532C171.852 67.98 171.72 67.548 171.432 67.212C171.156 66.888 170.748 66.72 170.208 66.72C169.692 66.72 169.26 66.9 168.924 67.26C168.6 67.62 168.432 68.064 168.432 68.604V72H167.556V66.036H168.408V67.128C168.888 66.324 169.572 65.928 170.472 65.928C171.18 65.928 171.732 66.144 172.14 66.576C172.524 67.02 172.728 67.596 172.728 68.316V72ZM178.678 70.308C178.678 70.836 178.474 71.268 178.066 71.592C177.658 71.928 177.154 72.096 176.566 72.096C175.606 72.096 174.982 71.7 174.658 71.232C174.418 70.908 174.334 70.62 174.298 70.32L175.09 70.116C175.186 70.668 175.606 71.34 176.554 71.34C176.89 71.34 177.178 71.244 177.43 71.064C177.67 70.896 177.79 70.656 177.79 70.356C177.79 70.116 177.694 69.924 177.502 69.78C177.31 69.624 177.082 69.528 176.818 69.468L175.906 69.264C174.922 69.048 174.418 68.52 174.418 67.704C174.418 67.092 174.73 66.588 175.162 66.324C175.582 66.06 176.038 65.928 176.446 65.928C177.346 65.94 177.922 66.288 178.234 66.72C178.45 67.02 178.546 67.272 178.594 67.524L177.802 67.752C177.742 67.512 177.646 67.32 177.454 67.08C177.25 66.84 176.89 66.696 176.446 66.696C176.122 66.696 175.858 66.78 175.63 66.972C175.402 67.152 175.294 67.38 175.294 67.644C175.294 68.112 175.63 68.328 176.158 68.46L177.118 68.676C177.898 68.856 178.678 69.348 178.678 70.308ZM182.291 68.556H183.947V68.16C183.947 67.2 183.419 66.708 182.423 66.708C181.943 66.708 181.535 66.864 181.295 67.104C181.055 67.344 180.911 67.62 180.863 67.92L180.023 67.74C180.035 67.44 180.323 66.852 180.863 66.42C181.223 66.144 181.799 65.928 182.447 65.928C183.539 65.928 184.259 66.336 184.619 67.164C184.739 67.44 184.799 67.764 184.799 68.148V69.828C184.799 70.824 184.835 71.556 184.895 72H184.031C183.983 71.736 183.947 71.388 183.947 70.956C183.443 71.724 182.783 72.108 181.931 72.108C181.343 72.108 180.851 71.94 180.491 71.604C180.119 71.28 179.927 70.86 179.927 70.344V70.284C179.927 68.988 181.223 68.556 182.291 68.556ZM183.947 69.48V69.276H182.279C181.931 69.276 181.607 69.336 181.307 69.48C181.007 69.612 180.803 69.9 180.803 70.272C180.803 70.608 180.923 70.86 181.175 71.052C181.415 71.244 181.715 71.34 182.087 71.34C182.615 71.34 183.059 71.16 183.419 70.812C183.767 70.476 183.947 70.02 183.947 69.48ZM187.274 68.988C187.274 69.828 187.622 70.56 188.282 70.992C188.618 71.22 189.002 71.328 189.434 71.328C189.938 71.328 190.382 71.16 190.658 70.956C190.79 70.86 190.91 70.74 191.03 70.596C191.246 70.308 191.342 70.116 191.426 69.9L192.23 70.164C192.098 70.632 191.774 71.088 191.318 71.46C190.862 71.844 190.166 72.108 189.422 72.108C187.718 72.132 186.362 70.8 186.386 69.036C186.386 68.448 186.53 67.92 186.806 67.44C187.082 66.96 187.454 66.588 187.922 66.324C188.39 66.06 188.894 65.928 189.458 65.928C190.13 65.928 190.73 66.12 191.234 66.48C191.75 66.864 192.074 67.308 192.194 67.836L191.402 68.1C191.27 67.62 190.658 66.708 189.434 66.708C188.81 66.708 188.294 66.924 187.886 67.368C187.478 67.812 187.274 68.352 187.274 68.988ZM195.753 72.048C194.457 72.048 194.061 71.328 194.061 70.452V66.804H192.957V66.036H194.061V64.32H194.925V66.036H196.437V66.804H194.925V70.44C194.925 70.992 195.249 71.28 195.897 71.28C196.101 71.28 196.281 71.256 196.437 71.232V71.952C196.245 72.012 196.017 72.048 195.753 72.048ZM198.003 64.368C197.883 64.236 197.811 64.08 197.811 63.9C197.811 63.72 197.883 63.564 198.003 63.432C198.123 63.312 198.291 63.24 198.471 63.24C198.651 63.24 198.807 63.312 198.927 63.432C199.059 63.564 199.119 63.72 199.119 63.9C199.119 64.08 199.059 64.236 198.927 64.368C198.807 64.488 198.651 64.56 198.471 64.56C198.291 64.56 198.123 64.488 198.003 64.368ZM198.027 72V66.036H198.903V72H198.027ZM203.623 72.108C203.071 72.108 202.543 71.964 202.075 71.7C201.607 71.424 201.235 71.052 200.971 70.584C200.695 70.116 200.563 69.6 200.563 69.036C200.563 68.16 200.851 67.416 201.451 66.828C202.039 66.228 202.771 65.928 203.647 65.928C205.339 65.892 206.755 67.32 206.731 69C206.755 70.728 205.339 72.144 203.623 72.108ZM203.647 71.328C204.271 71.328 204.799 71.1 205.219 70.656C205.627 70.212 205.831 69.672 205.831 69.036C205.831 68.4 205.627 67.848 205.207 67.38C204.787 66.924 204.271 66.696 203.623 66.696C202.999 66.696 202.471 66.924 202.063 67.368C201.655 67.812 201.451 68.352 201.451 69C201.427 70.236 202.375 71.352 203.647 71.328ZM213.552 72H212.676V68.532C212.676 67.98 212.544 67.548 212.256 67.212C211.98 66.888 211.572 66.72 211.032 66.72C210.516 66.72 210.084 66.9 209.748 67.26C209.424 67.62 209.256 68.064 209.256 68.604V72H208.38V66.036H209.232V67.128C209.712 66.324 210.396 65.928 211.296 65.928C212.004 65.928 212.556 66.144 212.964 66.576C213.348 67.02 213.552 67.596 213.552 68.316V72Z" fill="#CBD5E1"/>
<path d="M282.19 42.8689C282.351 42.8689 282.512 42.9318 282.638 43.0666L287.767 48.5213C288.012 48.7819 288.012 49.2132 287.767 49.4738L282.638 54.9286C282.393 55.1892 281.988 55.1892 281.743 54.9286C281.498 54.668 281.498 54.2366 281.743 53.976L286.424 48.9976L281.743 44.0191C281.498 43.7585 281.498 43.3272 281.743 43.0666C281.861 42.9318 282.03 42.8689 282.19 42.8689Z" fill="white"/>
<path d="M272.956 48.3249H287.177C287.523 48.3249 287.811 48.6304 287.811 48.9989C287.811 49.3673 287.523 49.6729 287.177 49.6729H272.956C272.609 49.6729 272.322 49.3673 272.322 48.9989C272.322 48.6304 272.609 48.3249 272.956 48.3249Z" fill="white"/>
<path opacity="0.15" d="M354.184 54.9011C354.184 54.9011 280.954 45.2599 259.117 30.5854C230.057 11.0571 234.598 -39 234.598 -39" stroke="#64748B" stroke-width="6"/>
<path opacity="0.15" d="M-21.7676 108.607C-21.7676 108.607 -3.50852 57.0569 19.142 70.4413C71.2404 101.227 102.341 -20.6065 102.341 -20.6065" stroke="#64748B" stroke-width="6"/>
</g>
<defs>
<clipPath id="clip0_9_3198">
<rect width="335" height="88" rx="8" fill="white"/>
</clipPath>
</defs>
</svg>
