<svg width="70" height="69" viewBox="0 0 70 69" fill="none" xmlns="http://www.w3.org/2000/svg">
<g filter="url(#filter0_d_0_1)">
<rect x="12.166" y="3" width="45" height="45" rx="22.5" fill="url(#paint0_linear_0_1)"/>
</g>
<path d="M41 19C42.3001 19.1287 43.1752 19.4196 43.8284 20.0769C45 21.256 45 23.1536 45 26.9489C45 30.7442 45 32.6419 43.8284 33.8209C42.6569 35 40.7712 35 37 35H33C29.2288 35 27.3432 35 26.1716 33.8209C25 32.6419 25 30.7442 25 26.9489C25 23.1536 25 21.256 26.1716 20.0769C26.8248 19.4196 27.6999 19.1287 29 19" stroke="white" stroke-width="1.5" stroke-linecap="round"/>
<path d="M41.507 27H41.498" stroke="white" stroke-width="2" stroke-linecap="round" stroke-linejoin="round"/>
<path d="M28.507 27H28.498" stroke="white" stroke-width="2" stroke-linecap="round" stroke-linejoin="round"/>
<path d="M37.5 27C37.5 28.3807 36.3807 29.5 35 29.5C33.6193 29.5 32.5 28.3807 32.5 27C32.5 25.6193 33.6193 24.5 35 24.5C36.3807 24.5 37.5 25.6193 37.5 27Z" fill="white"/>
<path d="M32.5 17.5C32.9915 16.9943 34.2998 15 35 15M35 15C35.7002 15 37.0085 16.9943 37.5 17.5M35 15V21" stroke="white" stroke-width="1.5" stroke-linecap="round" stroke-linejoin="round"/>
<defs>
<filter id="filter0_d_0_1" x="0.166016" y="0" width="69" height="69" filterUnits="userSpaceOnUse" color-interpolation-filters="sRGB">
<feFlood flood-opacity="0" result="BackgroundImageFix"/>
<feColorMatrix in="SourceAlpha" type="matrix" values="0 0 0 0 0 0 0 0 0 0 0 0 0 0 0 0 0 0 127 0" result="hardAlpha"/>
<feMorphology radius="1" operator="dilate" in="SourceAlpha" result="effect1_dropShadow_0_1"/>
<feOffset dy="9"/>
<feGaussianBlur stdDeviation="5.5"/>
<feComposite in2="hardAlpha" operator="out"/>
<feColorMatrix type="matrix" values="0 0 0 0 0.768627 0 0 0 0 0.494118 0 0 0 0 0.980392 0 0 0 0.15 0"/>
<feBlend mode="normal" in2="BackgroundImageFix" result="effect1_dropShadow_0_1"/>
<feBlend mode="normal" in="SourceGraphic" in2="effect1_dropShadow_0_1" result="shape"/>
</filter>
<linearGradient id="paint0_linear_0_1" x1="34.666" y1="3" x2="34.666" y2="48" gradientUnits="userSpaceOnUse">
<stop stop-color="#B14FFF"/>
<stop offset="1" stop-color="#CA8FF8"/>
</linearGradient>
</defs>
</svg>
