<svg width="25" height="25" viewBox="0 0 25 25" fill="none" xmlns="http://www.w3.org/2000/svg">
<path d="M12.4573 22.7441C11.7873 22.7441 11.1073 22.5941 10.5773 22.2841L5.07727 19.1141C2.83727 17.6041 2.69727 17.3741 2.69727 15.0041V9.22406C2.69727 6.85406 2.82727 6.62406 5.02727 5.13406L10.5673 1.93406C11.6173 1.32406 13.2673 1.32406 14.3173 1.93406L19.8373 5.11406C22.0773 6.62406 22.2173 6.85406 22.2173 9.22406V14.9941C22.2173 17.3641 22.0873 17.5941 19.8873 19.0841L14.3473 22.2841C13.8073 22.5941 13.1273 22.7441 12.4573 22.7441ZM12.4573 2.98406C12.0373 2.98406 11.6273 3.06406 11.3373 3.23406L5.83727 6.41406C4.20727 7.51406 4.20727 7.51406 4.20727 9.22406V14.9941C4.20727 16.7041 4.20727 16.7041 5.87727 17.8341L11.3373 20.9841C11.9273 21.3241 12.9973 21.3241 13.5873 20.9841L19.0873 17.8041C20.7073 16.7041 20.7073 16.7041 20.7073 14.9941V9.22406C20.7073 7.51406 20.7073 7.51406 19.0373 6.38406L13.5773 3.23406C13.2873 3.06406 12.8773 2.98406 12.4573 2.98406Z" fill="#475569"/>
<path d="M12.457 15.8643C10.387 15.8643 8.70703 14.1843 8.70703 12.1143C8.70703 10.0443 10.387 8.36426 12.457 8.36426C14.527 8.36426 16.207 10.0443 16.207 12.1143C16.207 14.1843 14.527 15.8643 12.457 15.8643ZM12.457 9.86426C11.217 9.86426 10.207 10.8743 10.207 12.1143C10.207 13.3543 11.217 14.3643 12.457 14.3643C13.697 14.3643 14.707 13.3543 14.707 12.1143C14.707 10.8743 13.697 9.86426 12.457 9.86426Z" fill="#475569"/>
</svg>
