<svg width="335" height="88" viewBox="0 0 335 88" fill="none" xmlns="http://www.w3.org/2000/svg">
<g clip-path="url(#clip0_13_3751)">
<rect width="335" height="88" rx="8" fill="#0B1D16"/>
<path d="M29.64 33.16C28.056 33.16 26.552 32.552 25.448 31.528C24.904 31.016 24.472 30.376 24.136 29.624C23.816 28.872 23.64 28.056 23.64 27.176C23.64 26.328 23.816 25.528 24.136 24.76C24.472 24.024 24.92 23.384 25.464 22.856C26.008 22.328 26.664 21.912 27.4 21.608C28.136 21.32 28.904 21.16 29.704 21.16C30.968 21.16 32.12 21.512 32.92 22.04C33.32 22.28 33.672 22.584 33.976 22.92C34.6 23.592 34.952 24.264 35.128 24.936L32.84 25.72C32.744 25.272 32.328 24.584 31.608 24.072C31.144 23.752 30.44 23.512 29.672 23.512C29.016 23.512 28.408 23.672 27.864 24.008C27.32 24.328 26.888 24.776 26.6 25.32C26.296 25.88 26.136 26.488 26.136 27.16C26.136 28.488 26.76 29.656 27.848 30.328C28.392 30.664 29 30.84 29.672 30.84C30.44 30.84 31.144 30.6 31.608 30.264C31.832 30.104 32.04 29.912 32.232 29.704C32.6 29.272 32.792 28.872 32.888 28.504L35.192 29.304C35.048 29.912 34.728 30.568 34.088 31.272C33.768 31.624 33.4 31.944 33 32.216C32.6 32.488 32.104 32.712 31.512 32.904C30.92 33.08 30.312 33.16 29.64 33.16ZM36.6341 29.048C36.6341 28.264 36.8421 27.56 37.2261 26.92C37.6101 26.28 38.1381 25.768 38.8101 25.4C39.4821 25.048 40.2021 24.856 41.0021 24.856C41.7861 24.856 42.5221 25.032 43.1781 25.4C43.8341 25.752 44.3621 26.248 44.7461 26.888C45.1301 27.512 45.3221 28.216 45.3221 29C45.3221 29.784 45.1301 30.488 44.7461 31.128C44.3461 31.784 43.8181 32.28 43.1621 32.632C42.4901 33 41.7541 33.176 40.9701 33.176C40.1701 33.176 39.4501 33 38.7781 32.648C38.1221 32.28 37.6101 31.8 37.2261 31.16C36.8421 30.52 36.6341 29.816 36.6341 29.048ZM39.5781 27.56C39.2101 27.944 39.0181 28.424 39.0181 29.016C39.0181 29.608 39.2101 30.088 39.5781 30.472C39.9621 30.856 40.4261 31.048 40.9861 31.048C41.5301 31.048 41.9941 30.856 42.3781 30.472C42.7621 30.104 42.9381 29.608 42.9381 29.016C42.9381 28.424 42.7621 27.944 42.3781 27.56C41.9941 27.176 41.5301 26.984 40.9701 26.984C40.4261 26.984 39.9621 27.176 39.5781 27.56ZM56.2219 27.048C55.3099 27.048 54.7979 27.64 54.7979 28.552V33H52.4939V28.584C52.4939 27.656 52.0939 27.048 51.1979 27.048C50.2699 27.048 49.7739 27.64 49.7739 28.584V33H47.4539V25.048H49.7419V26.088H49.7579C49.9819 25.704 50.3019 25.4 50.7339 25.192C51.1659 24.984 51.6139 24.872 52.0779 24.872C53.0859 24.872 53.9659 25.304 54.3979 26.136C55.1819 25.256 55.9339 24.872 57.0539 24.872C59.0059 24.872 59.8379 26.216 59.8379 28.04V33H57.5179V28.552C57.5179 27.624 57.1339 27.048 56.2219 27.048ZM62.4026 25.048H64.7066V26.04H64.7386C65.3146 25.272 66.1146 24.888 67.1706 24.888C68.3066 24.888 69.3146 25.416 69.9546 26.2C70.5786 26.984 70.9466 27.992 70.9466 29.016C70.9466 30.04 70.5626 31.08 69.9066 31.848C69.2506 32.632 68.2266 33.16 67.1066 33.16C66.0986 33.16 65.3146 32.808 64.7546 32.12H64.7226V36.92H62.4026V25.048ZM65.2346 27.56C64.8506 27.944 64.6746 28.424 64.6746 29.016C64.6746 29.608 64.8506 30.088 65.2346 30.472C65.6186 30.856 66.0826 31.048 66.6266 31.048C67.1866 31.048 67.6506 30.856 68.0346 30.472C68.4026 30.104 68.5946 29.608 68.5946 29.016C68.5946 28.424 68.4026 27.944 68.0346 27.56C67.6506 27.176 67.1706 27 66.6266 27C66.0666 27 65.6026 27.176 65.2346 27.56ZM73.0857 33V20.856H75.4217V33H73.0857ZM79.9861 28.12H83.4101C83.3781 27.816 83.2501 27.512 82.9941 27.224C82.7381 26.936 82.2581 26.744 81.7141 26.744C81.2341 26.744 80.8501 26.888 80.5301 27.192C80.2261 27.496 80.0341 27.816 79.9861 28.12ZM85.6981 29.672H79.9381C80.0021 30.152 80.2261 30.52 80.5941 30.808C80.9621 31.096 81.3781 31.24 81.8901 31.24C82.2421 31.24 82.5781 31.128 82.8981 30.936C83.2181 30.744 83.4581 30.488 83.5701 30.168L85.4901 30.824C85.2341 31.56 84.7701 32.136 84.1141 32.552C83.4581 32.968 82.7381 33.176 81.9221 33.176C81.1221 33.176 80.4021 33 79.7301 32.648C79.0741 32.312 78.5461 31.816 78.1461 31.176C77.7621 30.536 77.5541 29.816 77.5541 29.016C77.5541 28.264 77.7461 27.56 78.1301 26.92C78.5141 26.28 79.0261 25.784 79.6821 25.4C80.3221 25.032 81.0261 24.856 81.7781 24.856C82.9621 24.856 83.9061 25.224 84.6421 25.96C85.3781 26.696 85.7461 27.656 85.7461 28.84C85.7461 29.208 85.7301 29.48 85.6981 29.672ZM92.5553 27.064H90.5873V30.072C90.5873 30.712 90.9553 31.096 91.7233 31.096C91.8993 31.096 92.1713 31.08 92.5393 31.032V32.92C92.1553 33.048 91.6913 33.112 91.1473 33.112C89.2273 33.112 88.2673 32.136 88.2673 30.2V27.064H86.7313V25.048H88.3153V22.552H90.5873V25.048H92.5553V27.064ZM96.4774 28.12H99.9014C99.8694 27.816 99.7414 27.512 99.4854 27.224C99.2294 26.936 98.7494 26.744 98.2054 26.744C97.7254 26.744 97.3414 26.888 97.0214 27.192C96.7174 27.496 96.5254 27.816 96.4774 28.12ZM102.189 29.672H96.4294C96.4934 30.152 96.7174 30.52 97.0854 30.808C97.4534 31.096 97.8694 31.24 98.3814 31.24C98.7334 31.24 99.0694 31.128 99.3894 30.936C99.7094 30.744 99.9494 30.488 100.061 30.168L101.981 30.824C101.725 31.56 101.261 32.136 100.605 32.552C99.9494 32.968 99.2294 33.176 98.4134 33.176C97.6134 33.176 96.8934 33 96.2214 32.648C95.5654 32.312 95.0374 31.816 94.6374 31.176C94.2534 30.536 94.0454 29.816 94.0454 29.016C94.0454 28.264 94.2374 27.56 94.6214 26.92C95.0054 26.28 95.5174 25.784 96.1734 25.4C96.8134 25.032 97.5174 24.856 98.2694 24.856C99.4534 24.856 100.397 25.224 101.133 25.96C101.869 26.696 102.237 27.656 102.237 28.84C102.237 29.208 102.221 29.48 102.189 29.672ZM110.869 36.92H108.389L110.325 32.152L106.981 25.048H109.541L111.525 29.592L113.301 25.048H115.701L110.869 36.92ZM116.251 29.048C116.251 28.264 116.459 27.56 116.843 26.92C117.227 26.28 117.755 25.768 118.427 25.4C119.099 25.048 119.819 24.856 120.619 24.856C121.403 24.856 122.139 25.032 122.795 25.4C123.451 25.752 123.979 26.248 124.363 26.888C124.747 27.512 124.939 28.216 124.939 29C124.939 29.784 124.747 30.488 124.363 31.128C123.963 31.784 123.435 32.28 122.779 32.632C122.107 33 121.371 33.176 120.587 33.176C119.787 33.176 119.067 33 118.395 32.648C117.739 32.28 117.227 31.8 116.843 31.16C116.459 30.52 116.251 29.816 116.251 29.048ZM119.195 27.56C118.827 27.944 118.635 28.424 118.635 29.016C118.635 29.608 118.827 30.088 119.195 30.472C119.579 30.856 120.043 31.048 120.603 31.048C121.147 31.048 121.611 30.856 121.995 30.472C122.379 30.104 122.555 29.608 122.555 29.016C122.555 28.424 122.379 27.944 121.995 27.56C121.611 27.176 121.147 26.984 120.587 26.984C120.043 26.984 119.579 27.176 119.195 27.56ZM126.991 25.048H129.311V29.48C129.311 30.408 129.759 31 130.703 31C131.167 31 131.519 30.856 131.759 30.568C131.999 30.28 132.127 29.928 132.127 29.48V25.048H134.447V33H132.159V32.008H132.127C131.599 32.776 130.863 33.16 129.919 33.16C128.959 33.16 128.175 32.792 127.711 32.2C127.247 31.624 126.991 30.872 126.991 30.04V25.048ZM141.978 25.048V27.32C141.77 27.288 141.53 27.256 141.242 27.256C140.09 27.256 139.354 28.072 139.354 29.512V33H137.066V25.048H139.274V26.2H139.29C139.706 25.336 140.474 24.968 141.354 24.968C141.562 24.968 141.77 25 141.978 25.048ZM149.437 33.16C148.717 33.16 148.093 32.936 147.581 32.504C147.053 32.056 146.797 31.48 146.797 30.776V30.712C146.797 29.576 147.485 28.92 148.397 28.6C149.037 28.36 149.629 28.28 150.301 28.28H151.069C151.485 28.28 151.693 28.072 151.693 27.736C151.693 27.176 151.245 26.744 150.445 26.744C149.741 26.744 149.197 27.16 149.021 27.832L146.973 27.368C147.069 26.824 147.293 26.36 147.661 25.976C148.013 25.592 148.445 25.304 148.957 25.128C149.453 24.952 149.981 24.856 150.557 24.856C152.525 24.84 153.981 25.96 153.981 28.072V31.72C153.981 32.2 154.013 32.632 154.045 33H151.885C151.853 32.792 151.837 32.472 151.837 32.008H151.805C151.261 32.76 150.477 33.16 149.437 33.16ZM150.109 31.464C150.589 31.464 150.973 31.304 151.261 31C151.549 30.712 151.693 30.344 151.693 29.928V29.736H150.301C150.013 29.736 149.757 29.816 149.517 29.976C149.261 30.136 149.133 30.36 149.133 30.648C149.133 31.176 149.565 31.464 150.109 31.464ZM160.33 33.176C157.866 33.208 155.994 31.368 156.042 29.032C156.042 28.264 156.234 27.56 156.618 26.92C156.986 26.28 157.514 25.784 158.17 25.4C158.842 25.048 159.578 24.856 160.378 24.856C161.226 24.856 162.074 25.096 162.778 25.544C163.498 25.976 164.042 26.696 164.25 27.576L162.122 28.216C162.026 27.88 161.818 27.592 161.514 27.352C161.194 27.112 160.81 27 160.33 27C159.802 27 159.354 27.176 158.986 27.544C158.618 27.912 158.426 28.392 158.426 29C158.426 29.592 158.602 30.088 158.97 30.456C159.322 30.84 159.77 31.032 160.346 31.032C161.29 31.032 161.93 30.488 162.17 29.8L164.298 30.44C164.138 31.032 163.85 31.528 163.434 31.96C163.002 32.376 162.538 32.68 162.01 32.872C161.466 33.08 160.906 33.176 160.33 33.176ZM170.107 33.176C167.643 33.208 165.771 31.368 165.819 29.032C165.819 28.264 166.011 27.56 166.395 26.92C166.763 26.28 167.291 25.784 167.947 25.4C168.619 25.048 169.355 24.856 170.155 24.856C171.003 24.856 171.851 25.096 172.555 25.544C173.275 25.976 173.819 26.696 174.027 27.576L171.899 28.216C171.803 27.88 171.595 27.592 171.291 27.352C170.971 27.112 170.587 27 170.107 27C169.579 27 169.131 27.176 168.763 27.544C168.395 27.912 168.203 28.392 168.203 29C168.203 29.592 168.379 30.088 168.747 30.456C169.099 30.84 169.547 31.032 170.123 31.032C171.067 31.032 171.707 30.488 171.947 29.8L174.075 30.44C173.915 31.032 173.627 31.528 173.211 31.96C172.779 32.376 172.315 32.68 171.787 32.872C171.243 33.08 170.683 33.176 170.107 33.176ZM175.58 29.048C175.58 28.264 175.788 27.56 176.172 26.92C176.556 26.28 177.084 25.768 177.756 25.4C178.428 25.048 179.148 24.856 179.948 24.856C180.732 24.856 181.468 25.032 182.124 25.4C182.78 25.752 183.308 26.248 183.692 26.888C184.076 27.512 184.268 28.216 184.268 29C184.268 29.784 184.076 30.488 183.692 31.128C183.292 31.784 182.764 32.28 182.108 32.632C181.436 33 180.7 33.176 179.916 33.176C179.116 33.176 178.396 33 177.724 32.648C177.068 32.28 176.556 31.8 176.172 31.16C175.788 30.52 175.58 29.816 175.58 29.048ZM178.524 27.56C178.156 27.944 177.964 28.424 177.964 29.016C177.964 29.608 178.156 30.088 178.524 30.472C178.908 30.856 179.372 31.048 179.932 31.048C180.476 31.048 180.94 30.856 181.324 30.472C181.708 30.104 181.884 29.608 181.884 29.016C181.884 28.424 181.708 27.944 181.324 27.56C180.94 27.176 180.476 26.984 179.916 26.984C179.372 26.984 178.908 27.176 178.524 27.56ZM186.319 25.048H188.639V29.48C188.639 30.408 189.087 31 190.031 31C190.495 31 190.847 30.856 191.087 30.568C191.327 30.28 191.455 29.928 191.455 29.48V25.048H193.775V33H191.487V32.008H191.455C190.927 32.776 190.191 33.16 189.247 33.16C188.287 33.16 187.503 32.792 187.039 32.2C186.575 31.624 186.319 30.872 186.319 30.04V25.048ZM203.851 33H201.531V28.584C201.531 27.656 201.067 27.048 200.139 27.048C199.675 27.048 199.323 27.192 199.083 27.48C198.843 27.784 198.715 28.152 198.715 28.584V33H196.395V25.048H198.699V26.088H198.715C199.003 25.592 199.499 25.224 199.963 25.08C200.443 24.936 200.747 24.888 200.971 24.888C202.987 24.888 203.851 26.424 203.851 28.056V33ZM211.275 27.064H209.307V30.072C209.307 30.712 209.675 31.096 210.443 31.096C210.619 31.096 210.891 31.08 211.259 31.032V32.92C210.875 33.048 210.411 33.112 209.867 33.112C207.947 33.112 206.987 32.136 206.987 30.2V27.064H205.451V25.048H207.035V22.552H209.307V25.048H211.275V27.064ZM220.574 33.176C219.678 33.176 218.878 32.92 218.398 32.568C218.142 32.392 217.934 32.2 217.758 31.96C217.39 31.528 217.246 31.112 217.214 30.728L219.262 30.296C219.294 30.584 219.422 30.84 219.646 31.048C219.886 31.272 220.174 31.384 220.542 31.384C221.15 31.384 221.47 31.032 221.47 30.696C221.47 30.36 221.214 30.12 220.702 30.008L219.694 29.784C218.174 29.448 217.406 28.616 217.406 27.464C217.406 26.744 217.694 26.12 218.27 25.624C218.862 25.112 219.582 24.856 220.446 24.856C221.71 24.856 222.59 25.352 223.07 25.944C223.422 26.36 223.582 26.76 223.63 27.144L221.614 27.576C221.502 27 221.102 26.632 220.462 26.632C219.934 26.632 219.582 26.936 219.582 27.304C219.582 27.608 219.79 27.8 220.206 27.88L221.31 28.12C222.878 28.424 223.726 29.336 223.726 30.536C223.726 31.208 223.454 31.848 222.958 32.344C222.446 32.84 221.598 33.176 220.574 33.176ZM227.86 28.12H231.284C231.252 27.816 231.124 27.512 230.868 27.224C230.612 26.936 230.132 26.744 229.588 26.744C229.108 26.744 228.724 26.888 228.404 27.192C228.1 27.496 227.908 27.816 227.86 28.12ZM233.572 29.672H227.812C227.876 30.152 228.1 30.52 228.468 30.808C228.836 31.096 229.252 31.24 229.764 31.24C230.116 31.24 230.452 31.128 230.772 30.936C231.092 30.744 231.332 30.488 231.444 30.168L233.364 30.824C233.108 31.56 232.644 32.136 231.988 32.552C231.332 32.968 230.612 33.176 229.796 33.176C228.996 33.176 228.276 33 227.604 32.648C226.948 32.312 226.42 31.816 226.02 31.176C225.636 30.536 225.428 29.816 225.428 29.016C225.428 28.264 225.62 27.56 226.004 26.92C226.388 26.28 226.9 25.784 227.556 25.4C228.196 25.032 228.9 24.856 229.652 24.856C230.836 24.856 231.78 25.224 232.516 25.96C233.252 26.696 233.62 27.656 233.62 28.84C233.62 29.208 233.604 29.48 233.572 29.672ZM240.43 27.064H238.462V30.072C238.462 30.712 238.83 31.096 239.598 31.096C239.774 31.096 240.046 31.08 240.414 31.032V32.92C240.03 33.048 239.566 33.112 239.022 33.112C237.102 33.112 236.142 32.136 236.142 30.2V27.064H234.606V25.048H236.19V22.552H238.462V25.048H240.43V27.064ZM242.57 25.048H244.89V29.48C244.89 30.408 245.338 31 246.282 31C246.746 31 247.098 30.856 247.338 30.568C247.578 30.28 247.706 29.928 247.706 29.48V25.048H250.026V33H247.738V32.008H247.706C247.178 32.776 246.442 33.16 245.498 33.16C244.538 33.16 243.754 32.792 243.29 32.2C242.826 31.624 242.57 30.872 242.57 30.04V25.048ZM252.646 25.048H254.95V26.04H254.982C255.558 25.272 256.358 24.888 257.414 24.888C258.55 24.888 259.558 25.416 260.198 26.2C260.822 26.984 261.19 27.992 261.19 29.016C261.19 30.04 260.806 31.08 260.15 31.848C259.494 32.632 258.47 33.16 257.35 33.16C256.342 33.16 255.558 32.808 254.998 32.12H254.966V36.92H252.646V25.048ZM255.478 27.56C255.094 27.944 254.918 28.424 254.918 29.016C254.918 29.608 255.094 30.088 255.478 30.472C255.862 30.856 256.326 31.048 256.87 31.048C257.43 31.048 257.894 30.856 258.278 30.472C258.646 30.104 258.838 29.608 258.838 29.016C258.838 28.424 258.646 27.944 258.278 27.56C257.894 27.176 257.414 27 256.87 27C256.31 27 255.846 27.176 255.478 27.56Z" fill="white"/>
<path d="M32.024 43.252H33.344V52H32.432V44.5L29.18 52H28.352L25.124 44.56V52H24.212V43.252H25.52L28.784 50.752L32.024 43.252ZM37.6144 48.556H39.2704V48.16C39.2704 47.2 38.7424 46.708 37.7464 46.708C37.2664 46.708 36.8584 46.864 36.6184 47.104C36.3784 47.344 36.2344 47.62 36.1864 47.92L35.3464 47.74C35.3584 47.44 35.6464 46.852 36.1864 46.42C36.5464 46.144 37.1224 45.928 37.7704 45.928C38.8624 45.928 39.5824 46.336 39.9424 47.164C40.0624 47.44 40.1224 47.764 40.1224 48.148V49.828C40.1224 50.824 40.1584 51.556 40.2184 52H39.3544C39.3064 51.736 39.2704 51.388 39.2704 50.956C38.7664 51.724 38.1064 52.108 37.2544 52.108C36.6664 52.108 36.1744 51.94 35.8144 51.604C35.4424 51.28 35.2504 50.86 35.2504 50.344V50.284C35.2504 48.988 36.5464 48.556 37.6144 48.556ZM39.2704 49.48V49.276H37.6024C37.2544 49.276 36.9304 49.336 36.6304 49.48C36.3304 49.612 36.1264 49.9 36.1264 50.272C36.1264 50.608 36.2464 50.86 36.4984 51.052C36.7384 51.244 37.0384 51.34 37.4104 51.34C37.9384 51.34 38.3824 51.16 38.7424 50.812C39.0904 50.476 39.2704 50.02 39.2704 49.48ZM43.054 49.012H43.018V52H42.142V42.892H43.018V48.46L45.85 46.036H47.086L43.942 48.712L47.23 52H46.018L43.054 49.012ZM52.7683 49.288H47.9443C47.9803 49.876 48.1963 50.356 48.6043 50.74C49.0123 51.136 49.5043 51.328 50.0803 51.328C50.9803 51.328 51.6523 50.884 51.9283 50.056L52.6963 50.296C52.5283 50.86 52.2043 51.304 51.7243 51.628C51.2443 51.94 50.7043 52.108 50.0923 52.108C49.5283 52.108 49.0123 51.964 48.5443 51.688C48.0763 51.412 47.7163 51.04 47.4643 50.56C47.2003 50.092 47.0683 49.576 47.0683 49.012C47.0683 48.472 47.1883 47.968 47.4403 47.5C47.6803 47.02 48.0283 46.648 48.4843 46.36C48.9283 46.072 49.4323 45.928 49.9723 45.928C50.5603 45.928 51.0763 46.06 51.5083 46.336C51.9403 46.6 52.2643 46.972 52.4683 47.428C52.6843 47.884 52.7803 48.4 52.7803 49C52.7803 49.06 52.7803 49.156 52.7683 49.288ZM47.9563 48.544H51.9043C51.8443 47.992 51.6403 47.548 51.3043 47.2C50.9683 46.864 50.5243 46.696 49.9723 46.696C49.4563 46.696 49.0243 46.876 48.6403 47.236C48.2563 47.608 48.0283 48.04 47.9563 48.544ZM59.5866 48.556H61.2426V48.16C61.2426 47.2 60.7146 46.708 59.7186 46.708C59.2386 46.708 58.8306 46.864 58.5906 47.104C58.3506 47.344 58.2066 47.62 58.1586 47.92L57.3186 47.74C57.3306 47.44 57.6186 46.852 58.1586 46.42C58.5186 46.144 59.0946 45.928 59.7426 45.928C60.8346 45.928 61.5546 46.336 61.9146 47.164C62.0346 47.44 62.0946 47.764 62.0946 48.148V49.828C62.0946 50.824 62.1306 51.556 62.1906 52H61.3266C61.2786 51.736 61.2426 51.388 61.2426 50.956C60.7386 51.724 60.0786 52.108 59.2266 52.108C58.6386 52.108 58.1466 51.94 57.7866 51.604C57.4146 51.28 57.2226 50.86 57.2226 50.344V50.284C57.2226 48.988 58.5186 48.556 59.5866 48.556ZM61.2426 49.48V49.276H59.5746C59.2266 49.276 58.9026 49.336 58.6026 49.48C58.3026 49.612 58.0986 49.9 58.0986 50.272C58.0986 50.608 58.2186 50.86 58.4706 51.052C58.7106 51.244 59.0106 51.34 59.3826 51.34C59.9106 51.34 60.3546 51.16 60.7146 50.812C61.0626 50.476 61.2426 50.02 61.2426 49.48ZM64.1142 52V42.892H64.9902V52H64.1142ZM67.0818 52V42.892H67.9578V52H67.0818ZM75.3747 52.048C74.0787 52.048 73.6827 51.328 73.6827 50.452V46.804H72.5787V46.036H73.6827V44.32H74.5467V46.036H76.0587V46.804H74.5467V50.44C74.5467 50.992 74.8707 51.28 75.5187 51.28C75.7227 51.28 75.9027 51.256 76.0587 51.232V51.952C75.8667 52.012 75.6387 52.048 75.3747 52.048ZM77.6488 46.036H78.5008V47.212C78.7888 46.624 79.2688 46.228 79.7248 46.06C79.9528 45.976 80.1928 45.94 80.4328 45.94C80.5648 45.94 80.6608 45.94 80.7208 45.964V46.888C80.6248 46.864 80.5048 46.864 80.3848 46.864C78.9688 46.864 78.5248 48.028 78.5248 49.084V52H77.6488V46.036ZM83.6386 48.556H85.2946V48.16C85.2946 47.2 84.7666 46.708 83.7706 46.708C83.2906 46.708 82.8826 46.864 82.6426 47.104C82.4026 47.344 82.2586 47.62 82.2106 47.92L81.3706 47.74C81.3826 47.44 81.6706 46.852 82.2106 46.42C82.5706 46.144 83.1466 45.928 83.7946 45.928C84.8866 45.928 85.6066 46.336 85.9666 47.164C86.0866 47.44 86.1466 47.764 86.1466 48.148V49.828C86.1466 50.824 86.1826 51.556 86.2426 52H85.3786C85.3306 51.736 85.2946 51.388 85.2946 50.956C84.7906 51.724 84.1306 52.108 83.2786 52.108C82.6906 52.108 82.1986 51.94 81.8386 51.604C81.4666 51.28 81.2746 50.86 81.2746 50.344V50.284C81.2746 48.988 82.5706 48.556 83.6386 48.556ZM85.2946 49.48V49.276H83.6266C83.2786 49.276 82.9546 49.336 82.6546 49.48C82.3546 49.612 82.1506 49.9 82.1506 50.272C82.1506 50.608 82.2706 50.86 82.5226 51.052C82.7626 51.244 83.0626 51.34 83.4346 51.34C83.9626 51.34 84.4066 51.16 84.7666 50.812C85.1146 50.476 85.2946 50.02 85.2946 49.48ZM93.3382 52H92.4622V48.532C92.4622 47.98 92.3302 47.548 92.0422 47.212C91.7662 46.888 91.3582 46.72 90.8182 46.72C90.3022 46.72 89.8702 46.9 89.5342 47.26C89.2102 47.62 89.0422 48.064 89.0422 48.604V52H88.1662V46.036H89.0182V47.128C89.4982 46.324 90.1822 45.928 91.0822 45.928C91.7902 45.928 92.3422 46.144 92.7502 46.576C93.1342 47.02 93.3382 47.596 93.3382 48.316V52ZM99.2886 50.308C99.2886 50.836 99.0846 51.268 98.6766 51.592C98.2686 51.928 97.7646 52.096 97.1766 52.096C96.2166 52.096 95.5926 51.7 95.2686 51.232C95.0286 50.908 94.9446 50.62 94.9086 50.32L95.7006 50.116C95.7966 50.668 96.2166 51.34 97.1646 51.34C97.5006 51.34 97.7886 51.244 98.0406 51.064C98.2806 50.896 98.4006 50.656 98.4006 50.356C98.4006 50.116 98.3046 49.924 98.1126 49.78C97.9206 49.624 97.6926 49.528 97.4286 49.468L96.5166 49.264C95.5326 49.048 95.0286 48.52 95.0286 47.704C95.0286 47.092 95.3406 46.588 95.7726 46.324C96.1926 46.06 96.6486 45.928 97.0566 45.928C97.9566 45.94 98.5326 46.288 98.8446 46.72C99.0606 47.02 99.1566 47.272 99.2046 47.524L98.4126 47.752C98.3526 47.512 98.2566 47.32 98.0646 47.08C97.8606 46.84 97.5006 46.696 97.0566 46.696C96.7326 46.696 96.4686 46.78 96.2406 46.972C96.0126 47.152 95.9046 47.38 95.9046 47.644C95.9046 48.112 96.2406 48.328 96.7686 48.46L97.7286 48.676C98.5086 48.856 99.2886 49.348 99.2886 50.308ZM102.901 48.556H104.557V48.16C104.557 47.2 104.029 46.708 103.033 46.708C102.553 46.708 102.145 46.864 101.905 47.104C101.665 47.344 101.521 47.62 101.473 47.92L100.633 47.74C100.645 47.44 100.933 46.852 101.473 46.42C101.833 46.144 102.409 45.928 103.057 45.928C104.149 45.928 104.869 46.336 105.229 47.164C105.349 47.44 105.409 47.764 105.409 48.148V49.828C105.409 50.824 105.445 51.556 105.505 52H104.641C104.593 51.736 104.557 51.388 104.557 50.956C104.053 51.724 103.393 52.108 102.541 52.108C101.953 52.108 101.461 51.94 101.101 51.604C100.729 51.28 100.537 50.86 100.537 50.344V50.284C100.537 48.988 101.833 48.556 102.901 48.556ZM104.557 49.48V49.276H102.889C102.541 49.276 102.217 49.336 101.917 49.48C101.617 49.612 101.413 49.9 101.413 50.272C101.413 50.608 101.533 50.86 101.785 51.052C102.025 51.244 102.325 51.34 102.697 51.34C103.225 51.34 103.669 51.16 104.029 50.812C104.377 50.476 104.557 50.02 104.557 49.48ZM107.885 48.988C107.885 49.828 108.233 50.56 108.893 50.992C109.229 51.22 109.613 51.328 110.045 51.328C110.549 51.328 110.993 51.16 111.269 50.956C111.401 50.86 111.521 50.74 111.641 50.596C111.857 50.308 111.953 50.116 112.037 49.9L112.841 50.164C112.709 50.632 112.385 51.088 111.929 51.46C111.473 51.844 110.777 52.108 110.033 52.108C108.329 52.132 106.973 50.8 106.997 49.036C106.997 48.448 107.141 47.92 107.417 47.44C107.693 46.96 108.065 46.588 108.533 46.324C109.001 46.06 109.505 45.928 110.069 45.928C110.741 45.928 111.341 46.12 111.845 46.48C112.361 46.864 112.685 47.308 112.805 47.836L112.013 48.1C111.881 47.62 111.269 46.708 110.045 46.708C109.421 46.708 108.905 46.924 108.497 47.368C108.089 47.812 107.885 48.352 107.885 48.988ZM116.363 52.048C115.067 52.048 114.671 51.328 114.671 50.452V46.804H113.567V46.036H114.671V44.32H115.535V46.036H117.047V46.804H115.535V50.44C115.535 50.992 115.859 51.28 116.507 51.28C116.711 51.28 116.891 51.256 117.047 51.232V51.952C116.855 52.012 116.627 52.048 116.363 52.048ZM118.613 44.368C118.493 44.236 118.421 44.08 118.421 43.9C118.421 43.72 118.493 43.564 118.613 43.432C118.733 43.312 118.901 43.24 119.081 43.24C119.261 43.24 119.417 43.312 119.537 43.432C119.669 43.564 119.729 43.72 119.729 43.9C119.729 44.08 119.669 44.236 119.537 44.368C119.417 44.488 119.261 44.56 119.081 44.56C118.901 44.56 118.733 44.488 118.613 44.368ZM118.637 52V46.036H119.513V52H118.637ZM124.233 52.108C123.681 52.108 123.153 51.964 122.685 51.7C122.217 51.424 121.845 51.052 121.581 50.584C121.305 50.116 121.173 49.6 121.173 49.036C121.173 48.16 121.461 47.416 122.061 46.828C122.649 46.228 123.381 45.928 124.257 45.928C125.949 45.892 127.365 47.32 127.341 49C127.365 50.728 125.949 52.144 124.233 52.108ZM124.257 51.328C124.881 51.328 125.409 51.1 125.829 50.656C126.237 50.212 126.441 49.672 126.441 49.036C126.441 48.4 126.237 47.848 125.817 47.38C125.397 46.924 124.881 46.696 124.233 46.696C123.609 46.696 123.081 46.924 122.673 47.368C122.265 47.812 122.061 48.352 122.061 49C122.037 50.236 122.985 51.352 124.257 51.328ZM134.163 52H133.287V48.532C133.287 47.98 133.155 47.548 132.867 47.212C132.591 46.888 132.183 46.72 131.643 46.72C131.127 46.72 130.695 46.9 130.359 47.26C130.035 47.62 129.867 48.064 129.867 48.604V52H128.991V46.036H129.843V47.128C130.323 46.324 131.007 45.928 131.907 45.928C132.615 45.928 133.167 46.144 133.575 46.576C133.959 47.02 134.163 47.596 134.163 48.316V52ZM140.113 50.308C140.113 50.836 139.909 51.268 139.501 51.592C139.093 51.928 138.589 52.096 138.001 52.096C137.041 52.096 136.417 51.7 136.093 51.232C135.853 50.908 135.769 50.62 135.733 50.32L136.525 50.116C136.621 50.668 137.041 51.34 137.989 51.34C138.325 51.34 138.613 51.244 138.865 51.064C139.105 50.896 139.225 50.656 139.225 50.356C139.225 50.116 139.129 49.924 138.937 49.78C138.745 49.624 138.517 49.528 138.253 49.468L137.341 49.264C136.357 49.048 135.853 48.52 135.853 47.704C135.853 47.092 136.165 46.588 136.597 46.324C137.017 46.06 137.473 45.928 137.881 45.928C138.781 45.94 139.357 46.288 139.669 46.72C139.885 47.02 139.981 47.272 140.029 47.524L139.237 47.752C139.177 47.512 139.081 47.32 138.889 47.08C138.685 46.84 138.325 46.696 137.881 46.696C137.557 46.696 137.293 46.78 137.065 46.972C136.837 47.152 136.729 47.38 136.729 47.644C136.729 48.112 137.065 48.328 137.593 48.46L138.553 48.676C139.333 48.856 140.113 49.348 140.113 50.308ZM150.995 49.012C150.995 50.092 150.527 51.064 149.663 51.652C149.231 51.94 148.739 52.084 148.187 52.084C147.215 52.084 146.435 51.64 145.871 50.74V52H145.019V42.904H145.895V47.32C146.495 46.396 147.263 45.928 148.187 45.928C149.015 45.928 149.759 46.3 150.239 46.888C150.707 47.464 150.995 48.232 150.995 49.012ZM148.019 51.328C148.655 51.328 149.159 51.1 149.543 50.668C149.915 50.224 150.107 49.684 150.107 49.036C150.107 48.196 149.783 47.464 149.135 47.032C148.823 46.816 148.439 46.708 148.019 46.708C146.807 46.684 145.847 47.812 145.883 49C145.883 49.624 146.075 50.176 146.483 50.632C146.891 51.1 147.395 51.328 148.019 51.328ZM153.491 54.94H152.543L154.091 51.592L151.379 46.036H152.375L154.559 50.644L156.635 46.036H157.571L153.491 54.94ZM162.065 48.988C162.065 49.828 162.413 50.56 163.073 50.992C163.409 51.22 163.793 51.328 164.225 51.328C164.729 51.328 165.173 51.16 165.449 50.956C165.581 50.86 165.701 50.74 165.821 50.596C166.037 50.308 166.133 50.116 166.217 49.9L167.021 50.164C166.889 50.632 166.565 51.088 166.109 51.46C165.653 51.844 164.957 52.108 164.213 52.108C162.509 52.132 161.153 50.8 161.177 49.036C161.177 48.448 161.321 47.92 161.597 47.44C161.873 46.96 162.245 46.588 162.713 46.324C163.181 46.06 163.685 45.928 164.249 45.928C164.921 45.928 165.521 46.12 166.025 46.48C166.541 46.864 166.865 47.308 166.985 47.836L166.193 48.1C166.061 47.62 165.449 46.708 164.225 46.708C163.601 46.708 163.085 46.924 162.677 47.368C162.269 47.812 162.065 48.352 162.065 48.988ZM171.224 52.108C170.672 52.108 170.144 51.964 169.676 51.7C169.208 51.424 168.836 51.052 168.572 50.584C168.296 50.116 168.164 49.6 168.164 49.036C168.164 48.16 168.452 47.416 169.052 46.828C169.64 46.228 170.372 45.928 171.248 45.928C172.94 45.892 174.356 47.32 174.332 49C174.356 50.728 172.94 52.144 171.224 52.108ZM171.248 51.328C171.872 51.328 172.4 51.1 172.82 50.656C173.228 50.212 173.432 49.672 173.432 49.036C173.432 48.4 173.228 47.848 172.808 47.38C172.388 46.924 171.872 46.696 171.224 46.696C170.6 46.696 170.072 46.924 169.664 47.368C169.256 47.812 169.052 48.352 169.052 49C169.028 50.236 169.976 51.352 171.248 51.328ZM180.902 52H180.05V48.496C180.05 47.98 179.918 47.548 179.666 47.212C179.402 46.888 179.018 46.72 178.514 46.72C178.01 46.72 177.602 46.9 177.302 47.272C177.002 47.644 176.858 48.088 176.858 48.604V52H175.982V46.036H176.834V47.068C177.35 46.3 177.914 45.928 178.766 45.928C179.63 45.928 180.314 46.348 180.674 47.128C181.178 46.324 181.886 45.928 182.774 45.928C183.47 45.928 184.01 46.144 184.406 46.588C184.778 47.02 184.97 47.596 184.97 48.316V52H184.106V48.532C184.106 47.992 183.986 47.56 183.722 47.224C183.47 46.9 183.086 46.72 182.558 46.72C182.054 46.72 181.658 46.9 181.358 47.26C181.058 47.608 180.902 48.052 180.902 48.568V52ZM192.965 49.012C192.965 50.092 192.497 51.064 191.633 51.652C191.201 51.94 190.709 52.084 190.157 52.084C189.185 52.084 188.417 51.652 187.865 50.776V54.94H186.989V46.036H187.841V47.332C188.453 46.396 189.221 45.928 190.157 45.928C190.985 45.928 191.729 46.3 192.209 46.888C192.677 47.464 192.965 48.232 192.965 49.012ZM189.989 51.328C190.625 51.328 191.129 51.1 191.513 50.668C191.885 50.224 192.077 49.684 192.077 49.036C192.077 48.196 191.753 47.464 191.105 47.032C190.793 46.816 190.409 46.708 189.989 46.708C188.777 46.684 187.817 47.812 187.853 49C187.853 49.624 188.045 50.176 188.453 50.632C188.861 51.1 189.365 51.328 189.989 51.328ZM194.62 52V42.892H195.496V52H194.62ZM202.856 49.288H198.032C198.068 49.876 198.284 50.356 198.692 50.74C199.1 51.136 199.592 51.328 200.168 51.328C201.068 51.328 201.74 50.884 202.016 50.056L202.784 50.296C202.616 50.86 202.292 51.304 201.812 51.628C201.332 51.94 200.792 52.108 200.18 52.108C199.616 52.108 199.1 51.964 198.632 51.688C198.164 51.412 197.804 51.04 197.552 50.56C197.288 50.092 197.156 49.576 197.156 49.012C197.156 48.472 197.276 47.968 197.528 47.5C197.768 47.02 198.116 46.648 198.572 46.36C199.016 46.072 199.52 45.928 200.06 45.928C200.648 45.928 201.164 46.06 201.596 46.336C202.028 46.6 202.352 46.972 202.556 47.428C202.772 47.884 202.868 48.4 202.868 49C202.868 49.06 202.868 49.156 202.856 49.288ZM198.044 48.544H201.992C201.932 47.992 201.728 47.548 201.392 47.2C201.056 46.864 200.612 46.696 200.06 46.696C199.544 46.696 199.112 46.876 198.728 47.236C198.344 47.608 198.116 48.04 198.044 48.544ZM206.347 52.048C205.051 52.048 204.655 51.328 204.655 50.452V46.804H203.551V46.036H204.655V44.32H205.519V46.036H207.031V46.804H205.519V50.44C205.519 50.992 205.843 51.28 206.491 51.28C206.695 51.28 206.875 51.256 207.031 51.232V51.952C206.839 52.012 206.611 52.048 206.347 52.048ZM208.597 44.368C208.477 44.236 208.405 44.08 208.405 43.9C208.405 43.72 208.477 43.564 208.597 43.432C208.717 43.312 208.885 43.24 209.065 43.24C209.245 43.24 209.401 43.312 209.521 43.432C209.653 43.564 209.713 43.72 209.713 43.9C209.713 44.08 209.653 44.236 209.521 44.368C209.401 44.488 209.245 44.56 209.065 44.56C208.885 44.56 208.717 44.488 208.597 44.368ZM208.621 52V46.036H209.497V52H208.621ZM216.761 52H215.885V48.532C215.885 47.98 215.753 47.548 215.465 47.212C215.189 46.888 214.781 46.72 214.241 46.72C213.725 46.72 213.293 46.9 212.957 47.26C212.633 47.62 212.465 48.064 212.465 48.604V52H211.589V46.036H212.441V47.128C212.921 46.324 213.605 45.928 214.505 45.928C215.213 45.928 215.765 46.144 216.173 46.576C216.557 47.02 216.761 47.596 216.761 48.316V52ZM223.455 51.916V50.668C222.915 51.58 222.147 52.024 221.151 52.024C220.599 52.024 220.107 51.88 219.675 51.604C219.243 51.328 218.919 50.956 218.691 50.5C218.463 50.032 218.355 49.54 218.355 48.988C218.355 48.46 218.463 47.968 218.691 47.5C218.919 47.044 219.255 46.66 219.687 46.372C220.119 46.072 220.611 45.928 221.151 45.928C221.703 45.928 222.195 46.084 222.579 46.348C222.951 46.612 223.203 46.9 223.467 47.284V46.036H224.331V51.856C224.331 52.876 224.043 53.656 223.491 54.184C222.927 54.712 222.171 54.988 221.223 54.988C220.479 54.988 219.843 54.784 219.327 54.4C218.811 54.004 218.487 53.524 218.379 52.936L219.171 52.672C219.315 53.284 219.867 54.22 221.211 54.22C221.847 54.22 222.363 54.052 222.783 53.692C223.203 53.344 223.455 52.72 223.455 51.916ZM221.331 51.256C221.943 51.256 222.447 51.04 222.855 50.584C223.263 50.14 223.467 49.6 223.467 48.976C223.491 47.812 222.531 46.684 221.331 46.708C220.683 46.708 220.179 46.924 219.807 47.356C219.423 47.788 219.243 48.34 219.243 49C219.219 50.224 220.047 51.268 221.331 51.256ZM230.449 54.94H229.501L231.049 51.592L228.337 46.036H229.333L231.517 50.644L233.593 46.036H234.529L230.449 54.94ZM237.993 52.108C237.441 52.108 236.913 51.964 236.445 51.7C235.977 51.424 235.605 51.052 235.341 50.584C235.065 50.116 234.933 49.6 234.933 49.036C234.933 48.16 235.221 47.416 235.821 46.828C236.409 46.228 237.141 45.928 238.017 45.928C239.709 45.892 241.125 47.32 241.101 49C241.125 50.728 239.709 52.144 237.993 52.108ZM238.017 51.328C238.641 51.328 239.169 51.1 239.589 50.656C239.997 50.212 240.201 49.672 240.201 49.036C240.201 48.4 239.997 47.848 239.577 47.38C239.157 46.924 238.641 46.696 237.993 46.696C237.369 46.696 236.841 46.924 236.433 47.368C236.025 47.812 235.821 48.352 235.821 49C235.797 50.236 236.745 51.352 238.017 51.328ZM242.679 46.036H243.543V49.504C243.543 50.056 243.687 50.5 243.975 50.824C244.251 51.16 244.659 51.316 245.199 51.316C245.715 51.316 246.135 51.136 246.471 50.776C246.807 50.416 246.975 49.972 246.975 49.432V46.036H247.839V52H246.987V50.908C246.507 51.712 245.835 52.12 244.935 52.12C244.227 52.12 243.675 51.892 243.267 51.46C242.871 51.016 242.679 50.44 242.679 49.72V46.036ZM249.926 46.036H250.778V47.212C251.066 46.624 251.546 46.228 252.002 46.06C252.23 45.976 252.47 45.94 252.71 45.94C252.842 45.94 252.938 45.94 252.998 45.964V46.888C252.902 46.864 252.782 46.864 252.662 46.864C251.246 46.864 250.802 48.028 250.802 49.084V52H249.926V46.036ZM25.136 72H24.212V63.252H25.136V67.116H25.196L29.12 63.252H30.392L26.108 67.44L30.596 72H29.3L25.196 67.788H25.136V72ZM34.8306 67.44L37.6266 63.252H38.6706L35.2866 68.304V72H34.3506V68.316L30.9666 63.252H32.0706L34.8306 67.44ZM42.6455 72.096C41.4455 72.096 40.3295 71.628 39.5495 70.86C39.1655 70.476 38.8535 70.008 38.6255 69.456C38.3975 68.892 38.2775 68.292 38.2775 67.656C38.2775 67.008 38.3975 66.396 38.6375 65.832C38.8775 65.268 39.1895 64.788 39.5855 64.404C40.3895 63.624 41.5055 63.156 42.6815 63.156C43.6055 63.156 44.4455 63.432 45.0095 63.828C45.2975 64.02 45.5495 64.248 45.7775 64.5C46.2215 65.016 46.4615 65.532 46.5935 66.036L45.7175 66.348C45.6455 66.06 45.5255 65.748 45.2015 65.292C45.0335 65.064 44.8535 64.86 44.6375 64.68C44.4215 64.5 44.1455 64.344 43.7975 64.224C43.4495 64.092 43.0775 64.032 42.6575 64.032C41.7455 64.032 40.8695 64.404 40.2575 65.016C39.6335 65.64 39.2375 66.564 39.2375 67.596C39.2375 68.28 39.3815 68.904 39.6815 69.456C39.9695 70.008 40.3775 70.44 40.9175 70.752C41.4335 71.064 42.0215 71.22 42.6695 71.22C43.4735 71.22 44.1695 70.944 44.5895 70.608C44.8055 70.44 44.9975 70.248 45.1655 70.008C45.3335 69.78 45.4535 69.576 45.5375 69.408C45.6095 69.24 45.6815 69.06 45.7415 68.88L46.6175 69.192C46.4855 69.66 46.2575 70.14 45.8135 70.68C45.5975 70.944 45.3335 71.184 45.0575 71.388C44.4815 71.796 43.6055 72.096 42.6455 72.096Z" fill="#CBD5E1"/>
<path d="M286.19 42.8689C286.351 42.8689 286.512 42.9318 286.638 43.0666L291.767 48.5213C292.012 48.7819 292.012 49.2132 291.767 49.4738L286.638 54.9286C286.393 55.1892 285.988 55.1892 285.743 54.9286C285.498 54.668 285.498 54.2366 285.743 53.976L290.424 48.9976L285.743 44.0191C285.498 43.7585 285.498 43.3272 285.743 43.0666C285.861 42.9318 286.03 42.8689 286.19 42.8689Z" fill="white"/>
<path d="M276.956 48.3249H291.177C291.523 48.3249 291.811 48.6304 291.811 48.9989C291.811 49.3673 291.523 49.6729 291.177 49.6729H276.956C276.609 49.6729 276.322 49.3673 276.322 48.9989C276.322 48.6304 276.609 48.3249 276.956 48.3249Z" fill="white"/>
<path opacity="0.15" d="M354.184 54.9011C354.184 54.9011 280.954 45.2599 259.117 30.5854C230.057 11.0571 234.598 -39 234.598 -39" stroke="#64748B" stroke-width="6"/>
<path opacity="0.15" d="M-21.7676 108.607C-21.7676 108.607 -3.50852 57.0569 19.142 70.4413C71.2404 101.227 102.341 -20.6065 102.341 -20.6065" stroke="#64748B" stroke-width="6"/>
</g>
<defs>
<clipPath id="clip0_13_3751">
<rect width="335" height="88" rx="8" fill="white"/>
</clipPath>
</defs>
</svg>
