<svg width="375" height="330" viewBox="0 0 375 330" fill="none" xmlns="http://www.w3.org/2000/svg">
<g filter="url(#filter0_d_1_5758)">
<g clip-path="url(#clip0_1_5758)">
<rect x="120.721" y="312.822" width="269.783" height="162.212" rx="17.0749" transform="rotate(-114.377 120.721 312.822)" fill="#34A8FA"/>
<rect x="141.287" y="64.4883" width="38.7031" height="27.3198" rx="3.41498" transform="rotate(-114.377 141.287 64.4883)" fill="white" fill-opacity="0.1"/>
<path fill-rule="evenodd" clip-rule="evenodd" d="M150.665 38.7696C152.256 39.5283 153.603 40.8377 154.391 42.5779C156.151 46.4608 154.467 51.0178 150.63 52.7564C146.794 54.4949 142.257 52.7566 140.498 48.8738C139.709 47.1336 139.612 45.2579 140.091 43.5613C138.5 42.8026 137.153 41.4931 136.365 39.7529C134.605 35.8701 136.289 31.313 140.126 29.5745C143.962 27.8359 148.499 29.5742 150.258 33.4571C151.047 35.1973 151.144 37.0729 150.665 38.7696Z" fill="#ED0006"/>
<path fill-rule="evenodd" clip-rule="evenodd" d="M150.259 33.4572C148.499 29.5743 143.963 27.8361 140.126 29.5746C136.289 31.3132 134.606 35.8702 136.365 39.753C137.154 41.4932 138.5 42.8027 140.091 43.5614C140.68 41.4724 142.142 39.6547 144.259 38.6953C146.376 37.736 148.707 37.8353 150.666 38.7695C151.144 37.0729 151.047 35.1973 150.259 33.4572Z" fill="#F9A000"/>
<path fill-rule="evenodd" clip-rule="evenodd" d="M150.666 38.7693C148.707 37.835 146.377 37.7355 144.259 38.695C142.142 39.6543 140.681 41.4719 140.091 43.5609C142.051 44.4952 144.381 44.5947 146.498 43.6352C148.616 42.6759 150.077 40.8583 150.666 38.7693Z" fill="#FF5E00"/>
<path d="M74.2654 161.656C69.4973 161.583 67.8768 165.376 72.197 166.553C75.3947 167.407 83.1843 167.06 84.196 166C86.4931 163.555 82.3901 161.771 74.2654 161.656Z" fill="#FEFAFA"/>
<path d="M91.0157 176.897C90.7051 174.599 89.2019 174.456 85.6922 176.388C78.783 180.237 76.8689 183.82 80.1286 186.857C81.6659 188.302 91.3678 179.446 91.0157 176.897Z" fill="#FEFAFA"/>
<path d="M102.318 196.034C103.55 189.942 103.556 186.098 102.235 184.783C100.608 183.147 100.092 183.779 98.9644 188.696C97.4774 194.987 97.584 198.002 99.3578 200.111C100.611 201.614 101.371 200.595 102.318 196.034Z" fill="#FEFAFA"/>
<path d="M85.1228 156.559C86.8059 157.083 86.8375 157.068 87.0501 155.958C87.6526 152.802 85.1046 150.942 71.9451 145.021C68.4025 143.438 68.6796 148.7 72.2735 150.802C74.1481 151.895 83.1596 155.936 85.1228 156.559Z" fill="#FEFAFA"/>
<path d="M124.416 91.8055C124.021 93.3502 122.654 94.8891 120.362 96.3609C118.787 97.3776 92.6902 114.065 86.1305 119.146C80.6725 123.357 79.5565 128.463 80.8076 131.518C81.5972 133.434 83.3436 133.927 83.2279 134.913C82.9026 137.589 82.5701 138.445 83.7201 140.384C84.2333 141.305 85.8088 143.16 86.7878 143.589C87.3932 143.885 87.6781 144.487 87.9591 145.984C89.3042 153.34 96.8836 153.287 104.97 145.854C109.597 141.61 106.079 140.324 100.036 144.036C92.0364 148.944 91.0586 149.174 90.7652 146.092C90.5977 144.426 90.6946 144.302 92.4985 143.604C95.03 142.64 105.381 135.649 105.494 134.82C105.81 132.536 103.151 132.164 100.409 134.16C92.7094 139.702 86.9828 141.13 86.3059 137.648C86.1097 136.577 86.636 135.474 87.6189 135.009C97.0879 130.337 103.416 127.228 102.037 124.311C101.167 122.472 101.23 122.442 93.1495 126.768C84.5765 131.366 83.6059 130.544 83.3468 128.765C82.9797 126.184 88.1382 123.473 89.4601 122.576C89.4918 122.561 120.035 101.986 120.098 101.956C127.297 97.815 131.656 90.0499 128.018 87.7737C127.26 87.3178 124.896 89.949 124.416 91.8055Z" fill="#FEFAFA"/>
<path d="M121.503 189.018C116.398 191.432 115.956 191.563 114.335 191.089C111.356 190.286 113.02 188.8 122.621 183.833C129.635 180.205 129.715 180.129 129.439 178.397C129.112 176.146 128.103 176.391 120.154 180.421C112.998 184.077 112.729 184.166 111.328 183.664C108.401 182.643 108.998 181.856 115.489 177.778C119.45 175.323 121.826 174.276 125.756 173.233C126.75 172.956 126.96 172.663 126.823 171.797C126.387 169.481 125.524 169.462 119.215 171.709C108.288 175.596 105.824 178.507 108.55 184.435C109.343 186.194 110.066 188.296 110.078 189.144C110.123 189.976 110.651 191.667 111.267 192.888C111.884 194.11 112.748 196.184 113.16 197.464C113.659 199.013 114.356 200.158 115.141 200.834C118.546 203.685 120.812 203.39 145.951 196.739C150.291 195.578 155.659 194.049 157.825 193.296C161.872 191.925 166.972 191.143 171.49 191.179C174.612 191.216 175.396 190.496 174.466 188.53C172.802 185.01 165.535 184.412 157.645 187.173C153.455 188.65 151.462 188.701 141.73 191.751C122.993 197.664 120.753 198.18 117.853 197.379C113.876 196.272 114.901 196.059 131.175 187.974C131.873 187.644 132.112 186.755 131.719 186.088C131.024 184.864 129.715 185.134 121.503 189.018Z" fill="#FEFAFA"/>
<path d="M137.262 109.205C134.529 112.942 134.477 113.16 135.776 116.891C137.34 121.429 137.234 125.553 135.499 128.119C131.625 133.793 119.472 144.933 116.093 145.91C111.356 147.297 110.983 145.688 114.868 140.941C117.915 137.211 118.726 135.314 119.939 129.347C120.468 126.692 121.198 124.872 122.377 123.345C123.814 121.462 123.967 120.963 123.427 119.822C121.582 115.922 115.321 124.587 116.048 130.062C116.374 132.392 116.134 133.281 115.088 133.776C109.856 136.25 107.794 146.576 111.933 149.584C115.517 152.158 118.569 151.063 126.213 144.5C140.86 131.908 143.055 127.688 139.707 118.641C138.42 115.098 138.6 114.004 140.993 110.777C144.291 106.346 140.004 105.076 139.561 105.945C139.366 106.27 138.346 107.722 137.262 109.205Z" fill="#FEFAFA"/>
<path d="M122.945 167.538C125.118 169.343 128.966 170.589 132.012 170.467C134.258 170.375 134.553 170.507 135.678 172.147C138.11 175.731 142.585 177.727 145.9 176.78C148.837 175.934 148.913 172.484 145.96 172.639C142.127 172.822 138.41 171.36 136.316 168.82C135.032 167.254 129.801 165.382 124.128 164.379C120.533 163.751 123.58 160.759 128.458 160.081C143.565 158.058 153.358 160.061 157.01 165.978C158.572 168.46 159.381 168.776 164.916 168.912C168.538 169.023 168.711 168.98 168.907 167.917C169.403 165.355 167.216 164.177 162.953 164.68C160.012 165.024 159.84 164.989 158.45 163.279C153.13 156.871 147.108 155.296 131.666 156.197C119.883 156.881 116.088 161.818 122.945 167.538Z" fill="#FEFAFA"/>
<path d="M191.557 158.811C191.702 159.119 191.74 159.43 191.67 159.745C191.599 160.061 191.27 160.358 190.681 160.636C190.412 160.763 189.937 160.87 189.257 160.957C188.577 161.043 187.764 161.114 186.819 161.17C185.854 161.218 184.827 161.25 183.737 161.264C182.646 161.278 181.553 161.27 180.457 161.239C179.362 161.209 178.336 161.161 177.38 161.096C176.425 161.031 175.6 160.943 174.905 160.833C174.191 160.716 173.69 160.584 173.402 160.439C173.001 160.221 172.722 159.945 172.565 159.612C172.48 159.433 172.417 159.251 172.377 159.066C172.33 158.869 172.325 158.691 172.36 158.533C172.399 158.186 172.607 157.797 172.984 157.368C173.343 156.932 173.809 156.477 174.383 156.001C174.952 155.513 175.586 155.033 176.288 154.56C176.97 154.081 177.655 153.624 178.343 153.189C178.048 152.732 177.859 152.414 177.774 152.235C177.592 151.851 177.489 151.484 177.465 151.135C177.429 150.792 177.574 150.535 177.901 150.365C178.209 150.188 178.526 150.163 178.853 150.291C179.173 150.406 179.467 150.612 179.733 150.909C179.857 151.038 180.116 151.371 180.51 151.905C181.145 151.558 181.686 151.278 182.135 151.066C183.274 150.527 184.188 150.173 184.877 150.004C185.559 149.823 186.08 149.765 186.44 149.83C186.793 149.882 187.044 149.998 187.192 150.179C187.347 150.341 187.461 150.498 187.534 150.652C187.54 150.665 187.546 150.678 187.552 150.69C187.728 151.062 187.762 151.383 187.654 151.653C187.541 151.91 187.26 152.145 186.812 152.357L185.448 153.002C185.025 153.202 184.554 153.432 184.035 153.694C183.516 153.955 182.971 154.244 182.4 154.561C182.886 155.256 183.371 155.951 183.857 156.646C184.323 157.335 184.729 157.926 185.073 158.422C185.764 158.393 186.383 158.359 186.929 158.32C187.462 158.287 187.871 158.242 188.158 158.185C188.876 158.081 189.454 158.027 189.892 158.024C190.316 158.027 190.635 158.072 190.849 158.159C191.069 158.227 191.222 158.319 191.309 158.435C191.408 158.545 191.49 158.67 191.557 158.811ZM182.21 158.483C181.827 158.006 181.467 157.541 181.128 157.09C180.777 156.645 180.45 156.22 180.148 155.814C179.385 156.254 178.646 156.697 177.933 157.144C177.219 157.591 176.595 158.011 176.061 158.405C176.859 158.435 177.812 158.463 178.92 158.487C180.01 158.504 181.107 158.503 182.21 158.483ZM187.623 137.518C188.077 138.479 188.352 139.242 188.447 139.808C188.536 140.361 188.508 140.782 188.362 141.071C188.23 141.353 188.048 141.548 187.817 141.658C187.497 141.809 187.186 141.831 186.884 141.723C186.576 141.602 186.341 141.369 186.177 141.023C186.068 140.792 185.943 140.444 185.801 139.978C185.659 139.512 185.485 139.062 185.279 138.626C184.673 137.346 183.866 136.434 182.858 135.893C181.862 135.345 180.637 135.125 179.183 135.232C177.717 135.346 176 135.758 174.032 136.469C175.898 136.669 177.52 137.1 178.9 137.764C180.274 138.415 181.233 139.317 181.778 140.47C182.42 141.828 182.075 142.822 180.743 143.451C180.103 143.754 179.349 143.899 178.481 143.887C177.613 143.874 176.697 143.743 175.732 143.494C174.768 143.245 173.815 142.92 172.873 142.519C171.919 142.124 171.041 141.693 170.24 141.225C169.433 140.745 168.752 140.267 168.199 139.792C167.632 139.324 167.261 138.904 167.085 138.532C166.946 138.238 166.876 137.957 166.876 137.691C166.869 137.412 166.989 137.136 167.236 136.862C167.47 136.595 167.875 136.325 168.452 136.052C170.053 135.295 171.63 134.62 173.183 134.027C174.723 133.439 176.206 133.012 177.631 132.746C179.057 132.479 180.395 132.442 181.645 132.634C182.89 132.813 184.017 133.291 185.027 134.067C186.037 134.844 186.902 135.994 187.623 137.518ZM179.196 141.174C179.286 141.132 179.312 141.072 179.276 140.995C179.155 140.739 178.857 140.457 178.382 140.149C177.894 139.846 177.302 139.554 176.604 139.273C175.888 138.985 175.127 138.734 174.32 138.52C173.501 138.311 172.69 138.17 171.886 138.096C171.077 138.008 170.338 138.02 169.67 138.133C170.37 138.617 171.145 139.096 171.997 139.571C172.829 140.04 173.682 140.451 174.555 140.806C175.422 141.148 176.264 141.37 177.079 141.47C177.876 141.563 178.581 141.465 179.196 141.174ZM174.783 123.144C175.146 123.912 175.244 124.516 175.076 124.956C174.915 125.377 174.571 125.712 174.046 125.961C171.818 127.014 169.296 127.698 166.482 128.01C163.649 128.315 160.648 128.285 157.481 127.917C156.937 127.861 156.588 127.768 156.432 127.638C156.276 127.508 156.15 127.34 156.053 127.135C155.914 126.841 155.895 126.536 155.997 126.221C156.093 125.894 156.308 125.651 156.641 125.494C156.743 125.445 157.076 125.421 157.64 125.421C158.204 125.42 158.93 125.43 159.817 125.449C160.698 125.456 161.69 125.449 162.793 125.429C163.883 125.415 165.022 125.37 166.209 125.295C167.389 125.206 168.552 125.064 169.697 124.867C168.941 124.692 168.144 124.466 167.307 124.187C166.451 123.902 165.638 123.574 164.866 123.202C164.082 122.837 163.41 122.442 162.848 122.017C162.275 121.599 161.882 121.166 161.67 120.718C161.47 120.295 161.387 119.856 161.423 119.4C161.452 118.932 161.63 118.48 161.956 118.043C162.283 117.607 162.792 117.225 163.483 116.898C164.239 116.54 165.117 116.392 166.117 116.452C167.111 116.499 168.141 116.772 169.208 117.27C170.268 117.756 171.288 118.488 172.268 119.467C173.242 120.432 174.08 121.658 174.783 123.144ZM172.211 123.373C171.668 122.423 171.036 121.633 170.314 121.002C169.587 120.359 168.831 119.87 168.046 119.536C167.261 119.202 166.514 119.014 165.805 118.973C165.083 118.939 164.466 119.042 163.954 119.285C163.839 119.339 163.796 119.398 163.826 119.462C163.954 119.731 164.236 120.013 164.673 120.308C165.097 120.609 165.623 120.909 166.25 121.208C166.878 121.507 167.546 121.794 168.256 122.069C168.967 122.345 169.665 122.594 170.351 122.819C171.036 123.043 171.657 123.227 172.211 123.373ZM167.656 107.726C167.85 108.136 167.91 108.562 167.837 109.004C167.777 109.44 167.613 109.839 167.345 110.201C167.065 110.569 166.713 110.852 166.291 111.052C165.496 111.428 164.64 111.621 163.721 111.633C162.795 111.632 161.857 111.503 160.906 111.248C159.954 110.993 159.036 110.659 158.152 110.247C157.248 109.828 156.431 109.376 155.7 108.891C154.963 108.393 154.346 107.917 153.849 107.462C153.346 106.995 153.019 106.601 152.867 106.281C152.692 105.909 152.633 105.569 152.69 105.26C152.729 104.944 152.914 104.707 153.247 104.55C153.35 104.501 153.445 104.487 153.534 104.508C153.493 104.324 153.526 104.144 153.631 103.969C153.736 103.793 153.942 103.633 154.25 103.488C154.378 103.427 154.726 103.302 155.294 103.111C155.863 102.921 156.549 102.682 157.354 102.396C158.153 102.097 158.968 101.75 159.801 101.356C159.929 101.296 160.035 101.222 160.119 101.135C160.191 101.054 160.196 100.95 160.136 100.822C159.893 100.309 159.546 99.8391 159.092 99.4109C158.62 98.9759 158.112 98.5814 157.569 98.2273C157.006 97.8664 156.474 97.5537 155.973 97.2892C155.453 97.018 155.024 96.7899 154.686 96.6051C154.329 96.4135 154.129 96.2728 154.087 96.1832C153.881 95.7477 153.995 95.427 154.431 95.221C154.546 95.1665 154.856 95.1923 155.361 95.2984C155.847 95.3978 156.439 95.5724 157.137 95.8222C157.822 96.078 158.534 96.3915 159.274 96.7626C159.995 97.1269 160.651 97.5532 161.242 98.0415C161.828 98.517 162.257 99.0429 162.529 99.6192C162.862 100.324 162.95 100.94 162.793 101.469C162.629 101.985 162.302 102.454 161.811 102.874C161.302 103.287 160.691 103.67 159.98 104.022C161.224 104.233 162.378 104.518 163.441 104.877C164.485 105.23 165.379 105.645 166.123 106.124C166.866 106.603 167.378 107.137 167.656 107.726ZM154.815 105.477C156.01 106.448 157.235 107.248 158.489 107.877C159.73 108.513 160.912 108.926 162.036 109.115C163.154 109.292 164.104 109.195 164.885 108.826C165.103 108.723 165.163 108.569 165.066 108.364C164.951 108.12 164.659 107.867 164.189 107.603C163.713 107.326 163.133 107.06 162.448 106.804C161.75 106.555 161.001 106.329 160.2 106.128C159.387 105.932 158.576 105.775 157.767 105.656C156.959 105.537 156.215 105.489 155.536 105.512C155.289 105.52 155.049 105.508 154.815 105.477Z" fill="#FEFAFA"/>
<path d="M130.036 288.34L129.199 288.81L128.595 288.094L123.144 291.156L123.441 292.044L122.598 292.518L122.148 291.715L120.624 289.003C120.308 288.441 120.136 287.903 120.108 287.391C120.075 286.876 120.174 286.411 120.406 285.994C120.634 285.579 120.982 285.24 121.448 284.978C121.918 284.714 122.39 284.593 122.863 284.614C123.333 284.636 123.779 284.796 124.2 285.092C124.62 285.385 124.988 285.812 125.304 286.374L126.047 287.698L127.814 286.705L127.517 285.817L128.355 285.346L130.036 288.34ZM124.974 288.3L124.231 286.977C123.986 286.541 123.684 286.278 123.324 286.189C122.965 286.1 122.603 286.157 122.239 286.362C121.871 286.569 121.628 286.85 121.511 287.208C121.39 287.567 121.452 287.964 121.697 288.4L122.44 289.723L124.974 288.3ZM125.875 280.679C126.187 281.235 126.288 281.753 126.178 282.236C126.063 282.717 125.752 283.101 125.244 283.386C124.897 283.581 124.54 283.658 124.172 283.618C123.799 283.577 123.437 283.413 123.083 283.128C122.725 282.841 122.397 282.431 122.098 281.9L121.656 281.113L121.222 281.357C120.943 281.514 120.765 281.724 120.688 281.986C120.61 282.245 120.661 282.535 120.84 282.855C120.938 283.029 121.048 283.173 121.171 283.288C121.288 283.401 121.417 283.49 121.556 283.555L122.363 283.257L122.931 284.268L121.537 285.065C121.21 284.881 120.902 284.651 120.612 284.375C120.317 284.097 120.054 283.752 119.822 283.34C119.422 282.628 119.275 281.974 119.379 281.378C119.478 280.78 119.837 280.307 120.457 279.959L122.812 278.636C122.887 278.594 122.96 278.553 123.032 278.513C123.101 278.469 123.167 278.423 123.23 278.375L122.993 277.762L123.831 277.291L124.821 279.054C124.736 279.151 124.649 279.247 124.559 279.342C124.464 279.436 124.364 279.521 124.259 279.598C124.589 279.65 124.896 279.762 125.181 279.934C125.46 280.104 125.691 280.352 125.875 280.679ZM124.635 280.925C124.503 280.69 124.326 280.501 124.102 280.358C123.876 280.212 123.65 280.132 123.424 280.121L122.525 280.626L122.97 281.417C123.171 281.775 123.406 281.999 123.676 282.089C123.941 282.178 124.186 282.159 124.411 282.033C124.615 281.918 124.737 281.764 124.777 281.572C124.816 281.379 124.769 281.164 124.635 280.925ZM125.556 275.135C125.621 275.251 125.682 275.387 125.739 275.543C125.797 275.694 125.843 275.836 125.877 275.969L124.756 276.39C124.732 276.323 124.701 276.247 124.661 276.162C124.62 276.073 124.586 276.003 124.557 275.951C124.434 275.734 124.27 275.584 124.063 275.503C123.856 275.422 123.618 275.404 123.347 275.448L122.87 275.521L119.307 279.982L119.583 280.701L118.74 281.174L117.162 278.364L118.005 277.891L118.489 278.513L120.484 276.19L120.8 275.831L120.782 275.8L117.267 276.35L117.549 277.079L116.706 277.552L115.225 274.916L116.068 274.442L116.497 275.002L123.116 274.08C123.432 274.036 123.74 274.034 124.039 274.072C124.339 274.105 124.62 274.205 124.88 274.372C125.138 274.537 125.363 274.791 125.556 275.135ZM121.049 272.339L120.212 272.81L119.611 272.099L114.16 275.16L114.454 276.043L113.611 276.517L113.164 275.72L112.372 274.31L115.796 268.011L115.774 267.984L111.483 270.394L111.86 271.425L111.017 271.899L109.786 269.707L109.336 268.905L110.179 268.431L110.782 269.147L117.225 265.529L117.973 266.863L114.625 273.212L114.647 273.24L118.908 270.847L118.53 269.816L119.368 269.345L121.049 272.339ZM115.608 262.4C115.903 262.925 116.044 263.448 116.033 263.97C116.016 264.49 115.863 264.972 115.575 265.416C115.283 265.862 114.874 266.233 114.346 266.53L114.136 266.648C113.595 266.952 113.056 267.12 112.518 267.153C111.976 267.184 111.481 267.081 111.034 266.844C110.584 266.609 110.222 266.247 109.949 265.76C109.667 265.26 109.532 264.783 109.541 264.329C109.548 263.878 109.687 263.461 109.961 263.079C110.235 262.696 110.632 262.359 111.153 262.066L111.925 261.633L113.787 264.949L113.823 264.942C114.081 264.779 114.285 264.586 114.433 264.364C114.578 264.144 114.657 263.905 114.669 263.647C114.681 263.389 114.61 263.124 114.457 262.852C114.295 262.562 114.109 262.319 113.9 262.123C113.689 261.923 113.45 261.756 113.181 261.62L113.82 260.736C114.129 260.855 114.441 261.048 114.759 261.318C115.073 261.59 115.356 261.951 115.608 262.4ZM112.833 265.464L111.714 263.472L111.581 263.546C111.35 263.676 111.168 263.823 111.036 263.987C110.9 264.153 110.825 264.334 110.81 264.531C110.793 264.724 110.848 264.933 110.974 265.158C111.089 265.362 111.244 265.506 111.438 265.589C111.63 265.674 111.844 265.706 112.083 265.684C112.318 265.664 112.563 265.6 112.816 265.494L112.833 265.464ZM114.512 260.7L113.674 261.17L113.187 260.543L110.455 259.974L109.497 262.515L109.758 263.208L108.915 263.682L107.446 261.066L108.259 260.61L108.58 261.027L109.219 259.519L107.605 259.29L107.82 259.828L107.007 260.284L105.584 257.75L106.427 257.277L106.863 257.825L109.431 258.271L110.413 255.603L110.148 254.892L110.985 254.421L112.518 257.149L111.711 257.602L111.354 257.124L110.729 258.691L112.39 258.955L112.17 258.42L112.977 257.966L114.512 260.7Z" fill="white"/>
</g>
</g>
<g filter="url(#filter1_d_1_5758)">
<g clip-path="url(#clip1_1_5758)">
<rect x="157.578" y="277.295" width="275.312" height="165.536" rx="17.4248" transform="rotate(-81.5098 157.578 277.295)" fill="#010F08"/>
<rect x="312.738" y="75.8281" width="39.4963" height="27.8797" rx="3.48497" transform="rotate(-81.5098 312.738 75.8281)" fill="white" fill-opacity="0.1"/>
<path fill-rule="evenodd" clip-rule="evenodd" d="M337.614 54.1987C338.256 49.8962 335.331 45.8938 331.079 45.2591C326.828 44.6245 322.861 47.598 322.219 51.9005C321.931 53.8289 322.36 55.697 323.303 57.2286C321.953 58.4178 320.998 60.0791 320.71 62.0074C320.068 66.3099 322.993 70.3123 327.245 70.947C331.496 71.5816 335.463 68.6081 336.106 64.3056C336.393 62.3772 335.965 60.5091 335.021 58.9775C336.371 57.7883 337.326 56.127 337.614 54.1987Z" fill="#ED0006"/>
<path fill-rule="evenodd" clip-rule="evenodd" d="M335.021 58.9778C333.86 57.092 331.917 55.7163 329.571 55.3661C327.225 55.0159 324.966 55.7644 323.304 57.2286C322.36 55.697 321.931 53.829 322.219 51.9007C322.861 47.5981 326.829 44.6247 331.08 45.2593C335.331 45.8939 338.257 49.8963 337.615 54.1989C337.327 56.1272 336.371 57.7886 335.021 58.9778Z" fill="#F9A000"/>
<path fill-rule="evenodd" clip-rule="evenodd" d="M335.021 58.9779C333.859 57.0921 331.917 55.7164 329.571 55.3662C327.225 55.016 324.965 55.7645 323.303 57.2287C324.465 59.1145 326.407 60.4902 328.753 60.8404C331.099 61.1906 333.359 60.4421 335.021 58.9779Z" fill="#FF5E00"/>
<path d="M207.204 99.7205C203.282 97.0073 199.825 99.2575 202.76 102.639C204.942 105.128 211.608 109.173 213.039 108.855C216.308 108.101 213.891 104.336 207.204 99.7205Z" fill="#FEFAFA"/>
<path d="M212.645 121.704C213.665 119.623 212.496 118.668 208.505 118.32C200.622 117.675 197.038 119.587 198.058 123.924C198.531 125.981 211.52 124.019 212.645 121.704Z" fill="#FEFAFA"/>
<path d="M211.39 143.894C215.803 139.517 217.946 136.326 217.581 134.498C217.138 132.233 216.358 132.471 212.686 135.931C207.951 140.33 206.362 142.895 206.662 145.635C206.868 147.581 208.066 147.157 211.39 143.894Z" fill="#FEFAFA"/>
<path d="M219.062 101.527C220.169 102.898 220.204 102.903 220.998 102.099C223.254 99.8117 222.172 96.8485 214.53 84.6078C212.468 81.3209 209.77 85.8478 211.587 89.5944C212.537 91.5449 217.777 99.9163 219.062 101.527Z" fill="#FEFAFA"/>
<path d="M287.737 69.5762C286.55 70.6402 284.558 71.1583 281.835 71.1065C279.96 71.0749 248.991 70.4239 240.714 70.9969C233.835 71.4596 230.068 75.0818 229.407 78.3168C228.998 80.348 230.175 81.7295 229.53 82.4844C227.771 84.5269 227.019 85.0531 226.895 87.3043C226.809 88.3554 227.087 90.7728 227.662 91.6743C228 92.2568 227.902 92.9158 227.303 94.3158C224.328 101.177 230.656 105.349 241.51 103.671C247.717 102.718 245.508 99.6933 238.422 99.4156C229.044 99.0442 228.104 98.691 229.574 95.9671C230.362 94.4889 230.511 94.4403 232.399 94.8638C235.039 95.4707 247.529 95.4202 248.084 94.7937C249.618 93.0721 247.615 91.2837 244.226 91.4162C234.745 91.7386 229.192 89.7393 230.566 86.4691C230.999 85.4698 232.05 84.8465 233.125 85.0071C243.593 86.3923 250.581 87.3291 251.058 84.1376C251.358 82.1256 251.427 82.1359 242.306 81.2353C232.624 80.2866 232.275 79.064 233.049 77.4418C234.18 75.0928 239.975 75.7096 241.572 75.6998C241.607 75.7049 278.433 75.5991 278.503 75.6095C286.788 76.1725 294.73 72.145 292.974 68.2301C292.597 67.4291 289.169 68.3004 287.737 69.5762Z" fill="#FEFAFA"/>
<path d="M231.237 148.736C225.652 147.902 225.211 147.765 224.128 146.469C222.099 144.145 224.308 143.836 235.05 145.049C242.897 145.937 243.006 145.918 243.74 144.325C244.72 142.273 243.746 141.914 234.898 140.842C226.918 139.899 226.645 139.823 225.76 138.627C223.895 136.15 224.83 135.828 232.492 136.05C237.149 136.213 239.706 136.666 243.552 137.985C244.532 138.308 244.87 138.181 245.237 137.385C246.164 135.218 245.457 134.723 238.965 133.08C227.722 130.231 224.055 131.28 223.022 137.722C222.703 139.624 222.134 141.774 221.673 142.485C221.247 143.202 220.745 144.9 220.578 146.258C220.411 147.616 219.975 149.821 219.605 151.113C219.159 152.678 219.101 154.017 219.377 155.015C220.62 159.279 222.667 160.294 247.257 168.752C251.509 170.203 256.821 171.918 259.04 172.497C263.165 173.61 267.839 175.797 271.573 178.34C274.146 180.107 275.199 179.945 275.52 177.794C276.094 173.944 270.389 169.404 262.297 167.309C257.993 166.206 256.308 165.139 246.524 162.26C227.665 156.749 225.517 155.932 223.552 153.653C220.864 150.521 221.833 150.914 239.855 153.249C240.618 153.363 241.311 152.758 241.356 151.984C241.459 150.581 240.222 150.077 231.237 148.736Z" fill="#FEFAFA"/>
<path d="M288.733 91.1801C284.382 92.7649 284.218 92.9177 283.221 96.7408C281.997 101.381 279.614 104.749 276.745 105.917C270.37 108.476 254.074 110.973 250.722 109.905C246.014 108.422 246.599 106.878 252.469 105.094C257.076 103.69 258.804 102.565 263.132 98.2812C265.049 96.3686 266.668 95.2627 268.497 94.6492C270.739 93.8845 271.143 93.5547 271.329 92.3059C271.966 88.039 261.943 91.7558 259.501 96.7108C258.476 98.8274 257.782 99.4331 256.637 99.2622C250.914 98.4078 243.456 105.841 245.221 110.644C246.768 114.776 249.913 115.565 259.916 114.363C279.092 112.048 283.263 109.762 285.515 100.381C286.416 96.7212 287.175 95.9125 290.958 94.5623C296.163 92.715 293.308 89.2743 292.457 89.7501C292.114 89.9116 290.458 90.5511 288.733 91.1801Z" fill="#FEFAFA"/>
<path d="M244.385 131.691C245.187 134.399 247.692 137.575 250.291 139.168C252.208 140.341 252.38 140.615 252.402 142.604C252.429 146.935 255.037 151.083 258.32 152.141C261.23 153.072 263.212 150.247 260.672 148.733C257.386 146.753 255.11 143.47 254.783 140.194C254.588 138.179 251.282 133.713 247.126 129.724C244.488 127.202 248.684 126.41 253.115 128.561C266.794 135.284 273.818 142.397 273.561 149.345C273.478 152.276 273.974 152.988 278.498 156.181C281.446 158.288 281.614 158.349 282.368 157.575C284.205 155.721 283.043 153.526 279.221 151.573C276.586 150.222 276.463 150.097 276.258 147.903C275.403 139.619 271.275 134.96 257.941 127.118C247.77 121.131 241.87 123.123 244.385 131.691Z" fill="#FEFAFA"/>
<path d="M306.254 162.607C306.204 162.943 306.062 163.223 305.828 163.446C305.594 163.669 305.155 163.732 304.511 163.636C304.216 163.592 303.763 163.417 303.149 163.111C302.536 162.804 301.821 162.411 301.005 161.931C300.176 161.435 299.305 160.889 298.391 160.294C297.477 159.7 296.573 159.085 295.68 158.45C294.786 157.815 293.96 157.205 293.203 156.619C292.445 156.033 291.808 155.501 291.292 155.023C290.764 154.529 290.421 154.141 290.263 153.86C290.051 153.456 289.972 153.071 290.026 152.707C290.056 152.511 290.105 152.325 290.174 152.149C290.245 151.959 290.34 151.808 290.456 151.697C290.683 151.43 291.072 151.223 291.624 151.076C292.164 150.913 292.804 150.794 293.546 150.718C294.29 150.629 295.085 150.583 295.931 150.58C296.764 150.561 297.588 150.562 298.401 150.584C298.411 150.041 298.43 149.671 298.459 149.475C298.522 149.055 298.64 148.693 298.815 148.389C298.975 148.084 299.238 147.951 299.605 147.991C299.959 148.016 300.237 148.172 300.437 148.459C300.64 148.733 300.769 149.068 300.825 149.463C300.856 149.639 300.886 150.059 300.916 150.723C301.637 150.787 302.243 150.856 302.733 150.929C303.98 151.116 304.937 151.33 305.602 151.573C306.27 151.801 306.735 152.043 306.998 152.297C307.263 152.537 307.407 152.773 307.43 153.006C307.468 153.226 307.475 153.421 307.45 153.589C307.448 153.603 307.446 153.617 307.444 153.631C307.383 154.037 307.233 154.323 306.994 154.488C306.756 154.639 306.392 154.677 305.902 154.604L304.409 154.381C303.947 154.312 303.428 154.242 302.851 154.17C302.274 154.098 301.661 154.035 301.01 153.981C301.026 154.829 301.043 155.677 301.06 156.524C301.065 157.356 301.072 158.073 301.082 158.676C301.673 159.037 302.206 159.353 302.681 159.624C303.143 159.894 303.508 160.084 303.778 160.196C304.433 160.509 304.943 160.786 305.308 161.026C305.66 161.265 305.9 161.48 306.029 161.671C306.174 161.85 306.25 162.012 306.257 162.156C306.278 162.303 306.277 162.453 306.254 162.607ZM298.67 157.134C298.617 156.525 298.576 155.939 298.545 155.375C298.501 154.81 298.466 154.275 298.441 153.77C297.562 153.71 296.702 153.668 295.86 153.642C295.019 153.617 294.266 153.619 293.603 153.649C294.249 154.118 295.026 154.671 295.934 155.308C296.83 155.929 297.742 156.537 298.67 157.134ZM314.831 142.724C314.674 143.775 314.477 144.562 314.242 145.086C314.008 145.595 313.75 145.929 313.469 146.088C313.201 146.249 312.942 146.31 312.689 146.272C312.339 146.22 312.068 146.065 311.878 145.807C311.689 145.536 311.623 145.211 311.68 144.832C311.717 144.58 311.807 144.221 311.948 143.755C312.089 143.289 312.195 142.818 312.266 142.341C312.475 140.94 312.312 139.734 311.775 138.723C311.252 137.714 310.357 136.849 309.089 136.13C307.807 135.409 306.151 134.796 304.121 134.292C305.56 135.496 306.668 136.757 307.445 138.076C308.224 139.382 308.52 140.665 308.332 141.926C308.11 143.411 307.27 144.045 305.813 143.828C305.112 143.723 304.405 143.424 303.691 142.931C302.976 142.437 302.288 141.819 301.625 141.075C300.963 140.332 300.352 139.532 299.792 138.674C299.218 137.815 298.729 136.969 298.323 136.135C297.92 135.286 297.62 134.511 297.424 133.809C297.214 133.104 297.14 132.548 297.2 132.142C297.248 131.82 297.346 131.548 297.494 131.326C297.644 131.091 297.897 130.928 298.254 130.838C298.598 130.746 299.085 130.747 299.715 130.841C301.467 131.103 303.153 131.419 304.774 131.79C306.38 132.159 307.85 132.629 309.183 133.2C310.516 133.772 311.648 134.485 312.581 135.34C313.515 136.182 314.186 137.206 314.593 138.413C315 139.62 315.079 141.057 314.831 142.724ZM305.794 141.075C305.892 141.089 305.948 141.054 305.96 140.97C306.002 140.69 305.911 140.29 305.688 139.769C305.451 139.247 305.121 138.675 304.698 138.053C304.263 137.415 303.77 136.783 303.219 136.156C302.654 135.528 302.059 134.959 301.433 134.45C300.809 133.927 300.188 133.526 299.571 133.248C299.882 134.039 300.26 134.869 300.703 135.738C301.135 136.59 301.614 137.407 302.143 138.187C302.673 138.954 303.249 139.606 303.87 140.143C304.48 140.664 305.122 140.974 305.794 141.075ZM312.158 123.637C312.032 124.478 311.777 125.034 311.393 125.306C311.024 125.566 310.553 125.653 309.978 125.568C307.54 125.204 305.065 124.369 302.552 123.062C300.028 121.74 297.552 120.045 295.125 117.978C294.704 117.629 294.465 117.357 294.408 117.162C294.351 116.968 294.34 116.758 294.373 116.534C294.421 116.212 294.575 115.948 294.835 115.743C295.097 115.525 295.41 115.443 295.774 115.497C295.886 115.514 296.177 115.679 296.646 115.992C297.115 116.306 297.712 116.717 298.438 117.227C299.167 117.722 299.995 118.269 300.923 118.865C301.837 119.46 302.808 120.056 303.836 120.654C304.866 121.238 305.912 121.766 306.973 122.24C306.441 121.673 305.905 121.042 305.365 120.345C304.812 119.632 304.319 118.907 303.885 118.169C303.436 117.429 303.097 116.726 302.867 116.061C302.623 115.395 302.537 114.816 302.61 114.326C302.679 113.863 302.855 113.453 303.138 113.094C303.423 112.721 303.822 112.444 304.336 112.263C304.851 112.082 305.486 112.047 306.243 112.16C307.069 112.284 307.882 112.649 308.679 113.255C309.479 113.847 310.183 114.647 310.792 115.654C311.403 116.648 311.843 117.824 312.113 119.182C312.385 120.526 312.4 122.011 312.158 123.637ZM309.893 122.396C309.97 121.305 309.884 120.296 309.636 119.371C309.389 118.432 309.033 117.605 308.566 116.891C308.1 116.177 307.583 115.605 307.017 115.177C306.437 114.746 305.866 114.489 305.306 114.406C305.18 114.387 305.111 114.412 305.101 114.483C305.057 114.777 305.135 115.168 305.334 115.656C305.519 116.142 305.789 116.684 306.144 117.281C306.499 117.879 306.895 118.489 307.332 119.113C307.769 119.737 308.21 120.333 308.655 120.901C309.101 121.469 309.513 121.967 309.893 122.396ZM314.812 106.861C314.745 107.309 314.559 107.697 314.252 108.023C313.959 108.352 313.601 108.592 313.177 108.744C312.74 108.894 312.29 108.934 311.827 108.865C310.958 108.735 310.139 108.419 309.369 107.918C308.6 107.402 307.892 106.773 307.243 106.032C306.595 105.29 306.018 104.502 305.512 103.668C304.994 102.817 304.567 101.986 304.229 101.177C303.894 100.353 303.646 99.6143 303.486 98.9601C303.328 98.2919 303.275 97.7826 303.327 97.4323C303.388 97.0259 303.528 96.7102 303.748 96.4852C303.956 96.244 304.242 96.1507 304.606 96.205C304.718 96.2218 304.805 96.2634 304.867 96.3299C304.936 96.154 305.063 96.0226 305.248 95.9356C305.433 95.8486 305.694 95.8302 306.03 95.8804C306.17 95.9013 306.529 95.9907 307.107 96.1486C307.685 96.3065 308.388 96.4903 309.217 96.6999C310.047 96.8954 310.917 97.0612 311.828 97.1972C311.968 97.2181 312.098 97.2159 312.216 97.1906C312.32 97.1632 312.383 97.0794 312.404 96.9393C312.488 96.3788 312.46 95.7946 312.322 95.1866C312.171 94.5625 311.969 93.9521 311.714 93.3554C311.448 92.7426 311.18 92.1868 310.91 91.6882C310.629 91.1735 310.399 90.7453 310.221 90.4035C310.031 90.0457 309.943 89.8177 309.958 89.7196C310.029 89.2432 310.303 89.0405 310.779 89.1116C310.905 89.1305 311.148 89.3244 311.509 89.6933C311.857 90.0461 312.252 90.5205 312.693 91.1164C313.12 91.7101 313.538 92.367 313.946 93.0869C314.342 93.7907 314.65 94.5099 314.87 95.2447C315.092 95.9654 315.156 96.641 315.062 97.2716C314.947 98.0423 314.677 98.6037 314.252 98.9556C313.829 99.2936 313.297 99.5007 312.655 99.5768C312.001 99.6368 311.281 99.6152 310.494 99.5121C311.411 100.379 312.211 101.258 312.894 102.148C313.566 103.022 314.078 103.865 314.429 104.676C314.781 105.488 314.908 106.216 314.812 106.861ZM305.392 97.848C305.846 99.3196 306.419 100.666 307.11 101.886C307.788 103.105 308.541 104.105 309.37 104.888C310.2 105.657 311.043 106.105 311.898 106.232C312.136 106.268 312.272 106.174 312.305 105.949C312.345 105.683 312.243 105.31 312 104.829C311.758 104.335 311.424 103.791 310.997 103.197C310.556 102.601 310.059 101.997 309.506 101.384C308.939 100.77 308.352 100.188 307.746 99.6391C307.141 99.0903 306.55 98.6367 305.973 98.2784C305.763 98.1469 305.57 98.0034 305.392 97.848Z" fill="#FEFAFA"/>
<path d="M193.9 264.918L192.951 264.77L192.919 263.834L186.741 262.872L186.426 263.754L185.471 263.606L185.612 262.697L186.091 259.622C186.19 258.985 186.387 258.457 186.681 258.036C186.973 257.611 187.339 257.306 187.778 257.122C188.214 256.937 188.697 256.885 189.226 256.967C189.758 257.05 190.204 257.246 190.563 257.555C190.918 257.863 191.17 258.264 191.319 258.758C191.468 259.248 191.493 259.811 191.394 260.448L191.16 261.947L193.164 262.259L193.479 261.377L194.428 261.525L193.9 264.918ZM189.945 261.758L190.178 260.258C190.255 259.764 190.18 259.371 189.952 259.079C189.725 258.787 189.405 258.608 188.992 258.544C188.575 258.479 188.21 258.551 187.897 258.759C187.58 258.967 187.383 259.317 187.306 259.812L187.073 261.311L189.945 261.758ZM195.362 256.323C195.265 256.953 195.023 257.423 194.639 257.735C194.251 258.042 193.77 258.151 193.194 258.061C192.801 258 192.472 257.84 192.208 257.582C191.94 257.319 191.756 256.966 191.655 256.523C191.551 256.076 191.545 255.551 191.639 254.949L191.778 254.058L191.286 253.981C190.969 253.932 190.7 253.987 190.477 254.146C190.255 254.301 190.116 254.56 190.06 254.923C190.029 255.12 190.027 255.301 190.052 255.467C190.074 255.629 190.12 255.778 190.19 255.916L191.009 256.179L190.83 257.326L189.242 257.09C189.098 256.744 188.998 256.372 188.941 255.976C188.881 255.575 188.887 255.142 188.96 254.675C189.085 253.868 189.373 253.262 189.824 252.858C190.271 252.449 190.846 252.3 191.548 252.409L194.217 252.824C194.302 252.838 194.385 252.85 194.466 252.863C194.548 252.872 194.628 252.876 194.707 252.877L194.9 252.249L195.849 252.396L195.538 254.394C195.412 254.418 195.284 254.439 195.155 254.459C195.022 254.474 194.891 254.479 194.761 254.474C194.988 254.719 195.16 254.997 195.277 255.308C195.392 255.614 195.42 255.953 195.362 256.323ZM194.236 255.751C194.277 255.484 194.254 255.226 194.167 254.975C194.08 254.72 193.951 254.518 193.781 254.369L192.762 254.211L192.622 255.108C192.559 255.513 192.606 255.835 192.763 256.073C192.916 256.306 193.12 256.443 193.375 256.482C193.607 256.519 193.797 256.473 193.948 256.346C194.098 256.219 194.194 256.021 194.236 255.751ZM198.538 251.767C198.518 251.899 198.482 252.043 198.429 252.201C198.382 252.356 198.33 252.496 198.275 252.622L197.133 252.26C197.156 252.193 197.178 252.113 197.2 252.022C197.223 251.926 197.239 251.85 197.248 251.792C197.286 251.545 197.249 251.326 197.137 251.134C197.024 250.943 196.848 250.781 196.608 250.648L196.188 250.411L190.63 251.716L190.403 252.452L189.447 252.303L189.943 249.119L190.898 249.268L190.894 250.056L193.898 249.462L194.369 249.375L194.374 249.34L191.271 247.6L191.042 248.347L190.086 248.198L190.551 245.211L191.507 245.36L191.498 246.064L197.272 249.429C197.547 249.591 197.79 249.779 198.002 249.994C198.218 250.205 198.377 250.457 198.477 250.75C198.579 251.038 198.599 251.377 198.538 251.767ZM196.723 246.784L195.773 246.636L195.74 245.706L189.563 244.745L189.248 245.621L188.293 245.472L188.434 244.569L188.682 242.971L195.267 240.135L195.267 240.1L190.403 239.343L190.063 240.387L189.108 240.238L189.494 237.754L189.636 236.846L190.591 236.994L190.623 237.93L197.924 239.067L197.689 240.578L191.132 243.501L191.132 243.536L195.961 244.288L196.301 243.244L197.251 243.391L196.723 246.784ZM198.587 235.608C198.494 236.202 198.282 236.701 197.951 237.104C197.616 237.502 197.198 237.787 196.697 237.958C196.192 238.129 195.64 238.167 195.042 238.074L194.805 238.037C194.191 237.942 193.663 237.741 193.22 237.435C192.775 237.124 192.449 236.738 192.245 236.275C192.036 235.812 191.975 235.304 192.061 234.752C192.149 234.185 192.337 233.726 192.625 233.375C192.909 233.024 193.276 232.783 193.728 232.651C194.179 232.52 194.7 232.5 195.291 232.592L196.165 232.728L195.58 236.486L195.613 236.503C195.916 236.534 196.195 236.508 196.449 236.425C196.699 236.342 196.909 236.202 197.078 236.007C197.246 235.812 197.355 235.56 197.403 235.251C197.454 234.923 197.458 234.618 197.415 234.334C197.373 234.047 197.288 233.767 197.161 233.494L198.209 233.195C198.379 233.478 198.505 233.824 198.587 234.232C198.666 234.64 198.666 235.098 198.587 235.608ZM194.512 236.302L194.863 234.044L194.713 234.02C194.45 233.98 194.216 233.983 194.011 234.03C193.803 234.076 193.631 234.172 193.498 234.318C193.365 234.459 193.279 234.657 193.24 234.912C193.204 235.143 193.236 235.352 193.338 235.538C193.436 235.723 193.585 235.881 193.786 236.011C193.983 236.14 194.215 236.242 194.48 236.315L194.512 236.302ZM198.776 233.593L197.826 233.445L197.831 232.652L196.035 230.516L193.711 231.921L193.488 232.628L192.533 232.479L192.994 229.515L193.915 229.658L193.91 230.185L195.344 229.394L194.216 228.217L194.053 228.772L193.132 228.629L193.579 225.757L194.535 225.906L194.538 226.606L196.282 228.544L198.703 227.053L198.934 226.33L199.883 226.478L199.402 229.569L198.487 229.427L198.503 228.831L197.043 229.677L198.185 230.91L198.343 230.353L199.258 230.496L198.776 233.593Z" fill="white"/>
</g>
</g>
<defs>
<filter id="filter0_d_1_5758" x="2.53918" y="-4.9838" width="286.421" height="340.003" filterUnits="userSpaceOnUse" color-interpolation-filters="sRGB">
<feFlood flood-opacity="0" result="BackgroundImageFix"/>
<feColorMatrix in="SourceAlpha" type="matrix" values="0 0 0 0 0 0 0 0 0 0 0 0 0 0 0 0 0 0 127 0" result="hardAlpha"/>
<feOffset dx="6.82996" dy="8.53745"/>
<feGaussianBlur stdDeviation="6.82996"/>
<feColorMatrix type="matrix" values="0 0 0 0 0 0 0 0 0 0 0 0 0 0 0 0 0 0 0.05 0"/>
<feBlend mode="normal" in2="BackgroundImageFix" result="effect1_dropShadow_1_5758"/>
<feBlend mode="normal" in="SourceGraphic" in2="effect1_dropShadow_1_5758" result="shape"/>
</filter>
<filter id="filter1_d_1_5758" x="150.608" y="-0.22745" width="232.249" height="324.614" filterUnits="userSpaceOnUse" color-interpolation-filters="sRGB">
<feFlood flood-opacity="0" result="BackgroundImageFix"/>
<feColorMatrix in="SourceAlpha" type="matrix" values="0 0 0 0 0 0 0 0 0 0 0 0 0 0 0 0 0 0 127 0" result="hardAlpha"/>
<feOffset dx="6.96993" dy="8.71242"/>
<feGaussianBlur stdDeviation="6.96993"/>
<feColorMatrix type="matrix" values="0 0 0 0 0 0 0 0 0 0 0 0 0 0 0 0 0 0 0.05 0"/>
<feBlend mode="normal" in2="BackgroundImageFix" result="effect1_dropShadow_1_5758"/>
<feBlend mode="normal" in="SourceGraphic" in2="effect1_dropShadow_1_5758" result="shape"/>
</filter>
<clipPath id="clip0_1_5758">
<rect x="120.721" y="312.822" width="269.783" height="162.212" rx="17.0749" transform="rotate(-114.377 120.721 312.822)" fill="white"/>
</clipPath>
<clipPath id="clip1_1_5758">
<rect x="157.578" y="277.295" width="275.312" height="165.536" rx="17.4248" transform="rotate(-81.5098 157.578 277.295)" fill="white"/>
</clipPath>
</defs>
</svg>
