<svg width="375" height="300" viewBox="0 0 375 300" fill="none" xmlns="http://www.w3.org/2000/svg">
<path opacity="0.45" d="M187 260.65C268.644 260.65 334.83 254.736 334.83 247.44C334.83 240.145 268.644 234.23 187 234.23C105.356 234.23 39.1699 240.145 39.1699 247.44C39.1699 254.736 105.356 260.65 187 260.65Z" fill="#E6E6E6"/>
<path d="M254.11 233.78C254.11 233.78 250.94 236.91 247.52 235.43C244.1 233.95 241.6 236.87 244.12 239.34C246.64 241.81 256.19 241.92 256.19 241.92L258.99 235.44L254.11 233.78Z" fill="#68E1FD"/>
<path d="M307.33 232.34C307.33 232.34 308.89 236.6 306.33 239.34C303.77 242.08 305.33 245.66 308.49 244.13C311.65 242.6 315.3 233.33 315.3 233.33L310.66 228.15L307.33 232.34Z" fill="#68E1FD"/>
<path d="M315.82 152.26C315.82 152.26 319.16 166.17 313.35 173.01C307.54 179.85 298.64 212.26 313.35 228.47L307.53 234.23C307.53 234.23 282.07 220.54 289.33 171.23L271.15 152.23L315.82 152.26Z" fill="#24285B"/>
<path d="M271.15 152.26L252.49 234.26L261.82 235.7C261.82 235.7 280.49 179.52 292.82 168L271.15 152.26Z" fill="#24285B"/>
<path d="M266.81 80.1904C266.81 80.1904 247.35 88.4904 250.33 118.89L269.33 117.26L266.81 80.1904Z" fill="#68E1FD"/>
<path opacity="0.36" d="M266.81 80.1904C266.81 80.1904 247.35 88.4904 250.33 118.89L269.33 117.26L266.81 80.1904Z" fill="white"/>
<path d="M287.07 54.1504L292.47 73.1704L281.77 75.4004L282.14 60.6604L287.07 54.1504Z" fill="#F4A28C"/>
<path opacity="0.31" d="M281.92 63.8801C283.229 63.3814 284.363 62.5085 285.18 61.3701C285.18 61.3701 285.45 64.9801 281.93 69.0001L281.92 63.8801Z" fill="#CE8172"/>
<path d="M292.47 73.1698L286.12 74.4898C286.12 74.4898 257.12 77.6198 255.91 94.0098C254.7 110.4 271.13 152.26 271.13 152.26H315.13C315.13 152.26 350.36 68.8398 292.47 73.1698Z" fill="#68E1FD"/>
<path d="M276 54.6999C276 54.6999 276.54 60.6999 278.23 64.4699C278.391 64.8338 278.623 65.162 278.912 65.4354C279.201 65.7088 279.542 65.922 279.914 66.0625C280.286 66.203 280.683 66.2681 281.08 66.2539C281.478 66.2397 281.869 66.1466 282.23 65.9799C283.433 65.5155 284.476 64.7134 285.233 63.6702C285.991 62.6271 286.431 61.3872 286.5 60.0999L287.36 54.5999C287.414 53.4793 287.12 52.3695 286.518 51.4225C285.917 50.4755 285.037 49.7376 284 49.3099C280.24 47.4999 275.48 51.0599 276 54.6999Z" fill="#F4A28C"/>
<path opacity="0.09" d="M305.46 80.8096C305.46 80.8096 290.46 89.5496 293.91 109.32C297.36 129.09 303.21 135.9 290.8 133.13C278.39 130.36 273.29 124.13 273.29 124.13C273.29 124.13 264.36 131.41 273.29 136.94C282.22 142.47 294.29 142.45 296.29 152.24H315.16C315.16 152.24 316.69 147.95 318.71 142.55C320.73 137.15 305.46 80.8096 305.46 80.8096Z" fill="black"/>
<path d="M277.51 54.69C279.358 54.4341 281.17 53.9643 282.91 53.29C282.523 54.1946 282.412 55.1932 282.589 56.1609C282.767 57.1285 283.227 58.0222 283.91 58.73C284.551 59.4326 285.416 59.8906 286.357 60.0256C287.299 60.1606 288.258 59.9642 289.07 59.47L287.61 51.86C287.441 50.7665 286.981 49.7388 286.277 48.8853C285.573 48.0317 284.651 47.3838 283.61 47.01C282.705 46.6835 281.78 46.4163 280.84 46.21C278.45 45.71 275.06 46.67 273.74 48.8C273.155 49.7223 272.959 50.8388 273.195 51.9051C273.431 52.9715 274.08 53.9009 275 54.49C275.798 54.8062 276.672 54.8759 277.51 54.69Z" fill="#24285B"/>
<path d="M283.21 58.67C283.21 58.67 282.85 56.37 284.6 56.24C286.35 56.11 286.89 59.43 284.6 60.15L283.21 58.67Z" fill="#F4A28C"/>
<path opacity="0.08" d="M244.44 158.61C269.066 158.61 289.03 138.646 289.03 114.02C289.03 89.3933 269.066 69.4297 244.44 69.4297C219.813 69.4297 199.85 89.3933 199.85 114.02C199.85 138.646 219.813 158.61 244.44 158.61Z" fill="black"/>
<path d="M244.44 158.61C269.066 158.61 289.03 138.646 289.03 114.02C289.03 89.3933 269.066 69.4297 244.44 69.4297C219.813 69.4297 199.85 89.3933 199.85 114.02C199.85 138.646 219.813 158.61 244.44 158.61Z" fill="#34A8FA"/>
<g opacity="0.08">
<path d="M243.71 149.26C268.336 149.26 288.3 129.296 288.3 104.67C288.3 80.0437 268.336 60.0801 243.71 60.0801C219.084 60.0801 199.12 80.0437 199.12 104.67C199.12 129.296 219.084 149.26 243.71 149.26Z" fill="black"/>
</g>
<path opacity="0.08" d="M244.44 158.61C269.066 158.61 289.03 138.646 289.03 114.02C289.03 89.3933 269.066 69.4297 244.44 69.4297C219.813 69.4297 199.85 89.3933 199.85 114.02C199.85 138.646 219.813 158.61 244.44 158.61Z" fill="black"/>
<path d="M243.71 149.26C268.336 149.26 288.3 129.296 288.3 104.67C288.3 80.0437 268.336 60.0801 243.71 60.0801C219.084 60.0801 199.12 80.0437 199.12 104.67C199.12 129.296 219.084 149.26 243.71 149.26Z" fill="#34A8FA"/>
<path d="M246.76 81.6803C248.01 81.7903 248.36 82.2503 248.26 83.5103L248 86.1903C253 87.3103 255.66 90.0603 257.43 94.6103C257.98 95.9803 257.65 96.6103 256.12 97.2003L253.34 98.2003C252.04 98.7003 251.46 98.3803 250.85 97.0103C249.61 94.0103 247.92 92.5303 244.2 92.2203C239.56 91.8403 237.32 93.0403 237.06 96.1503C236.89 98.1503 238.65 99.5803 240.53 100.15C241.804 100.545 243.104 100.856 244.42 101.08C246.888 101.395 249.296 102.069 251.57 103.08C252.71 103.553 253.754 104.231 254.65 105.08C255.55 106.176 256.223 107.442 256.626 108.802C257.03 110.163 257.157 111.59 257 113C256.51 119 252.19 122.67 245.05 123.13L244.82 125.97C244.72 127.23 244.3 127.63 243.04 127.53L240.04 127.28C238.79 127.18 238.39 126.71 238.49 125.45L238.72 122.66C233.31 121.5 229.88 118.42 228.48 113.35C228.14 112.11 228.64 111.35 229.94 110.94L232.7 110.17C234.11 109.8 234.7 110.17 235.17 111.59C236.116 114.75 238.45 116.48 242.17 116.78C247.17 117.2 249.84 115.78 250.11 112.59C250.213 111.842 250.061 111.08 249.678 110.429C249.295 109.778 248.704 109.274 248 109C246.306 108.247 244.509 107.748 242.67 107.52C240.174 107.167 237.748 106.428 235.48 105.33C234.365 104.828 233.349 104.13 232.48 103.27C231.58 102.223 230.906 101.001 230.502 99.6812C230.097 98.3612 229.971 96.9717 230.13 95.6003C230.62 89.6903 234.66 86.0603 241.73 85.7103L241.95 83.0303C242.05 81.7703 242.53 81.3703 243.78 81.4803L246.76 81.6803Z" fill="white"/>
<path d="M328.67 115.76C328.67 115.76 331.14 141.16 318.67 142.57C309.26 143.64 294.17 138.33 284.95 135.7C280.95 134.56 279.02 134.03 275.95 131.23C272.28 127.87 267.18 125.48 271.14 122.29C278.14 116.62 283.14 126.29 283.14 126.29C289.022 127.994 295.083 129.001 301.2 129.29C302.348 129.321 303.487 129.084 304.527 128.597C305.567 128.111 306.479 127.388 307.191 126.487C307.903 125.586 308.394 124.531 308.627 123.407C308.859 122.282 308.826 121.119 308.53 120.01L306.2 111.26C306.2 111.26 322.74 95.8299 328.67 115.76Z" fill="#F4A28C"/>
<path d="M276.52 58.4697L275.28 61.0497C275.217 61.1971 275.191 61.3574 275.203 61.5172C275.215 61.6769 275.265 61.8314 275.35 61.9677C275.434 62.1039 275.55 62.2179 275.687 62.3001C275.825 62.3822 275.98 62.4301 276.14 62.4397H278.48L276.52 58.4697Z" fill="#F4A28C"/>
<path d="M315.71 78.8196C322.15 83.8196 331.94 94.8196 331.71 115.56L305.07 117.26C305.07 117.26 297.37 94.4596 305.42 80.8096C305.917 79.9492 306.593 79.2057 307.402 78.6292C308.212 78.0527 309.135 77.6567 310.111 77.468C311.087 77.2794 312.091 77.3024 313.057 77.5356C314.023 77.7687 314.928 78.2066 315.71 78.8196Z" fill="#68E1FD"/>
<path opacity="0.36" d="M315.71 78.8196C322.15 83.8196 331.94 94.8196 331.71 115.56L305.07 117.26C305.07 117.26 297.37 94.4596 305.42 80.8096C305.917 79.9492 306.593 79.2057 307.402 78.6292C308.212 78.0527 309.135 77.6567 310.111 77.468C311.087 77.2794 312.091 77.3024 313.057 77.5356C314.023 77.7687 314.928 78.2066 315.71 78.8196Z" fill="white"/>
<path d="M203.2 111C204.096 112.018 204.624 113.307 204.7 114.66C204.791 115.387 204.655 116.124 204.31 116.77C204.068 117.139 203.751 117.452 203.38 117.69C201.93 118.69 199.7 118.85 198.54 117.51C197.928 116.69 197.621 115.682 197.67 114.66C197.67 113.46 197.53 111.09 198.49 110.17C199.78 108.9 202.2 109.89 203.2 111Z" fill="#F4A28C"/>
<path d="M94.8998 56.4898C94.8998 56.4898 88.9998 51.9998 84.7498 55.4998C80.4998 58.9998 84.0798 72.3998 74.2598 69.7298C74.2598 69.7298 85.1598 77.9698 91.8698 63.4098L94.8998 56.4898Z" fill="#24285B"/>
<path d="M90.8101 65.9999C90.8101 65.9999 86.9501 65.6299 88.3001 60.3199C89.6501 55.0099 94.0001 55.0099 95.3001 56.3199L90.8101 65.9999Z" fill="#68E1FD"/>
<path d="M102.15 62.5905C102.002 65.1349 101.511 67.6476 100.69 70.0605C100.456 70.6219 100.008 71.0676 99.4462 71.3C98.8839 71.5324 98.2525 71.5326 97.6901 71.3005C96.7666 70.9765 95.9563 70.3927 95.3567 69.6193C94.7571 68.8458 94.3937 67.9156 94.3101 66.9405L93.5301 62.7805C93.4611 61.9309 93.6578 61.0809 94.0932 60.3481C94.5286 59.6154 95.181 59.0361 95.9601 58.6905C98.7601 57.2305 102.46 59.8105 102.15 62.5905Z" fill="#F4A28C"/>
<path d="M92.6703 65.1504L90.3604 79.9904L98.6303 80.6804L97.0303 69.8904L92.6703 65.1504Z" fill="#F4A28C"/>
<path d="M101.84 65.4697L102.84 67.3997C102.897 67.509 102.926 67.6312 102.924 67.7548C102.921 67.8783 102.888 67.9992 102.826 68.1062C102.764 68.2131 102.676 68.3025 102.57 68.3661C102.464 68.4297 102.343 68.4654 102.22 68.4697L100.43 68.5397L101.84 65.4697Z" fill="#F4A28C"/>
<path opacity="0.31" d="M97.0799 70.1897C96.0959 69.9297 95.2008 69.4079 94.4898 68.6797C94.4898 68.6797 93.6899 71.8697 97.5399 73.2897L97.0799 70.1897Z" fill="#CE8172"/>
<path d="M93 65.2099C93 65.2099 93.22 63.4599 91.88 63.4099C90.54 63.3599 90.22 65.8799 91.97 66.4099L93 65.2099Z" fill="#F4A28C"/>
<path d="M101.23 62.24C99.7631 62.384 98.2823 62.2792 96.8502 61.93C96.8502 61.93 95.5702 66.93 91.4502 67.93C91.4502 67.93 88.1502 60.09 93.0402 57.47C97.1302 55.28 100.19 53.29 103.22 56.47C103.657 56.9253 103.96 57.4923 104.095 58.1085C104.23 58.7247 104.193 59.3664 103.988 59.9628C103.782 60.5593 103.416 61.0874 102.929 61.4892C102.443 61.891 101.855 62.1508 101.23 62.24Z" fill="#24285B"/>
<path d="M111 124.4C111 124.4 112.69 156.01 134.19 157.15C155.69 158.29 166.31 115.39 166.31 115.39C166.31 115.39 169.77 110.94 165.99 108.25C165.99 108.25 168.23 101.48 165.99 101.25C163.75 101.02 161.43 112.9 161.43 112.9C161.43 112.9 149.99 135.29 139.71 137.45C129.43 139.61 136.44 105.13 112.39 89.5297C88.3397 73.9297 111 124.4 111 124.4Z" fill="#F4A28C"/>
<path d="M96.7399 64.6099C96.7399 64.6099 96.6799 62.6099 95.0299 62.7699C93.3799 62.9299 93.2499 65.3599 95.2299 66.4299L96.7399 64.6099Z" fill="#F4A28C"/>
<path d="M90.3598 80L98.6298 80.69C98.6298 80.69 144.07 100 120 131.24C117.963 133.83 116.726 136.958 116.44 140.24L114.96 158.81L81.5498 160.32C81.5498 160.32 30.1598 93.51 90.3598 80Z" fill="#68E1FD"/>
<path d="M118.68 184.47L122.16 239.14L118.67 240.34L105.05 189.13L118.68 184.47Z" fill="#F4A28C"/>
<path opacity="0.08" d="M91.3697 97.0703C91.3697 97.0703 101.37 110.81 89.1597 124.8C76.9497 138.79 84.9097 150.14 99.0897 140.3C113.27 130.46 116.17 142.3 116.17 142.3L115.64 149.85L92.9097 150.63L67.7397 151.86L57.9297 131.26L91.3697 97.0703Z" fill="black"/>
<path d="M122 238.34C122 238.34 124.27 240.78 126.88 240.43C129.49 240.08 130.19 243.77 125.93 243.73C124.609 243.727 123.291 243.609 121.99 243.38C120.79 243.203 119.565 243.348 118.44 243.8C118.217 243.867 117.98 243.866 117.757 243.799C117.535 243.731 117.338 243.599 117.19 243.42C115.88 242.11 118.56 238.62 118.56 238.62L122 238.34Z" fill="#68E1FD"/>
<path d="M73.0495 186.41L71.7695 241.18L75.2995 242.23L86.8595 190.52L73.0495 186.41Z" fill="#F4A28C"/>
<path d="M71.8604 240.38C71.8604 240.38 69.6904 242.9 67.0704 242.66C64.4504 242.42 63.9004 246.13 68.1504 245.92C69.4723 245.86 70.7869 245.689 72.0804 245.41C73.2704 245.191 74.497 245.284 75.6404 245.68C75.8647 245.744 76.1034 245.737 76.3236 245.66C76.5438 245.583 76.7348 245.44 76.8704 245.25C78.1304 243.89 75.3104 240.52 75.3104 240.52L71.8604 240.38Z" fill="#68E1FD"/>
<path d="M115.64 149.87L127.5 205.69L103.16 206.79L92.8802 207.25L63.4502 209.22L73.7302 151.76L115.64 149.87Z" fill="#24285B"/>
<path opacity="0.08" d="M149.87 180.95C174.497 180.95 194.46 160.986 194.46 136.36C194.46 111.733 174.497 91.7695 149.87 91.7695C125.244 91.7695 105.28 111.733 105.28 136.36C105.28 160.986 125.244 180.95 149.87 180.95Z" fill="black"/>
<path d="M149.87 180.95C174.497 180.95 194.46 160.986 194.46 136.36C194.46 111.733 174.497 91.7695 149.87 91.7695C125.244 91.7695 105.28 111.733 105.28 136.36C105.28 160.986 125.244 180.95 149.87 180.95Z" fill="#34A8FA"/>
<g opacity="0.08">
<path d="M147.53 171.88C172.157 171.88 192.12 151.917 192.12 127.29C192.12 102.664 172.157 82.7002 147.53 82.7002C122.904 82.7002 102.94 102.664 102.94 127.29C102.94 151.917 122.904 171.88 147.53 171.88Z" fill="black"/>
</g>
<path opacity="0.08" d="M149.87 180.95C174.497 180.95 194.46 160.986 194.46 136.36C194.46 111.733 174.497 91.7695 149.87 91.7695C125.244 91.7695 105.28 111.733 105.28 136.36C105.28 160.986 125.244 180.95 149.87 180.95Z" fill="black"/>
<path d="M147.53 171.88C172.157 171.88 192.12 151.917 192.12 127.29C192.12 102.664 172.157 82.7002 147.53 82.7002C122.904 82.7002 102.94 102.664 102.94 127.29C102.94 151.917 122.904 171.88 147.53 171.88Z" fill="#34A8FA"/>
<path d="M156.43 109.76L158.31 105.64C158.454 105.337 158.479 104.992 158.381 104.672C158.283 104.351 158.068 104.08 157.78 103.91C155.906 102.85 153.851 102.148 151.72 101.84C148.969 101.442 146.163 101.673 143.515 102.517C140.866 103.36 138.444 104.794 136.43 106.71C132.07 110.56 130.31 115.71 130.06 121.36C129.98 123.2 129.99 123.2 128.17 123.7L124 124.82C123.887 124.849 123.782 124.9 123.689 124.97C123.596 125.04 123.518 125.128 123.46 125.228C123.401 125.329 123.363 125.44 123.348 125.555C123.332 125.67 123.34 125.787 123.37 125.9L124.26 129.19C124.289 129.302 124.34 129.407 124.41 129.5C124.481 129.592 124.569 129.669 124.669 129.727C124.77 129.785 124.881 129.822 124.996 129.836C125.111 129.85 125.228 129.841 125.34 129.81L130.72 128.37L131.42 130.94L126 132.38C125.887 132.41 125.781 132.462 125.689 132.533C125.597 132.604 125.519 132.693 125.462 132.795C125.404 132.896 125.367 133.008 125.353 133.124C125.339 133.24 125.348 133.357 125.38 133.47L126.26 136.77C126.323 136.996 126.473 137.188 126.677 137.304C126.881 137.42 127.123 137.451 127.35 137.39L133.29 135.79C137.62 143.58 143.78 148.13 152.97 147.18C155.964 146.993 158.862 146.054 161.397 144.449C163.932 142.844 166.02 140.626 167.47 138C167.589 137.793 167.665 137.564 167.694 137.327C167.724 137.09 167.706 136.85 167.642 136.62C167.578 136.39 167.468 136.176 167.32 135.988C167.172 135.801 166.989 135.645 166.78 135.53L163.63 133.79C163.236 133.573 162.775 133.514 162.339 133.623C161.903 133.733 161.525 134.003 161.28 134.38C160.161 136.186 158.557 137.642 156.65 138.58C155.358 139.236 153.946 139.623 152.5 139.716C151.055 139.809 149.605 139.606 148.24 139.12C145.528 138.03 143.284 136.024 141.9 133.45L156.57 129.51C156.926 129.418 157.232 129.188 157.419 128.871C157.607 128.555 157.661 128.176 157.57 127.82L156.93 125.44C156.887 125.262 156.809 125.094 156.7 124.947C156.591 124.8 156.454 124.676 156.296 124.583C156.138 124.49 155.964 124.429 155.782 124.404C155.601 124.38 155.417 124.392 155.24 124.44L139.89 128.57L139.2 126.01L154.55 121.88C154.726 121.835 154.892 121.757 155.037 121.648C155.183 121.54 155.306 121.403 155.399 121.247C155.492 121.091 155.553 120.918 155.579 120.738C155.605 120.559 155.595 120.376 155.55 120.2L154.92 117.87C154.876 117.693 154.797 117.528 154.688 117.382C154.58 117.237 154.444 117.114 154.288 117.021C154.131 116.928 153.959 116.867 153.779 116.841C153.599 116.815 153.416 116.825 153.24 116.87L138.65 120.8C138.83 116.7 140.1 113.2 143.51 110.88C147.16 108.4 150.89 108.44 154.65 110.33C154.963 110.483 155.323 110.509 155.654 110.402C155.986 110.296 156.264 110.066 156.43 109.76Z" fill="white"/>
<path d="M72.0001 88.0002C79.7301 81.8502 91.4501 87.2002 91.3801 97.0802C91.2901 109.16 78.2201 122.66 74.1101 130.42C71.8401 134.71 68.8101 140.13 71.3601 143.51C79.6201 154.51 107.7 135.12 107.7 135.12C107.7 135.12 109.6 129.37 113.28 130.46C116.8 131.51 114.85 138.54 110.64 139.68C110.64 139.68 59.5101 186.36 52.5401 144.68C46.7901 110.3 61.5301 96.2902 72.0001 88.0002Z" fill="#F4A28C"/>
<path d="M87.1701 80.7799C87.1701 80.7799 85.8701 77.2899 92.3901 76.2499C98.9101 75.2099 104.28 77.7599 102.39 82.4999C102.34 82.4999 97.5701 86.6599 87.1701 80.7799Z" fill="#68E1FD"/>
<path opacity="0.46" d="M87.1701 80.7799C87.1701 80.7799 85.8701 77.2899 92.3901 76.2499C98.9101 75.2099 104.28 77.7599 102.39 82.4999C102.34 82.4999 97.5701 86.6599 87.1701 80.7799Z" fill="white"/>
<path d="M224 55.5096C224 55.5096 198.13 44.2296 177.36 58.7196L184 68.2896L153.32 64.1396L162.82 39.3496L169.45 47.7796C169.45 47.7796 203.94 32.9996 224 55.5096Z" fill="#E6E6E6"/>
<path d="M156.78 186.67C156.78 186.67 182.65 197.94 203.42 183.45L196.78 173.88L227.47 178L218 202.83L211.36 194.39C211.36 194.39 176.87 209.13 156.78 186.67Z" fill="#E6E6E6"/>
</svg>
