<svg width="371" height="268" viewBox="0 0 371 268" fill="none" xmlns="http://www.w3.org/2000/svg">
<g clip-path="url(#clip0_1_6682)">
<path opacity="0.18" d="M162.737 22.3217L152.985 19.3226C138.745 15.0838 123.423 10.9051 109.728 17.2532C98.6043 22.4416 90.3564 33.7982 82.5712 44.655C72.3316 58.9907 62.0175 73.4563 54.3811 90.0114C36.3728 129.06 33.6703 184.603 48.9679 225.221C55.0588 241.406 63.2158 257.121 75.4142 267.118C88.1167 277.545 104.183 280.744 119.464 279.015C134.745 277.285 149.423 270.967 163.472 263.669C179.175 255.532 195.811 245.885 212.571 249.843C221.324 251.903 229.167 257.541 237.034 262.61C250.869 271.527 265.662 279.055 281.282 280.694C296.902 282.334 313.514 277.455 324.828 264.299C335.828 251.483 340.53 232.719 343.142 214.524C345.919 195.635 346.539 176.374 344.985 157.281C343.497 138.747 349.944 121.242 347.398 102.218C345.39 87.3122 338.952 72.8665 328.473 64.649C315.473 54.462 298.844 55.2118 283.357 55.6517C270.2 56.0249 257.043 55.9183 243.886 55.3318C235.819 54.9819 227.646 54.412 219.976 51.333C211.216 47.844 203.547 41.336 195.34 36.2275C185.067 29.8894 173.96 25.8006 162.737 22.3217Z" fill="#34A8FA"/>
<path d="M171.08 90.7103L180.08 61.3303C181.24 55.7003 181.75 49.0603 182.39 43.3303C182.709 41.4589 182.692 39.5458 182.34 37.6803C181.76 35.2503 180.13 32.6203 181.43 30.4803C182.73 28.3403 186.34 28.6903 188.55 30.1703C191.6 32.1703 193.64 36.7503 191.22 39.5103C190.468 40.1559 189.763 40.8543 189.11 41.6003C188.28 42.8803 188.51 44.6003 188.67 46.0703C189.41 53.0703 187.95 60.0703 186.51 67.0703L182.51 86.2103C181.51 90.8703 179.97 96.2103 175.51 97.9403C175.185 98.0991 174.83 98.1882 174.469 98.2019C174.107 98.2157 173.746 98.1539 173.41 98.0203C173.01 97.7913 172.667 97.4731 172.41 97.0903C171.38 95.4603 171.19 92.6603 171.08 90.7103Z" fill="#C1A7A7"/>
<path d="M171.08 90.7103L180.08 61.3303C181.24 55.7003 181.75 49.0603 182.39 43.3303C182.709 41.4589 182.692 39.5458 182.34 37.6803C181.76 35.2503 180.13 32.6203 181.43 30.4803C182.73 28.3403 186.34 28.6903 188.55 30.1703C191.6 32.1703 193.64 36.7503 191.22 39.5103C190.468 40.1559 189.763 40.8543 189.11 41.6003C188.28 42.8803 188.51 44.6003 188.67 46.0703C189.41 53.0703 187.95 60.0703 186.51 67.0703L182.51 86.2103C181.51 90.8703 179.97 96.2103 175.51 97.9403C175.185 98.0991 174.83 98.1882 174.469 98.2019C174.107 98.2157 173.746 98.1539 173.41 98.0203C173.01 97.7913 172.667 97.4731 172.41 97.0903C171.38 95.4603 171.19 92.6603 171.08 90.7103Z" fill="url(#paint0_linear_1_6682)"/>
<path d="M222.88 165.6C222.966 171.229 221.942 176.82 219.868 182.054C217.793 187.287 214.708 192.061 210.788 196.102C206.869 200.143 202.192 203.373 197.024 205.606C191.856 207.84 186.299 209.034 180.67 209.12C175.041 209.206 169.45 208.182 164.216 206.108C158.983 204.033 154.209 200.948 150.168 197.028C146.127 193.109 142.897 188.432 140.664 183.264C138.43 178.096 137.236 172.539 137.15 166.91C137.15 166.47 137.15 166.04 137.15 165.6C137.128 164.505 137.172 163.41 137.28 162.32C138.11 151.255 143.198 140.943 151.475 133.553C159.752 126.163 170.573 122.271 181.661 122.696C192.749 123.12 203.24 127.829 210.928 135.831C218.615 143.833 222.9 154.504 222.88 165.6Z" fill="#34A8FA"/>
<path opacity="0.14" d="M162 185.07C160.58 191.27 162.31 197.87 161 204.07C151.097 199.179 143.461 190.658 139.68 180.28C139.47 178.149 139.52 176 139.83 173.88C140.12 171.6 140.54 169.24 139.9 167.03C139.281 165.333 138.382 163.751 137.24 162.35C137.714 156.083 139.564 149.998 142.658 144.527C145.751 139.057 150.014 134.336 155.14 130.7C155.19 130.988 155.19 131.282 155.14 131.57L153.3 139.73C153.67 142.149 153.67 144.611 153.3 147.03C153.104 148.239 152.644 149.39 151.952 150.401C151.261 151.412 150.356 152.259 149.3 152.88C148.51 153.21 147.741 153.591 147 154.02C146.283 154.597 145.689 155.311 145.25 156.12C144.062 157.77 143.178 159.619 142.64 161.58C142.375 162.56 142.36 163.59 142.595 164.577C142.831 165.564 143.311 166.476 143.99 167.23L155.99 164.91C157.24 164.67 158.75 164.5 159.61 165.44C160.61 166.56 159.99 168.36 160.22 169.87C160.5 171.8 162.22 173.19 163.02 174.99C164.47 178.12 162.78 181.69 162 185.07Z" fill="#020202"/>
<path opacity="0.14" d="M151.12 135.55C149.41 137.55 147.64 139.68 147.12 142.25C146.958 142.801 146.958 143.388 147.12 143.94C147.35 144.375 147.669 144.757 148.057 145.06C148.444 145.363 148.892 145.581 149.37 145.7C153.434 147.26 157.767 148.001 162.12 147.88C161.87 150.33 161.76 153.17 163.55 154.88C164.226 155.471 165.011 155.926 165.86 156.22C168.554 157.281 171.406 157.889 174.3 158.02C176.72 158.13 179.17 157.89 181.59 158.16C184.577 158.487 187.435 159.56 189.9 161.28C190.532 161.662 191.053 162.203 191.41 162.85C191.671 163.548 191.777 164.296 191.72 165.04C191.737 167.671 192.072 170.29 192.72 172.84C193.37 175.32 194.42 177.84 196.5 179.35C197.6 180.059 198.8 180.601 200.06 180.96L208.61 183.88C208.816 183.974 209.049 183.995 209.27 183.94C209.48 183.827 209.643 183.642 209.73 183.42C210.68 181.56 211.62 179.5 211.23 177.42C210.84 175.34 209.23 173.83 208.48 171.92C207.25 168.92 208.21 165.36 207.2 162.26C206.48 160.381 205.341 158.691 203.87 157.32C201.397 154.881 198.768 152.606 196 150.51C191.6 147.03 187.14 143.51 182 141.19C179.94 140.25 177.64 139.4 176.45 137.48C175.02 135.17 175.64 132 174.1 129.76C172.84 127.94 170.47 127.24 168.26 127.12C164.602 127.01 160.979 127.858 157.75 129.58C154.84 131.05 153.24 133.06 151.12 135.55Z" fill="#020202"/>
<path opacity="0.14" d="M222.88 165.6C222.888 172.083 221.422 178.483 218.593 184.316C215.764 190.149 211.646 195.262 206.55 199.27C205.959 198.882 205.452 198.379 205.06 197.79C203.78 195.85 204.2 192.79 206.27 191.69C205.55 192.07 202.72 191.14 201.87 191.01L197.46 190.33C195.35 190 191.66 190.14 190.46 188.01C190.325 187.715 190.161 187.433 189.97 187.17C189.707 186.902 189.395 186.689 189.05 186.54C187.72 185.89 186.17 185.16 185.85 183.71C185.63 182.65 186.16 181.45 185.61 180.51C185.44 180.22 185.18 179.99 185.01 179.7C184.825 179.264 184.755 178.787 184.808 178.316C184.861 177.845 185.034 177.395 185.31 177.01C187.17 173.76 191.02 172.18 194.72 171.56C198.42 170.94 202.24 171.03 205.84 169.99C208.11 169.33 210.27 168.23 212.61 167.91C213.9 167.73 215.52 167.59 215.99 166.38C216.25 165.69 215.99 164.89 216.26 164.2C216.37 163.9 216.57 163.64 216.68 163.34C216.752 163.119 216.779 162.886 216.761 162.654C216.742 162.422 216.678 162.196 216.573 161.989C216.467 161.782 216.321 161.597 216.144 161.447C215.967 161.296 215.762 161.181 215.54 161.11C215.429 161.077 215.316 161.054 215.2 161.04C215.5 160.24 215.74 159.21 215.11 158.64C214.889 158.478 214.631 158.371 214.36 158.329C214.088 158.288 213.811 158.312 213.55 158.4C212.01 158.78 210.9 160.08 209.61 161C205.33 164 199.46 163 195.89 159.38C195.311 158.869 194.897 158.197 194.7 157.45C194.645 156.812 194.789 156.173 195.113 155.621C195.438 155.069 195.926 154.632 196.51 154.37C197.682 153.87 198.946 153.621 200.22 153.64C199.75 150.53 199.22 147.41 198.79 144.31C191.67 146.22 188.79 139.43 187.79 133.79C186.79 128.15 190.79 126.13 195.95 125.79C203.902 128.977 210.717 134.472 215.517 141.567C220.317 148.663 222.882 157.033 222.88 165.6Z" fill="#020202"/>
<path d="M191.33 184.62C191.33 186.98 195.14 189.21 197 189.76C197.778 189.921 198.535 190.166 199.26 190.49C199.617 190.667 199.918 190.94 200.126 191.28C200.335 191.62 200.444 192.011 200.44 192.41C200.36 193.1 199.8 193.66 199.65 194.33C199.569 194.918 199.641 195.518 199.86 196.07C200.57 198.36 203.39 199.78 204.08 202.07C207.98 201.68 209.74 202.01 213.6 201.36L216.82 199.3C215.2 196.3 213.59 193.24 211.96 190.2C211.34 188.911 210.571 187.7 209.67 186.59C208.606 185.488 207.402 184.53 206.09 183.74C202.703 181.538 199.179 179.553 195.54 177.8C196.03 178.08 191.33 184.01 191.33 184.62Z" fill="url(#paint1_linear_1_6682)"/>
<path d="M193.609 173.91C193.209 175.21 192.849 176.74 193.609 177.83C193.98 178.288 194.472 178.634 195.029 178.83C195.678 179.147 196.403 179.275 197.121 179.199C197.839 179.123 198.521 178.846 199.089 178.4C199.688 177.739 200.111 176.937 200.319 176.07C201.33 172.896 202.059 169.641 202.499 166.34C202.579 166.038 202.579 165.721 202.499 165.42C202.329 165.101 202.058 164.848 201.729 164.7C199.999 163.77 197.289 163.02 196.319 165.09C195.049 167.8 194.469 171.08 193.609 173.91Z" fill="#C1A7A7"/>
<path d="M198.819 175.42C199.189 175.371 199.566 175.409 199.919 175.53C200.158 175.662 200.365 175.843 200.529 176.06L204.269 180.34C204.999 181.17 205.769 182.34 205.269 183.28C205.094 183.558 204.858 183.792 204.579 183.965C204.3 184.139 203.986 184.246 203.659 184.28C201.846 184.464 200.018 184.117 198.399 183.28C197.239 182.77 196.109 182.22 194.989 181.62C194.153 181.237 193.425 180.653 192.869 179.92C192.019 178.6 191.759 175.42 193.289 174.43C194.049 173.94 194.719 174.29 195.459 174.64C196.5 175.167 197.653 175.435 198.819 175.42Z" fill="#34A8FA"/>
<path d="M214.38 188.47C214.409 188.713 214.381 188.959 214.3 189.19C214.171 189.417 213.985 189.606 213.76 189.74C213.046 190.234 212.207 190.518 211.34 190.56C210.91 190.579 210.481 190.499 210.088 190.326C209.694 190.152 209.345 189.89 209.07 189.56C208.67 188.915 208.43 188.185 208.37 187.43C208.054 185.802 207.896 184.148 207.9 182.49C207.878 182.392 207.877 182.292 207.899 182.194C207.92 182.097 207.963 182.006 208.025 181.927C208.086 181.849 208.164 181.785 208.253 181.74C208.342 181.696 208.44 181.672 208.54 181.67C209.89 181.38 212.54 180.67 213.26 182.34C213.951 184.312 214.329 186.38 214.38 188.47Z" fill="#C1A7A7"/>
<path d="M220.09 188.3C221.245 188.359 222.387 188.581 223.48 188.96C224.03 189.154 224.534 189.457 224.963 189.853C225.391 190.248 225.734 190.727 225.97 191.26C226.187 191.792 226.212 192.383 226.04 192.93C225.668 193.727 225.012 194.355 224.2 194.69C220.348 196.782 215.983 197.739 211.61 197.45C210.484 197.489 209.389 197.083 208.56 196.32C207.946 195.405 207.661 194.309 207.75 193.21L207.6 188.03C208.6 187.88 209.47 188.52 210.4 188.84C212.01 189.39 212.64 188.07 213.97 187.75C215.7 187.35 218.32 188.12 220.09 188.3Z" fill="#34A8FA"/>
<path d="M198.819 175.42C199.189 175.371 199.566 175.409 199.919 175.53C200.158 175.662 200.365 175.843 200.529 176.06L204.269 180.34C204.999 181.17 205.769 182.34 205.269 183.28C205.094 183.558 204.858 183.792 204.579 183.965C204.3 184.139 203.986 184.246 203.659 184.28C201.846 184.464 200.018 184.117 198.399 183.28C197.239 182.77 196.109 182.22 194.989 181.62C194.153 181.237 193.425 180.653 192.869 179.92C192.019 178.6 191.759 175.42 193.289 174.43C194.049 173.94 194.719 174.29 195.459 174.64C196.5 175.167 197.653 175.435 198.819 175.42Z" fill="url(#paint2_linear_1_6682)"/>
<path d="M192.34 176.2C192.398 176.591 192.502 176.973 192.65 177.34C192.812 177.825 193.026 178.292 193.29 178.73C193.649 179.238 194.096 179.678 194.61 180.03C195.898 180.897 197.306 181.571 198.79 182.03C201.041 182.907 203.486 183.163 205.87 182.77C205.654 183.297 205.246 183.722 204.73 183.96C204.217 184.192 203.662 184.318 203.1 184.33C200.902 184.267 198.75 183.684 196.82 182.63L194.61 181.63C194.3 181.493 194.002 181.329 193.72 181.14C193.327 180.848 192.989 180.489 192.72 180.08C192.218 179.346 191.912 178.496 191.83 177.61C191.79 177.181 191.82 176.749 191.92 176.33C191.92 176.15 192.18 175.33 192.42 175.33C192.333 175.611 192.306 175.908 192.34 176.2Z" fill="#473F47"/>
<path d="M220.09 188.3C221.245 188.359 222.387 188.581 223.48 188.96C224.03 189.154 224.534 189.457 224.963 189.853C225.391 190.248 225.734 190.727 225.97 191.26C226.187 191.792 226.212 192.383 226.04 192.93C225.668 193.727 225.012 194.355 224.2 194.69C220.348 196.782 215.983 197.739 211.61 197.45C210.484 197.489 209.389 197.083 208.56 196.32C207.946 195.405 207.661 194.309 207.75 193.21L207.6 188.03C208.6 187.88 209.47 188.52 210.4 188.84C212.01 189.39 212.64 188.07 213.97 187.75C215.7 187.35 218.32 188.12 220.09 188.3Z" fill="url(#paint3_linear_1_6682)"/>
<path d="M206.239 131.09C207.364 131.3 208.405 131.827 209.239 132.61C210.239 133.69 210.239 135.29 210.239 136.75C210.218 147.215 208.272 157.588 204.499 167.35C204.414 167.709 204.256 168.048 204.036 168.346C203.816 168.643 203.538 168.893 203.219 169.08C202.643 169.249 202.027 169.221 201.469 169C199.209 168.369 196.982 167.621 194.799 166.76L197.749 146.87C197.89 146.313 197.859 145.728 197.659 145.19C197.441 144.816 197.135 144.501 196.769 144.27C193.402 141.776 189.84 139.556 186.119 137.63C183.119 136.1 179.759 134.36 178.949 131.08C178.783 130.531 178.749 129.95 178.85 129.385C178.95 128.82 179.183 128.287 179.529 127.83C179.997 127.362 180.55 126.988 181.159 126.73C183.159 125.73 185.609 124.48 187.879 124.73C189.679 124.91 190.379 125.98 191.879 126.73C196.119 128.94 201.689 129.74 206.239 131.09Z" fill="white"/>
<path d="M197.151 167.55C196.901 167.47 197.781 162.78 197.861 162.31C198.021 161.39 198.711 157.31 199.441 160.14C199.559 160.761 199.632 161.389 199.661 162.02C199.751 162.773 199.881 163.521 200.051 164.26C200.144 164.84 200.316 165.406 200.561 165.94C201.025 166.724 201.644 167.404 202.381 167.94C202.518 168.087 202.702 168.182 202.901 168.21C203.191 168.21 203.411 167.94 203.531 167.67C203.831 166.831 203.96 165.94 203.911 165.05C204.061 160.05 206.651 155.69 206.481 150.56C206.481 149.31 205.291 147.8 204.791 146.65C204.348 145.721 204.012 144.745 203.791 143.74C203.161 140.33 205.171 137 205.451 133.54L198.671 136.87L194.801 166.8L197.151 167.55Z" fill="url(#paint4_linear_1_6682)"/>
<path d="M179.53 128.17C178.171 128.93 176.772 129.618 175.34 130.23C174.96 130.4 174.58 130.56 174.19 130.71C169.788 132.521 165.004 133.208 160.27 132.71C159.79 132.65 159.31 132.57 158.83 132.47C156.102 132.033 153.604 130.679 151.75 128.63C149.54 125.98 149.02 122.29 148.88 118.82V117.82C148.758 113.493 149.093 109.166 149.88 104.91C150.696 99.8483 152.656 95.0397 155.61 90.8497C157.602 88.1548 160.194 85.9602 163.18 84.4397C166.27 82.8697 169.93 82.0697 173.23 83.1597C174.942 83.7913 176.525 84.73 177.9 85.9297C178.414 86.3137 178.875 86.7643 179.27 87.2697C179.824 88.0802 180.205 88.9958 180.39 89.9597C181.76 95.9597 179.86 102.09 178.39 108.05C177.58 111.45 176.96 115.19 178.51 118.31C180.72 122.72 186.07 124.52 179.53 128.17Z" fill="#34A8FA"/>
<path d="M179.53 128.19C179.41 129.57 177.67 130.08 176.28 130.19L175.34 130.24C170.343 130.529 165.331 130.071 160.47 128.88C159.871 128.669 159.224 128.641 158.61 128.8C158.516 128.833 158.428 128.88 158.35 128.94V129.27C158.192 129.815 158.159 130.389 158.254 130.948C158.35 131.507 158.57 132.038 158.9 132.5C156.171 132.064 153.673 130.709 151.82 128.66C149.61 126.01 149.09 122.32 148.95 118.85V117.85C148.885 115.288 148.965 112.723 149.19 110.17C149.262 107.886 149.598 105.618 150.19 103.41C151.633 99.2211 154.2 95.5093 157.61 92.68C157.927 92.3839 158.296 92.1499 158.7 91.99C159.155 91.8767 159.63 91.8591 160.093 91.9383C160.556 92.0175 160.997 92.1917 161.39 92.45C162.072 92.7771 162.679 93.2439 163.17 93.82C163.801 94.6947 164.15 95.7415 164.17 96.82C164.2 98.28 164.069 99.7388 163.78 101.17C163.48 103.312 163.019 105.428 162.4 107.5C162.102 108.257 161.878 109.04 161.73 109.84C161.609 110.869 161.79 111.911 162.25 112.84C162.62 113.68 162.68 114.56 162.98 115.44C163.598 117.249 164.589 118.908 165.89 120.31C168.599 123.164 172.173 125.048 176.06 125.67C176.869 125.741 177.663 125.94 178.41 126.26C178.754 126.45 179.039 126.73 179.237 127.07C179.434 127.41 179.535 127.797 179.53 128.19Z" fill="url(#paint5_linear_1_6682)"/>
<path d="M166.85 91.6996C167.379 92.3667 168.042 92.9153 168.797 93.3098C169.551 93.7042 170.38 93.9359 171.23 93.9896C171.498 94.0197 171.769 93.9599 172 93.8196C172.242 93.5743 172.378 93.2441 172.38 92.8996C172.46 92.2096 172.56 91.3296 172.63 90.4496C172.7 89.5696 172.84 88.4496 172.94 87.7496C173.142 85.7585 173.897 83.8637 175.12 82.2796C175.369 81.934 175.658 81.6185 175.98 81.3396C178.09 79.4396 169.51 80.1896 168.38 77.5996C167.08 79.2896 167.2 81.6596 166.62 83.7296C166.233 84.738 165.899 85.7661 165.62 86.8096C165.472 87.6654 165.505 88.5426 165.717 89.3848C165.929 90.227 166.315 91.0155 166.85 91.6996Z" fill="#C1A7A7"/>
<path d="M172.52 90.8503L172.63 90.4503C172.75 89.4503 172.84 88.4503 172.94 87.7503C173.141 85.7592 173.897 83.8644 175.12 82.2803L175.18 82.0703C175.18 82.0703 168.38 77.6003 167.65 82.8303C166.92 88.0603 172.52 90.8503 172.52 90.8503Z" fill="url(#paint6_linear_1_6682)"/>
<path d="M179.611 79.1799C179.741 80.2644 179.539 81.3629 179.031 82.3299C178.76 82.72 178.421 83.0586 178.031 83.3299C175.331 85.3299 171.271 84.9599 168.591 82.8499C167.29 81.7345 166.241 80.3553 165.513 78.8037C164.786 77.252 164.396 75.5635 164.371 73.8499C164.182 72.0641 164.687 70.274 165.781 68.8499C166.446 68.2046 167.262 67.7357 168.154 67.486C169.047 67.2362 169.987 67.2135 170.891 67.4199C173.356 68 175.602 69.2775 177.361 71.0999C179.091 73.0399 179.521 76.7299 179.611 79.1799Z" fill="#C1A7A7"/>
<path d="M204.129 144.97C205.533 146.783 206.637 148.808 207.399 150.97C211.662 161.446 214.426 172.472 215.609 183.72C212.12 184.16 208.589 184.16 205.099 183.72C204.826 175.752 203.614 167.844 201.489 160.16C201.12 158.515 200.478 156.943 199.589 155.51C198.039 153.22 195.489 151.9 193.039 150.66C187.397 147.859 181.491 145.621 175.409 143.98C172.849 143.26 170.269 142.61 167.749 141.74C165.576 141.092 163.542 140.048 161.749 138.66C160.854 137.959 160.107 137.085 159.554 136.09C159.001 135.096 158.653 134.001 158.529 132.87C158.529 133.45 171.269 132.87 172.459 132.69C176.459 132.26 181.139 129.94 185.079 131.58C188.159 132.86 190.969 135.53 193.739 137.37C197.249 139.66 201.409 141.8 204.129 144.97Z" fill="white"/>
<path d="M185.981 144.12L163.801 133.12L189.471 123.87L209.691 132.84L185.981 144.12Z" fill="#34A8FA"/>
<path d="M186.1 142.45L167.59 133.26L189.02 125.54L205.91 133.03L186.1 142.45Z" fill="url(#paint7_linear_1_6682)"/>
<path d="M155.19 97.0001C155.14 97.3801 155.09 97.7601 155.05 98.1401C154.45 103.78 154.99 109.33 155.2 114.95C155.33 118.42 155.78 125.05 159.41 126.83C166.23 130.16 179.35 128.88 179.35 128.88C180.87 128.64 182.423 128.701 183.92 129.06C184.74 129.32 185.49 129.76 186.28 130.06C189.15 131.18 192.36 130.61 195.38 130.06C195.903 130 196.407 129.83 196.86 129.56C198.03 128.76 197.98 126.86 197.11 125.74C196.127 124.715 194.853 124.016 193.46 123.74C189.646 122.47 185.55 122.31 181.65 123.28C181.152 123.449 180.644 123.589 180.13 123.7C179.528 123.798 178.919 123.842 178.31 123.83H173.67C168.35 123.88 163.33 123.9 162.53 117.57C162.23 115.229 162.17 112.863 162.35 110.51C162.67 106.26 163.76 102.05 163.53 97.7901C163.507 96.4393 163.164 95.1131 162.53 93.9201C162.218 93.332 161.759 92.8344 161.199 92.4753C160.638 92.1162 159.995 91.9077 159.33 91.8701C158.634 91.9238 157.964 92.1589 157.386 92.5518C156.809 92.9448 156.345 93.4821 156.04 94.1101C155.595 95.0182 155.307 95.9955 155.19 97.0001Z" fill="#C1A7A7"/>
<path d="M218.02 112.6L189.76 127.21L185.98 144.12L209.69 132.84L218.02 112.6Z" fill="#34A8FA"/>
<path d="M179.91 67.1799C179.786 67.0059 179.634 66.8538 179.46 66.7299C179.65 66.6453 179.809 66.5036 179.915 66.3243C180.02 66.145 180.068 65.9373 180.05 65.7299C179.99 65.3099 179.69 65.2799 179.39 65.1099C179.09 64.9399 179.25 64.7599 179.04 64.4299C178.889 64.2408 178.67 64.1187 178.43 64.0899L176.31 63.5499C176.31 63.2799 176.38 62.9599 176.18 62.7799C175.98 62.5999 175.41 62.7799 175 62.6799C174.42 62.5899 174.16 61.9099 173.74 61.4899C172.8 60.5599 172.18 61.4899 171.33 61.6399C170.48 61.7899 170.14 60.8799 169.16 60.7499C168.393 60.6917 167.622 60.7974 166.9 61.0599C166.099 61.2415 165.357 61.6195 164.74 62.1599C164.309 62.6485 163.97 63.2109 163.74 63.8199C163.498 63.639 163.194 63.5606 162.894 63.6018C162.595 63.6429 162.324 63.8003 162.14 64.0399L162.05 64.1899C161.86 64.5999 161.93 65.1099 161.66 65.4599C161.457 65.4399 161.252 65.4399 161.05 65.4599C160.848 65.5124 160.661 65.6079 160.5 65.7399C160.336 65.88 160.205 66.0532 160.113 66.248C160.022 66.4428 159.973 66.6548 159.97 66.8699C159.657 66.793 159.328 66.8176 159.03 66.9399C159.19 66.6502 159.302 66.336 159.36 66.0099C159.394 65.8876 159.398 65.7585 159.37 65.6345C159.342 65.5105 159.284 65.3954 159.2 65.2999C159 65.1399 158.61 65.2999 158.69 65.5599C158.732 65.4595 158.755 65.3516 158.756 65.2424C158.757 65.1332 158.737 65.0248 158.696 64.9236C158.655 64.8223 158.594 64.7301 158.518 64.6523C158.441 64.5744 158.35 64.5125 158.25 64.4699C158.04 64.4009 157.816 64.3905 157.601 64.4399C157.386 64.4892 157.188 64.5964 157.03 64.7499C156.88 64.6099 157.14 64.3499 157.08 64.1499C157.052 64.0802 157.007 64.0184 156.95 63.9699C156.682 63.7173 156.375 63.5111 156.04 63.3599C155.877 63.2896 155.699 63.2637 155.523 63.2848C155.348 63.3059 155.181 63.3732 155.04 63.4799C154.92 62.7399 154.28 61.6099 153.36 61.8299C153.09 61.8899 152.86 62.2099 153 62.4599C152.673 62.1036 152.273 61.8212 151.828 61.6315C151.383 61.4418 150.903 61.3492 150.42 61.3599C150.09 61.3599 149.64 61.6299 149.81 61.9199C149.384 61.6032 148.899 61.3761 148.383 61.2524C147.868 61.1286 147.332 61.1108 146.81 61.1999C146.717 61.1966 146.625 61.2215 146.546 61.2715C146.468 61.3215 146.406 61.3942 146.37 61.4799C146.32 61.6499 146.61 61.8399 146.68 61.6699C146.417 61.63 146.149 61.663 145.903 61.7653C145.658 61.8676 145.446 62.0352 145.29 62.2499C145.031 62.5441 144.894 62.9253 144.905 63.3167C144.916 63.7081 145.075 64.0808 145.35 64.3599C145.96 64.8599 147.12 64.3599 146.96 63.5499C147.177 63.8175 147.485 63.9972 147.825 64.056C148.165 64.1148 148.515 64.0487 148.81 63.8699C148.887 64.2674 149.119 64.618 149.455 64.8449C149.79 65.0717 150.202 65.1562 150.6 65.0799C150.787 65.0416 150.967 64.9705 151.13 64.8699C151.221 65.2547 151.42 65.6055 151.704 65.8817C151.987 66.1578 152.343 66.3479 152.73 66.4299C153.506 66.58 154.303 66.58 155.08 66.4299C154.88 66.6018 154.644 66.7247 154.388 66.789C154.133 66.8532 153.867 66.8569 153.61 66.7999C153.363 66.7401 153.106 66.7401 152.86 66.7999C152.596 66.9406 152.362 67.1307 152.17 67.3599C152.131 67.4018 152.087 67.4387 152.04 67.4699C151.916 67.5222 151.784 67.5491 151.65 67.5491C151.516 67.5491 151.383 67.5222 151.26 67.4699C150.91 67.3495 150.53 67.3495 150.18 67.4699C150.008 67.5368 149.863 67.6582 149.768 67.8154C149.672 67.9726 149.63 68.1569 149.65 68.3399C149.432 68.2946 149.207 68.2929 148.988 68.3348C148.769 68.3768 148.561 68.4615 148.375 68.5841C148.189 68.7068 148.03 68.865 147.905 69.0496C147.781 69.2342 147.694 69.4416 147.65 69.6599C147.625 69.8256 147.625 69.9942 147.65 70.1599C147.429 70.0865 147.19 70.0858 146.969 70.1578C146.748 70.2297 146.555 70.3707 146.42 70.5599C146.305 70.7371 146.224 70.9336 146.18 71.1399C146.098 71.5176 146.061 71.9036 146.07 72.2899C146.062 72.4462 146.096 72.6016 146.17 72.7399C146.205 72.8097 146.262 72.866 146.333 72.9002C146.403 72.9345 146.483 72.9449 146.56 72.9299C146.453 73.0505 146.374 73.1919 146.325 73.3452C146.277 73.4985 146.262 73.6602 146.28 73.8199C146.318 73.9477 146.387 74.0643 146.48 74.1599C146.638 74.3653 146.859 74.5129 147.11 74.5799C147.233 74.6141 147.364 74.6155 147.488 74.5839C147.613 74.5523 147.727 74.4889 147.82 74.3999C148.08 74.1499 148.08 73.7399 148.3 73.3999C148.275 73.5038 148.279 73.6124 148.311 73.7144C148.342 73.8163 148.401 73.908 148.48 73.9799C148.651 74.1175 148.871 74.1822 149.09 74.1599C149.151 74.1551 149.209 74.1344 149.26 74.0999C149.301 74.0576 149.332 74.0062 149.35 73.9499C149.513 73.5181 149.537 73.0462 149.42 72.5999C149.517 72.6881 149.635 72.7492 149.763 72.7773C149.891 72.8054 150.025 72.7994 150.15 72.7599C150.273 72.7154 150.383 72.6378 150.466 72.5356C150.549 72.4333 150.602 72.3103 150.62 72.1799C150.61 72.0401 150.61 71.8997 150.62 71.7599C150.62 71.5599 150.92 71.4999 151.08 71.3899C151.303 71.2372 151.514 71.0667 151.71 70.8799C151.8 70.7899 152.71 69.7399 152.62 69.6699C152.852 69.8199 153.132 69.8784 153.406 69.8341C153.679 69.7898 153.926 69.6458 154.1 69.4299C154.256 69.7075 154.505 69.921 154.803 70.0326C155.101 70.1443 155.43 70.1468 155.73 70.0399C154.708 70.75 153.769 71.5717 152.93 72.4899C152.096 73.4013 151.596 74.5679 151.51 75.7999C151.478 76.4255 151.67 77.0419 152.05 77.5399C152.247 77.7801 152.51 77.9579 152.806 78.052C153.103 78.146 153.42 78.1522 153.72 78.0699C153.708 77.978 153.677 77.8897 153.627 77.8116C153.577 77.7335 153.51 77.6676 153.432 77.6187C153.353 77.5698 153.264 77.5391 153.172 77.5289C153.08 77.5188 152.987 77.5293 152.9 77.5599C152.727 77.634 152.572 77.7448 152.446 77.8847C152.32 78.0245 152.225 78.1901 152.17 78.3699C152.066 78.5905 152.012 78.8312 152.012 79.0749C152.012 79.3186 152.066 79.5593 152.17 79.7799C152.275 79.9879 152.458 80.1457 152.679 80.2188C152.9 80.2919 153.141 80.2743 153.35 80.1699C153.535 80.003 153.688 79.8029 153.8 79.5799C154.159 79.1769 154.54 78.7931 154.94 78.4299C155.129 78.2414 155.248 77.9937 155.277 77.7281C155.306 77.4625 155.244 77.1949 155.1 76.9699C155.66 76.6999 155.64 75.8599 155.33 75.3199C154.946 74.8376 154.611 74.3184 154.33 73.7699H156.41L157.41 72.8499C157.836 73.1204 158.314 73.2985 158.814 73.3725C159.314 73.4466 159.823 73.4151 160.31 73.2799C160.227 73.7681 160.298 74.2699 160.513 74.716C160.728 75.162 161.076 75.5303 161.51 75.7699C161.34 75.8999 161.1 76.0599 161.13 76.3099C161.147 76.3908 161.187 76.465 161.246 76.5236C161.304 76.5821 161.379 76.6225 161.46 76.6399C161.618 76.6699 161.781 76.6699 161.94 76.6399C162.01 76.7899 161.84 76.9499 161.86 77.1199C161.881 77.217 161.938 77.3026 162.02 77.3599C162.205 77.5093 162.42 77.6183 162.65 77.6799C162.606 77.7374 162.582 77.8076 162.582 77.8799C162.582 77.9522 162.606 78.0224 162.65 78.0799C162.73 78.1983 162.846 78.2891 162.98 78.3399C163.309 78.5114 163.663 78.6295 164.03 78.6899C163.987 78.8913 164.008 79.1008 164.09 79.2899C164.126 79.386 164.195 79.466 164.285 79.5155C164.375 79.565 164.479 79.5808 164.58 79.5599C164.67 79.5599 164.75 79.4599 164.84 79.4799C164.896 79.4977 164.945 79.5327 164.98 79.5799C165.146 79.7688 165.272 79.9901 165.35 80.2299C165.374 80.3433 165.418 80.4516 165.48 80.5499C165.572 80.6696 165.697 80.76 165.84 80.8099C166.03 80.8799 166.26 80.9399 166.41 80.8099C166.459 80.7571 166.492 80.6918 166.506 80.6212C166.52 80.5506 166.514 80.4775 166.49 80.4099C166.439 80.2795 166.368 80.1579 166.28 80.0499C166.329 80.0736 166.386 80.0786 166.44 80.0639C166.493 80.0492 166.539 80.0158 166.57 79.9699C166.609 79.8635 166.609 79.7463 166.57 79.6399C166.451 79.3629 166.289 79.1065 166.09 78.8799C166.08 78.8579 166.075 78.834 166.075 78.8099C166.075 78.7858 166.08 78.7619 166.09 78.7399C166.096 78.7162 166.107 78.694 166.123 78.675C166.138 78.6561 166.158 78.6407 166.18 78.6299C166.35 78.4399 166.18 78.1299 166.08 77.9099C165.98 77.6899 165.75 77.4399 165.86 77.1999C165.918 77.0985 165.989 77.0045 166.07 76.9199C166.18 76.7699 166.18 76.4999 166.32 76.3899C166.388 76.3517 166.468 76.3408 166.544 76.3594C166.62 76.3779 166.687 76.4246 166.73 76.4899C166.83 76.6099 166.87 76.7699 166.96 76.8899C167.138 77.0656 167.336 77.2199 167.55 77.3499C167.7 77.4899 167.81 77.6899 167.97 77.8299C168.018 77.8954 168.086 77.9445 168.163 77.9705C168.241 77.9965 168.324 77.9981 168.403 77.9753C168.481 77.9524 168.551 77.9061 168.602 77.8426C168.653 77.7791 168.684 77.7013 168.69 77.6199C168.706 77.4861 168.689 77.3504 168.64 77.2249C168.591 77.0993 168.512 76.9877 168.41 76.8999C168.331 76.8469 168.26 76.7829 168.2 76.7099C168.167 76.6747 168.148 76.6282 168.148 76.5799C168.148 76.5316 168.167 76.4851 168.2 76.4499C168.239 76.4565 168.28 76.4504 168.316 76.4324C168.352 76.4145 168.381 76.3856 168.4 76.3499C168.41 76.3173 168.41 76.2825 168.4 76.2499C168.381 76.1558 168.336 76.069 168.27 75.9999C168.27 75.9999 168.19 75.9199 168.2 75.8699C168.19 75.8442 168.19 75.8156 168.2 75.7899C168.3 75.6199 168.44 75.4699 168.53 75.2999C168.6 75.1649 168.616 75.0081 168.576 74.8614C168.535 74.7148 168.44 74.5891 168.31 74.5099C168.51 74.6362 168.748 74.6875 168.983 74.6545C169.217 74.6216 169.432 74.5065 169.59 74.3299C169.898 73.9773 170.123 73.5606 170.25 73.1099C170.32 73.1631 170.4 73.2019 170.485 73.2242C170.57 73.2464 170.659 73.2517 170.747 73.2396C170.834 73.2275 170.918 73.1984 170.994 73.1538C171.07 73.1093 171.136 73.0502 171.19 72.9799C171.243 72.9096 171.282 72.8296 171.304 72.7443C171.326 72.6591 171.331 72.5703 171.319 72.483C171.307 72.3957 171.278 72.3116 171.234 72.2356C171.189 72.1596 171.13 72.0931 171.06 72.0399H170.98C171.24 72.1712 171.521 72.259 171.81 72.2999C171.955 72.3192 172.103 72.3008 172.24 72.2465C172.377 72.1923 172.497 72.1039 172.59 71.9899C172.84 71.6399 172.71 71.0899 173.04 70.8099C173.549 71.2544 174.102 71.6464 174.69 71.9799C175.16 72.1348 175.673 72.0964 176.116 71.8733C176.558 71.6501 176.894 71.2605 177.05 70.7899C177.05 70.7899 177.05 70.7899 177.05 70.7299C177.295 70.892 177.575 70.9938 177.867 71.0268C178.159 71.0598 178.454 71.0232 178.73 70.9199C178.949 70.7486 179.106 70.51 179.176 70.2408C179.247 69.9716 179.227 69.6867 179.12 69.4299C179.419 69.3942 179.695 69.2525 179.899 69.0305C180.102 68.8086 180.22 68.521 180.23 68.2199C180.242 67.8472 180.129 67.4811 179.91 67.1799Z" fill="#473F47"/>
<path d="M207.891 194.8C207.891 194.8 208.891 196.8 215.651 195.66C222.411 194.52 225.591 192.41 225.971 191.22C226.104 191.446 226.192 191.697 226.228 191.957C226.265 192.217 226.25 192.482 226.184 192.737C226.118 192.991 226.002 193.23 225.844 193.44C225.685 193.65 225.487 193.827 225.261 193.96C223.571 194.96 217.021 199.46 209.041 196.7C209.041 196.74 208.041 196.46 207.891 194.8Z" fill="#473F47"/>
<path d="M165.22 75.6699C165.088 75.6747 164.96 75.7163 164.85 75.7899C164.608 75.9492 164.416 76.1735 164.295 76.437C164.175 76.7006 164.131 76.9927 164.17 77.2799C164.251 77.8604 164.51 78.4016 164.91 78.8299C165.071 79.0383 165.276 79.2089 165.51 79.3299C165.827 79.4605 166.167 79.5284 166.51 79.5299C166.641 79.5599 166.778 79.5599 166.91 79.5299C167.042 79.4569 167.153 79.3498 167.23 79.2197C167.308 79.0897 167.349 78.9413 167.35 78.7899C167.402 78.0678 167.246 77.3459 166.9 76.7099C166.79 76.5059 166.618 76.3416 166.41 76.2399C166.06 75.964 165.654 75.7693 165.22 75.6699Z" fill="#C1A7A7"/>
<path d="M158.179 68.0199C157.78 69.1602 157.587 70.3622 157.609 71.5699C157.552 72.2238 157.637 72.8822 157.859 73.4999C158.061 73.909 158.316 74.289 158.619 74.6299C158.919 74.6577 159.222 74.6172 159.504 74.5115C159.786 74.4059 160.041 74.2379 160.249 74.0199C160.352 73.917 160.428 73.7898 160.469 73.6499C160.579 73.2699 160.319 72.9099 160.109 72.5699C159.488 71.4396 159.34 70.1089 159.699 68.8699C159.869 68.1899 161.059 66.3699 159.529 66.6599C159.205 66.7495 158.91 66.922 158.673 67.1606C158.437 67.3991 158.266 67.6953 158.179 68.0199Z" fill="#34A8FA"/>
<path d="M179.02 215H178.02C177.887 215 177.76 214.947 177.666 214.853C177.572 214.76 177.52 214.632 177.52 214.5C177.52 214.367 177.572 214.24 177.666 214.146C177.76 214.052 177.887 214 178.02 214H179.02C179.152 214 179.279 214.052 179.373 214.146C179.467 214.24 179.52 214.367 179.52 214.5C179.52 214.632 179.467 214.76 179.373 214.853C179.279 214.947 179.152 215 179.02 215ZM184.02 215C183.887 215 183.76 214.947 183.666 214.853C183.572 214.76 183.52 214.632 183.52 214.5C183.52 214.367 183.572 214.24 183.666 214.146C183.76 214.052 183.887 214 184.02 214H185.02C185.152 214 185.279 214.052 185.373 214.146C185.467 214.24 185.52 214.367 185.52 214.5C185.52 214.632 185.467 214.76 185.373 214.853C185.279 214.947 185.152 215 185.02 215H184.02ZM173.02 214.88H172.02C171.954 214.877 171.889 214.862 171.83 214.834C171.77 214.807 171.716 214.768 171.672 214.719C171.627 214.671 171.593 214.614 171.57 214.553C171.547 214.491 171.537 214.425 171.54 214.36C171.538 214.296 171.55 214.233 171.573 214.175C171.597 214.116 171.632 214.062 171.677 214.017C171.722 213.973 171.775 213.937 171.834 213.914C171.893 213.89 171.956 213.878 172.02 213.88H173.02C173.152 213.88 173.279 213.932 173.373 214.026C173.467 214.12 173.52 214.247 173.52 214.38C173.52 214.512 173.467 214.64 173.373 214.733C173.279 214.827 173.152 214.88 173.02 214.88ZM190.02 214.88C189.887 214.88 189.76 214.827 189.666 214.733C189.572 214.64 189.52 214.512 189.52 214.38C189.52 214.247 189.572 214.12 189.666 214.026C189.76 213.932 189.887 213.88 190.02 213.88H191.02C191.151 213.879 191.277 213.929 191.374 214.018C191.47 214.107 191.53 214.229 191.54 214.36C191.542 214.425 191.532 214.491 191.509 214.553C191.487 214.614 191.452 214.671 191.407 214.719C191.363 214.768 191.309 214.807 191.25 214.834C191.19 214.862 191.125 214.877 191.06 214.88H190.06H190.02ZM167.02 214.62L166.02 214.56C165.954 214.556 165.89 214.539 165.83 214.51C165.771 214.482 165.718 214.442 165.675 214.392C165.631 214.343 165.597 214.286 165.576 214.224C165.554 214.161 165.546 214.095 165.55 214.03C165.55 213.966 165.562 213.904 165.587 213.845C165.612 213.787 165.648 213.734 165.694 213.69C165.74 213.646 165.794 213.612 165.854 213.59C165.913 213.567 165.976 213.557 166.04 213.56L167.04 213.62C167.172 213.62 167.299 213.672 167.393 213.766C167.487 213.86 167.54 213.987 167.54 214.12C167.54 214.252 167.487 214.38 167.393 214.473C167.299 214.567 167.172 214.62 167.04 214.62H167.02ZM196.02 214.62C195.893 214.618 195.771 214.568 195.679 214.481C195.586 214.395 195.53 214.276 195.52 214.15C195.516 214.018 195.563 213.891 195.65 213.792C195.738 213.694 195.859 213.632 195.99 213.62L196.99 213.56C197.121 213.557 197.249 213.603 197.347 213.691C197.445 213.778 197.507 213.899 197.52 214.03C197.524 214.095 197.515 214.161 197.493 214.224C197.472 214.286 197.438 214.343 197.395 214.392C197.351 214.442 197.298 214.482 197.239 214.51C197.18 214.539 197.115 214.556 197.05 214.56L196.05 214.62H196.02ZM161.02 214.22L160.02 214.13C159.954 214.125 159.89 214.107 159.831 214.077C159.772 214.047 159.72 214.006 159.677 213.956C159.635 213.905 159.602 213.847 159.582 213.784C159.562 213.722 159.554 213.656 159.56 213.59C159.577 213.459 159.644 213.34 159.746 213.256C159.848 213.173 159.978 213.131 160.11 213.14L161.11 213.22C161.242 213.22 161.369 213.272 161.463 213.366C161.557 213.46 161.61 213.587 161.61 213.72C161.61 213.852 161.557 213.98 161.463 214.073C161.369 214.167 161.242 214.22 161.11 214.22H161.02ZM202.02 214.22C201.887 214.22 201.76 214.167 201.666 214.073C201.572 213.98 201.52 213.852 201.52 213.72C201.52 213.587 201.572 213.46 201.666 213.366C201.76 213.272 201.887 213.22 202.02 213.22L203.02 213.14C203.15 213.131 203.279 213.173 203.38 213.257C203.48 213.341 203.544 213.46 203.56 213.59C203.567 213.654 203.561 213.719 203.542 213.781C203.524 213.844 203.493 213.901 203.452 213.952C203.411 214.002 203.361 214.043 203.304 214.074C203.247 214.105 203.184 214.124 203.12 214.13L202.12 214.22H202.02ZM155.09 213.67H155.03L154.03 213.56C153.897 213.544 153.776 213.476 153.694 213.371C153.611 213.266 153.574 213.132 153.59 213C153.606 212.867 153.673 212.746 153.778 212.664C153.883 212.581 154.017 212.544 154.15 212.56L155.15 212.67C155.282 212.67 155.409 212.722 155.503 212.816C155.597 212.91 155.65 213.037 155.65 213.17C155.65 213.302 155.597 213.43 155.503 213.523C155.409 213.617 155.282 213.67 155.15 213.67H155.09ZM207.99 213.67C207.857 213.67 207.73 213.617 207.636 213.523C207.542 213.43 207.49 213.302 207.49 213.17C207.49 213.037 207.542 212.91 207.636 212.816C207.73 212.722 207.857 212.67 207.99 212.67L208.99 212.56C209.118 212.545 209.247 212.581 209.349 212.659C209.451 212.738 209.52 212.852 209.54 212.98C209.554 213.111 209.515 213.242 209.433 213.345C209.35 213.448 209.231 213.515 209.1 213.53L208.1 213.64L207.99 213.67ZM149.13 212.97H149.06L148.06 212.83C147.994 212.821 147.931 212.8 147.873 212.767C147.816 212.734 147.765 212.69 147.725 212.637C147.685 212.585 147.655 212.525 147.638 212.461C147.621 212.397 147.616 212.33 147.625 212.265C147.633 212.199 147.655 212.136 147.688 212.078C147.721 212.021 147.765 211.971 147.817 211.93C147.869 211.89 147.929 211.86 147.993 211.843C148.057 211.826 148.124 211.821 148.19 211.83L149.19 211.97C149.318 211.985 149.435 212.05 149.516 212.151C149.596 212.252 149.634 212.381 149.62 212.51C149.585 212.617 149.517 212.71 149.425 212.775C149.333 212.84 149.222 212.873 149.11 212.87L149.13 212.97ZM213.95 212.97C213.884 212.974 213.818 212.966 213.756 212.945C213.693 212.924 213.635 212.891 213.586 212.848C213.485 212.761 213.424 212.637 213.415 212.505C213.405 212.372 213.449 212.241 213.536 212.141C213.624 212.041 213.747 211.979 213.88 211.97L214.88 211.84C214.943 211.83 215.008 211.833 215.071 211.848C215.134 211.863 215.193 211.89 215.245 211.929C215.297 211.967 215.341 212.015 215.374 212.07C215.408 212.125 215.43 212.186 215.44 212.25C215.457 212.381 215.423 212.513 215.345 212.62C215.266 212.726 215.15 212.798 215.02 212.82L214.02 212.95L213.95 212.97ZM143.19 212.12H143.11L142.11 211.96C142.038 211.955 141.969 211.936 141.905 211.903C141.842 211.87 141.786 211.823 141.742 211.767C141.698 211.711 141.665 211.647 141.648 211.577C141.63 211.508 141.627 211.436 141.639 211.365C141.651 211.295 141.678 211.228 141.717 211.168C141.757 211.109 141.809 211.058 141.869 211.02C141.929 210.982 141.997 210.957 142.068 210.946C142.139 210.936 142.211 210.94 142.28 210.96L143.28 211.13C143.343 211.14 143.405 211.162 143.46 211.195C143.515 211.229 143.563 211.273 143.601 211.325C143.639 211.377 143.666 211.436 143.682 211.498C143.697 211.561 143.7 211.626 143.69 211.69C143.65 211.793 143.578 211.881 143.484 211.938C143.39 211.996 143.279 212.021 143.17 212.01L143.19 212.12ZM219.88 212.12C219.814 212.125 219.748 212.117 219.685 212.097C219.623 212.077 219.564 212.044 219.514 212.002C219.464 211.959 219.423 211.907 219.393 211.848C219.363 211.789 219.345 211.725 219.34 211.66C219.334 211.594 219.342 211.528 219.362 211.465C219.383 211.403 219.415 211.345 219.458 211.295C219.5 211.244 219.553 211.203 219.611 211.173C219.67 211.143 219.734 211.125 219.8 211.12L220.8 210.95C220.929 210.93 221.062 210.961 221.169 211.038C221.275 211.115 221.348 211.23 221.37 211.36C221.381 211.425 221.38 211.492 221.365 211.556C221.351 211.62 221.324 211.681 221.285 211.735C221.247 211.789 221.199 211.835 221.143 211.87C221.087 211.905 221.025 211.929 220.96 211.94L219.96 212.1L219.88 212.12ZM137.28 211.12H137.19L136.19 210.93C136.125 210.917 136.064 210.891 136.01 210.854C135.955 210.818 135.909 210.77 135.872 210.716C135.836 210.661 135.811 210.599 135.799 210.535C135.786 210.47 135.786 210.404 135.8 210.34C135.81 210.276 135.834 210.216 135.869 210.161C135.903 210.107 135.949 210.06 136.002 210.024C136.055 209.987 136.115 209.962 136.178 209.949C136.241 209.937 136.306 209.937 136.37 209.95L137.37 210.14C137.434 210.153 137.495 210.179 137.55 210.215C137.604 210.252 137.651 210.299 137.687 210.354C137.723 210.409 137.748 210.47 137.761 210.535C137.773 210.599 137.773 210.665 137.76 210.73C137.709 210.819 137.632 210.891 137.538 210.934C137.445 210.977 137.341 210.989 137.24 210.97L137.28 211.12ZM225.79 211.12C225.674 211.122 225.561 211.083 225.471 211.009C225.382 210.936 225.321 210.834 225.3 210.72C225.276 210.589 225.305 210.454 225.379 210.343C225.454 210.233 225.569 210.156 225.7 210.13L226.7 209.94C226.83 209.916 226.963 209.945 227.072 210.02C227.181 210.095 227.255 210.21 227.28 210.34C227.294 210.401 227.297 210.464 227.286 210.526C227.276 210.588 227.254 210.648 227.22 210.701C227.186 210.754 227.143 210.8 227.091 210.836C227.039 210.872 226.981 210.897 226.92 210.91L225.92 211.11L225.79 211.12ZM131.39 209.8H131.28L130.28 209.57C130.214 209.555 130.152 209.528 130.097 209.49C130.042 209.451 129.994 209.402 129.958 209.346C129.922 209.289 129.897 209.226 129.886 209.16C129.874 209.093 129.875 209.025 129.89 208.96C129.904 208.894 129.931 208.832 129.97 208.777C130.008 208.722 130.057 208.675 130.114 208.638C130.17 208.602 130.234 208.578 130.3 208.566C130.366 208.554 130.434 208.555 130.5 208.57L131.5 208.79C131.564 208.804 131.625 208.831 131.679 208.869C131.733 208.907 131.779 208.955 131.815 209.011C131.85 209.066 131.874 209.129 131.885 209.194C131.896 209.259 131.894 209.325 131.88 209.39C131.86 209.505 131.801 209.61 131.711 209.686C131.621 209.761 131.507 209.801 131.39 209.8ZM231.61 209.69C231.544 209.697 231.477 209.691 231.414 209.672C231.351 209.653 231.292 209.621 231.241 209.58C231.19 209.538 231.147 209.486 231.116 209.428C231.085 209.369 231.066 209.306 231.06 209.24C231.051 209.175 231.056 209.108 231.074 209.045C231.092 208.982 231.122 208.923 231.163 208.872C231.204 208.82 231.255 208.778 231.313 208.746C231.371 208.715 231.434 208.696 231.5 208.69L232.5 208.46C232.565 208.445 232.633 208.444 232.699 208.456C232.766 208.468 232.829 208.492 232.885 208.528C232.942 208.565 232.991 208.612 233.029 208.667C233.068 208.722 233.095 208.784 233.11 208.85C233.124 208.915 233.125 208.983 233.114 209.05C233.102 209.116 233.077 209.179 233.041 209.236C233.005 209.292 232.958 209.341 232.903 209.38C232.847 209.418 232.785 209.445 232.72 209.46L231.72 209.68L231.61 209.69ZM125.51 208.34C125.47 208.35 125.429 208.35 125.39 208.34L124.39 208.09C124.257 208.054 124.143 207.969 124.072 207.851C124.002 207.734 123.979 207.594 124.01 207.46C124.045 207.328 124.131 207.215 124.249 207.146C124.367 207.076 124.507 207.056 124.64 207.09L125.64 207.35C125.703 207.366 125.763 207.395 125.816 207.434C125.868 207.474 125.913 207.523 125.946 207.58C125.98 207.637 126.002 207.699 126.011 207.765C126.02 207.83 126.016 207.896 126 207.96C125.974 208.063 125.917 208.155 125.836 208.223C125.756 208.291 125.655 208.332 125.55 208.34H125.51ZM237.44 208.28C237.307 208.297 237.173 208.261 237.067 208.179C236.961 208.098 236.892 207.977 236.875 207.845C236.857 207.712 236.894 207.578 236.975 207.472C237.057 207.366 237.177 207.297 237.31 207.28L238.31 207.03C238.375 207.013 238.444 207.01 238.51 207.02C238.577 207.03 238.642 207.053 238.7 207.088C238.758 207.123 238.808 207.169 238.849 207.223C238.889 207.277 238.918 207.339 238.935 207.405C238.951 207.47 238.954 207.539 238.944 207.606C238.934 207.673 238.911 207.737 238.877 207.795C238.842 207.853 238.796 207.904 238.741 207.944C238.687 207.984 238.625 208.013 238.56 208.03L237.56 208.28H237.44ZM119.73 206.73H119.61L118.61 206.44C118.546 206.423 118.486 206.393 118.434 206.352C118.382 206.311 118.339 206.26 118.307 206.202C118.276 206.144 118.256 206.081 118.249 206.015C118.243 205.949 118.25 205.883 118.27 205.82C118.311 205.694 118.4 205.589 118.518 205.527C118.635 205.465 118.772 205.452 118.9 205.49L119.9 205.77C119.965 205.779 120.028 205.801 120.086 205.835C120.143 205.868 120.193 205.913 120.233 205.966C120.273 206.019 120.302 206.079 120.318 206.143C120.335 206.207 120.339 206.274 120.33 206.34C120.32 206.405 120.298 206.469 120.265 206.526C120.231 206.583 120.187 206.633 120.134 206.673C120.081 206.713 120.02 206.742 119.956 206.759C119.892 206.775 119.825 206.779 119.76 206.77L119.73 206.73ZM243.22 206.66C243.113 206.66 243.008 206.627 242.922 206.564C242.836 206.501 242.772 206.412 242.74 206.31C242.702 206.182 242.715 206.045 242.777 205.928C242.838 205.81 242.943 205.721 243.07 205.68L244.07 205.4C244.194 205.362 244.329 205.374 244.445 205.434C244.56 205.494 244.648 205.596 244.69 205.72C244.727 205.846 244.714 205.981 244.652 206.098C244.59 206.214 244.485 206.301 244.36 206.34L243.36 206.63H243.26L243.22 206.66ZM114.01 204.91H113.85L112.85 204.58C112.717 204.547 112.603 204.462 112.533 204.345C112.462 204.228 112.441 204.087 112.475 203.955C112.508 203.822 112.592 203.708 112.709 203.638C112.827 203.568 112.967 203.547 113.1 203.58H113.18L114.12 203.9C114.244 203.943 114.346 204.033 114.404 204.151C114.462 204.269 114.471 204.405 114.43 204.53C114.395 204.617 114.336 204.693 114.26 204.748C114.184 204.803 114.093 204.835 114 204.84L114.01 204.91ZM249.01 204.8C248.885 204.805 248.763 204.764 248.666 204.685C248.57 204.606 248.506 204.494 248.486 204.371C248.466 204.248 248.492 204.121 248.559 204.016C248.626 203.911 248.73 203.834 248.85 203.8L249.79 203.48C249.849 203.456 249.913 203.444 249.977 203.445C250.042 203.446 250.105 203.46 250.164 203.486C250.223 203.513 250.276 203.55 250.32 203.597C250.363 203.644 250.397 203.699 250.42 203.76C250.461 203.886 250.452 204.023 250.395 204.143C250.337 204.262 250.234 204.354 250.11 204.4L249.11 204.73L249.01 204.8ZM108.41 202.8H108.23L107.3 202.43C107.179 202.383 107.082 202.291 107.028 202.173C106.974 202.056 106.967 201.922 107.01 201.8C107.059 201.679 107.153 201.582 107.273 201.529C107.392 201.477 107.527 201.474 107.65 201.52L108.58 201.89C108.702 201.937 108.802 202.03 108.856 202.15C108.91 202.27 108.915 202.406 108.87 202.53C108.835 202.628 108.772 202.712 108.688 202.773C108.604 202.834 108.503 202.868 108.4 202.87L108.41 202.8ZM254.61 202.8C254.509 202.8 254.412 202.771 254.328 202.716C254.244 202.66 254.179 202.582 254.14 202.49C254.093 202.366 254.096 202.23 254.149 202.108C254.201 201.987 254.298 201.891 254.42 201.84L255.34 201.47C255.463 201.423 255.6 201.426 255.721 201.479C255.842 201.531 255.939 201.628 255.99 201.75C256.014 201.811 256.026 201.876 256.025 201.942C256.024 202.008 256.01 202.073 255.984 202.133C255.958 202.193 255.921 202.248 255.874 202.294C255.826 202.34 255.771 202.376 255.71 202.4L254.78 202.77C254.725 202.788 254.667 202.798 254.61 202.8ZM102.87 200.59C102.803 200.6 102.736 200.6 102.67 200.59L101.75 200.18C101.69 200.154 101.637 200.116 101.592 200.069C101.547 200.023 101.512 199.967 101.489 199.907C101.466 199.847 101.455 199.782 101.457 199.717C101.458 199.653 101.473 199.589 101.5 199.53C101.554 199.409 101.654 199.315 101.778 199.268C101.902 199.222 102.039 199.226 102.16 199.28L103.07 199.69C103.19 199.744 103.284 199.844 103.331 199.968C103.378 200.092 103.374 200.229 103.32 200.35C103.268 200.423 103.199 200.482 103.118 200.52C103.038 200.559 102.949 200.576 102.86 200.57L102.87 200.59ZM260.14 200.49C260.043 200.489 259.949 200.461 259.869 200.408C259.789 200.354 259.727 200.278 259.69 200.19C259.635 200.073 259.628 199.939 259.671 199.818C259.714 199.696 259.803 199.596 259.92 199.54L260.82 199.13C260.939 199.074 261.076 199.067 261.201 199.109C261.326 199.152 261.43 199.242 261.49 199.36C261.542 199.482 261.545 199.62 261.498 199.745C261.452 199.869 261.359 199.971 261.24 200.03L260.33 200.44C260.26 200.455 260.189 200.455 260.12 200.44L260.14 200.49ZM97.4596 197.99H97.2296L96.3396 197.52C96.2246 197.455 96.1395 197.347 96.1022 197.22C96.0649 197.093 96.0783 196.957 96.1396 196.84C96.169 196.783 96.2097 196.732 96.2591 196.691C96.3085 196.649 96.3657 196.619 96.4272 196.6C96.4888 196.581 96.5535 196.575 96.6175 196.582C96.6814 196.589 96.7434 196.609 96.7996 196.64L97.6796 197.1C97.7786 197.143 97.8589 197.22 97.9059 197.317C97.9528 197.414 97.9633 197.525 97.9354 197.629C97.9076 197.733 97.8432 197.824 97.754 197.885C97.6648 197.945 97.5568 197.972 97.4496 197.96L97.4596 197.99ZM265.55 197.88C265.484 197.895 265.416 197.896 265.35 197.884C265.283 197.873 265.22 197.848 265.163 197.812C265.107 197.776 265.058 197.728 265.019 197.673C264.981 197.618 264.954 197.556 264.94 197.49C264.923 197.425 264.92 197.357 264.931 197.291C264.941 197.225 264.965 197.161 265 197.104C265.036 197.047 265.082 196.998 265.137 196.96C265.192 196.921 265.254 196.894 265.32 196.88L266.2 196.42C266.256 196.389 266.318 196.369 266.382 196.362C266.446 196.355 266.51 196.361 266.572 196.38C266.634 196.399 266.691 196.429 266.74 196.471C266.79 196.512 266.83 196.563 266.86 196.62C266.921 196.734 266.936 196.868 266.9 196.993C266.865 197.118 266.782 197.225 266.67 197.29L265.78 197.76C265.709 197.801 265.631 197.828 265.55 197.84V197.88ZM92.2196 195.07C92.128 195.072 92.0378 195.047 91.9596 195L91.1096 194.47C91.0041 194.39 90.9337 194.273 90.9132 194.142C90.8927 194.011 90.9237 193.878 90.9996 193.77C91.0698 193.674 91.1716 193.607 91.287 193.579C91.4025 193.552 91.5239 193.566 91.6296 193.62L92.4796 194.14C92.5363 194.174 92.5858 194.219 92.6251 194.272C92.6643 194.325 92.6927 194.385 92.7085 194.449C92.7243 194.514 92.7273 194.58 92.7172 194.645C92.707 194.711 92.6841 194.773 92.6496 194.83C92.6019 194.899 92.5373 194.954 92.462 194.991C92.3867 195.028 92.3033 195.044 92.2196 195.04V195.07ZM270.78 194.94C270.693 194.94 270.608 194.918 270.533 194.876C270.458 194.834 270.394 194.774 270.35 194.7C270.283 194.585 270.263 194.449 270.295 194.32C270.326 194.191 270.407 194.08 270.52 194.01L271.37 193.49C271.488 193.431 271.624 193.42 271.75 193.462C271.876 193.503 271.98 193.592 272.04 193.71C272.093 193.816 272.108 193.937 272.08 194.052C272.053 194.168 271.985 194.27 271.89 194.34L271.04 194.87C270.955 194.895 270.865 194.895 270.78 194.87V194.94ZM87.2096 191.74C87.1061 191.739 87.0052 191.708 86.9196 191.65L86.1096 191.05C86.0095 190.977 85.94 190.87 85.9144 190.749C85.8889 190.627 85.9092 190.501 85.9714 190.394C86.0337 190.287 86.1334 190.207 86.2512 190.169C86.3691 190.132 86.4968 190.139 86.6096 190.19L86.6996 190.25L87.4996 190.84C87.6069 190.913 87.6809 191.025 87.7053 191.153C87.7296 191.28 87.7024 191.412 87.6296 191.52C87.5826 191.588 87.5199 191.643 87.4467 191.682C87.3736 191.72 87.2922 191.74 87.2096 191.74ZM275.78 191.6C275.672 191.603 275.566 191.571 275.478 191.509C275.39 191.447 275.324 191.359 275.291 191.257C275.257 191.154 275.257 191.044 275.291 190.942C275.325 190.84 275.391 190.751 275.48 190.69L276.28 190.1C276.387 190.023 276.519 189.99 276.65 190.009C276.78 190.027 276.898 190.096 276.98 190.2C277.059 190.306 277.093 190.439 277.075 190.571C277.056 190.702 276.986 190.82 276.88 190.9C276.62 191.1 276.34 191.31 276.07 191.5C275.989 191.568 275.885 191.603 275.78 191.6ZM82.5196 188.01C82.3986 188.003 82.283 187.957 82.1896 187.88L81.4396 187.2C81.348 187.106 81.2967 186.981 81.2967 186.85C81.2967 186.719 81.348 186.593 81.4396 186.5C81.4861 186.453 81.5414 186.416 81.6023 186.39C81.6633 186.365 81.7286 186.352 81.7946 186.352C81.8606 186.352 81.926 186.365 81.9869 186.39C82.0478 186.416 82.1031 186.453 82.1496 186.5L82.8896 187.16C82.9897 187.245 83.052 187.366 83.0633 187.497C83.0745 187.629 83.0337 187.759 82.9496 187.86C82.9001 187.917 82.8386 187.963 82.7695 187.994C82.7004 188.025 82.6254 188.041 82.5496 188.04L82.5196 188.01ZM280.45 187.8C280.379 187.8 280.31 187.785 280.246 187.756C280.182 187.727 280.125 187.684 280.08 187.63C279.989 187.538 279.938 187.414 279.938 187.285C279.938 187.156 279.989 187.032 280.08 186.94L280.81 186.27C280.856 186.223 280.911 186.186 280.972 186.16C281.033 186.135 281.099 186.122 281.165 186.122C281.231 186.122 281.296 186.135 281.357 186.16C281.418 186.186 281.473 186.223 281.52 186.27C281.566 186.315 281.603 186.37 281.628 186.43C281.654 186.49 281.667 186.555 281.667 186.62C281.667 186.685 281.654 186.75 281.628 186.81C281.603 186.87 281.566 186.924 281.52 186.97L281.47 187.02C281.23 187.25 280.98 187.48 280.72 187.7C280.643 187.761 280.548 187.796 280.45 187.8ZM78.2996 183.8C78.228 183.799 78.1572 183.784 78.0919 183.754C78.0265 183.725 77.9678 183.683 77.9196 183.63L77.2696 182.85C77.2233 182.805 77.1865 182.751 77.1614 182.692C77.1363 182.633 77.1233 182.569 77.1233 182.505C77.1233 182.44 77.1363 182.377 77.1614 182.317C77.1865 182.258 77.2233 182.205 77.2696 182.16C77.3746 182.079 77.5065 182.041 77.6385 182.054C77.7705 182.067 77.8925 182.13 77.9796 182.23L78.6196 182.98C78.7119 183.075 78.7635 183.202 78.7635 183.335C78.7635 183.467 78.7119 183.595 78.6196 183.69C78.5278 183.76 78.4154 183.799 78.2996 183.8ZM284.61 183.57C284.477 183.57 284.35 183.517 284.256 183.423C284.162 183.33 284.11 183.202 284.11 183.07C284.118 182.954 284.159 182.843 284.23 182.75L284.87 181.99C284.91 181.939 284.959 181.897 285.016 181.865C285.072 181.834 285.134 181.814 285.198 181.806C285.262 181.799 285.327 181.804 285.389 181.822C285.451 181.84 285.509 181.87 285.56 181.91C285.61 181.95 285.653 181.999 285.684 182.056C285.716 182.112 285.736 182.174 285.743 182.238C285.75 182.302 285.745 182.367 285.727 182.429C285.71 182.491 285.68 182.549 285.64 182.6L284.99 183.38C284.944 183.437 284.886 183.484 284.821 183.517C284.755 183.55 284.683 183.568 284.61 183.57ZM74.7196 178.93C74.6333 178.93 74.5484 178.908 74.473 178.866C74.3977 178.824 74.3345 178.764 74.2896 178.69L73.7796 177.81C73.7506 177.751 73.7335 177.687 73.7294 177.621C73.7253 177.555 73.7341 177.489 73.7555 177.427C73.7769 177.365 73.8103 177.307 73.8539 177.258C73.8975 177.209 73.9504 177.169 74.0096 177.14C74.1194 177.084 74.2462 177.071 74.3648 177.105C74.4834 177.138 74.5851 177.215 74.6496 177.32C74.8096 177.61 74.9796 177.89 75.1496 178.18C75.2161 178.293 75.2355 178.427 75.2037 178.555C75.1719 178.682 75.0914 178.791 74.9796 178.86C74.9118 178.898 74.837 178.922 74.7596 178.93H74.7196ZM288.12 178.72C288.028 178.722 287.938 178.697 287.86 178.65C287.748 178.581 287.667 178.472 287.636 178.345C287.604 178.217 287.623 178.083 287.69 177.97C287.85 177.68 288.02 177.4 288.17 177.11C288.201 177.052 288.244 177.001 288.295 176.96C288.346 176.918 288.405 176.888 288.468 176.869C288.531 176.85 288.598 176.844 288.663 176.851C288.728 176.858 288.792 176.878 288.85 176.91C288.907 176.941 288.958 176.984 289 177.035C289.041 177.086 289.072 177.145 289.09 177.208C289.109 177.272 289.115 177.338 289.108 177.403C289.101 177.469 289.081 177.532 289.05 177.59C288.89 177.89 288.72 178.18 288.55 178.47C288.508 178.539 288.452 178.597 288.384 178.641C288.316 178.684 288.24 178.711 288.16 178.72H288.12ZM72.1996 173.52C72.0939 173.521 71.9906 173.489 71.9043 173.428C71.8181 173.367 71.7534 173.28 71.7196 173.18C71.6096 172.85 71.5096 172.53 71.4196 172.18C71.3858 172.046 71.4055 171.904 71.4746 171.785C71.5437 171.665 71.6567 171.577 71.7896 171.54C71.9222 171.506 72.0626 171.526 72.1805 171.596C72.2985 171.665 72.3843 171.778 72.4196 171.91C72.5096 172.22 72.6096 172.53 72.7096 172.84C72.7512 172.962 72.7431 173.095 72.6869 173.211C72.6308 173.327 72.5311 173.417 72.4096 173.46C72.363 173.485 72.3122 173.502 72.2596 173.51L72.1996 173.52ZM290.61 173.28H290.46C290.336 173.241 290.233 173.155 290.172 173.041C290.11 172.928 290.095 172.794 290.13 172.67C290.22 172.36 290.32 172.05 290.4 171.73C290.435 171.598 290.521 171.485 290.639 171.416C290.757 171.346 290.897 171.326 291.03 171.36C291.163 171.397 291.276 171.485 291.345 171.605C291.414 171.724 291.433 171.866 291.4 172L291.11 173C291.065 173.092 290.993 173.168 290.904 173.219C290.814 173.269 290.712 173.29 290.61 173.28ZM71.0996 167.67C70.9704 167.67 70.8462 167.62 70.7529 167.531C70.6597 167.441 70.6048 167.319 70.5996 167.19V166.19C70.6021 166.06 70.6542 165.935 70.7453 165.842C70.8364 165.749 70.9596 165.695 71.0896 165.69C71.2197 165.692 71.344 165.744 71.437 165.835C71.5299 165.927 71.5845 166.05 71.5896 166.18V167.18C71.5937 167.244 71.585 167.309 71.564 167.37C71.5431 167.431 71.5103 167.487 71.4676 167.535C71.4249 167.584 71.373 167.623 71.315 167.651C71.257 167.679 71.194 167.696 71.1296 167.7L71.0996 167.67ZM291.7 167.42C291.566 167.412 291.441 167.352 291.351 167.253C291.261 167.154 291.214 167.023 291.22 166.89V165.89C291.22 165.757 291.272 165.63 291.366 165.536C291.46 165.442 291.587 165.39 291.72 165.39C291.852 165.39 291.979 165.442 292.073 165.536C292.167 165.63 292.22 165.757 292.22 165.89V166.89C292.224 166.955 292.215 167.021 292.193 167.084C292.172 167.146 292.138 167.203 292.095 167.252C292.051 167.302 291.998 167.342 291.939 167.37C291.88 167.399 291.815 167.416 291.75 167.42H291.7ZM291.7 164.93C291.573 164.928 291.451 164.878 291.359 164.791C291.266 164.705 291.21 164.586 291.2 164.46C291.188 164.125 291.158 163.791 291.11 163.46C291.096 163.326 291.135 163.192 291.219 163.087C291.304 162.982 291.426 162.915 291.56 162.9C291.625 162.893 291.692 162.899 291.755 162.918C291.818 162.937 291.877 162.968 291.928 163.01C291.98 163.052 292.022 163.104 292.053 163.162C292.084 163.22 292.103 163.284 292.11 163.35C292.11 163.68 292.18 164.02 292.2 164.35C292.205 164.416 292.197 164.482 292.177 164.544C292.157 164.607 292.125 164.665 292.082 164.715C292.039 164.766 291.987 164.807 291.928 164.837C291.869 164.867 291.805 164.885 291.74 164.89L291.7 164.93ZM71.6096 161.72H71.4996C71.4359 161.708 71.3753 161.683 71.3213 161.647C71.2674 161.612 71.2213 161.565 71.1858 161.511C71.1503 161.457 71.1261 161.396 71.1147 161.332C71.1034 161.268 71.105 161.203 71.1196 161.14C71.1896 160.8 71.2696 160.47 71.3596 160.14C71.3759 160.077 71.4043 160.019 71.4433 159.967C71.4823 159.916 71.5311 159.873 71.5869 159.84C71.6426 159.808 71.7043 159.786 71.7682 159.778C71.8322 159.769 71.8972 159.773 71.9596 159.79C72.0865 159.825 72.1944 159.909 72.26 160.023C72.3255 160.137 72.3433 160.273 72.3096 160.4C72.2296 160.71 72.1496 161.03 72.0796 161.35C72.0531 161.455 71.9926 161.548 71.9076 161.615C71.8226 161.682 71.7178 161.719 71.6096 161.72ZM290.5 159.09C290.396 159.086 290.297 159.052 290.213 158.991C290.129 158.931 290.065 158.847 290.03 158.75C289.93 158.44 289.81 158.13 289.7 157.83C289.675 157.769 289.663 157.703 289.664 157.638C289.665 157.572 289.679 157.507 289.705 157.447C289.731 157.386 289.768 157.332 289.816 157.286C289.863 157.24 289.919 157.204 289.98 157.18C290.041 157.156 290.107 157.144 290.173 157.146C290.24 157.147 290.305 157.162 290.365 157.189C290.426 157.216 290.48 157.255 290.526 157.303C290.571 157.351 290.606 157.408 290.63 157.47C290.75 157.78 290.87 158.1 290.98 158.47C291.025 158.594 291.018 158.732 290.962 158.852C290.906 158.972 290.804 159.065 290.68 159.11C290.614 159.125 290.545 159.125 290.48 159.11L290.5 159.09ZM73.5896 156.09C73.5177 156.11 73.4416 156.11 73.3696 156.09C73.2534 156.034 73.164 155.934 73.1209 155.812C73.0779 155.69 73.0846 155.557 73.1396 155.44C73.2796 155.14 73.4396 154.84 73.5996 154.54C73.6292 154.481 73.6701 154.43 73.72 154.387C73.7699 154.345 73.8278 154.313 73.8903 154.293C73.9527 154.274 74.0185 154.267 74.0836 154.273C74.1488 154.279 74.212 154.299 74.2696 154.33C74.3846 154.395 74.4697 154.503 74.507 154.629C74.5444 154.756 74.5309 154.893 74.4696 155.01L74.0196 155.88C73.975 155.953 73.9116 156.013 73.836 156.053C73.7604 156.094 73.6753 156.113 73.5896 156.11V156.09ZM287.93 153.69C287.846 153.692 287.763 153.671 287.689 153.631C287.615 153.591 287.553 153.532 287.51 153.46C287.34 153.18 287.16 152.9 286.98 152.63C286.907 152.518 286.881 152.382 286.907 152.251C286.933 152.12 287.009 152.005 287.12 151.93C287.231 151.858 287.366 151.834 287.496 151.862C287.625 151.89 287.738 151.969 287.81 152.08C288 152.36 288.18 152.65 288.36 152.93C288.394 152.986 288.417 153.049 288.427 153.114C288.437 153.179 288.434 153.246 288.419 153.31C288.403 153.374 288.374 153.435 288.335 153.488C288.296 153.541 288.246 153.586 288.19 153.62C288.102 153.672 288.001 153.697 287.9 153.69H287.93ZM76.7496 151.02C76.64 151.018 76.5341 150.98 76.4496 150.91C76.3974 150.871 76.3534 150.823 76.32 150.767C76.2867 150.712 76.2648 150.65 76.2555 150.586C76.2462 150.522 76.2497 150.456 76.2659 150.393C76.282 150.331 76.3105 150.272 76.3496 150.22L76.9696 149.43C77.0161 149.383 77.0714 149.346 77.1323 149.32C77.1933 149.295 77.2586 149.282 77.3246 149.282C77.3906 149.282 77.456 149.295 77.5169 149.32C77.5778 149.346 77.6331 149.383 77.6796 149.43C77.7631 149.512 77.8156 149.621 77.8284 149.737C77.8411 149.854 77.8133 149.971 77.7496 150.07L77.1396 150.85C77.0895 150.915 77.0242 150.968 76.9493 151.003C76.8744 151.038 76.7921 151.054 76.7096 151.05L76.7496 151.02ZM284.36 148.89C284.288 148.889 284.217 148.874 284.152 148.844C284.086 148.815 284.028 148.773 283.98 148.72C283.77 148.48 283.55 148.23 283.32 147.99C283.275 147.941 283.24 147.884 283.218 147.822C283.195 147.76 283.185 147.695 283.188 147.629C283.19 147.563 283.206 147.498 283.234 147.438C283.262 147.378 283.301 147.324 283.35 147.28C283.398 147.235 283.455 147.201 283.517 147.178C283.579 147.155 283.645 147.145 283.711 147.148C283.777 147.151 283.841 147.166 283.901 147.194C283.961 147.222 284.015 147.261 284.06 147.31L284.73 148.06C284.776 148.106 284.814 148.162 284.839 148.223C284.864 148.283 284.878 148.349 284.878 148.415C284.878 148.481 284.864 148.546 284.839 148.607C284.814 148.668 284.776 148.723 284.73 148.77C284.675 148.816 284.611 148.85 284.542 148.871C284.473 148.891 284.401 148.898 284.33 148.89H284.36ZM80.7296 146.53C80.632 146.53 80.5364 146.503 80.4545 146.45C80.3726 146.397 80.308 146.321 80.2686 146.231C80.2293 146.142 80.2169 146.043 80.2331 145.947C80.2493 145.851 80.2933 145.761 80.3596 145.69C80.5896 145.45 80.8396 145.22 81.0796 144.99C81.1261 144.943 81.1814 144.906 81.2423 144.88C81.3033 144.855 81.3686 144.842 81.4346 144.842C81.5006 144.842 81.566 144.855 81.6269 144.88C81.6878 144.906 81.7431 144.943 81.7896 144.99C81.8806 145.082 81.9317 145.206 81.9317 145.335C81.9317 145.464 81.8806 145.588 81.7896 145.68L81.0796 146.37C81.0311 146.424 80.9707 146.467 80.9031 146.495C80.8355 146.523 80.7625 146.535 80.6896 146.53H80.7296ZM280.11 144.67C279.988 144.667 279.871 144.621 279.78 144.54L279.03 143.9C278.929 143.813 278.866 143.69 278.855 143.557C278.844 143.424 278.885 143.293 278.97 143.19C279.058 143.091 279.181 143.03 279.313 143.019C279.445 143.008 279.576 143.048 279.68 143.13L280.44 143.79C280.539 143.878 280.6 144.002 280.609 144.135C280.618 144.267 280.575 144.398 280.49 144.5C280.439 144.558 280.376 144.604 280.305 144.634C280.234 144.663 280.157 144.676 280.08 144.67H280.11ZM85.2096 142.59C85.0778 142.585 84.9532 142.529 84.8618 142.434C84.7705 142.338 84.7195 142.212 84.7196 142.08C84.7239 142.007 84.743 141.936 84.7757 141.87C84.8083 141.805 84.8539 141.747 84.9096 141.7L85.6996 141.08C85.8082 141.002 85.9424 140.969 86.0746 140.988C86.2068 141.006 86.3267 141.075 86.4096 141.18C86.4867 141.287 86.5193 141.419 86.5006 141.55C86.482 141.68 86.4135 141.799 86.3096 141.88L85.5196 142.49C85.4303 142.557 85.3212 142.592 85.2096 142.59ZM275.38 140.95C275.276 140.951 275.175 140.919 275.09 140.86L274.27 140.29C274.16 140.214 274.084 140.098 274.06 139.967C274.035 139.835 274.064 139.7 274.14 139.59C274.215 139.48 274.331 139.404 274.463 139.38C274.594 139.355 274.73 139.384 274.84 139.46L275.67 140.04C275.775 140.119 275.846 140.237 275.866 140.368C275.887 140.498 275.856 140.632 275.78 140.74C275.735 140.804 275.675 140.857 275.605 140.894C275.536 140.93 275.458 140.949 275.38 140.95ZM90.0996 139.12C89.9937 139.119 89.891 139.084 89.8062 139.02C89.7214 138.957 89.659 138.868 89.6279 138.767C89.5967 138.666 89.5985 138.557 89.633 138.457C89.6674 138.357 89.7328 138.27 89.8196 138.21L90.6696 137.67C90.7823 137.6 90.9184 137.577 91.0478 137.607C91.1772 137.637 91.2893 137.717 91.3596 137.83C91.4299 137.943 91.4525 138.079 91.4225 138.208C91.3925 138.337 91.3123 138.45 91.1996 138.52L90.3696 139.05C90.2854 139.102 90.1885 139.129 90.0896 139.13L90.0996 139.12ZM270.35 137.67C270.261 137.672 270.174 137.647 270.1 137.6L269.24 137.09C269.183 137.059 269.133 137.016 269.093 136.966C269.052 136.915 269.023 136.857 269.005 136.794C268.987 136.732 268.982 136.667 268.99 136.603C268.997 136.538 269.018 136.476 269.05 136.42C269.118 136.306 269.229 136.223 269.358 136.189C269.487 136.156 269.624 136.174 269.74 136.24L270.6 136.75C270.656 136.781 270.706 136.823 270.747 136.874C270.787 136.925 270.816 136.984 270.833 137.046C270.85 137.109 270.854 137.174 270.844 137.239C270.835 137.303 270.813 137.364 270.78 137.42C270.736 137.495 270.673 137.558 270.598 137.602C270.522 137.646 270.437 137.669 270.35 137.67ZM95.2596 136.05C95.1481 136.05 95.0396 136.014 94.9514 135.945C94.8631 135.877 94.8002 135.782 94.7726 135.674C94.745 135.565 94.7544 135.451 94.7991 135.349C94.8439 135.247 94.9215 135.163 95.0196 135.11L95.8996 134.63C96.0176 134.567 96.1556 134.555 96.2831 134.594C96.4106 134.633 96.5173 134.722 96.5796 134.84C96.6419 134.958 96.6548 135.096 96.6154 135.223C96.5761 135.351 96.4876 135.457 96.3696 135.52L95.4996 135.99C95.4259 136.03 95.3434 136.05 95.2596 136.05ZM265.11 134.8C265.03 134.803 264.951 134.786 264.88 134.75L263.99 134.3C263.873 134.244 263.784 134.144 263.741 134.022C263.698 133.9 263.705 133.767 263.76 133.65C263.788 133.591 263.829 133.538 263.878 133.494C263.927 133.451 263.985 133.417 264.047 133.396C264.109 133.374 264.175 133.365 264.241 133.37C264.306 133.374 264.371 133.391 264.43 133.42L265.33 133.88C265.388 133.911 265.439 133.954 265.48 134.005C265.521 134.056 265.552 134.115 265.571 134.178C265.59 134.241 265.595 134.308 265.588 134.373C265.581 134.439 265.561 134.502 265.53 134.56C265.489 134.639 265.427 134.705 265.351 134.751C265.275 134.796 265.188 134.82 265.1 134.82L265.11 134.8ZM100.61 133.32C100.516 133.32 100.424 133.294 100.344 133.244C100.265 133.195 100.201 133.124 100.16 133.04C100.104 132.92 100.096 132.783 100.139 132.658C100.182 132.533 100.272 132.43 100.39 132.37L101.3 131.95C101.416 131.911 101.542 131.917 101.655 131.965C101.767 132.014 101.858 132.102 101.91 132.213C101.962 132.324 101.971 132.45 101.936 132.568C101.901 132.685 101.824 132.785 101.72 132.85L100.82 133.28C100.753 133.307 100.682 133.321 100.61 133.32ZM259.7 132.18C259.634 132.2 259.565 132.2 259.5 132.18L258.61 131.8C258.493 131.745 258.402 131.647 258.355 131.526C258.309 131.405 258.312 131.271 258.362 131.152C258.413 131.033 258.507 130.938 258.626 130.888C258.745 130.837 258.879 130.834 259 130.88L259.92 131.28C260.05 131.309 260.164 131.387 260.237 131.499C260.31 131.611 260.336 131.747 260.31 131.878C260.284 132.009 260.207 132.124 260.097 132.199C259.986 132.275 259.851 132.303 259.72 132.28L259.7 132.18ZM106.1 130.9C106.001 130.898 105.905 130.868 105.824 130.813C105.742 130.758 105.678 130.68 105.64 130.59C105.592 130.468 105.594 130.332 105.645 130.211C105.695 130.09 105.79 129.993 105.91 129.94L106.84 129.56C106.901 129.535 106.966 129.523 107.032 129.524C107.097 129.525 107.162 129.539 107.223 129.565C107.283 129.591 107.338 129.629 107.384 129.676C107.429 129.723 107.465 129.779 107.49 129.84C107.516 129.9 107.529 129.965 107.53 130.031C107.53 130.096 107.517 130.161 107.492 130.222C107.467 130.283 107.43 130.338 107.383 130.384C107.336 130.43 107.281 130.466 107.22 130.49L106.29 130.86C106.224 130.875 106.155 130.875 106.09 130.86L106.1 130.9ZM254.16 129.9H253.98L253.05 129.54C252.917 129.508 252.802 129.425 252.731 129.309C252.66 129.192 252.638 129.052 252.67 128.92C252.701 128.787 252.785 128.673 252.901 128.601C253.017 128.53 253.157 128.508 253.29 128.54H253.4L254.34 128.9C254.461 128.949 254.558 129.043 254.61 129.163C254.662 129.282 254.666 129.418 254.62 129.54C254.579 129.628 254.512 129.701 254.427 129.749C254.343 129.798 254.246 129.819 254.15 129.81L254.16 129.9ZM111.69 128.8C111.588 128.795 111.49 128.761 111.407 128.702C111.324 128.644 111.259 128.563 111.22 128.47C111.175 128.345 111.181 128.208 111.237 128.088C111.293 127.968 111.395 127.875 111.52 127.83L112.52 127.49C112.644 127.445 112.782 127.451 112.902 127.507C113.022 127.564 113.114 127.665 113.16 127.79C113.201 127.914 113.192 128.05 113.134 128.168C113.076 128.286 112.974 128.377 112.85 128.42L111.91 128.76C111.841 128.793 111.765 128.807 111.69 128.8ZM248.5 127.8H248.34L247.4 127.48C247.267 127.439 247.156 127.347 247.091 127.224C247.027 127.101 247.014 126.957 247.055 126.825C247.096 126.692 247.188 126.581 247.311 126.517C247.434 126.452 247.577 126.439 247.71 126.48L248.66 126.8C248.783 126.839 248.886 126.925 248.948 127.038C249.009 127.152 249.024 127.285 248.99 127.41C248.965 127.521 248.902 127.62 248.813 127.691C248.724 127.762 248.614 127.8 248.5 127.8ZM117.38 126.8C117.314 126.81 117.247 126.806 117.182 126.79C117.118 126.774 117.057 126.745 117.004 126.704C116.951 126.664 116.907 126.614 116.873 126.557C116.84 126.499 116.818 126.436 116.81 126.37C116.798 126.305 116.8 126.238 116.815 126.173C116.831 126.109 116.859 126.048 116.898 125.995C116.937 125.942 116.987 125.897 117.044 125.864C117.101 125.83 117.164 125.808 117.23 125.8L118.23 125.5C118.356 125.462 118.491 125.476 118.607 125.538C118.723 125.599 118.81 125.704 118.85 125.83C118.87 125.89 118.879 125.953 118.875 126.016C118.87 126.079 118.854 126.14 118.826 126.197C118.798 126.254 118.76 126.304 118.712 126.346C118.665 126.388 118.609 126.42 118.55 126.44L117.55 126.74C117.507 126.767 117.459 126.784 117.41 126.79L117.38 126.8ZM242.78 126C242.734 126.01 242.686 126.01 242.64 126L241.64 125.72C241.514 125.677 241.409 125.588 241.347 125.47C241.285 125.352 241.27 125.215 241.306 125.087C241.342 124.959 241.426 124.85 241.54 124.781C241.654 124.713 241.79 124.691 241.92 124.72L242.92 125C242.983 125.017 243.043 125.047 243.095 125.088C243.147 125.129 243.19 125.179 243.222 125.237C243.254 125.295 243.273 125.359 243.28 125.425C243.286 125.49 243.279 125.557 243.26 125.62C243.243 125.735 243.185 125.839 243.096 125.915C243.008 125.99 242.896 126.031 242.78 126.03V126ZM123.14 125.11C123.074 125.12 123.008 125.116 122.944 125.1C122.88 125.083 122.82 125.054 122.768 125.014C122.716 124.974 122.672 124.923 122.64 124.866C122.607 124.809 122.587 124.745 122.58 124.68C122.57 124.614 122.573 124.547 122.589 124.483C122.606 124.418 122.635 124.358 122.675 124.305C122.715 124.251 122.765 124.207 122.823 124.173C122.88 124.14 122.944 124.118 123.01 124.11L124.01 123.85C124.136 123.832 124.265 123.861 124.371 123.932C124.477 124.003 124.553 124.11 124.586 124.234C124.618 124.357 124.603 124.488 124.545 124.602C124.487 124.716 124.389 124.804 124.27 124.85L123.27 125.11C123.227 125.12 123.182 125.12 123.14 125.11ZM237 124.41H236.87L235.87 124.16C235.741 124.129 235.63 124.049 235.561 123.936C235.492 123.824 235.47 123.688 235.5 123.56C235.533 123.431 235.615 123.32 235.729 123.25C235.843 123.181 235.98 123.159 236.11 123.19L237.11 123.44C237.175 123.448 237.239 123.468 237.296 123.501C237.354 123.533 237.405 123.577 237.446 123.629C237.486 123.681 237.517 123.74 237.535 123.804C237.552 123.868 237.557 123.934 237.55 124C237.542 124.065 237.521 124.129 237.489 124.187C237.456 124.244 237.413 124.295 237.361 124.336C237.309 124.377 237.249 124.407 237.186 124.425C237.122 124.443 237.055 124.448 236.99 124.44L237 124.41ZM129 123.62C128.867 123.634 128.734 123.596 128.63 123.512C128.526 123.429 128.459 123.307 128.445 123.175C128.43 123.042 128.469 122.909 128.552 122.805C128.636 122.701 128.757 122.634 128.89 122.62L129.89 122.39C130.022 122.357 130.163 122.378 130.28 122.448C130.397 122.518 130.481 122.632 130.515 122.765C130.548 122.897 130.527 123.038 130.457 123.155C130.386 123.272 130.272 123.357 130.14 123.39L129.14 123.62H129ZM231.21 123H231.1L230.1 122.79C230.035 122.776 229.974 122.749 229.92 122.711C229.866 122.673 229.82 122.625 229.785 122.569C229.749 122.513 229.725 122.451 229.714 122.386C229.703 122.321 229.705 122.254 229.72 122.19C229.731 122.126 229.756 122.065 229.792 122.012C229.828 121.958 229.874 121.911 229.928 121.876C229.983 121.84 230.044 121.816 230.107 121.805C230.171 121.794 230.236 121.795 230.3 121.81L231.3 122.03C231.365 122.036 231.429 122.055 231.488 122.086C231.546 122.117 231.598 122.16 231.639 122.211C231.681 122.262 231.712 122.321 231.731 122.384C231.75 122.448 231.757 122.514 231.75 122.58C231.735 122.714 231.667 122.836 231.562 122.92C231.457 123.004 231.323 123.044 231.19 123.03L231.21 123ZM134.86 122.32C134.746 122.32 134.635 122.282 134.546 122.211C134.457 122.14 134.395 122.041 134.37 121.93C134.345 121.799 134.372 121.664 134.445 121.552C134.518 121.44 134.63 121.361 134.76 121.33L135.76 121.13C135.891 121.106 136.026 121.135 136.136 121.21C136.246 121.284 136.323 121.399 136.35 121.53C136.363 121.594 136.363 121.66 136.351 121.725C136.338 121.789 136.313 121.851 136.277 121.906C136.241 121.96 136.194 122.008 136.14 122.044C136.085 122.081 136.024 122.107 135.96 122.12L134.96 122.31L134.86 122.32ZM225.34 121.79H225.24L224.24 121.61C224.109 121.583 223.994 121.507 223.919 121.396C223.845 121.286 223.816 121.151 223.84 121.02C223.864 120.89 223.939 120.775 224.047 120.7C224.156 120.625 224.29 120.596 224.42 120.62L225.42 120.81C225.549 120.834 225.664 120.909 225.739 121.017C225.814 121.126 225.843 121.26 225.82 121.39C225.794 121.51 225.726 121.617 225.629 121.692C225.532 121.767 225.412 121.805 225.29 121.8L225.34 121.79ZM140.76 121.2C140.627 121.212 140.495 121.171 140.393 121.085C140.291 121 140.227 120.877 140.215 120.745C140.203 120.612 140.244 120.48 140.329 120.378C140.415 120.276 140.537 120.212 140.67 120.2L141.67 120.03C141.735 120.019 141.802 120.021 141.867 120.035C141.932 120.05 141.994 120.078 142.048 120.116C142.102 120.155 142.149 120.204 142.184 120.26C142.219 120.316 142.243 120.379 142.255 120.445C142.266 120.51 142.264 120.578 142.249 120.643C142.234 120.708 142.207 120.769 142.168 120.823C142.13 120.878 142.081 120.924 142.024 120.959C141.968 120.995 141.905 121.019 141.84 121.03L140.84 121.2H140.76ZM219.43 120.75H219.35L218.35 120.59C218.219 120.568 218.103 120.496 218.025 120.39C217.946 120.283 217.912 120.151 217.93 120.02C217.954 119.889 218.028 119.774 218.137 119.697C218.245 119.621 218.379 119.589 218.51 119.61L219.51 119.76C219.64 119.784 219.756 119.858 219.832 119.967C219.909 120.075 219.94 120.209 219.92 120.34C219.915 120.406 219.897 120.47 219.867 120.528C219.837 120.587 219.795 120.639 219.745 120.682C219.695 120.725 219.637 120.757 219.574 120.777C219.511 120.798 219.445 120.805 219.38 120.8L219.43 120.75ZM146.68 120.25C146.614 120.255 146.549 120.248 146.487 120.227C146.424 120.207 146.367 120.174 146.318 120.132C146.268 120.089 146.228 120.036 146.199 119.978C146.17 119.919 146.153 119.855 146.15 119.79C146.144 119.724 146.152 119.658 146.172 119.595C146.192 119.532 146.225 119.474 146.267 119.424C146.31 119.374 146.362 119.333 146.421 119.303C146.48 119.273 146.544 119.255 146.61 119.25L147.61 119.11C147.741 119.092 147.873 119.126 147.979 119.205C148.086 119.283 148.157 119.4 148.18 119.53C148.197 119.662 148.161 119.796 148.081 119.903C148.001 120.009 147.882 120.08 147.75 120.1L146.75 120.24L146.68 120.25ZM213.49 119.87H213.42L212.42 119.74C212.288 119.722 212.169 119.654 212.089 119.549C212.008 119.444 211.973 119.311 211.99 119.18C212.005 119.051 212.07 118.934 212.171 118.854C212.272 118.773 212.401 118.736 212.53 118.75L213.53 118.88C213.658 118.895 213.775 118.96 213.856 119.061C213.936 119.162 213.974 119.291 213.96 119.42C213.955 119.486 213.937 119.55 213.907 119.608C213.877 119.667 213.835 119.719 213.785 119.762C213.735 119.805 213.677 119.837 213.614 119.857C213.551 119.878 213.485 119.885 213.42 119.88L213.49 119.87ZM207.49 119.16L206.49 119.05C206.359 119.035 206.239 118.968 206.156 118.865C206.074 118.762 206.036 118.631 206.05 118.5C206.069 118.371 206.137 118.254 206.239 118.173C206.341 118.091 206.469 118.051 206.6 118.06L207.6 118.16C207.732 118.16 207.859 118.212 207.953 118.306C208.047 118.4 208.1 118.527 208.1 118.66C208.1 118.792 208.047 118.92 207.953 119.013C207.859 119.107 207.732 119.16 207.6 119.16H207.49ZM201.49 118.6L200.49 118.52C200.424 118.515 200.36 118.497 200.301 118.467C200.242 118.437 200.19 118.396 200.147 118.346C200.105 118.295 200.072 118.237 200.052 118.174C200.032 118.112 200.024 118.046 200.03 117.98C200.045 117.849 200.109 117.729 200.209 117.643C200.309 117.558 200.438 117.514 200.57 117.52L201.57 117.6C201.634 117.604 201.697 117.62 201.755 117.648C201.813 117.677 201.865 117.716 201.908 117.764C201.95 117.813 201.983 117.869 202.004 117.93C202.025 117.991 202.034 118.055 202.03 118.12C202.028 118.185 202.014 118.25 201.988 118.31C201.961 118.371 201.923 118.425 201.876 118.47C201.829 118.516 201.773 118.552 201.712 118.576C201.651 118.6 201.585 118.611 201.52 118.61L201.49 118.6ZM195.49 118.19H194.49C194.357 118.182 194.233 118.122 194.145 118.022C194.057 117.923 194.012 117.792 194.02 117.66C194.028 117.527 194.088 117.403 194.187 117.315C194.287 117.227 194.417 117.182 194.55 117.19L195.55 117.25C195.682 117.25 195.809 117.302 195.903 117.396C195.997 117.49 196.05 117.617 196.05 117.75C196.05 117.882 195.997 118.01 195.903 118.103C195.809 118.197 195.682 118.25 195.55 118.25L195.49 118.19ZM189.49 117.92H188.49C188.424 117.918 188.359 117.904 188.299 117.878C188.239 117.852 188.184 117.814 188.139 117.766C188.093 117.719 188.058 117.663 188.034 117.602C188.01 117.541 187.998 117.475 188 117.41C188.001 117.343 188.015 117.278 188.042 117.217C188.069 117.156 188.108 117.101 188.157 117.056C188.205 117.01 188.262 116.974 188.324 116.951C188.387 116.928 188.453 116.917 188.52 116.92H189.52C189.652 116.92 189.779 116.972 189.873 117.066C189.967 117.16 190.02 117.287 190.02 117.42C190.02 117.552 189.967 117.68 189.873 117.773C189.779 117.867 189.652 117.92 189.52 117.92H189.49ZM183.49 117.8H182.49C182.357 117.8 182.23 117.747 182.136 117.653C182.042 117.56 181.99 117.432 181.99 117.3C181.995 117.169 182.049 117.044 182.142 116.952C182.234 116.859 182.359 116.805 182.49 116.8H183.49C183.555 116.801 183.62 116.815 183.68 116.842C183.74 116.868 183.795 116.906 183.84 116.953C183.886 117.001 183.922 117.057 183.945 117.118C183.969 117.179 183.981 117.244 183.98 117.31C183.98 117.435 183.932 117.555 183.847 117.646C183.761 117.737 183.644 117.792 183.52 117.8H183.49Z" fill="#34A8FA"/>
<path d="M68.1804 179.14C78.9665 179.14 87.7104 170.396 87.7104 159.61C87.7104 148.824 78.9665 140.08 68.1804 140.08C57.3943 140.08 48.6504 148.824 48.6504 159.61C48.6504 170.396 57.3943 179.14 68.1804 179.14Z" fill="white"/>
<path d="M65.9596 157.14H77.7796V161.72H65.9796V165.19H71.6096V167.8H65.9596V171.8H60.7796V167.8H58.3496V165.15H60.7396V147.39H78.0096V151.95H66.4696C66.0296 151.95 65.8896 152.04 65.8996 152.52V156.52L65.9596 157.14Z" fill="#34A8FA"/>
<path d="M120.62 134.76C131.406 134.76 140.15 126.016 140.15 115.23C140.15 104.444 131.406 95.7002 120.62 95.7002C109.834 95.7002 101.09 104.444 101.09 115.23C101.09 126.016 109.834 134.76 120.62 134.76Z" fill="white"/>
<path d="M133.399 108.26L128.789 110.53C127.079 107.82 124.709 106.46 121.459 106.94C120.237 107.103 119.072 107.561 118.066 108.273C117.059 108.985 116.24 109.931 115.679 111.03H125.019V113.9H114.769V116.39H125.029V119.32H115.609C116.14 120.431 116.937 121.394 117.93 122.121C118.923 122.849 120.08 123.319 121.299 123.49C122.76 123.787 124.278 123.598 125.622 122.952C126.965 122.305 128.06 121.237 128.739 119.91L133.449 122.19C132.879 122.96 132.399 123.71 131.819 124.39C130.737 125.673 129.386 126.701 127.862 127.403C126.338 128.105 124.677 128.462 122.999 128.45C120.318 128.542 117.664 127.88 115.339 126.54C112.786 125.095 110.851 122.765 109.899 119.99C109.719 119.49 109.499 119.23 108.899 119.31C108.497 119.34 108.092 119.34 107.689 119.31V116.41H109.019V113.92H107.689V111.04H109.209C109.337 111.067 109.469 111.044 109.579 110.975C109.69 110.906 109.769 110.796 109.799 110.67C110.451 108.629 111.652 106.805 113.269 105.4C114.816 104.028 116.667 103.044 118.669 102.53C120.673 101.989 122.767 101.87 124.819 102.18C126.295 102.377 127.715 102.871 128.994 103.632C130.273 104.394 131.384 105.407 132.259 106.61C132.609 107.07 132.919 107.61 133.259 108.05C133.314 108.114 133.361 108.185 133.399 108.26Z" fill="#34A8FA"/>
<path d="M244.71 137.48C255.496 137.48 264.24 128.736 264.24 117.95C264.24 107.164 255.496 98.4199 244.71 98.4199C233.924 98.4199 225.18 107.164 225.18 117.95C225.18 128.736 233.924 137.48 244.71 137.48Z" fill="white"/>
<path d="M237.519 130.91L235.699 127.25C236.159 126.98 236.629 126.74 237.069 126.45C238.306 125.753 239.255 124.64 239.749 123.31C239.992 122.387 239.885 121.408 239.449 120.56C239.449 120.46 239.179 120.39 239.029 120.39H234.869V117.27H237.319C236.919 116.54 236.499 115.86 236.179 115.13C235.727 114.124 235.545 113.018 235.65 111.92C235.755 110.822 236.144 109.771 236.779 108.87C237.448 107.851 238.32 106.982 239.34 106.316C240.361 105.65 241.508 105.202 242.709 105C245.306 104.423 248.022 104.737 250.419 105.89C251.911 106.651 253.121 107.871 253.869 109.37L249.609 111.8C249.271 111.29 248.9 110.802 248.499 110.34C247.973 109.813 247.312 109.441 246.589 109.265C245.866 109.089 245.109 109.114 244.399 109.34C243.467 109.532 242.65 110.087 242.126 110.882C241.603 111.677 241.417 112.647 241.609 113.58C241.67 113.882 241.771 114.174 241.909 114.45C242.318 115.354 242.799 116.223 243.349 117.05C243.414 117.119 243.493 117.174 243.581 117.21C243.669 117.247 243.764 117.263 243.859 117.26H248.959V120.37H244.659C244.77 121.296 244.628 122.236 244.248 123.088C243.868 123.94 243.263 124.674 242.499 125.21L243.239 125.12C244.622 124.991 246.012 125.269 247.239 125.92C247.976 126.276 248.797 126.42 249.611 126.337C250.425 126.254 251.199 125.947 251.849 125.45C252.04 125.299 252.217 125.131 252.379 124.95C253.099 126.38 253.799 127.79 254.519 129.24C253.86 129.932 253.028 130.437 252.109 130.7C250.111 131.35 247.958 131.35 245.959 130.7C245.378 130.502 244.807 130.275 244.249 130.02C243.467 129.673 242.619 129.502 241.764 129.517C240.909 129.533 240.068 129.735 239.299 130.11L237.519 130.91Z" fill="#34A8FA"/>
<path d="M280.2 205.75C290.986 205.75 299.73 197.007 299.73 186.22C299.73 175.434 290.986 166.69 280.2 166.69C269.414 166.69 260.67 175.434 260.67 186.22C260.67 197.007 269.414 205.75 280.2 205.75Z" fill="white"/>
<path d="M280.23 183.94L281.52 181.84C282.9 179.58 284.29 177.32 285.66 175.05C285.725 174.912 285.831 174.798 285.963 174.723C286.096 174.648 286.248 174.615 286.4 174.63H291.61C289.23 178.3 286.91 181.9 284.53 185.56H290.61V188.34H282.7V191.09H290.61V193.8H282.71V197.8H277.79V193.8H269.9V191.08H277.74V188.33H269.89V185.56H275.96L268.84 174.56H274.07C274.185 174.546 274.303 174.567 274.406 174.62C274.51 174.674 274.594 174.757 274.65 174.86C275.79 176.733 276.937 178.6 278.09 180.46L280.23 183.94Z" fill="#34A8FA"/>
<path d="M120.149 225.9C130.935 225.9 139.679 217.156 139.679 206.37C139.679 195.584 130.935 186.84 120.149 186.84C109.363 186.84 100.619 195.584 100.619 206.37C100.619 217.156 109.363 225.9 120.149 225.9Z" fill="white"/>
<path d="M118.521 193.8V190.5H122.371V193.89C125.139 194.224 127.734 195.417 129.791 197.3L126.671 201.42C125.47 200.289 124.006 199.478 122.411 199.06V203.6C123.411 203.94 124.411 204.22 125.341 204.6C127.006 205.048 128.434 206.122 129.326 207.598C130.219 209.074 130.507 210.837 130.131 212.52C129.984 213.547 129.611 214.528 129.038 215.392C128.466 216.257 127.708 216.984 126.821 217.52C125.6 218.257 124.236 218.724 122.821 218.89C122.441 218.89 122.371 219.08 122.381 219.42V222.21H118.521V219.08C117.521 218.87 116.571 218.7 115.641 218.45C113.722 217.96 111.96 216.99 110.521 215.63C109.911 215.07 109.921 215.05 110.401 214.37C111.231 213.18 112.071 212 112.951 210.76C114.42 212.381 116.361 213.5 118.501 213.96V208.8C117.401 208.43 116.331 208.13 115.301 207.71C114.381 207.413 113.537 206.92 112.826 206.266C112.115 205.612 111.553 204.811 111.181 203.92C110.836 203.042 110.676 202.102 110.71 201.159C110.745 200.216 110.973 199.291 111.381 198.44C111.936 197.337 112.736 196.376 113.721 195.63C114.706 194.885 115.848 194.375 117.061 194.14C117.521 194 117.981 193.93 118.521 193.8ZM122.401 213.89C122.976 213.83 123.512 213.568 123.913 213.15C124.313 212.733 124.554 212.187 124.591 211.61C124.591 210.75 123.591 210.04 122.401 209.8V213.89ZM118.471 202.57V198.8C117.939 198.812 117.432 199.025 117.052 199.396C116.671 199.767 116.446 200.269 116.421 200.8C116.421 201.61 117.301 202.36 118.471 202.56V202.57Z" fill="#34A8FA"/>
</g>
<defs>
<linearGradient id="paint0_linear_1_6682" x1="161.78" y1="66.2303" x2="213.87" y2="58.3403" gradientUnits="userSpaceOnUse">
<stop offset="0.01"/>
<stop offset="0.13" stop-opacity="0.69"/>
<stop offset="0.25" stop-opacity="0.32"/>
<stop offset="1" stop-opacity="0"/>
</linearGradient>
<linearGradient id="paint1_linear_1_6682" x1="227.07" y1="169.24" x2="167.31" y2="224.48" gradientUnits="userSpaceOnUse">
<stop offset="0.01"/>
<stop offset="0.13" stop-opacity="0.69"/>
<stop offset="0.25" stop-opacity="0.32"/>
<stop offset="1" stop-opacity="0"/>
</linearGradient>
<linearGradient id="paint2_linear_1_6682" x1="201.789" y1="174.71" x2="192.319" y2="189.73" gradientUnits="userSpaceOnUse">
<stop offset="0.01"/>
<stop offset="0.13" stop-opacity="0.69"/>
<stop offset="0.25" stop-opacity="0.32"/>
<stop offset="1" stop-opacity="0"/>
</linearGradient>
<linearGradient id="paint3_linear_1_6682" x1="221.68" y1="203.81" x2="209.44" y2="176.28" gradientUnits="userSpaceOnUse">
<stop offset="0.01"/>
<stop offset="0.13" stop-opacity="0.69"/>
<stop offset="0.25" stop-opacity="0.32"/>
<stop offset="1" stop-opacity="0"/>
</linearGradient>
<linearGradient id="paint4_linear_1_6682" x1="133.661" y1="148.02" x2="207.861" y2="151.02" gradientUnits="userSpaceOnUse">
<stop/>
<stop offset="1" stop-opacity="0"/>
</linearGradient>
<linearGradient id="paint5_linear_1_6682" x1="225.63" y1="121.63" x2="148.48" y2="110.65" gradientUnits="userSpaceOnUse">
<stop/>
<stop offset="1" stop-opacity="0"/>
</linearGradient>
<linearGradient id="paint6_linear_1_6682" x1="175.64" y1="74.4903" x2="162.4" y2="103.39" gradientUnits="userSpaceOnUse">
<stop offset="0.01"/>
<stop offset="0.13" stop-opacity="0.69"/>
<stop offset="0.25" stop-opacity="0.32"/>
<stop offset="1" stop-opacity="0"/>
</linearGradient>
<linearGradient id="paint7_linear_1_6682" x1="190.43" y1="141.38" x2="181.88" y2="122.25" gradientUnits="userSpaceOnUse">
<stop/>
<stop offset="1" stop-opacity="0"/>
</linearGradient>
<clipPath id="clip0_1_6682">
<rect width="373.89" height="267.08" fill="white" transform="translate(-3)"/>
</clipPath>
</defs>
</svg>
