<svg width="27" height="20" viewBox="0 0 27 20" fill="none" xmlns="http://www.w3.org/2000/svg">
<path fill-rule="evenodd" clip-rule="evenodd" d="M7.13171 2.64594C7.02695 2.7421 6.91444 2.84748 6.7642 2.98967C6.7642 2.98967 4.28903 5.3199 4.28076 5.32662C4.20397 5.39515 4.14006 5.45376 4.07382 5.51571C4.04338 5.54434 4.0163 5.56953 3.95856 5.62296C3.90892 5.6689 3.88593 5.69024 3.85732 5.71702L1.61936 7.82488C1.57133 7.87176 1.53012 7.91123 1.47712 7.96131L1.41678 8.01837C1.34846 8.08278 1.2944 8.13519 1.21799 8.21016C1.04273 8.37286 0.865022 8.55685 0.697682 8.74981C0.542197 8.90579 0.41667 9.08609 0.326798 9.28268L0.303052 9.34216C0.14117 9.81365 0.14117 10.3211 0.303052 10.7926L0.327843 10.8544C0.418397 11.0505 0.54459 11.2301 0.700665 11.3853C0.867298 11.5779 1.04488 11.7619 1.23264 11.9366C1.27214 11.9766 1.33034 12.0326 1.40808 12.1057C1.46177 12.1562 1.48488 12.178 1.51366 12.2053C1.55084 12.2406 1.58298 12.2714 1.61281 12.3005L3.85667 14.4154C3.96785 14.52 4.01761 14.5665 4.10665 14.6483C4.17984 14.7163 4.22316 14.7559 4.30336 14.8256L6.76641 17.1462C6.95102 17.3199 7.03384 17.3974 7.13823 17.4939C7.27393 17.6216 7.36337 17.7041 7.50309 17.8326C7.55573 17.8848 7.57546 17.904 7.60244 17.9277C7.91777 18.2258 8.30238 18.4893 8.72353 18.6915C9.1451 18.8912 9.59207 19.03 10.0534 19.1049C10.4856 19.1719 10.9168 19.2077 11.3492 19.2128C11.5325 19.2166 11.7165 19.2189 11.8982 19.2196L12.331 19.2196H20.3827C20.5499 19.2196 20.7155 19.2174 20.9452 19.2127C21.375 19.2077 21.8106 19.1718 22.2415 19.1052C22.712 19.0287 23.1621 18.8887 23.5829 18.6886C24.0094 18.4857 24.3985 18.2203 24.736 17.9023C25.072 17.5849 25.353 17.221 25.5694 16.8229C25.7837 16.4216 25.932 15.9974 26.0118 15.5596C26.0832 15.1492 26.1211 14.7397 26.1263 14.3293C26.1296 14.2284 26.1311 14.1397 26.1336 13.942L26.1353 13.8154L26.1354 13.1917V6.28625L26.1341 6.17702C26.1327 6.05518 26.132 6.00198 26.1308 5.9337C26.1296 5.86968 26.1282 5.81095 26.1264 5.75436C26.1216 5.35973 26.084 4.95384 26.0142 4.55231C25.9339 4.11277 25.7869 3.69213 25.5769 3.29853C25.3594 2.89861 25.0803 2.53734 24.7472 2.22298C24.4138 1.90718 24.0276 1.64294 23.6043 1.4413C23.1866 1.24252 22.74 1.10334 22.2791 1.0282C21.8449 0.961755 21.4135 0.92631 20.9811 0.920983C20.7854 0.916523 20.6047 0.914143 20.431 0.914143C20.2557 0.912451 20.1107 0.912109 19.7852 0.912109H12.5447C12.2216 0.912109 12.0756 0.912453 11.8924 0.914177C11.7263 0.914143 11.5462 0.916507 11.3397 0.921115C10.9156 0.926355 10.4849 0.961807 10.0588 1.02705C9.59018 1.10346 9.14326 1.2425 8.72522 1.44079C8.30092 1.64416 7.91611 1.90794 7.58245 2.22358C7.56699 2.23789 7.55567 2.24909 7.46121 2.34396C7.34402 2.4485 7.23625 2.54725 7.13171 2.64594ZM4.3295 5.28817L4.33218 5.2862C4.32894 5.28849 4.32668 5.29009 4.32389 5.29227L4.3295 5.28817ZM7.78589 16.1874L5.29648 13.842C5.29648 13.842 5.24683 13.7995 5.24166 13.7954C5.20325 13.7609 5.17021 13.7305 5.08768 13.6537C5.0281 13.5993 4.98175 13.5561 4.87623 13.4568L2.64136 11.3505C2.61515 11.3248 2.57864 11.2897 2.53723 11.2504C2.50647 11.2212 2.48162 11.1978 2.42718 11.1466C2.35875 11.0822 2.30961 11.035 2.2638 10.9893C2.0888 10.8259 1.94066 10.6717 1.80207 10.51L1.75458 10.4599C1.71791 10.4249 1.6872 10.3848 1.66348 10.3411C1.60937 10.1617 1.60951 9.9716 1.6639 9.79223C1.68765 9.74776 1.71852 9.70693 1.75549 9.67118L1.79916 9.6249C1.93851 9.46289 2.08728 9.30827 2.24481 9.16174C2.3292 9.07928 2.37798 9.03198 2.41488 8.9968L2.46399 8.95076L2.49849 8.91823C2.55713 8.86282 2.60403 8.8179 2.64904 8.77378L4.87543 6.67701C4.89987 6.65414 4.92057 6.63492 4.97908 6.58078C5.02966 6.53396 5.05894 6.50673 5.0914 6.4762C5.14162 6.42924 5.19101 6.38382 5.23952 6.34007C5.25017 6.33169 5.26258 6.32086 5.29792 6.29004L7.78514 3.947C7.93196 3.80805 8.03993 3.70692 8.14563 3.60981C8.24726 3.51395 8.34536 3.42407 8.44909 3.3315C8.47209 3.31131 8.48583 3.29779 8.54933 3.23441L8.59952 3.18452C8.83038 2.96618 9.09106 2.78749 9.37666 2.65059C9.66505 2.5138 9.97625 2.41699 10.2975 2.36459C10.6459 2.31127 11.0055 2.28167 11.366 2.27719C11.5695 2.27268 11.7385 2.27046 11.8993 2.27046C12.0833 2.26877 12.226 2.26843 12.5444 2.26843H19.7849C20.1056 2.26843 20.2474 2.26876 20.4235 2.27043C20.5918 2.27046 20.7612 2.2727 20.9541 2.27705C21.3231 2.28164 21.6835 2.31125 22.04 2.36578C22.3529 2.4168 22.663 2.51349 22.953 2.65149C23.2385 2.78748 23.4992 2.96583 23.7249 3.17964C23.9534 3.39523 24.1439 3.64188 24.2907 3.91168C24.4344 4.18116 24.5368 4.4742 24.5921 4.77658C24.6492 5.10557 24.6805 5.44368 24.6848 5.78258C24.6867 5.84523 24.688 5.89837 24.689 5.95701C24.6902 6.02139 24.6909 6.07268 24.6922 6.19159L24.6935 6.29438L24.6934 6.89422V13.8005L24.6917 13.9259C24.6894 14.1156 24.6879 14.199 24.6847 14.3011C24.6801 14.6557 24.6484 14.9974 24.5897 15.3355C24.5348 15.636 24.4312 15.9324 24.2832 16.2096C24.1372 16.478 23.9447 16.7274 23.7149 16.9445C23.4862 17.16 23.2218 17.3404 22.9322 17.4781C22.6391 17.6174 22.3254 17.7151 22.0016 17.7677C21.648 17.8223 21.2846 17.8523 20.9203 17.8565C20.6934 17.8611 20.5371 17.8633 20.3824 17.8633H11.9007C11.7308 17.8626 11.5555 17.8604 11.3738 17.8566C11.0071 17.8523 10.648 17.8225 10.2928 17.7675C9.97731 17.7162 9.66615 17.6196 9.37508 17.4817C9.09244 17.346 8.83118 17.167 8.60437 16.9531C8.59079 16.9405 8.57197 16.9222 8.54814 16.8986L8.54504 16.8955L8.54499 16.8954L8.54493 16.8954C8.48845 16.8394 8.47564 16.8266 8.46225 16.8146L8.44601 16.8002C8.3636 16.7275 8.28307 16.6531 8.15279 16.5306C8.04792 16.4336 7.96711 16.3579 7.78589 16.1874ZM12.9559 13.6549C12.8974 13.7094 12.8273 13.7539 12.7483 13.7847C12.5067 13.8789 12.2286 13.8268 12.0436 13.6528C11.922 13.5387 11.8536 13.3837 11.8536 13.222C11.8536 13.0603 11.922 12.9053 12.0436 12.7912V12.7926C12.0785 12.7598 12.1166 12.7314 12.1571 12.7074L14.963 10.0644L12.0434 7.32072L12.0529 7.31179C11.9949 7.25674 11.9475 7.19076 11.9148 7.1163C11.8147 6.88898 11.87 6.62733 12.0549 6.45336C12.1763 6.33845 12.3414 6.27384 12.5136 6.27384C12.6857 6.27384 12.8508 6.33845 12.9722 6.45336H12.9693C13.0009 6.48307 13.0287 6.51533 13.0526 6.54955L15.8761 9.20426L18.7081 6.5366C18.7301 6.50673 18.7552 6.4783 18.7834 6.45171C18.9683 6.27772 19.2465 6.22567 19.4881 6.31982C19.7297 6.41397 19.8872 6.63579 19.8872 6.88184C19.8872 7.04546 19.8176 7.19837 19.6998 7.31014L19.7072 7.31708L16.7908 10.0642L19.6132 12.7179C19.6478 12.7397 19.6804 12.7648 19.7103 12.793L19.7088 12.7943C19.8938 12.9683 19.9491 13.2299 19.849 13.4573C19.749 13.6846 19.5132 13.8328 19.2517 13.8328C19.0777 13.8328 18.9152 13.7672 18.7963 13.6564L18.7908 13.6616L15.8779 10.9242L12.9674 13.6658L12.9559 13.6549Z" fill="#FF5555"/>
</svg>
