<svg width="140" height="169" viewBox="0 0 140 169" fill="none" xmlns="http://www.w3.org/2000/svg">
<path fill-rule="evenodd" clip-rule="evenodd" d="M20.5148 1.38984L20 1.90488V19.1367V36.3686L20.5148 36.8836L21.0299 37.3984H28.2031H35.3764L35.8914 36.8836C36.3781 36.3969 36.4062 36.2633 36.4062 34.4422V32.5156H37.3828H38.3594V46.8445V61.1732L38.8742 61.6883L39.3893 62.2031H73.9062H108.423L108.938 61.6883L109.453 61.1732V42.2812V23.3893L108.938 22.8742C108.487 22.4229 108.266 22.3594 107.146 22.3594H105.869L91.6725 14.7424C83.8645 10.5529 76.8268 6.85625 76.033 6.52773C75.2393 6.19902 73.7549 5.69707 72.7344 5.4123L70.8789 4.89434L53.6426 4.83086L36.4062 4.76719V3.33594C36.4062 2.05 36.3539 1.85254 35.8914 1.38984L35.3764 0.875H28.2031H21.0299L20.5148 1.38984ZM104.109 64.8664C103.61 65.365 103.594 65.4555 103.594 67.6984C103.594 69.0051 103.514 70.0156 103.411 70.0156C103.311 70.0156 101.078 69.2779 98.4502 68.3764C91.4715 65.9822 90.7779 65.8354 86.4062 65.825C82.5535 65.8158 81.299 66.0004 78.2445 67.026C76.1492 67.7295 62.2111 74.125 61.3637 74.7717C59.6998 76.0416 58.7529 78.3152 58.9182 80.6447C58.9721 81.4051 59.0783 82.1773 59.1545 82.3605C59.2746 82.6494 59.2164 82.6719 58.7174 82.5287C58.4008 82.4379 54.3191 80.3756 49.6475 77.9457C44.9756 75.5158 40.7385 73.3865 40.2316 73.2139C39.5539 72.9828 38.8359 72.9223 37.5164 72.9848C35.9918 73.0568 35.5443 73.1609 34.5336 73.6779C30.7658 75.6053 29.3432 80.1871 31.3131 84.0486C32.1881 85.7639 32.975 86.2939 44.0539 92.632C49.925 95.9908 55.267 98.9576 55.9248 99.225C57.6648 99.932 59.6137 100.289 61.7324 100.289C63.5568 100.289 65.7104 99.9529 99.1504 94.4486L103.594 93.7172V96.7812C103.594 99.8313 103.596 99.8475 104.109 100.36L104.624 100.875H111.797H118.97L119.485 100.36L120 99.8451V82.6133V65.3814L119.485 64.8664L118.97 64.3516H111.797H104.624L104.109 64.8664Z" fill="#4DBAF6"/>
<path fill-rule="evenodd" clip-rule="evenodd" d="M20.5148 1.38984L20 1.90488V19.1367V36.3686L20.5148 36.8836L21.0299 37.3984H28.2031H35.3764L35.8914 36.8836C36.3781 36.3969 36.4062 36.2633 36.4062 34.4422V32.5156H37.3828H38.3594V46.8445V61.1732L38.8742 61.6883L39.3893 62.2031H73.9062H108.423L108.938 61.6883L109.453 61.1732V42.2812V23.3893L108.938 22.8742C108.487 22.4229 108.266 22.3594 107.146 22.3594H105.869L91.6725 14.7424C83.8645 10.5529 76.8268 6.85625 76.033 6.52773C75.2393 6.19902 73.7549 5.69707 72.7344 5.4123L70.8789 4.89434L53.6426 4.83086L36.4062 4.76719V3.33594C36.4062 2.05 36.3539 1.85254 35.8914 1.38984L35.3764 0.875H28.2031H21.0299L20.5148 1.38984ZM104.109 64.8664C103.61 65.365 103.594 65.4555 103.594 67.6984C103.594 69.0051 103.514 70.0156 103.411 70.0156C103.311 70.0156 101.078 69.2779 98.4502 68.3764C91.4715 65.9822 90.7779 65.8354 86.4062 65.825C82.5535 65.8158 81.299 66.0004 78.2445 67.026C76.1492 67.7295 62.2111 74.125 61.3637 74.7717C59.6998 76.0416 58.7529 78.3152 58.9182 80.6447C58.9721 81.4051 59.0783 82.1773 59.1545 82.3605C59.2746 82.6494 59.2164 82.6719 58.7174 82.5287C58.4008 82.4379 54.3191 80.3756 49.6475 77.9457C44.9756 75.5158 40.7385 73.3865 40.2316 73.2139C39.5539 72.9828 38.8359 72.9223 37.5164 72.9848C35.9918 73.0568 35.5443 73.1609 34.5336 73.6779C30.7658 75.6053 29.3432 80.1871 31.3131 84.0486C32.1881 85.7639 32.975 86.2939 44.0539 92.632C49.925 95.9908 55.267 98.9576 55.9248 99.225C57.6648 99.932 59.6137 100.289 61.7324 100.289C63.5568 100.289 65.7104 99.9529 99.1504 94.4486L103.594 93.7172V96.7812C103.594 99.8313 103.596 99.8475 104.109 100.36L104.624 100.875H111.797H118.97L119.485 100.36L120 99.8451V82.6133V65.3814L119.485 64.8664L118.97 64.3516H111.797H104.624L104.109 64.8664ZM116.094 82.6133V96.9688H111.797H107.5V82.6133V68.2578H111.797H116.094V82.6133ZM110.918 71.4143C109.727 72.0691 109.484 73.5131 110.394 74.5314C111.58 75.8594 113.756 74.9861 113.746 73.1863C113.737 71.717 112.162 70.7301 110.918 71.4143Z" fill="#34A8FA"/>
<path fill-rule="evenodd" clip-rule="evenodd" d="M20.5148 1.38984L20 1.90488V19.1367V36.3686L20.5148 36.8836L21.0299 37.3984H28.2031H35.3764L35.8914 36.8836C36.3781 36.3969 36.4062 36.2633 36.4062 34.4422V32.5156H37.3828H38.3594V46.8445V61.1732L38.8742 61.6883L39.3893 62.2031H73.9062H108.423L108.938 61.6883L109.453 61.1732V42.2812V23.3893L108.938 22.8742C108.487 22.4229 108.266 22.3594 107.146 22.3594H105.869L91.6725 14.7424C83.8645 10.5529 76.8268 6.85625 76.033 6.52773C75.2393 6.19902 73.7549 5.69707 72.7344 5.4123L70.8789 4.89434L53.6426 4.83086L36.4062 4.76719V3.33594C36.4062 2.05 36.3539 1.85254 35.8914 1.38984L35.3764 0.875H28.2031H21.0299L20.5148 1.38984ZM105.547 28.4141C105.547 29.7711 105.472 30.5625 105.344 30.5625C104.896 30.5625 103.534 29.7217 102.812 29C102.091 28.2783 101.25 26.9162 101.25 26.4687C101.25 26.3404 102.041 26.2656 103.398 26.2656H105.547V28.4141ZM78.993 34.0836C84.3141 37.4982 85.0209 45.0068 80.426 49.3053C75.0438 54.34 66.5721 51.9682 64.4555 44.8336C64.0664 43.5229 64.0227 40.5564 64.39 40.4154C64.5271 40.3629 66.0434 40.9088 67.7592 41.6289C70.691 42.859 70.9953 42.9453 72.8102 43.0607C74.6014 43.1746 74.775 43.2225 75.2027 43.7199C75.7674 44.3762 75.7771 44.6238 75.265 45.275C74.5236 46.2174 73.4096 46.1561 71.9531 45.0924C70.1709 43.791 68.0188 45.9121 69.2568 47.75C69.51 48.126 70.2203 48.7316 70.8352 49.0957C71.5254 49.5045 71.9531 49.8902 71.9531 50.1037C71.9531 50.6512 73.0602 51.4609 73.8086 51.4609C74.5607 51.4609 75.5604 50.726 75.7334 50.0455C75.8008 49.7805 76.2035 49.4168 76.7459 49.1311C79.6898 47.5805 80.4705 43.675 78.3313 41.2002L77.7021 40.4725L78.1969 39.473C78.8687 38.115 78.9031 35.5834 78.2668 34.3223C78.0365 33.8656 77.8982 33.4922 77.9596 33.4922C78.0211 33.4922 78.4861 33.7584 78.993 34.0836ZM43.4533 54.3986C44.7832 55.0771 46.5625 57.1918 46.5625 58.0938C46.5625 58.2221 45.7711 58.2969 44.4141 58.2969H42.2656V56.1484C42.2656 54.7914 42.3404 54 42.4688 54C42.5805 54 43.0234 54.1795 43.4533 54.3986ZM105.547 56.1484V58.2969H103.398C102.041 58.2969 101.25 58.2221 101.25 58.0938C101.25 57.2119 103.008 55.0994 104.317 54.4088C105.543 53.7619 105.547 53.768 105.547 56.1484ZM104.109 64.8664C103.61 65.365 103.594 65.4555 103.594 67.6984C103.594 69.0051 103.514 70.0156 103.411 70.0156C103.311 70.0156 101.078 69.2779 98.4502 68.3764C91.4715 65.9822 90.7779 65.8354 86.4062 65.825C82.5535 65.8158 81.299 66.0004 78.2445 67.026C76.1492 67.7295 62.2111 74.125 61.3637 74.7717C59.6998 76.0416 58.7529 78.3152 58.9182 80.6447C58.9721 81.4051 59.0783 82.1773 59.1545 82.3605C59.2746 82.6494 59.2164 82.6719 58.7174 82.5287C58.4008 82.4379 54.3191 80.3756 49.6475 77.9457C44.9756 75.5158 40.7385 73.3865 40.2316 73.2139C39.5539 72.9828 38.8359 72.9223 37.5164 72.9848C35.9918 73.0568 35.5443 73.1609 34.5336 73.6779C30.7658 75.6053 29.3432 80.1871 31.3131 84.0486C32.1881 85.7639 32.975 86.2939 44.0539 92.632C49.925 95.9908 55.267 98.9576 55.9248 99.225C57.6648 99.932 59.6137 100.289 61.7324 100.289C63.5568 100.289 65.7104 99.9529 99.1504 94.4486L103.594 93.7172V96.7812C103.594 99.8313 103.596 99.8475 104.109 100.36L104.624 100.875H111.797H118.97L119.485 100.36L120 99.8451V82.6133V65.3814L119.485 64.8664L118.97 64.3516H111.797H104.624L104.109 64.8664ZM116.094 82.6133V96.9688H111.797H107.5V82.6133V68.2578H111.797H116.094V82.6133ZM111.091 71.3715C109.816 71.9098 109.46 73.568 110.415 74.5229C112.187 76.2951 114.899 73.8221 113.213 71.9713C112.636 71.3387 111.758 71.0902 111.091 71.3715Z" fill="#34A8FA"/>
<path fill-rule="evenodd" clip-rule="evenodd" d="M20.5148 1.38984L20 1.90488V19.1367V36.3686L20.5148 36.8836L21.0299 37.3984H28.2031H35.3764L35.8914 36.8836C36.3781 36.3969 36.4062 36.2633 36.4062 34.4422V32.5156H37.3828H38.3594V46.8445V61.1732L38.8742 61.6883L39.3893 62.2031H73.9062H108.423L108.938 61.6883L109.453 61.1732V42.2812V23.3893L108.938 22.8742C108.487 22.4229 108.266 22.3594 107.146 22.3594H105.869L91.6725 14.7424C83.8645 10.5529 76.8268 6.85625 76.033 6.52773C75.2393 6.19902 73.7549 5.69707 72.7344 5.4123L70.8789 4.89434L53.6426 4.83086L36.4062 4.76719V3.33594C36.4062 2.05 36.3539 1.85254 35.8914 1.38984L35.3764 0.875H28.2031H21.0299L20.5148 1.38984ZM65.3125 23.4098C65.3125 23.4502 65.1588 23.6041 64.9707 23.7516C64.6609 23.9943 64.6541 23.9875 64.8969 23.6777C65.1521 23.3523 65.3125 23.249 65.3125 23.4098ZM105.547 28.5117C105.547 29.7471 105.499 30.7578 105.441 30.7578C105.121 30.7578 103.664 29.8625 102.98 29.2449C102.284 28.6158 101.062 26.8158 101.056 26.4121C101.055 26.3316 102.065 26.2656 103.301 26.2656H105.547V28.5117ZM73.0721 28.7273C73.0072 28.7922 72.8387 28.7992 72.6978 28.7428C72.542 28.6805 72.5883 28.6342 72.8158 28.6248C73.0217 28.6164 73.1369 28.6625 73.0721 28.7273ZM75.0252 28.7273C74.9604 28.7922 74.7918 28.7992 74.651 28.7428C74.4951 28.6805 74.5414 28.6342 74.7689 28.6248C74.9748 28.6164 75.09 28.6625 75.0252 28.7273ZM83.4766 32.6133C83.841 32.9893 84.0951 33.2969 84.0414 33.2969C83.9877 33.2969 83.6457 32.9893 83.2812 32.6133C82.9168 32.2373 82.6627 31.9297 82.7164 31.9297C82.7701 31.9297 83.1121 32.2373 83.4766 32.6133ZM79.293 34.1947C82.3668 36.235 84.0959 40.1885 83.4873 43.785C82.8416 47.6002 79.9672 50.8029 76.3408 51.7475C74.8723 52.1301 72.7449 52.1301 71.2764 51.7475C67.6629 50.8063 64.7746 47.602 64.1381 43.8283C63.9184 42.5264 64.0273 40.1326 64.3063 40.133C64.3764 40.133 65.9277 40.7594 67.7539 41.5248C71.0875 42.9223 71.5561 43.0344 74.1592 43.0576C74.8512 43.0639 75.6641 43.858 75.6641 44.5277C75.6641 44.8246 75.4502 45.2326 75.1473 45.5133C74.4 46.2059 73.2656 46.1615 72.2602 45.4008C70.7645 44.2691 69.0234 44.9164 69.0234 46.6041C69.0234 47.5123 69.957 48.6664 71.1162 49.1908C71.6418 49.4287 71.9473 49.742 72.1729 50.2746C72.6127 51.3133 73.5826 51.6514 74.6398 51.1348C75.1516 50.8846 75.4262 50.5906 75.5543 50.1557C75.6867 49.7061 75.9447 49.4406 76.4863 49.1965C77.3955 48.7863 78.7096 47.4016 79.1207 46.4199C79.5045 45.5035 79.5094 43.5629 79.1303 42.6576C78.9695 42.2738 78.5498 41.6318 78.1977 41.2307L77.5576 40.5016L77.958 39.7801C78.8973 38.0877 78.9119 35.8502 77.9953 34.0537C77.5016 33.0855 77.6457 33.1014 79.293 34.1947ZM84.2578 51.1441C84.2578 51.1846 84.1039 51.3385 83.916 51.4859C83.6063 51.7287 83.5994 51.7219 83.8422 51.4121C84.0975 51.0867 84.2578 50.9834 84.2578 51.1441ZM83.2812 52.1143C83.2812 52.1514 83.0836 52.349 82.8418 52.5537L82.4023 52.9258L82.7744 52.4863C83.124 52.0734 83.2812 51.958 83.2812 52.1143ZM64.9469 52.584C65.1897 52.8937 65.1828 52.9006 64.873 52.6578C64.5477 52.4025 64.4443 52.2422 64.6051 52.2422C64.6455 52.2422 64.7994 52.3961 64.9469 52.584ZM43.5443 54.3738C44.6773 55.0236 45.7824 56.1742 46.3588 57.3037C46.5783 57.734 46.7578 58.1334 46.7578 58.1914C46.7578 58.2494 45.7471 58.2969 44.5117 58.2969H42.2656V56.0508C42.2656 54.8154 42.3316 53.8055 42.4121 53.8064C42.4926 53.8076 43.0021 54.0629 43.5443 54.3738ZM105.547 56.0508V58.2969H103.301C102.065 58.2969 101.055 58.2494 101.055 58.1914C101.055 57.8705 101.95 56.4139 102.568 55.7303C103.197 55.034 104.997 53.8115 105.4 53.8064C105.481 53.8055 105.547 54.8154 105.547 56.0508ZM72.6814 55.8758C72.6166 55.9406 72.448 55.9477 72.3072 55.8912C72.1514 55.8289 72.1977 55.7826 72.4252 55.7732C72.6311 55.7648 72.7463 55.8109 72.6814 55.8758ZM75.4158 55.8758C75.351 55.9406 75.1824 55.9477 75.0416 55.8912C74.8857 55.8289 74.932 55.7826 75.1596 55.7732C75.3654 55.7648 75.4807 55.8109 75.4158 55.8758ZM104.109 64.8664C103.61 65.365 103.594 65.4555 103.594 67.6984C103.594 69.0051 103.514 70.0156 103.411 70.0156C103.311 70.0156 101.078 69.2779 98.4502 68.3764C91.4715 65.9822 90.7779 65.8354 86.4062 65.825C82.5535 65.8158 81.299 66.0004 78.2445 67.026C76.1492 67.7295 62.2111 74.125 61.3637 74.7717C59.6998 76.0416 58.7529 78.3152 58.9182 80.6447C58.9721 81.4051 59.0783 82.1773 59.1545 82.3605C59.2746 82.6494 59.2164 82.6719 58.7174 82.5287C58.4008 82.4379 54.3191 80.3756 49.6475 77.9457C44.9756 75.5158 40.7385 73.3865 40.2316 73.2139C39.5539 72.9828 38.8359 72.9223 37.5164 72.9848C35.9918 73.0568 35.5443 73.1609 34.5336 73.6779C30.7658 75.6053 29.3432 80.1871 31.3131 84.0486C32.1881 85.7639 32.975 86.2939 44.0539 92.632C49.925 95.9908 55.267 98.9576 55.9248 99.225C57.6648 99.932 59.6137 100.289 61.7324 100.289C63.5568 100.289 65.7104 99.9529 99.1504 94.4486L103.594 93.7172V96.7812C103.594 99.8313 103.596 99.8475 104.109 100.36L104.624 100.875H111.797H118.97L119.485 100.36L120 99.8451V82.6133V65.3814L119.485 64.8664L118.97 64.3516H111.797H104.624L104.109 64.8664ZM116.094 82.6133V96.9688H111.797H107.5V82.6133V68.2578H111.797H116.094V82.6133ZM110.695 71.668C109.244 72.6848 110.018 75.0938 111.797 75.0938C113.083 75.0938 114.032 73.7066 113.547 72.5354C113.228 71.7656 112.647 71.3828 111.797 71.3828C111.415 71.3828 110.919 71.5111 110.695 71.668ZM34.3871 80.6113C34.333 80.7457 34.2887 80.6357 34.2887 80.3672C34.2887 80.0986 34.333 79.9889 34.3871 80.123C34.4414 80.2574 34.4414 80.4771 34.3871 80.6113ZM63.775 82.2715C64.0178 82.5813 64.0109 82.5881 63.7012 82.3453C63.3758 82.09 63.2725 81.9297 63.4332 81.9297C63.4736 81.9297 63.6275 82.0836 63.775 82.2715ZM66.0449 86.9471C65.8568 86.9963 65.5494 86.9963 65.3613 86.9471C65.1732 86.898 65.3271 86.8578 65.7031 86.8578C66.0791 86.8578 66.233 86.898 66.0449 86.9471Z" fill="#63B1DC"/>
<path fill-rule="evenodd" clip-rule="evenodd" d="M20.5148 1.38984L20 1.90488V19.1367V36.3686L20.5148 36.8836L21.0299 37.3984H28.2031H35.3764L35.8914 36.8836C36.3781 36.3969 36.4062 36.2633 36.4062 34.4422V32.5156H37.3828H38.3594V46.8445V61.1732L38.8742 61.6883L39.3893 62.2031H73.9062H108.423L108.938 61.6883L109.453 61.1732V42.2812V23.3893L108.938 22.8742C108.487 22.4229 108.266 22.3594 107.146 22.3594H105.869L91.6725 14.7424C83.8645 10.5529 76.8268 6.85625 76.033 6.52773C75.2393 6.19902 73.7549 5.69707 72.7344 5.4123L70.8789 4.89434L53.6426 4.83086L36.4062 4.76719V3.33594C36.4062 2.05 36.3539 1.85254 35.8914 1.38984L35.3764 0.875H28.2031H21.0299L20.5148 1.38984ZM65.3125 23.4098C65.3125 23.4502 65.1588 23.6041 64.9707 23.7516C64.6609 23.9943 64.6541 23.9875 64.8969 23.6777C65.1521 23.3523 65.3125 23.249 65.3125 23.4098ZM97.1709 26.5098C97.1965 26.7854 97.2584 27.0746 97.3385 27.291C97.3682 27.3715 97.4066 27.5035 97.4238 27.584C97.4412 27.6645 97.5533 27.9062 97.6732 28.1211C97.7932 28.3359 97.8869 28.5557 97.8818 28.6094C97.8547 28.8912 98.176 29.5859 98.3334 29.5859C98.4336 29.5859 98.5156 29.7178 98.5156 29.8789C98.5156 30.04 98.6035 30.1719 98.7109 30.1719C98.8184 30.1719 98.9062 30.2668 98.9062 30.3828C98.9062 30.6578 101.155 32.9062 101.43 32.9062C101.546 32.9062 101.641 32.9941 101.641 33.1016C101.641 33.209 101.772 33.2969 101.934 33.2969C102.095 33.2969 102.227 33.3789 102.227 33.4791C102.227 33.5793 102.424 33.724 102.666 33.8006C102.908 33.8773 103.105 33.9123 103.105 33.8785C103.105 33.8445 103.325 33.9385 103.594 34.0871C103.862 34.2357 104.148 34.3713 104.229 34.3887C104.309 34.4059 104.441 34.4443 104.521 34.474C104.738 34.5541 105.027 34.616 105.303 34.6416C105.66 34.6744 105.66 49.8881 105.303 49.9209C105.027 49.9465 104.738 50.0084 104.521 50.0885C104.441 50.1182 104.309 50.1566 104.229 50.1738C104.148 50.1912 103.862 50.3268 103.594 50.4754C103.325 50.624 103.062 50.7318 103.008 50.715C102.791 50.6469 102.227 50.9133 102.227 51.0834C102.227 51.1836 102.095 51.2656 101.934 51.2656C101.772 51.2656 101.641 51.3535 101.641 51.4609C101.641 51.5684 101.553 51.6562 101.445 51.6562C101.338 51.6562 101.088 51.8102 100.889 51.998C100.69 52.1859 100.36 52.4848 100.156 52.6619C99.607 53.1385 98.9062 54.0074 98.9062 54.2119C98.9062 54.3102 98.8184 54.3906 98.7109 54.3906C98.6035 54.3906 98.5156 54.5225 98.5156 54.6836C98.5156 54.8447 98.4385 54.9766 98.3439 54.9766C98.1637 54.9766 97.7238 56.0008 97.5473 56.832C97.5244 56.9395 97.4129 57.1393 97.2992 57.2762C97.1857 57.4131 97.1484 57.5809 97.2166 57.6488C97.2846 57.717 97.2424 57.8906 97.1228 58.0348C96.8121 58.4092 50.6762 58.4271 50.6416 58.0527C50.616 57.7771 50.5541 57.4879 50.474 57.2715C50.4443 57.1908 50.4059 57.0592 50.3887 56.9785C50.3713 56.8979 50.2357 56.6123 50.0871 56.3438C49.9385 56.0752 49.8307 55.8115 49.8475 55.7578C49.9156 55.541 49.6492 54.9766 49.4791 54.9766C49.3789 54.9766 49.2969 54.8447 49.2969 54.6836C49.2969 54.5225 49.209 54.3906 49.1016 54.3906C48.9941 54.3906 48.9062 54.3027 48.9062 54.1953C48.9062 54.0879 48.7525 53.8375 48.5645 53.6387C48.3764 53.44 48.0777 53.1104 47.9006 52.9062C47.424 52.357 46.5551 51.6562 46.3506 51.6562C46.2523 51.6562 46.1719 51.5684 46.1719 51.4609C46.1719 51.3535 46.04 51.2656 45.8789 51.2656C45.7178 51.2656 45.5859 51.1836 45.5859 51.0834C45.5859 50.926 44.8912 50.6047 44.6094 50.6318C44.5557 50.6369 44.3359 50.5432 44.1211 50.4232C43.9062 50.3033 43.6645 50.1912 43.584 50.1738C43.5035 50.1566 43.3715 50.1182 43.291 50.0885C43.0738 50.008 42.785 49.9463 42.5078 49.9209C42.3129 49.9031 42.2723 48.0953 42.3125 41.2559C42.3625 32.7412 42.3691 32.6141 42.7539 32.6643C43.6715 32.784 44.5447 32.9166 45 33.0053C45.2686 33.0576 45.708 33.14 45.9766 33.1881C46.2451 33.2363 46.6846 33.3297 46.9531 33.3955C47.2217 33.4611 47.5732 33.5471 47.7344 33.5863C47.8955 33.6256 48.0713 33.6777 48.125 33.7023C48.1787 33.727 48.3105 33.7674 48.418 33.7924C48.5254 33.8174 48.6793 33.8588 48.7598 33.8848C48.8402 33.9105 48.9941 33.9537 49.1016 33.9805C49.209 34.0072 49.3408 34.0514 49.3945 34.0781C49.4482 34.1049 49.5801 34.149 49.6875 34.1758C49.7949 34.2025 49.9268 34.2467 49.9805 34.2734C50.0342 34.3002 50.166 34.3443 50.2734 34.3711C50.3809 34.3979 50.5127 34.442 50.5664 34.4688C50.6201 34.4955 50.7301 34.5316 50.8105 34.5488C50.891 34.5662 51.1547 34.69 51.3965 34.8244C51.6383 34.9586 51.8359 35.0193 51.8359 34.9594C51.8359 34.8994 52.0557 34.9943 52.3242 35.1703C52.5928 35.3463 52.8125 35.4342 52.8125 35.3656C52.8125 35.2971 53.0322 35.385 53.3008 35.5609C53.5693 35.7369 53.7891 35.8197 53.7891 35.7447C53.7891 35.6699 54.0967 35.7988 54.4727 36.0312C54.8486 36.2637 55.1562 36.4006 55.1562 36.3357C55.1562 36.2707 55.376 36.3615 55.6445 36.5375C55.9131 36.7135 56.1328 36.7963 56.1328 36.7213C56.1328 36.6465 56.4404 36.7754 56.8164 37.0078C57.1924 37.2402 57.5 37.3771 57.5 37.3123C57.5 37.2473 57.7197 37.3381 57.9883 37.5141C58.2568 37.69 58.4766 37.7729 58.4766 37.6979C58.4766 37.623 58.8063 37.7656 59.209 38.0146C59.6119 38.2635 59.9414 38.4408 59.9414 38.4086C59.9414 38.3762 60.0953 38.4088 60.2832 38.4809C60.5348 38.5775 60.5955 38.7484 60.5131 39.1283C60.1074 40.998 60.0275 42.8904 60.2934 44.332C60.3727 44.7617 60.4684 45.2891 60.5062 45.5039C60.5441 45.7188 60.5973 45.9166 60.6244 45.9434C60.6516 45.9701 60.6959 46.0801 60.7227 46.1875C60.7494 46.2949 60.7936 46.4268 60.8203 46.4805C60.8471 46.5342 60.8912 46.666 60.918 46.7734C60.9447 46.8809 60.9889 47.0127 61.0156 47.0664C61.0424 47.1201 61.0754 47.2328 61.0889 47.3168C61.1564 47.7395 61.8791 49.1172 62.0334 49.1172C62.1309 49.1172 62.1562 49.2051 62.0898 49.3125C62.0234 49.4199 62.0623 49.5078 62.176 49.5078C62.2896 49.5078 62.3828 49.5994 62.3828 49.7113C62.3828 49.99 62.6611 50.3166 64.1816 51.8228C65.7738 53.4 66.0197 53.6094 66.2809 53.6094C66.3928 53.6094 66.4844 53.6877 66.4844 53.7836C66.4844 53.8793 66.7041 54.0129 66.9727 54.0803C67.2412 54.1477 67.4609 54.2941 67.4609 54.4059C67.4609 54.5176 67.5488 54.5547 67.6562 54.4883C67.7637 54.4219 67.8516 54.4754 67.8516 54.607C67.8516 54.7387 67.9105 54.7875 67.9824 54.7154C68.0545 54.6436 68.3182 54.7187 68.5684 54.8828C68.8187 55.0467 69.0234 55.1242 69.0234 55.0549C69.0234 54.9855 69.1359 55.0223 69.2736 55.1363C69.4113 55.2506 69.7848 55.3975 70.1037 55.4627C70.4227 55.5279 70.9033 55.6295 71.1719 55.6883C71.8131 55.8289 75.8187 55.8266 76.4453 55.6852C77.5797 55.4293 77.7172 55.3951 77.7637 55.3578C77.7904 55.3361 77.9004 55.2963 78.0078 55.2695C78.1152 55.2428 78.2471 55.1986 78.3008 55.1719C78.3545 55.1451 78.4643 55.109 78.5449 55.0918C78.6256 55.0744 78.8775 54.9566 79.1053 54.8301C79.3328 54.7033 79.5744 54.6553 79.6424 54.723C79.7102 54.7908 79.7656 54.7387 79.7656 54.607C79.7656 54.4754 79.8535 54.4219 79.9609 54.4883C80.0684 54.5547 80.1562 54.5176 80.1562 54.4059C80.1562 54.2941 80.376 54.1477 80.6445 54.0803C80.9131 54.0129 81.1328 53.8793 81.1328 53.7836C81.1328 53.6877 81.2244 53.6094 81.3363 53.6094C81.5752 53.6094 81.6986 53.5066 83.3762 51.9111C84.076 51.2457 84.6484 50.6086 84.6484 50.4951C84.6484 50.3818 84.7383 50.2891 84.8479 50.2891C84.9576 50.2891 85.1537 50.0475 85.2834 49.752C85.4133 49.4566 85.5754 49.1709 85.6436 49.1172C85.8561 48.9502 86.6166 47.3594 86.484 47.3594C86.4148 47.3594 86.4678 47.2275 86.6016 47.0664C86.7354 46.9053 86.7793 46.7734 86.6992 46.7734C86.6191 46.7734 86.6631 46.6416 86.7969 46.4805C86.9307 46.3193 86.9746 46.1875 86.8945 46.1875C86.8145 46.1875 86.8357 46.0777 86.9416 45.9434C87.0477 45.8092 87.1438 45.5674 87.1555 45.4062C87.167 45.2451 87.2389 44.7178 87.3148 44.2344C87.5588 42.6863 87.4695 40.6463 87.0928 39.1562C87.0248 38.8877 86.9373 38.5361 86.898 38.375C86.8588 38.2139 86.809 38.06 86.7875 38.0332C86.7658 38.0064 86.734 37.9184 86.7168 37.8379C86.6994 37.7574 86.5639 37.4717 86.4152 37.2031C86.2666 36.9346 86.1689 36.6891 86.1982 36.6576C86.3064 36.5412 85.7668 35.4453 85.6014 35.4453C85.5068 35.4453 85.4297 35.3135 85.4297 35.1523C85.4297 34.9912 85.3418 34.8594 85.2344 34.8594C85.127 34.8594 85.0391 34.7678 85.0391 34.6559C85.0391 34.3979 84.8299 34.1527 83.3348 32.6574C81.8566 31.1795 81.5936 30.9531 81.3527 30.9531C81.2496 30.9531 81.1361 30.884 81.1002 30.7994C81.024 30.6193 78.7004 29.468 78.6727 29.5965C78.6623 29.6443 78.5084 29.5629 78.3309 29.4156C78.1531 29.2682 78.0078 29.2129 78.0078 29.293C78.0078 29.373 77.8799 29.3322 77.7234 29.2023C77.567 29.0727 77.3533 29.0193 77.2486 29.084C77.1439 29.1488 77.0064 29.118 76.9432 29.0156C76.8801 28.9133 76.6762 28.8232 76.4902 28.8154C73.393 28.6857 71.9723 28.6885 71.6113 28.8246C71.3566 28.9207 71.1719 28.9158 71.1719 28.8131C71.1719 28.7154 70.9781 28.5742 70.7416 28.499C70.5049 28.424 70.191 28.2424 70.0439 28.0953C69.8971 27.9484 69.6512 27.8281 69.4979 27.8281C69.3443 27.8281 69.2188 27.7471 69.2188 27.648C69.2188 27.5488 68.9123 27.3666 68.5379 27.2432C67.7988 26.9992 67.5652 26.7662 67.7539 26.4609C67.9477 26.1475 97.142 26.1959 97.1709 26.5098ZM105.547 28.5117C105.547 29.7471 105.499 30.7578 105.441 30.7578C105.121 30.7578 103.664 29.8625 102.98 29.2449C102.284 28.6158 101.062 26.8158 101.056 26.4121C101.055 26.3316 102.065 26.2656 103.301 26.2656H105.547V28.5117ZM79.293 34.1947C82.3668 36.235 84.0959 40.1885 83.4873 43.785C82.8416 47.6002 79.9672 50.8029 76.3408 51.7475C74.8723 52.1301 72.7449 52.1301 71.2764 51.7475C67.6629 50.8063 64.7746 47.602 64.1381 43.8283C63.9184 42.5264 64.0273 40.1326 64.3063 40.133C64.3764 40.133 65.9277 40.7594 67.7539 41.5248C71.0875 42.9223 71.5561 43.0344 74.1592 43.0576C74.8512 43.0639 75.6641 43.858 75.6641 44.5277C75.6641 44.8246 75.4502 45.2326 75.1473 45.5133C74.4 46.2059 73.2656 46.1615 72.2602 45.4008C70.7645 44.2691 69.0234 44.9164 69.0234 46.6041C69.0234 47.5123 69.957 48.6664 71.1162 49.1908C71.6418 49.4287 71.9473 49.742 72.1729 50.2746C72.6127 51.3133 73.5826 51.6514 74.6398 51.1348C75.1516 50.8846 75.4262 50.5906 75.5543 50.1557C75.6867 49.7061 75.9447 49.4406 76.4863 49.1965C77.3955 48.7863 78.7096 47.4016 79.1207 46.4199C79.5045 45.5035 79.5094 43.5629 79.1303 42.6576C78.9695 42.2738 78.5498 41.6318 78.1977 41.2307L77.5576 40.5016L77.958 39.7801C78.8973 38.0877 78.9119 35.8502 77.9953 34.0537C77.5016 33.0855 77.6457 33.1014 79.293 34.1947ZM50.2654 40.9215C49.9369 41.2283 49.6613 41.55 49.6529 41.6361C49.6445 41.7225 49.5967 41.9 49.5465 42.0307C49.3689 42.4934 49.824 43.3613 50.4756 43.8027C51.0906 44.2195 51.3203 44.2482 53.8297 44.223C55.3111 44.208 56.5234 44.1166 56.5234 44.0197C56.5234 43.923 56.6529 43.8438 56.8113 43.8438C57.2387 43.8438 57.6861 42.8268 57.5932 42.067C57.542 41.6492 57.2982 41.2094 56.9367 40.883C56.3715 40.3725 56.3145 40.3637 53.6121 40.3637H50.8627L50.2654 40.9215ZM90.6211 40.9844C90.1221 41.4551 89.974 41.7457 90.0082 42.1873C90.0746 43.043 90.4555 43.8438 90.7959 43.8438C90.9598 43.8438 91.0938 43.923 91.0938 44.0197C91.0938 44.1166 92.3061 44.208 93.7875 44.223C96.2969 44.2482 96.5266 44.2195 97.1416 43.8027C97.8441 43.3268 98.2453 42.4857 98.0332 41.933C97.9623 41.7486 97.9145 41.5711 97.9268 41.5385C97.9389 41.5061 97.6803 41.2283 97.3518 40.9215L96.7545 40.3637H94.0168H91.2793L90.6211 40.9844ZM43.5443 54.3738C44.6773 55.0236 45.7824 56.1742 46.3588 57.3037C46.5783 57.734 46.7578 58.1334 46.7578 58.1914C46.7578 58.2494 45.7471 58.2969 44.5117 58.2969H42.2656V56.0508C42.2656 54.8154 42.3316 53.8055 42.4121 53.8064C42.4926 53.8076 43.0021 54.0629 43.5443 54.3738ZM105.547 56.0508V58.2969H103.301C102.065 58.2969 101.055 58.2494 101.055 58.1914C101.055 57.8705 101.95 56.4139 102.568 55.7303C103.197 55.034 104.997 53.8115 105.4 53.8064C105.481 53.8055 105.547 54.8154 105.547 56.0508ZM104.109 64.8664C103.61 65.365 103.594 65.4555 103.594 67.6984C103.594 69.0051 103.514 70.0156 103.411 70.0156C103.311 70.0156 101.078 69.2779 98.4502 68.3764C91.4715 65.9822 90.7779 65.8354 86.4062 65.825C82.5535 65.8158 81.299 66.0004 78.2445 67.026C76.1492 67.7295 62.2111 74.125 61.3637 74.7717C59.6998 76.0416 58.7529 78.3152 58.9182 80.6447C58.9721 81.4051 59.0783 82.1773 59.1545 82.3605C59.2746 82.6494 59.2164 82.6719 58.7174 82.5287C58.4008 82.4379 54.3191 80.3756 49.6475 77.9457C44.9756 75.5158 40.7385 73.3865 40.2316 73.2139C39.5539 72.9828 38.8359 72.9223 37.5164 72.9848C35.9918 73.0568 35.5443 73.1609 34.5336 73.6779C30.7658 75.6053 29.3432 80.1871 31.3131 84.0486C32.1881 85.7639 32.975 86.2939 44.0539 92.632C49.925 95.9908 55.267 98.9576 55.9248 99.225C57.6648 99.932 59.6137 100.289 61.7324 100.289C63.5568 100.289 65.7104 99.9529 99.1504 94.4486L103.594 93.7172V96.7812C103.594 99.8313 103.596 99.8475 104.109 100.36L104.624 100.875H111.797H118.97L119.485 100.36L120 99.8451V82.6133V65.3814L119.485 64.8664L118.97 64.3516H111.797H104.624L104.109 64.8664ZM116.094 82.6133V96.9688H111.797H107.5V82.6133V68.2578H111.797H116.094V82.6133ZM110.695 71.668C109.244 72.6848 110.018 75.0938 111.797 75.0938C113.083 75.0938 114.032 73.7066 113.547 72.5354C113.228 71.7656 112.647 71.3828 111.797 71.3828C111.415 71.3828 110.919 71.5111 110.695 71.668ZM34.3871 80.6113C34.333 80.7457 34.2887 80.6357 34.2887 80.3672C34.2887 80.0986 34.333 79.9889 34.3871 80.123C34.4414 80.2574 34.4414 80.4771 34.3871 80.6113ZM63.775 82.2715C64.0178 82.5813 64.0109 82.5881 63.7012 82.3453C63.3758 82.09 63.2725 81.9297 63.4332 81.9297C63.4736 81.9297 63.6275 82.0836 63.775 82.2715ZM66.0449 86.9471C65.8568 86.9963 65.5494 86.9963 65.3613 86.9471C65.1732 86.898 65.3271 86.8578 65.7031 86.8578C66.0791 86.8578 66.233 86.898 66.0449 86.9471Z" fill="#A68174"/>
<path fill-rule="evenodd" clip-rule="evenodd" d="M20.5148 1.38984L20 1.90488V19.1367V36.3686L20.5148 36.8836L21.0299 37.3984H28.2031H35.3764L35.8914 36.8836C36.3781 36.3969 36.4062 36.2633 36.4062 34.4422V32.5156H37.3828H38.3594V46.8445V61.1732L38.8742 61.6883L39.3893 62.2031H73.9062H108.423L108.938 61.6883L109.453 61.1732V42.2812V23.3893L108.938 22.8742C108.487 22.4229 108.266 22.3594 107.146 22.3594H105.869L91.6725 14.7424C83.8645 10.5529 76.8268 6.85625 76.033 6.52773C75.2393 6.19902 73.7549 5.69707 72.7344 5.4123L70.8789 4.89434L53.6426 4.83086L36.4062 4.76719V3.33594C36.4062 2.05 36.3539 1.85254 35.8914 1.38984L35.3764 0.875H28.2031H21.0299L20.5148 1.38984ZM69.9023 8.94141C70.2246 8.99082 70.6201 9.08301 70.7812 9.14629C70.9424 9.20957 71.3379 9.30078 71.6602 9.34902C71.9824 9.39727 72.29 9.45723 72.3438 9.48242C72.3975 9.50762 72.5293 9.54082 72.6367 9.55645C72.7441 9.57188 73.023 9.68984 73.2566 9.81855C73.4902 9.94727 73.8418 10.0807 74.0379 10.115C74.234 10.1494 75.2295 10.6064 76.25 11.1311C77.2705 11.6555 78.1713 12.0672 78.252 12.0461C78.3326 12.025 78.3984 12.101 78.3984 12.2146C78.3984 12.3283 78.4863 12.3672 78.5938 12.3008C78.7012 12.2344 78.7891 12.2783 78.7891 12.3984C78.7891 12.5186 78.877 12.5625 78.9844 12.4961C79.0918 12.4297 79.1797 12.4598 79.1797 12.5629C79.1797 12.666 79.5748 12.9129 80.0578 13.1115C80.5408 13.3102 80.9363 13.5437 80.9367 13.6307C80.9371 13.7176 81.0254 13.7344 81.1328 13.668C81.2402 13.6016 81.3281 13.6455 81.3281 13.7656C81.3281 13.8857 81.416 13.9297 81.5234 13.8633C81.6309 13.7969 81.7188 13.8182 81.7188 13.9105C81.7188 14.0941 83.4838 15.0311 83.7207 14.9732C83.8012 14.9535 83.8672 15.0307 83.8672 15.1443C83.8672 15.258 83.9551 15.2969 84.0625 15.2305C84.1699 15.1641 84.2578 15.1854 84.2578 15.2777C84.2578 15.4613 86.0229 16.3982 86.2598 16.3404C86.3402 16.3207 86.4062 16.3979 86.4062 16.5115C86.4062 16.6252 86.4941 16.6641 86.6016 16.5977C86.709 16.5312 86.7969 16.5752 86.7969 16.6953C86.7969 16.8154 86.8848 16.8594 86.9922 16.793C87.0996 16.7266 87.1875 16.7566 87.1875 16.8598C87.1875 16.9629 87.5826 17.2098 88.0656 17.4084C88.5486 17.607 88.9441 17.8406 88.9445 17.9275C88.9449 18.0145 89.0332 18.0312 89.1406 17.9648C89.248 17.8984 89.3359 17.9424 89.3359 18.0625C89.3359 18.1826 89.4238 18.2266 89.5312 18.1602C89.6387 18.0938 89.7266 18.115 89.7266 18.2074C89.7266 18.391 91.4916 19.3279 91.7285 19.2701C91.809 19.2504 91.875 19.3275 91.875 19.4412C91.875 19.5549 91.9629 19.5938 92.0703 19.5273C92.1777 19.4609 92.2656 19.4822 92.2656 19.5746C92.2656 19.7582 94.0307 20.6951 94.2676 20.6373C94.3482 20.6176 94.4141 20.6947 94.4141 20.8084C94.4141 20.9221 94.502 20.9609 94.6094 20.8945C94.7168 20.8281 94.8047 20.8721 94.8047 20.9922C94.8047 21.1123 94.8926 21.1562 95 21.0898C95.1074 21.0234 95.1953 21.0535 95.1953 21.1566C95.1953 21.2598 95.5904 21.5066 96.0734 21.7053C96.5564 21.9039 96.952 22.1324 96.9523 22.2129C96.9527 22.2934 90.2955 22.3695 82.1582 22.3818C74.0209 22.3943 67.2754 22.4248 67.168 22.4498C67.0605 22.4748 66.9066 22.5195 66.8262 22.5494C66.6238 22.6242 66.3252 22.6965 66.0988 22.7256C65.8512 22.7574 64.148 24.4605 64.1162 24.7082C64.0793 24.9951 64.0004 25.2832 63.9434 25.3379C63.8365 25.4406 63.818 27.5447 63.9223 27.7305C63.9826 27.8379 64.0506 28.0488 64.0732 28.1992C64.0961 28.3496 64.2303 28.5459 64.3719 28.6357C64.5133 28.7254 64.5414 28.8 64.4346 28.8018C64.3277 28.8033 64.6137 29.1562 65.0697 29.5859C65.526 30.0156 66.0309 30.3672 66.1918 30.3672C66.3527 30.3672 66.4844 30.441 66.4844 30.5311C66.4844 30.684 67.2434 31.1121 67.4609 31.082C67.5146 31.0746 67.7592 31.2404 68.0043 31.4504C68.2496 31.6604 68.4693 31.7922 68.4926 31.7434C68.516 31.6945 68.7357 31.8264 68.9809 32.0363C69.2262 32.2463 69.4479 32.374 69.4738 32.3203C69.4996 32.2666 69.7299 32.4174 69.9854 32.6553C70.2408 32.8934 70.5244 33.042 70.6154 32.9855C70.7066 32.9293 70.7812 32.9703 70.7812 33.077C70.7812 33.1834 70.975 33.332 71.2115 33.4072C71.4482 33.4822 71.7621 33.6639 71.9092 33.8109C72.0561 33.9578 72.302 34.0781 72.4553 34.0781C72.6088 34.0781 72.7344 34.1602 72.7344 34.2604C72.7344 34.3605 72.932 34.5039 73.1738 34.5789C73.8729 34.7959 74.8236 35.9791 74.7834 36.5814C74.6908 37.9619 74.485 38.3436 73.6029 38.7707C72.9529 39.0854 72.5824 39.1512 72.1023 39.0375C71.7518 38.9545 71.399 38.9033 71.3184 38.9238C71.2377 38.9441 71.1719 38.8826 71.1719 38.7867C71.1719 38.6453 70.7322 38.4576 70 38.2863C69.9463 38.2738 69.7162 38.1598 69.4885 38.0332C69.2609 37.9064 69.0193 37.8584 68.9514 37.9262C68.8836 37.9939 68.8281 37.9564 68.8281 37.8428C68.8281 37.6742 68.4191 37.4883 67.6562 37.3098C67.6025 37.2973 67.3725 37.1832 67.1447 37.0566C66.9172 36.9299 66.6756 36.8818 66.6076 36.9496C66.5398 37.0174 66.4844 36.9799 66.4844 36.8662C66.4844 36.6977 66.0754 36.5117 65.3125 36.3332C65.2588 36.3207 65.0287 36.2066 64.801 36.0801C64.5734 35.9533 64.3318 35.9053 64.2639 35.973C64.1961 36.0408 64.1406 36.0033 64.1406 35.8896C64.1406 35.7211 63.7316 35.5352 62.9688 35.3566C62.915 35.3441 62.685 35.2301 62.4572 35.1035C62.2297 34.9768 61.9881 34.9287 61.9201 34.9965C61.8523 35.0643 61.7969 35.0268 61.7969 34.9131C61.7969 34.7445 61.3879 34.5586 60.625 34.3801C60.5713 34.3676 60.3412 34.2535 60.1135 34.127C59.8859 34.0002 59.6443 33.9521 59.5764 34.0199C59.5086 34.0877 59.4531 34.0502 59.4531 33.9365C59.4531 33.768 59.0441 33.582 58.2812 33.4035C58.2275 33.391 57.9975 33.277 57.7697 33.1504C57.5422 33.0236 57.3006 32.9756 57.2326 33.0434C57.1648 33.1111 57.1094 33.0736 57.1094 32.96C57.1094 32.7914 56.7004 32.6055 55.9375 32.427C55.8838 32.4145 55.6537 32.3004 55.426 32.1738C55.1984 32.0471 54.9568 31.999 54.8889 32.0668C54.8211 32.1346 54.7656 32.0971 54.7656 31.9834C54.7656 31.8068 54.5504 31.7098 53.5449 31.433C53.25 31.3518 53.2008 31.3441 53.0785 31.3604C53.01 31.3695 52.8963 31.284 52.8258 31.1701C52.7555 31.0562 52.482 30.9234 52.2182 30.875C51.9541 30.8266 51.7162 30.7693 51.6895 30.7479C51.6627 30.7266 51.5527 30.6869 51.4453 30.6602C51.3379 30.6334 51.2061 30.5893 51.1523 30.5625C51.0986 30.5357 50.9668 30.4916 50.8594 30.4648C50.752 30.4381 50.6201 30.3939 50.5664 30.3672C50.5127 30.3404 50.3809 30.2963 50.2734 30.2695C50.166 30.2428 50.0121 30.1963 49.9316 30.1666C49.8512 30.1367 49.6973 30.0955 49.5898 30.075C49.4824 30.0543 49.1539 29.9385 48.8598 29.8174C48.5656 29.6963 48.035 29.5676 47.6807 29.5312C47.3264 29.4949 46.9256 29.3967 46.79 29.3129C46.6547 29.2293 46.4189 29.2086 46.2664 29.2672C46.1139 29.3256 45.9379 29.2908 45.8754 29.1898C45.8131 29.0887 45.5686 29.0035 45.332 29.0006C45.0957 28.9977 44.5508 28.9471 44.1211 28.8883C42.6977 28.6934 41.4137 28.593 38.8965 28.4797L36.4062 28.368V18.5187V8.66973L52.8613 8.76074C61.9117 8.81055 69.5801 8.89199 69.9023 8.94141ZM42.2656 12.7998C42.2656 12.9014 42.1361 12.9844 41.9777 12.9844C41.6416 12.9844 41.0938 13.9529 41.0938 14.5469C41.0938 15.1408 41.6416 16.1094 41.9777 16.1094C42.1361 16.1094 42.2656 16.1924 42.2656 16.2939C42.2656 16.6871 43.9199 16.3822 44.4494 15.8914C45.0828 15.3043 45.3346 14.4617 44.9979 14.0561C44.8652 13.8963 44.8326 13.7656 44.9252 13.7656C45.018 13.7656 44.8398 13.5303 44.5295 13.2426C44.1293 12.8713 43.7186 12.7043 43.1154 12.6674C42.648 12.6387 42.2656 12.6982 42.2656 12.7998ZM48.6555 13.2033C48.31 13.5334 48.0381 13.8609 48.0514 13.9311C48.0645 14.0012 48.0332 14.1686 47.9816 14.3027C47.9301 14.4371 47.9301 14.6568 47.9816 14.791C48.0332 14.9254 48.0803 15.1076 48.0863 15.1961C48.0924 15.2846 48.3643 15.6121 48.6904 15.9238L49.2836 16.4908L57.298 16.491C62.3895 16.4912 65.3125 16.4217 65.3125 16.3004C65.3125 16.1953 65.442 16.1094 65.6004 16.1094C65.9467 16.1094 66.4846 15.1338 66.4836 14.5078C66.4826 13.9324 65.7574 12.7324 65.5049 12.8887C65.399 12.9539 65.3125 12.9162 65.3125 12.8049C65.3125 12.6684 62.7004 12.6025 57.298 12.6027L49.2836 12.6029L48.6555 13.2033ZM97.1709 26.5098C97.1965 26.7854 97.2584 27.0746 97.3385 27.291C97.3682 27.3715 97.4066 27.5035 97.4238 27.584C97.4412 27.6645 97.5533 27.9062 97.6732 28.1211C97.7932 28.3359 97.8869 28.5557 97.8818 28.6094C97.8547 28.8912 98.176 29.5859 98.3334 29.5859C98.4336 29.5859 98.5156 29.7178 98.5156 29.8789C98.5156 30.04 98.6035 30.1719 98.7109 30.1719C98.8184 30.1719 98.9062 30.2668 98.9062 30.3828C98.9062 30.6578 101.155 32.9062 101.43 32.9062C101.546 32.9062 101.641 32.9941 101.641 33.1016C101.641 33.209 101.772 33.2969 101.934 33.2969C102.095 33.2969 102.227 33.3789 102.227 33.4791C102.227 33.5793 102.424 33.724 102.666 33.8006C102.908 33.8773 103.105 33.9123 103.105 33.8785C103.105 33.8445 103.325 33.9385 103.594 34.0871C103.862 34.2357 104.148 34.3713 104.229 34.3887C104.309 34.4059 104.441 34.4443 104.521 34.474C104.738 34.5541 105.027 34.616 105.303 34.6416C105.66 34.6744 105.66 49.8881 105.303 49.9209C105.027 49.9465 104.738 50.0084 104.521 50.0885C104.441 50.1182 104.309 50.1566 104.229 50.1738C104.148 50.1912 103.862 50.3268 103.594 50.4754C103.325 50.624 103.062 50.7318 103.008 50.715C102.791 50.6469 102.227 50.9133 102.227 51.0834C102.227 51.1836 102.095 51.2656 101.934 51.2656C101.772 51.2656 101.641 51.3535 101.641 51.4609C101.641 51.5684 101.553 51.6562 101.445 51.6562C101.338 51.6562 101.088 51.8102 100.889 51.998C100.69 52.1859 100.36 52.4848 100.156 52.6619C99.607 53.1385 98.9062 54.0074 98.9062 54.2119C98.9062 54.3102 98.8184 54.3906 98.7109 54.3906C98.6035 54.3906 98.5156 54.5225 98.5156 54.6836C98.5156 54.8447 98.4385 54.9766 98.3439 54.9766C98.1637 54.9766 97.7238 56.0008 97.5473 56.832C97.5244 56.9395 97.4129 57.1393 97.2992 57.2762C97.1857 57.4131 97.1484 57.5809 97.2166 57.6488C97.2846 57.717 97.2424 57.8906 97.1228 58.0348C96.8121 58.4092 50.6762 58.4271 50.6416 58.0527C50.616 57.7771 50.5541 57.4879 50.474 57.2715C50.4443 57.1908 50.4059 57.0592 50.3887 56.9785C50.3713 56.8979 50.2357 56.6123 50.0871 56.3438C49.9385 56.0752 49.8307 55.8115 49.8475 55.7578C49.9156 55.541 49.6492 54.9766 49.4791 54.9766C49.3789 54.9766 49.2969 54.8447 49.2969 54.6836C49.2969 54.5225 49.209 54.3906 49.1016 54.3906C48.9941 54.3906 48.9062 54.3027 48.9062 54.1953C48.9062 54.0879 48.7525 53.8375 48.5645 53.6387C48.3764 53.44 48.0777 53.1104 47.9006 52.9062C47.424 52.357 46.5551 51.6562 46.3506 51.6562C46.2523 51.6562 46.1719 51.5684 46.1719 51.4609C46.1719 51.3535 46.04 51.2656 45.8789 51.2656C45.7178 51.2656 45.5859 51.1836 45.5859 51.0834C45.5859 50.926 44.8912 50.6047 44.6094 50.6318C44.5557 50.6369 44.3359 50.5432 44.1211 50.4232C43.9062 50.3033 43.6645 50.1912 43.584 50.1738C43.5035 50.1566 43.3715 50.1182 43.291 50.0885C43.0738 50.008 42.785 49.9463 42.5078 49.9209C42.3129 49.9031 42.2723 48.0953 42.3125 41.2559C42.3625 32.7412 42.3691 32.6141 42.7539 32.6643C43.6715 32.784 44.5447 32.9166 45 33.0053C45.2686 33.0576 45.708 33.14 45.9766 33.1881C46.2451 33.2363 46.6846 33.3297 46.9531 33.3955C47.2217 33.4611 47.5732 33.5471 47.7344 33.5863C47.8955 33.6256 48.0713 33.6777 48.125 33.7023C48.1787 33.727 48.3105 33.7674 48.418 33.7924C48.5254 33.8174 48.6793 33.8588 48.7598 33.8848C48.8402 33.9105 48.9941 33.9537 49.1016 33.9805C49.209 34.0072 49.3408 34.0514 49.3945 34.0781C49.4482 34.1049 49.5801 34.149 49.6875 34.1758C49.7949 34.2025 49.9268 34.2467 49.9805 34.2734C50.0342 34.3002 50.166 34.3443 50.2734 34.3711C50.3809 34.3979 50.5127 34.442 50.5664 34.4688C50.6201 34.4955 50.7301 34.5316 50.8105 34.5488C50.891 34.5662 51.1547 34.69 51.3965 34.8244C51.6383 34.9586 51.8359 35.0193 51.8359 34.9594C51.8359 34.8994 52.0557 34.9943 52.3242 35.1703C52.5928 35.3463 52.8125 35.4342 52.8125 35.3656C52.8125 35.2971 53.0322 35.385 53.3008 35.5609C53.5693 35.7369 53.7891 35.8197 53.7891 35.7447C53.7891 35.6699 54.0967 35.7988 54.4727 36.0312C54.8486 36.2637 55.1562 36.4006 55.1562 36.3357C55.1562 36.2707 55.376 36.3615 55.6445 36.5375C55.9131 36.7135 56.1328 36.7963 56.1328 36.7213C56.1328 36.6465 56.4404 36.7754 56.8164 37.0078C57.1924 37.2402 57.5 37.3771 57.5 37.3123C57.5 37.2473 57.7197 37.3381 57.9883 37.5141C58.2568 37.69 58.4766 37.7729 58.4766 37.6979C58.4766 37.623 58.8063 37.7656 59.209 38.0146C59.6119 38.2635 59.9414 38.4408 59.9414 38.4086C59.9414 38.3762 60.0953 38.4088 60.2832 38.4809C60.5348 38.5775 60.5955 38.7484 60.5131 39.1283C60.1074 40.998 60.0275 42.8904 60.2934 44.332C60.3727 44.7617 60.4684 45.2891 60.5062 45.5039C60.5441 45.7188 60.5973 45.9166 60.6244 45.9434C60.6516 45.9701 60.6959 46.0801 60.7227 46.1875C60.7494 46.2949 60.7936 46.4268 60.8203 46.4805C60.8471 46.5342 60.8912 46.666 60.918 46.7734C60.9447 46.8809 60.9889 47.0127 61.0156 47.0664C61.0424 47.1201 61.0754 47.2328 61.0889 47.3168C61.1564 47.7395 61.8791 49.1172 62.0334 49.1172C62.1309 49.1172 62.1562 49.2051 62.0898 49.3125C62.0234 49.4199 62.0623 49.5078 62.176 49.5078C62.2896 49.5078 62.3828 49.5994 62.3828 49.7113C62.3828 49.99 62.6611 50.3166 64.1816 51.8228C65.7738 53.4 66.0197 53.6094 66.2809 53.6094C66.3928 53.6094 66.4844 53.6877 66.4844 53.7836C66.4844 53.8793 66.7041 54.0129 66.9727 54.0803C67.2412 54.1477 67.4609 54.2941 67.4609 54.4059C67.4609 54.5176 67.5488 54.5547 67.6562 54.4883C67.7637 54.4219 67.8516 54.4754 67.8516 54.607C67.8516 54.7387 67.9105 54.7875 67.9824 54.7154C68.0545 54.6436 68.3182 54.7187 68.5684 54.8828C68.8187 55.0467 69.0234 55.1242 69.0234 55.0549C69.0234 54.9855 69.1359 55.0223 69.2736 55.1363C69.4113 55.2506 69.7848 55.3975 70.1037 55.4627C70.4227 55.5279 70.9033 55.6295 71.1719 55.6883C71.8131 55.8289 75.8187 55.8266 76.4453 55.6852C77.5797 55.4293 77.7172 55.3951 77.7637 55.3578C77.7904 55.3361 77.9004 55.2963 78.0078 55.2695C78.1152 55.2428 78.2471 55.1986 78.3008 55.1719C78.3545 55.1451 78.4643 55.109 78.5449 55.0918C78.6256 55.0744 78.8775 54.9566 79.1053 54.8301C79.3328 54.7033 79.5744 54.6553 79.6424 54.723C79.7102 54.7908 79.7656 54.7387 79.7656 54.607C79.7656 54.4754 79.8535 54.4219 79.9609 54.4883C80.0684 54.5547 80.1562 54.5176 80.1562 54.4059C80.1562 54.2941 80.376 54.1477 80.6445 54.0803C80.9131 54.0129 81.1328 53.8793 81.1328 53.7836C81.1328 53.6877 81.2244 53.6094 81.3363 53.6094C81.5752 53.6094 81.6986 53.5066 83.3762 51.9111C84.076 51.2457 84.6484 50.6086 84.6484 50.4951C84.6484 50.3818 84.7383 50.2891 84.8479 50.2891C84.9576 50.2891 85.1537 50.0475 85.2834 49.752C85.4133 49.4566 85.5754 49.1709 85.6436 49.1172C85.8561 48.9502 86.6166 47.3594 86.484 47.3594C86.4148 47.3594 86.4678 47.2275 86.6016 47.0664C86.7354 46.9053 86.7793 46.7734 86.6992 46.7734C86.6191 46.7734 86.6631 46.6416 86.7969 46.4805C86.9307 46.3193 86.9746 46.1875 86.8945 46.1875C86.8145 46.1875 86.8357 46.0777 86.9416 45.9434C87.0477 45.8092 87.1438 45.5674 87.1555 45.4062C87.167 45.2451 87.2389 44.7178 87.3148 44.2344C87.5588 42.6863 87.4695 40.6463 87.0928 39.1562C87.0248 38.8877 86.9373 38.5361 86.898 38.375C86.8588 38.2139 86.809 38.06 86.7875 38.0332C86.7658 38.0064 86.734 37.9184 86.7168 37.8379C86.6994 37.7574 86.5639 37.4717 86.4152 37.2031C86.2666 36.9346 86.1689 36.6891 86.1982 36.6576C86.3064 36.5412 85.7668 35.4453 85.6014 35.4453C85.5068 35.4453 85.4297 35.3135 85.4297 35.1523C85.4297 34.9912 85.3418 34.8594 85.2344 34.8594C85.127 34.8594 85.0391 34.7678 85.0391 34.6559C85.0391 34.3979 84.8299 34.1527 83.3348 32.6574C81.8566 31.1795 81.5936 30.9531 81.3527 30.9531C81.2496 30.9531 81.1361 30.884 81.1002 30.7994C81.024 30.6193 78.7004 29.468 78.6727 29.5965C78.6623 29.6443 78.5084 29.5629 78.3309 29.4156C78.1531 29.2682 78.0078 29.2129 78.0078 29.293C78.0078 29.373 77.8799 29.3322 77.7234 29.2023C77.567 29.0727 77.3533 29.0193 77.2486 29.084C77.1439 29.1488 77.0064 29.118 76.9432 29.0156C76.8801 28.9133 76.6762 28.8232 76.4902 28.8154C73.393 28.6857 71.9723 28.6885 71.6113 28.8246C71.3566 28.9207 71.1719 28.9158 71.1719 28.8131C71.1719 28.7154 70.9781 28.5742 70.7416 28.499C70.5049 28.424 70.191 28.2424 70.0439 28.0953C69.8971 27.9484 69.6512 27.8281 69.4979 27.8281C69.3443 27.8281 69.2188 27.7471 69.2188 27.648C69.2188 27.5488 68.9123 27.3666 68.5379 27.2432C67.7988 26.9992 67.5652 26.7662 67.7539 26.4609C67.9477 26.1475 97.142 26.1959 97.1709 26.5098ZM105.547 28.5117C105.547 29.7471 105.499 30.7578 105.441 30.7578C105.121 30.7578 103.664 29.8625 102.98 29.2449C102.284 28.6158 101.062 26.8158 101.056 26.4121C101.055 26.3316 102.065 26.2656 103.301 26.2656H105.547V28.5117ZM79.293 34.1947C82.3668 36.235 84.0959 40.1885 83.4873 43.785C82.8416 47.6002 79.9672 50.8029 76.3408 51.7475C74.8723 52.1301 72.7449 52.1301 71.2764 51.7475C67.6629 50.8063 64.7746 47.602 64.1381 43.8283C63.9184 42.5264 64.0273 40.1326 64.3063 40.133C64.3764 40.133 65.9277 40.7594 67.7539 41.5248C71.0875 42.9223 71.5561 43.0344 74.1592 43.0576C74.8512 43.0639 75.6641 43.858 75.6641 44.5277C75.6641 44.8246 75.4502 45.2326 75.1473 45.5133C74.4 46.2059 73.2656 46.1615 72.2602 45.4008C70.7645 44.2691 69.0234 44.9164 69.0234 46.6041C69.0234 47.5123 69.957 48.6664 71.1162 49.1908C71.6418 49.4287 71.9473 49.742 72.1729 50.2746C72.6127 51.3133 73.5826 51.6514 74.6398 51.1348C75.1516 50.8846 75.4262 50.5906 75.5543 50.1557C75.6867 49.7061 75.9447 49.4406 76.4863 49.1965C77.3955 48.7863 78.7096 47.4016 79.1207 46.4199C79.5045 45.5035 79.5094 43.5629 79.1303 42.6576C78.9695 42.2738 78.5498 41.6318 78.1977 41.2307L77.5576 40.5016L77.958 39.7801C78.8973 38.0877 78.9119 35.8502 77.9953 34.0537C77.5016 33.0855 77.6457 33.1014 79.293 34.1947ZM50.2654 40.9215C49.9369 41.2283 49.6613 41.55 49.6529 41.6361C49.6445 41.7225 49.5967 41.9 49.5465 42.0307C49.3689 42.4934 49.824 43.3613 50.4756 43.8027C51.0906 44.2195 51.3203 44.2482 53.8297 44.223C55.3111 44.208 56.5234 44.1166 56.5234 44.0197C56.5234 43.923 56.6529 43.8438 56.8113 43.8438C57.2387 43.8438 57.6861 42.8268 57.5932 42.067C57.542 41.6492 57.2982 41.2094 56.9367 40.883C56.3715 40.3725 56.3145 40.3637 53.6121 40.3637H50.8627L50.2654 40.9215ZM90.6211 40.9844C90.1221 41.4551 89.974 41.7457 90.0082 42.1873C90.0746 43.043 90.4555 43.8438 90.7959 43.8438C90.9598 43.8438 91.0938 43.923 91.0938 44.0197C91.0938 44.1166 92.3061 44.208 93.7875 44.223C96.2969 44.2482 96.5266 44.2195 97.1416 43.8027C97.8441 43.3268 98.2453 42.4857 98.0332 41.933C97.9623 41.7486 97.9145 41.5711 97.9268 41.5385C97.9389 41.5061 97.6803 41.2283 97.3518 40.9215L96.7545 40.3637H94.0168H91.2793L90.6211 40.9844ZM43.5443 54.3738C44.6773 55.0236 45.7824 56.1742 46.3588 57.3037C46.5783 57.734 46.7578 58.1334 46.7578 58.1914C46.7578 58.2494 45.7471 58.2969 44.5117 58.2969H42.2656V56.0508C42.2656 54.8154 42.3316 53.8055 42.4121 53.8064C42.4926 53.8076 43.0021 54.0629 43.5443 54.3738ZM105.547 56.0508V58.2969H103.301C102.065 58.2969 101.055 58.2494 101.055 58.1914C101.055 57.8705 101.95 56.4139 102.568 55.7303C103.197 55.034 104.997 53.8115 105.4 53.8064C105.481 53.8055 105.547 54.8154 105.547 56.0508ZM104.109 64.8664C103.61 65.365 103.594 65.4555 103.594 67.6984C103.594 69.0051 103.514 70.0156 103.411 70.0156C103.311 70.0156 101.078 69.2779 98.4502 68.3764C91.4715 65.9822 90.7779 65.8354 86.4062 65.825C82.5535 65.8158 81.299 66.0004 78.2445 67.026C76.1492 67.7295 62.2111 74.125 61.3637 74.7717C59.6998 76.0416 58.7529 78.3152 58.9182 80.6447C58.9721 81.4051 59.0783 82.1773 59.1545 82.3605C59.2746 82.6494 59.2164 82.6719 58.7174 82.5287C58.4008 82.4379 54.3191 80.3756 49.6475 77.9457C44.9756 75.5158 40.7385 73.3865 40.2316 73.2139C39.5539 72.9828 38.8359 72.9223 37.5164 72.9848C35.9918 73.0568 35.5443 73.1609 34.5336 73.6779C30.7658 75.6053 29.3432 80.1871 31.3131 84.0486C32.1881 85.7639 32.975 86.2939 44.0539 92.632C49.925 95.9908 55.267 98.9576 55.9248 99.225C57.6648 99.932 59.6137 100.289 61.7324 100.289C63.5568 100.289 65.7104 99.9529 99.1504 94.4486L103.594 93.7172V96.7812C103.594 99.8313 103.596 99.8475 104.109 100.36L104.624 100.875H111.797H118.97L119.485 100.36L120 99.8451V82.6133V65.3814L119.485 64.8664L118.97 64.3516H111.797H104.624L104.109 64.8664ZM116.094 82.6133V96.9688H111.797H107.5V82.6133V68.2578H111.797H116.094V82.6133ZM89.3359 69.932C90.3275 70.0629 90.982 70.1719 91.0938 70.2244C91.1475 70.2498 91.2793 70.2875 91.3867 70.3084C91.4941 70.3293 91.7139 70.4027 91.875 70.4717C92.0361 70.5406 92.3877 70.6355 92.6562 70.6824C92.9248 70.7295 93.1666 70.7744 93.1934 70.7824C93.2201 70.7904 93.2727 70.7748 93.3098 70.748C93.3471 70.7213 93.5229 70.8199 93.7004 70.9672C93.8781 71.1146 94.0234 71.1699 94.0234 71.0898C94.0234 71.0098 94.1457 71.0457 94.2949 71.1697C94.601 71.4238 99.1016 72.9715 99.1016 72.8228C99.1016 72.7701 99.2115 72.7967 99.3457 72.882C99.4801 72.9672 99.6557 73.0494 99.7363 73.0645C99.817 73.0795 99.9268 73.1139 99.9805 73.1406C100.034 73.1674 100.166 73.2115 100.273 73.2383C100.381 73.265 100.513 73.3092 100.566 73.3359C100.62 73.3627 100.752 73.4068 100.859 73.4336C100.967 73.4604 101.099 73.5045 101.152 73.5312C101.206 73.558 101.316 73.599 101.396 73.6221C101.477 73.6453 101.851 73.7971 102.227 73.9596C102.603 74.1219 103.064 74.309 103.252 74.3752C103.57 74.4869 103.594 75.0293 103.594 82.008V89.5205L103.154 89.6639C102.912 89.7428 102.539 89.8301 102.324 89.858C102.109 89.8861 101.67 89.9537 101.348 90.0084C101.025 90.0631 100.454 90.1549 100.078 90.2123C99.7021 90.2697 99.1525 90.3592 98.8568 90.4109C98.1723 90.5311 97.3203 90.673 96.5131 90.8016C96.1643 90.8572 95.6152 90.9465 95.293 91.0002C94.9707 91.0537 94.4434 91.1371 94.1211 91.1852C93.3514 91.3004 92.31 91.4648 91.582 91.5863C91.2598 91.64 90.7324 91.7279 90.4102 91.7816C90.0879 91.8354 89.5605 91.9232 89.2383 91.977C88.916 92.0307 88.4104 92.117 88.1146 92.1688C87.8189 92.2207 87.2916 92.3086 86.9428 92.3641C85.9637 92.5201 85.1838 92.6518 84.6484 92.7514C84.3799 92.8014 83.8742 92.8877 83.5248 92.9434C83.1754 92.9988 82.648 93.0855 82.3529 93.1355C82.0578 93.1857 81.4648 93.2795 81.0352 93.3439C80.6055 93.4084 79.9902 93.5008 79.668 93.549C79.3457 93.5975 78.8623 93.6779 78.5938 93.7279C78.0561 93.8279 77.2719 93.9604 76.2982 94.1152C75.9488 94.1707 75.3775 94.2617 75.0287 94.3172C74.6799 94.3729 74.1525 94.4607 73.8568 94.5125C73.5611 94.5645 73.0555 94.6508 72.7332 94.7045C72.4109 94.7582 71.8836 94.8461 71.5613 94.8998C71.2391 94.9535 70.7117 95.0414 70.3895 95.0951C70.0672 95.1488 69.5621 95.234 69.267 95.284C68.9719 95.3342 68.3789 95.4279 67.9492 95.4924C67.5195 95.5568 66.9482 95.6461 66.6797 95.6908C66.4111 95.7354 65.8838 95.8189 65.5078 95.8764C65.1318 95.9338 64.5605 96.0254 64.2383 96.0797C63.4848 96.207 60.0904 96.2201 59.4531 96.0982C58.7383 95.9615 58.1904 95.8322 58.1348 95.7875C58.108 95.7658 58.0199 95.734 57.9395 95.7168C57.859 95.6994 57.5951 95.5756 57.3535 95.4412C57.1117 95.307 56.9127 95.2662 56.9111 95.3506C56.9094 95.435 56.8436 95.4062 56.7646 95.2871C56.5914 95.0252 55.3133 94.333 55.1074 94.3895C55.027 94.4115 54.9609 94.3559 54.9609 94.2658C54.9609 94.0857 53.975 93.5598 53.7402 93.6143C53.6598 93.633 53.5938 93.5746 53.5938 93.4846C53.5938 93.3045 52.6078 92.7785 52.373 92.833C52.2926 92.8518 52.2266 92.7934 52.2266 92.7033C52.2266 92.5232 51.2406 91.9973 51.0059 92.0518C50.9254 92.0705 50.8594 92.0121 50.8594 91.9221C50.8594 91.742 49.8734 91.216 49.6387 91.2705C49.5582 91.2893 49.4922 91.2309 49.4922 91.1408C49.4922 90.9961 48.5061 90.4479 48.3621 90.5123C48.3314 90.5262 48.1713 90.4023 48.0064 90.2375C47.8414 90.0725 47.5809 89.9375 47.4275 89.9375C47.274 89.9375 47.1484 89.8443 47.1484 89.7307C47.1484 89.617 47.0605 89.5781 46.9531 89.6445C46.8457 89.7109 46.7578 89.6738 46.7578 89.5621C46.7578 89.4504 46.5381 89.3039 46.2695 89.2365C46.001 89.1691 45.7812 89.0303 45.7812 88.9283C45.7812 88.8262 45.6934 88.7969 45.5859 88.8633C45.4785 88.9297 45.3906 88.8926 45.3906 88.7809C45.3906 88.6691 45.1709 88.5227 44.9023 88.4553C44.6338 88.3879 44.4141 88.249 44.4141 88.1471C44.4141 88.0449 44.3262 88.0156 44.2188 88.082C44.1113 88.1484 44.0234 88.1113 44.0234 87.9996C44.0234 87.8879 43.8037 87.7414 43.5352 87.674C43.2666 87.6066 43.0469 87.4678 43.0469 87.3658C43.0469 87.2637 42.959 87.2344 42.8516 87.3008C42.7441 87.3672 42.6562 87.3301 42.6562 87.2184C42.6562 87.1066 42.4365 86.9602 42.168 86.8928C41.8994 86.8254 41.6797 86.6865 41.6797 86.5846C41.6797 86.4824 41.5918 86.4531 41.4844 86.5195C41.377 86.5859 41.2891 86.5488 41.2891 86.4371C41.2891 86.3254 41.0693 86.1789 40.8008 86.1115C40.5322 86.0441 40.3125 85.9053 40.3125 85.8033C40.3125 85.7012 40.2246 85.6719 40.1172 85.7383C40.0098 85.8047 39.9219 85.7676 39.9219 85.6559C39.9219 85.5441 39.7021 85.3977 39.4336 85.3303C39.165 85.2629 38.9453 85.124 38.9453 85.0221C38.9453 84.9199 38.8574 84.8906 38.75 84.957C38.6426 85.0234 38.5547 84.9863 38.5547 84.8746C38.5547 84.7629 38.335 84.6164 38.0664 84.549C37.7979 84.4816 37.5781 84.3621 37.5781 84.2836C37.5781 84.1193 36.577 83.6023 36.3574 83.6533C36.277 83.6721 36.2109 83.5996 36.2109 83.4922C36.2109 83.3848 36.123 83.2969 36.0156 83.2969C35.9082 83.2969 35.6445 83.1211 35.4297 82.9062C35.2148 82.6914 35.0391 82.4277 35.0391 82.3203C35.0391 82.2129 34.9512 82.125 34.8438 82.125C34.7363 82.125 34.6701 82.0592 34.6965 81.9785C34.723 81.8979 34.6262 81.474 34.4812 81.0363C34.2322 80.2836 34.2498 80.173 34.8068 78.9855C35.3162 77.9 35.5102 77.6814 36.2428 77.367C37.3285 76.9014 39.5312 76.8539 39.5312 77.2963C39.5312 77.3867 39.6191 77.4062 39.7266 77.3398C39.834 77.2734 39.9219 77.3174 39.9219 77.4375C39.9219 77.5576 40.0098 77.6016 40.1172 77.5352C40.2246 77.4688 40.3125 77.5127 40.3125 77.6328C40.3125 77.7529 40.4004 77.7969 40.5078 77.7305C40.6152 77.6641 40.7031 77.708 40.7031 77.8281C40.7031 77.9482 40.7836 77.9969 40.8818 77.9361C40.9801 77.8754 41.0898 77.9035 41.126 77.9984C41.2037 78.2037 44.4461 79.8754 44.6582 79.8197C44.7387 79.7986 44.8047 79.8744 44.8047 79.9881C44.8047 80.1018 44.8926 80.1406 45 80.0742C45.1074 80.0078 45.1953 80.0518 45.1953 80.1719C45.1953 80.292 45.2832 80.3359 45.3906 80.2695C45.498 80.2031 45.5859 80.2471 45.5859 80.3672C45.5859 80.4873 45.6738 80.5312 45.7812 80.4648C45.8887 80.3984 45.9766 80.4424 45.9766 80.5625C45.9766 80.6826 46.057 80.7313 46.1553 80.6705C46.2535 80.6098 46.3633 80.6377 46.3994 80.7326C46.4773 80.9379 49.3297 82.4146 49.541 82.359C49.6215 82.3377 49.6875 82.4135 49.6875 82.5271C49.6875 82.6408 49.7754 82.6797 49.8828 82.6133C49.9902 82.5469 50.0781 82.5908 50.0781 82.7109C50.0781 82.8311 50.166 82.875 50.2734 82.8086C50.3809 82.7422 50.4688 82.7861 50.4688 82.9062C50.4688 83.0264 50.5492 83.075 50.6475 83.0143C50.7457 82.9535 50.8555 82.9816 50.8916 83.0766C50.9693 83.2818 54.2117 84.9535 54.4238 84.8979C54.5043 84.8768 54.5703 84.9525 54.5703 85.0662C54.5703 85.1799 54.6582 85.2188 54.7656 85.1523C54.873 85.0859 54.9609 85.1299 54.9609 85.25C54.9609 85.3701 55.0488 85.4141 55.1562 85.3477C55.2637 85.2812 55.3516 85.3348 55.3516 85.4664C55.3516 85.598 55.4061 85.6514 55.4725 85.5848C55.5391 85.5184 55.7219 85.5924 55.8789 85.7494C56.0359 85.9064 56.2451 85.985 56.3439 85.9238C56.4426 85.8629 56.5234 85.8953 56.5234 85.9959C56.5234 86.3436 58.1029 86.5779 60.6779 86.6121C62.099 86.6311 63.5254 86.6881 63.8477 86.7389C65.0156 86.9232 67.083 86.9502 67.1865 86.7824C67.2449 86.6881 67.3648 86.6555 67.4531 86.71C67.5971 86.799 72.3387 85.2605 73.8086 84.648C74.1309 84.5137 74.4604 84.3856 74.541 84.3631C74.6217 84.3406 74.7314 84.3002 74.7852 84.2734C74.8389 84.2467 74.9707 84.2025 75.0781 84.1758C75.1855 84.149 75.3174 84.1049 75.3711 84.0781C75.4248 84.0514 75.5566 84.0072 75.6641 83.9805C75.7715 83.9537 75.9033 83.9096 75.957 83.8828C76.0107 83.8561 76.1426 83.8119 76.25 83.7852C76.3574 83.7584 76.4893 83.7143 76.543 83.6875C76.5967 83.6607 76.7285 83.6166 76.8359 83.5898C76.9434 83.5631 77.0752 83.5189 77.1289 83.4922C77.1826 83.4654 77.3145 83.4213 77.4219 83.3945C77.5293 83.3678 77.6611 83.3236 77.7148 83.2969C77.7686 83.2701 77.9004 83.226 78.0078 83.1992C78.1152 83.1725 78.2471 83.1283 78.3008 83.1016C78.3545 83.0748 78.4863 83.0307 78.5938 83.0039C78.7012 82.9771 78.833 82.933 78.8867 82.9062C78.9404 82.8795 79.0502 82.8443 79.1309 82.8283C79.9721 82.6611 81.1328 82.2318 81.1328 82.0881C81.1328 81.9883 81.2051 81.9512 81.2934 82.0059C81.7449 82.285 82.6967 80.3512 82.327 79.9057C82.2092 79.7637 82.1705 79.5898 82.2412 79.5191C82.3119 79.4484 82.2672 79.3906 82.142 79.3906C82.0166 79.3906 81.9141 79.2588 81.9141 79.0977C81.9141 78.9365 81.7822 78.8047 81.6211 78.8047C81.46 78.8047 81.3281 78.7314 81.3281 78.642C81.3281 78.4914 81.1215 78.4318 80.498 78.4025C80.3045 78.3936 79.7662 78.4896 79.4238 78.5943C79.3971 78.6027 79.3445 78.5873 79.3074 78.5605C79.2701 78.5338 79.0943 78.6324 78.9168 78.7797C78.7391 78.9271 78.5938 78.9824 78.5938 78.9023C78.5938 78.8223 78.4619 78.8662 78.3008 79C78.1396 79.1338 78.0078 79.1777 78.0078 79.0977C78.0078 79.0176 77.876 79.0615 77.7148 79.1953C77.5537 79.3291 77.4219 79.373 77.4219 79.293C77.4219 79.2129 77.29 79.2568 77.1289 79.3906C76.9678 79.5244 76.8359 79.5684 76.8359 79.4883C76.8359 79.4082 76.7041 79.4521 76.543 79.5859C76.3818 79.7197 76.25 79.7637 76.25 79.6836C76.25 79.6035 76.1182 79.6475 75.957 79.7812C75.7959 79.915 75.6641 79.959 75.6641 79.8789C75.6641 79.7988 75.5322 79.8428 75.3711 79.9766C75.21 80.1104 75.0781 80.1543 75.0781 80.0742C75.0781 79.9941 74.9463 80.0381 74.7852 80.1719C74.624 80.3057 74.4922 80.3668 74.4922 80.3078C74.4922 80.1752 67.7041 82.4344 67.3928 82.6705C67.2691 82.7641 66.7293 82.8635 66.193 82.8912C65.6568 82.9189 65.1574 82.9789 65.0834 83.0248C65.0094 83.0705 64.8928 83.0172 64.8242 82.9062C64.7557 82.7953 64.6178 82.7551 64.5178 82.817C64.4178 82.8787 64.3359 82.8465 64.3359 82.7453C64.3359 82.6439 64.1654 82.5166 63.9568 82.4621C63.1256 82.2447 62.6543 80.0639 63.1883 78.9051C63.4508 78.3354 64.1406 77.5064 64.1406 77.7607C64.1406 77.8311 64.3016 77.743 64.4982 77.565C64.6949 77.3869 64.9146 77.3002 64.9865 77.3719C65.0584 77.4437 65.1172 77.4 65.1172 77.2748C65.1172 77.1494 65.1832 77.0647 65.2637 77.0865C65.5178 77.1553 66.875 76.5855 66.875 76.4102C66.875 76.318 66.9629 76.2969 67.0703 76.3633C67.1777 76.4297 67.2656 76.3908 67.2656 76.2771C67.2656 76.1635 67.3316 76.0881 67.4121 76.11C67.6662 76.1787 69.0234 75.609 69.0234 75.4336C69.0234 75.3414 69.1113 75.3203 69.2188 75.3867C69.3262 75.4531 69.4141 75.4143 69.4141 75.3006C69.4141 75.1869 69.4801 75.1115 69.5605 75.1334C69.8146 75.2021 71.1719 74.6324 71.1719 74.457C71.1719 74.3648 71.2598 74.3438 71.3672 74.4102C71.4746 74.4766 71.5625 74.4377 71.5625 74.324C71.5625 74.2104 71.6283 74.135 71.709 74.1568C71.9631 74.2256 73.3203 73.6559 73.3203 73.4805C73.3203 73.3883 73.4082 73.3672 73.5156 73.4336C73.623 73.5 73.7109 73.4465 73.7109 73.3148C73.7109 73.1832 73.766 73.1307 73.8334 73.1979C73.9008 73.2652 74.2303 73.174 74.5658 72.9951C74.9014 72.816 75.2416 72.6877 75.3223 72.7098C75.4029 72.7318 75.4688 72.6475 75.4688 72.5221C75.4688 72.3969 75.5236 72.349 75.5906 72.416C75.6576 72.4832 76.075 72.3482 76.5184 72.1162C76.9615 71.8842 77.39 71.7123 77.4707 71.734C77.5514 71.7557 77.6172 71.6855 77.6172 71.5781C77.6172 71.4707 77.683 71.401 77.7637 71.4232C77.9607 71.4777 80.5889 70.5934 80.8578 70.382C80.9752 70.2898 81.123 70.2664 81.1865 70.3299C81.2502 70.3934 81.4162 70.3748 81.5559 70.2885C81.8158 70.1279 82.0533 70.0828 83.3355 69.9504C83.7414 69.9086 84.1078 69.8402 84.1496 69.7984C84.2453 69.7031 88.4158 69.8105 89.3359 69.932ZM110.695 71.668C109.244 72.6848 110.018 75.0938 111.797 75.0938C113.083 75.0938 114.032 73.7066 113.547 72.5354C113.228 71.7656 112.647 71.3828 111.797 71.3828C111.415 71.3828 110.919 71.5111 110.695 71.668Z" fill="white"/>
<path fill-rule="evenodd" clip-rule="evenodd" d="M20.5148 1.38984L20 1.90488V19.1367V36.3686L20.5148 36.8836L21.0299 37.3984H28.2031H35.3764L35.8914 36.8836C36.3781 36.3969 36.4062 36.2633 36.4062 34.4422V32.5156H37.3828H38.3594V46.8445V61.1732L38.8742 61.6883L39.3893 62.2031H73.9062H108.423L108.938 61.6883L109.453 61.1732V42.2812V23.3893L108.938 22.8742C108.487 22.4229 108.266 22.3594 107.146 22.3594H105.869L91.6725 14.7424C83.8645 10.5529 76.8268 6.85625 76.033 6.52773C75.2393 6.19902 73.7549 5.69707 72.7344 5.4123L70.8789 4.89434L53.6426 4.83086L36.4062 4.76719V3.33594C36.4062 2.05 36.3539 1.85254 35.8914 1.38984L35.3764 0.875H28.2031H21.0299L20.5148 1.38984ZM32.5 19.1367V33.4922H28.2031H23.9062V19.1367V4.78125H28.2031H32.5V19.1367ZM70 8.92832C70.2686 8.975 70.6641 9.06816 70.8789 9.13555C71.0938 9.20293 71.5332 9.31016 71.8555 9.37363C72.6059 9.52168 72.7127 9.5543 73.418 9.84883C73.7402 9.9834 74.0918 10.1152 74.1992 10.142C74.615 10.2453 79.0943 12.4877 79.3115 12.7014C79.4377 12.8256 80.0309 13.126 80.6299 13.3689C81.2287 13.6121 81.7188 13.8768 81.7188 13.957C81.7188 14.0373 82.2664 14.3486 82.9357 14.649C83.6053 14.9494 84.258 15.3006 84.3867 15.4291C84.5152 15.5576 85.198 15.9084 85.9041 16.2084C86.61 16.5084 87.1875 16.8188 87.1875 16.898C87.1875 16.9771 87.7588 17.2848 88.457 17.5816C89.1553 17.8783 89.7266 18.1838 89.7266 18.2604C89.7266 18.3371 90.276 18.6447 90.9473 18.9441C91.6188 19.2434 92.2152 19.5602 92.2732 19.6479C92.3311 19.7355 92.9902 20.0842 93.7381 20.4225C94.4857 20.7607 95.1447 21.1119 95.2021 21.2027C95.2598 21.2936 95.7871 21.5859 96.374 21.8523L97.4414 22.3369L82.4023 22.3707C74.1309 22.3893 67.2754 22.4248 67.168 22.4498C67.0605 22.4748 66.9066 22.5195 66.8262 22.5494C66.6188 22.626 66.3221 22.6971 66.0904 22.7256C65.8625 22.7535 64.1531 24.4963 64.1162 24.7381C64.0736 25.0174 63.9959 25.2873 63.9434 25.3379C63.8365 25.4406 63.818 27.5447 63.9223 27.7305C63.9826 27.8379 64.0516 28.0561 64.0756 28.2152C64.0996 28.3744 64.2121 28.5355 64.3254 28.5732C64.4385 28.6109 64.5312 28.7469 64.5312 28.8752C64.5312 29.2646 65.8684 30.3027 67.2656 30.9984C67.5342 31.1322 67.8701 31.3523 68.0119 31.4879C68.1539 31.6234 68.3957 31.7344 68.549 31.7344C68.7025 31.7344 68.8281 31.8164 68.8281 31.9166C68.8281 32.0168 69.0219 32.1602 69.2584 32.2354C69.4951 32.3104 69.809 32.492 69.9561 32.6391C70.1029 32.7859 70.3488 32.9062 70.5022 32.9062C70.6557 32.9062 70.7812 32.9883 70.7812 33.0885C70.7812 33.1887 70.975 33.332 71.2115 33.4072C71.4482 33.4822 71.7621 33.6639 71.9092 33.8109C72.0561 33.9578 72.302 34.0781 72.4553 34.0781C72.6088 34.0781 72.7344 34.1602 72.7344 34.2604C72.7344 34.3605 72.932 34.5031 73.1738 34.5773C73.7365 34.7502 74.8113 35.902 74.8391 36.3621C74.8508 36.5561 74.7693 37.0768 74.658 37.5191C74.3889 38.5896 73.2799 39.2736 72.185 39.0443C71.198 38.8377 70.6754 38.6375 69.5117 38.0201C69.1895 37.8492 68.9258 37.7354 68.9258 37.7672C68.9258 37.8453 67.8811 37.4211 67.2217 37.0752C66.9289 36.9217 66.6213 36.7879 66.5381 36.7779C66.3031 36.7496 65.4656 36.407 64.8779 36.0986C64.5852 35.9451 64.3215 35.8314 64.292 35.8459C64.2143 35.8838 63.1549 35.4477 62.5342 35.1221C62.2414 34.9686 61.9338 34.8348 61.8506 34.8248C61.6156 34.7965 60.7781 34.4539 60.1904 34.1455C59.8977 33.992 59.59 33.8582 59.5068 33.8482C59.2719 33.8199 58.4344 33.4773 57.8467 33.1689C57.5539 33.0154 57.2463 32.8816 57.1631 32.8717C56.9281 32.8434 56.0906 32.5008 55.5029 32.1924C55.2102 32.0389 54.9025 31.9051 54.8193 31.8951C54.7361 31.885 54.4922 31.808 54.2773 31.7238C53.6879 31.493 53.1172 31.2826 53.0078 31.2561C52.9541 31.243 52.7125 31.1225 52.4707 30.9881C52.2289 30.8539 52.0312 30.7963 52.0312 30.8602C52.0312 30.924 51.9215 30.9064 51.7871 30.8211C51.6529 30.7359 51.477 30.6537 51.3965 30.6387C51.316 30.6236 51.2061 30.5893 51.1523 30.5625C51.0986 30.5357 50.9668 30.4916 50.8594 30.4648C50.752 30.4381 50.642 30.3982 50.6152 30.3766C50.5697 30.3398 50.2139 30.2455 49.6387 30.1176C49.5045 30.0877 49.3066 30.0102 49.1992 29.9451C49.008 29.8297 48.0705 29.5996 47.1979 29.4543C46.9564 29.4141 46.5391 29.3371 46.2705 29.2834C43.898 28.809 42.7625 28.6859 38.8965 28.4848L36.4062 28.3551V18.5125V8.66992L52.959 8.75684C62.0631 8.80449 69.7314 8.88184 70 8.92832ZM41.7703 13.2713C41.267 13.7461 41.0938 14.0727 41.0938 14.5469C41.0938 15.5102 42.1848 16.4748 43.2109 16.4187C44.3566 16.3562 45.0713 15.5184 44.9443 14.3871C44.8242 13.3164 44.2287 12.7305 43.2041 12.6746C42.5861 12.6408 42.3225 12.7506 41.7703 13.2713ZM48.6557 13.2031C48.3102 13.5334 48.0381 13.8609 48.0514 13.9311C48.0645 14.0012 48.0332 14.1686 47.9816 14.3027C47.9301 14.4371 47.9301 14.6568 47.9816 14.791C48.0332 14.9254 48.0803 15.1076 48.0863 15.1961C48.0924 15.2846 48.3643 15.6123 48.6906 15.924L49.284 16.491L57.074 16.4908C62.7777 16.4906 64.9986 16.427 65.3666 16.2533C65.9502 15.9779 66.4844 15.1625 66.4844 14.5469C66.4844 13.9312 65.9502 13.1158 65.3666 12.8404C64.9986 12.6668 62.7777 12.6031 57.074 12.6029L49.284 12.6027L48.6557 13.2031ZM97.1709 26.5098C97.1965 26.7854 97.2584 27.0746 97.3385 27.291C97.3682 27.3715 97.4066 27.5035 97.4238 27.584C97.4412 27.6645 97.5533 27.9062 97.6732 28.1211C97.7932 28.3359 97.8869 28.5557 97.8818 28.6094C97.8547 28.8912 98.176 29.5859 98.3334 29.5859C98.4336 29.5859 98.5156 29.7178 98.5156 29.8789C98.5156 30.04 98.6035 30.1719 98.7109 30.1719C98.8184 30.1719 98.9062 30.2668 98.9062 30.3828C98.9062 30.6578 101.155 32.9062 101.43 32.9062C101.546 32.9062 101.641 32.9941 101.641 33.1016C101.641 33.209 101.772 33.2969 101.934 33.2969C102.095 33.2969 102.227 33.3789 102.227 33.4791C102.227 33.5793 102.424 33.724 102.666 33.8006C102.908 33.8773 103.105 33.9123 103.105 33.8785C103.105 33.8445 103.325 33.9385 103.594 34.0871C103.862 34.2357 104.148 34.3713 104.229 34.3887C104.309 34.4059 104.441 34.4443 104.521 34.474C104.738 34.5541 105.027 34.616 105.303 34.6416C105.66 34.6744 105.66 49.8881 105.303 49.9209C105.027 49.9465 104.738 50.0084 104.521 50.0885C104.441 50.1182 104.309 50.1566 104.229 50.1738C104.148 50.1912 103.862 50.3268 103.594 50.4754C103.325 50.624 103.062 50.7318 103.008 50.715C102.791 50.6469 102.227 50.9133 102.227 51.0834C102.227 51.1836 102.095 51.2656 101.934 51.2656C101.772 51.2656 101.641 51.3535 101.641 51.4609C101.641 51.5684 101.553 51.6562 101.445 51.6562C101.338 51.6562 101.088 51.8102 100.889 51.998C100.69 52.1859 100.36 52.4848 100.156 52.6619C99.607 53.1385 98.9062 54.0074 98.9062 54.2119C98.9062 54.3102 98.8184 54.3906 98.7109 54.3906C98.6035 54.3906 98.5156 54.5225 98.5156 54.6836C98.5156 54.8447 98.4385 54.9766 98.3439 54.9766C98.1637 54.9766 97.7238 56.0008 97.5473 56.832C97.5244 56.9395 97.4129 57.1393 97.2992 57.2762C97.1857 57.4131 97.1484 57.5809 97.2166 57.6488C97.2846 57.717 97.2424 57.8906 97.1228 58.0348C96.8121 58.4092 50.6762 58.4271 50.6416 58.0527C50.616 57.7771 50.5541 57.4879 50.474 57.2715C50.4443 57.1908 50.4059 57.0592 50.3887 56.9785C50.3713 56.8979 50.2357 56.6123 50.0871 56.3438C49.9385 56.0752 49.8307 55.8115 49.8475 55.7578C49.9156 55.541 49.6492 54.9766 49.4791 54.9766C49.3789 54.9766 49.2969 54.8447 49.2969 54.6836C49.2969 54.5225 49.209 54.3906 49.1016 54.3906C48.9941 54.3906 48.9062 54.3027 48.9062 54.1953C48.9062 54.0879 48.7525 53.8375 48.5645 53.6387C48.3764 53.44 48.0777 53.1104 47.9006 52.9062C47.424 52.357 46.5551 51.6562 46.3506 51.6562C46.2523 51.6562 46.1719 51.5684 46.1719 51.4609C46.1719 51.3535 46.04 51.2656 45.8789 51.2656C45.7178 51.2656 45.5859 51.1836 45.5859 51.0834C45.5859 50.926 44.8912 50.6047 44.6094 50.6318C44.5557 50.6369 44.3359 50.5432 44.1211 50.4232C43.9062 50.3033 43.6645 50.1912 43.584 50.1738C43.5035 50.1566 43.3715 50.1182 43.291 50.0885C43.0738 50.008 42.785 49.9463 42.5078 49.9209C42.3129 49.9031 42.2723 48.0953 42.3125 41.2559C42.3625 32.7412 42.3691 32.6141 42.7539 32.6643C43.6715 32.784 44.5447 32.9166 45 33.0053C45.2686 33.0576 45.708 33.14 45.9766 33.1881C46.2451 33.2363 46.6846 33.3297 46.9531 33.3955C47.2217 33.4611 47.5732 33.5471 47.7344 33.5863C47.8955 33.6256 48.0713 33.6777 48.125 33.7023C48.1787 33.727 48.3105 33.7674 48.418 33.7924C48.5254 33.8174 48.6793 33.8588 48.7598 33.8848C48.8402 33.9105 48.9941 33.9537 49.1016 33.9805C49.209 34.0072 49.3408 34.0514 49.3945 34.0781C49.4482 34.1049 49.5801 34.149 49.6875 34.1758C49.7949 34.2025 49.9268 34.2467 49.9805 34.2734C50.0342 34.3002 50.166 34.3443 50.2734 34.3711C50.3809 34.3979 50.5127 34.442 50.5664 34.4688C50.6201 34.4955 50.7301 34.5316 50.8105 34.5488C50.891 34.5662 51.1547 34.69 51.3965 34.8244C51.6383 34.9586 51.8359 35.0193 51.8359 34.9594C51.8359 34.8994 52.0557 34.9943 52.3242 35.1703C52.5928 35.3463 52.8125 35.4342 52.8125 35.3656C52.8125 35.2971 53.0322 35.385 53.3008 35.5609C53.5693 35.7369 53.7891 35.8197 53.7891 35.7447C53.7891 35.6699 54.0967 35.7988 54.4727 36.0312C54.8486 36.2637 55.1562 36.4006 55.1562 36.3357C55.1562 36.2707 55.376 36.3615 55.6445 36.5375C55.9131 36.7135 56.1328 36.7963 56.1328 36.7213C56.1328 36.6465 56.4404 36.7754 56.8164 37.0078C57.1924 37.2402 57.5 37.3771 57.5 37.3123C57.5 37.2473 57.7197 37.3381 57.9883 37.5141C58.2568 37.69 58.4766 37.7729 58.4766 37.6979C58.4766 37.623 58.8063 37.7656 59.209 38.0146C59.6119 38.2635 59.9414 38.4408 59.9414 38.4086C59.9414 38.3762 60.0953 38.4088 60.2832 38.4809C60.5348 38.5775 60.5955 38.7484 60.5131 39.1283C60.1074 40.998 60.0275 42.8904 60.2934 44.332C60.3727 44.7617 60.4684 45.2891 60.5062 45.5039C60.5441 45.7188 60.5973 45.9166 60.6244 45.9434C60.6516 45.9701 60.6959 46.0801 60.7227 46.1875C60.7494 46.2949 60.7936 46.4268 60.8203 46.4805C60.8471 46.5342 60.8912 46.666 60.918 46.7734C60.9447 46.8809 60.9889 47.0127 61.0156 47.0664C61.0424 47.1201 61.0754 47.2328 61.0889 47.3168C61.1564 47.7395 61.8791 49.1172 62.0334 49.1172C62.1309 49.1172 62.1562 49.2051 62.0898 49.3125C62.0234 49.4199 62.0623 49.5078 62.176 49.5078C62.2896 49.5078 62.3828 49.5994 62.3828 49.7113C62.3828 49.99 62.6611 50.3166 64.1816 51.8228C65.7738 53.4 66.0197 53.6094 66.2809 53.6094C66.3928 53.6094 66.4844 53.6877 66.4844 53.7836C66.4844 53.8793 66.7041 54.0129 66.9727 54.0803C67.2412 54.1477 67.4609 54.2941 67.4609 54.4059C67.4609 54.5176 67.5488 54.5547 67.6562 54.4883C67.7637 54.4219 67.8516 54.4754 67.8516 54.607C67.8516 54.7387 67.9105 54.7875 67.9824 54.7154C68.0545 54.6436 68.3182 54.7187 68.5684 54.8828C68.8187 55.0467 69.0234 55.1242 69.0234 55.0549C69.0234 54.9855 69.1359 55.0223 69.2736 55.1363C69.4113 55.2506 69.7848 55.3975 70.1037 55.4627C70.4227 55.5279 70.9033 55.6295 71.1719 55.6883C71.8131 55.8289 75.8187 55.8266 76.4453 55.6852C77.5797 55.4293 77.7172 55.3951 77.7637 55.3578C77.7904 55.3361 77.9004 55.2963 78.0078 55.2695C78.1152 55.2428 78.2471 55.1986 78.3008 55.1719C78.3545 55.1451 78.4643 55.109 78.5449 55.0918C78.6256 55.0744 78.8775 54.9566 79.1053 54.8301C79.3328 54.7033 79.5744 54.6553 79.6424 54.723C79.7102 54.7908 79.7656 54.7387 79.7656 54.607C79.7656 54.4754 79.8535 54.4219 79.9609 54.4883C80.0684 54.5547 80.1562 54.5176 80.1562 54.4059C80.1562 54.2941 80.376 54.1477 80.6445 54.0803C80.9131 54.0129 81.1328 53.8793 81.1328 53.7836C81.1328 53.6877 81.2244 53.6094 81.3363 53.6094C81.5752 53.6094 81.6986 53.5066 83.3762 51.9111C84.076 51.2457 84.6484 50.6086 84.6484 50.4951C84.6484 50.3818 84.7383 50.2891 84.8479 50.2891C84.9576 50.2891 85.1537 50.0475 85.2834 49.752C85.4133 49.4566 85.5754 49.1709 85.6436 49.1172C85.8561 48.9502 86.6166 47.3594 86.484 47.3594C86.4148 47.3594 86.4678 47.2275 86.6016 47.0664C86.7354 46.9053 86.7793 46.7734 86.6992 46.7734C86.6191 46.7734 86.6631 46.6416 86.7969 46.4805C86.9307 46.3193 86.9746 46.1875 86.8945 46.1875C86.8145 46.1875 86.8357 46.0777 86.9416 45.9434C87.0477 45.8092 87.1438 45.5674 87.1555 45.4062C87.167 45.2451 87.2389 44.7178 87.3148 44.2344C87.5588 42.6863 87.4695 40.6463 87.0928 39.1562C87.0248 38.8877 86.9373 38.5361 86.898 38.375C86.8588 38.2139 86.809 38.06 86.7875 38.0332C86.7658 38.0064 86.734 37.9184 86.7168 37.8379C86.6994 37.7574 86.5639 37.4717 86.4152 37.2031C86.2666 36.9346 86.1689 36.6891 86.1982 36.6576C86.3064 36.5412 85.7668 35.4453 85.6014 35.4453C85.5068 35.4453 85.4297 35.3135 85.4297 35.1523C85.4297 34.9912 85.3418 34.8594 85.2344 34.8594C85.127 34.8594 85.0391 34.7678 85.0391 34.6559C85.0391 34.3979 84.8299 34.1527 83.3348 32.6574C81.8566 31.1795 81.5936 30.9531 81.3527 30.9531C81.2496 30.9531 81.1361 30.884 81.1002 30.7994C81.024 30.6193 78.7004 29.468 78.6727 29.5965C78.6623 29.6443 78.5084 29.5629 78.3309 29.4156C78.1531 29.2682 78.0078 29.2129 78.0078 29.293C78.0078 29.373 77.8799 29.3322 77.7234 29.2023C77.567 29.0727 77.3533 29.0193 77.2486 29.084C77.1439 29.1488 77.0064 29.118 76.9432 29.0156C76.8801 28.9133 76.6762 28.8232 76.4902 28.8154C73.393 28.6857 71.9723 28.6885 71.6113 28.8246C71.3566 28.9207 71.1719 28.9158 71.1719 28.8131C71.1719 28.7154 70.9781 28.5742 70.7416 28.499C70.5049 28.424 70.191 28.2424 70.0439 28.0953C69.8971 27.9484 69.6512 27.8281 69.4979 27.8281C69.3443 27.8281 69.2188 27.7471 69.2188 27.648C69.2188 27.5488 68.9123 27.3666 68.5379 27.2432C67.7988 26.9992 67.5652 26.7662 67.7539 26.4609C67.9477 26.1475 97.142 26.1959 97.1709 26.5098ZM105.547 28.5117C105.547 29.7471 105.499 30.7578 105.441 30.7578C105.121 30.7578 103.664 29.8625 102.98 29.2449C102.284 28.6158 101.062 26.8158 101.056 26.4121C101.055 26.3316 102.065 26.2656 103.301 26.2656H105.547V28.5117ZM27.7637 26.6713C27.5758 26.7811 27.4219 26.8096 27.4219 26.7346C27.4219 26.6596 27.1549 26.8777 26.8283 27.2193C26.3445 27.7256 26.2434 27.9836 26.2807 28.6154C26.3059 29.0418 26.3971 29.3906 26.4836 29.3906C26.5699 29.3906 26.6406 29.5201 26.6406 29.6785C26.6406 30.0699 27.5834 30.5215 28.3008 30.4738C29.0605 30.423 29.7656 30.0395 29.7656 29.6768C29.7656 29.5193 29.8535 29.3906 29.9609 29.3906C30.0684 29.3906 30.1562 29.0383 30.1562 28.6076C30.1562 28.0133 30.0268 27.6955 29.6191 27.2893C29.3236 26.9947 28.9941 26.7385 28.8867 26.7195C28.7793 26.7006 28.5596 26.6371 28.3984 26.5783C28.2373 26.5195 27.9516 26.5613 27.7637 26.6713ZM79.293 34.1947C82.3668 36.235 84.0959 40.1885 83.4873 43.785C82.8416 47.6002 79.9672 50.8029 76.3408 51.7475C74.8723 52.1301 72.7449 52.1301 71.2764 51.7475C67.6629 50.8063 64.7746 47.602 64.1381 43.8283C63.9184 42.5264 64.0273 40.1326 64.3063 40.133C64.3764 40.133 65.9277 40.7594 67.7539 41.5248C71.0875 42.9223 71.5561 43.0344 74.1592 43.0576C74.8512 43.0639 75.6641 43.858 75.6641 44.5277C75.6641 44.8246 75.4502 45.2326 75.1473 45.5133C74.4 46.2059 73.2656 46.1615 72.2602 45.4008C70.7645 44.2691 69.0234 44.9164 69.0234 46.6041C69.0234 47.5123 69.957 48.6664 71.1162 49.1908C71.6418 49.4287 71.9473 49.742 72.1729 50.2746C72.6127 51.3133 73.5826 51.6514 74.6398 51.1348C75.1516 50.8846 75.4262 50.5906 75.5543 50.1557C75.6867 49.7061 75.9447 49.4406 76.4863 49.1965C77.3955 48.7863 78.7096 47.4016 79.1207 46.4199C79.5045 45.5035 79.5094 43.5629 79.1303 42.6576C78.9695 42.2738 78.5498 41.6318 78.1977 41.2307L77.5576 40.5016L77.958 39.7801C78.8973 38.0877 78.9119 35.8502 77.9953 34.0537C77.5016 33.0855 77.6457 33.1014 79.293 34.1947ZM50.2654 40.9215C49.9369 41.2283 49.6613 41.55 49.6529 41.6361C49.6445 41.7225 49.5967 41.9 49.5465 42.0307C49.3689 42.4934 49.824 43.3613 50.4756 43.8027C51.0906 44.2195 51.3203 44.2482 53.8297 44.223C55.3111 44.208 56.5234 44.1166 56.5234 44.0197C56.5234 43.923 56.6529 43.8438 56.8113 43.8438C57.2387 43.8438 57.6861 42.8268 57.5932 42.067C57.542 41.6492 57.2982 41.2094 56.9367 40.883C56.3715 40.3725 56.3145 40.3637 53.6121 40.3637H50.8627L50.2654 40.9215ZM90.6211 40.9844C90.1221 41.4551 89.974 41.7457 90.0082 42.1873C90.0746 43.043 90.4555 43.8438 90.7959 43.8438C90.9598 43.8438 91.0938 43.923 91.0938 44.0197C91.0938 44.1166 92.3061 44.208 93.7875 44.223C96.2969 44.2482 96.5266 44.2195 97.1416 43.8027C97.8441 43.3268 98.2453 42.4857 98.0332 41.933C97.9623 41.7486 97.9145 41.5711 97.9268 41.5385C97.9389 41.5061 97.6803 41.2283 97.3518 40.9215L96.7545 40.3637H94.0168H91.2793L90.6211 40.9844ZM43.5443 54.3738C44.6773 55.0236 45.7824 56.1742 46.3588 57.3037C46.5783 57.734 46.7578 58.1334 46.7578 58.1914C46.7578 58.2494 45.7471 58.2969 44.5117 58.2969H42.2656V56.0508C42.2656 54.8154 42.3316 53.8055 42.4121 53.8064C42.4926 53.8076 43.0021 54.0629 43.5443 54.3738ZM105.547 56.0508V58.2969H103.301C102.065 58.2969 101.055 58.2494 101.055 58.1914C101.055 57.8705 101.95 56.4139 102.568 55.7303C103.197 55.034 104.997 53.8115 105.4 53.8064C105.481 53.8055 105.547 54.8154 105.547 56.0508ZM104.109 64.8664C103.61 65.365 103.594 65.4555 103.594 67.6984C103.594 69.0051 103.514 70.0156 103.411 70.0156C103.311 70.0156 101.078 69.2779 98.4502 68.3764C91.4715 65.9822 90.7779 65.8354 86.4062 65.825C82.5535 65.8158 81.299 66.0004 78.2445 67.026C76.1492 67.7295 62.2111 74.125 61.3637 74.7717C59.6998 76.0416 58.7529 78.3152 58.9182 80.6447C58.9721 81.4051 59.0783 82.1773 59.1545 82.3605C59.2746 82.6494 59.2164 82.6719 58.7174 82.5287C58.4008 82.4379 54.3191 80.3756 49.6475 77.9457C44.9756 75.5158 40.7385 73.3865 40.2316 73.2139C39.5539 72.9828 38.8359 72.9223 37.5164 72.9848C35.9918 73.0568 35.5443 73.1609 34.5336 73.6779C30.7658 75.6053 29.3432 80.1871 31.3131 84.0486C32.1881 85.7639 32.975 86.2939 44.0539 92.632C49.925 95.9908 55.267 98.9576 55.9248 99.225C57.6648 99.932 59.6137 100.289 61.7324 100.289C63.5568 100.289 65.7104 99.9529 99.1504 94.4486L103.594 93.7172V96.7812C103.594 99.8313 103.596 99.8475 104.109 100.36L104.624 100.875H111.797H118.97L119.485 100.36L120 99.8451V82.6133V65.3814L119.485 64.8664L118.97 64.3516H111.797H104.624L104.109 64.8664ZM116.094 82.6133V96.9688H111.797H107.5V82.6133V68.2578H111.797H116.094V82.6133ZM89.3359 69.9086C91.1283 70.1949 91.5893 70.2988 92.3145 70.5793C92.6098 70.6937 92.8516 70.7348 92.8516 70.6705C92.8516 70.6062 92.9834 70.6631 93.1445 70.7969C93.3057 70.9307 93.4375 70.9746 93.4375 70.8945C93.4375 70.8145 93.5475 70.8402 93.6816 70.9518C93.816 71.0631 93.9908 71.1643 94.0703 71.1762C94.1496 71.1883 94.3254 71.2369 94.4609 71.2844C94.5963 71.3318 95.6959 71.7195 96.9043 72.1463C98.1129 72.5729 99.1016 72.8781 99.1016 72.8244C99.1016 72.7709 99.2115 72.7967 99.3457 72.882C99.4801 72.9672 99.6557 73.0494 99.7363 73.0645C99.817 73.0795 99.9268 73.1139 99.9805 73.1406C100.034 73.1674 100.166 73.2115 100.273 73.2383C100.381 73.265 100.513 73.3092 100.566 73.3359C100.62 73.3627 100.752 73.4068 100.859 73.4336C100.967 73.4604 101.099 73.5045 101.152 73.5312C101.206 73.558 101.316 73.5984 101.396 73.6209C101.477 73.6434 101.788 73.7635 102.089 73.8879C102.389 74.0123 102.85 74.1682 103.114 74.2344L103.594 74.3549V81.9393C103.594 86.1732 103.517 89.5715 103.42 89.6314C103.324 89.6908 102.906 89.7877 102.492 89.8473C102.077 89.9066 101.475 89.999 101.152 90.0527C100.83 90.1062 100.303 90.1941 99.9805 90.2478C99.6582 90.3016 99.1309 90.3895 98.8086 90.4432C98.4863 90.4969 97.959 90.5854 97.6367 90.6396C97.3145 90.6941 96.7871 90.7756 96.4648 90.8207C96.1426 90.8658 95.6592 90.9422 95.3906 90.9904C95.1221 91.0389 94.5947 91.1258 94.2188 91.1836C93.5631 91.2844 92.7838 91.4125 91.6313 91.6088C91.3359 91.659 90.8307 91.7441 90.5084 91.7979C90.1861 91.8516 89.6588 91.9395 89.3365 91.9932C89.0143 92.0469 88.4648 92.1375 88.1156 92.1947C87.307 92.327 86.4553 92.4689 85.7719 92.5854C85.2121 92.6807 84.5043 92.799 83.4281 92.9771C83.0787 93.035 82.5732 93.1148 82.3047 93.1547C81.3543 93.2951 80.4414 93.4385 79.8148 93.5451C79.4658 93.6047 78.9166 93.6973 78.5943 93.751C78.2721 93.8047 77.7666 93.8898 77.4711 93.94C77.1754 93.9904 76.626 94.0812 76.25 94.1416C75.874 94.2021 75.3467 94.29 75.0781 94.3369C74.8096 94.384 74.2822 94.4719 73.9062 94.5322C73.5303 94.5928 72.959 94.6863 72.6367 94.74C72.3145 94.7937 71.7871 94.8816 71.4648 94.9353C71.1426 94.9891 70.6152 95.0775 70.293 95.1318C69.9707 95.1863 69.4873 95.2633 69.2188 95.3031C68.2271 95.4498 67.3479 95.5883 66.7773 95.6875C66.4551 95.7436 65.9277 95.8334 65.6055 95.8871C65.2832 95.9408 64.7119 96.0404 64.3359 96.1082C63.3982 96.2777 60.0727 96.2787 59.3555 96.1098C58.383 95.8807 58.1857 95.8285 58.1348 95.7875C58.108 95.7658 58.0199 95.734 57.9395 95.7168C57.859 95.6994 57.6068 95.5816 57.3791 95.4551C57.1516 95.3283 56.91 95.2803 56.842 95.348C56.7742 95.4158 56.7188 95.3822 56.7188 95.2732C56.7188 95.1641 56.3453 94.9094 55.8887 94.707C55.432 94.5045 54.9426 94.2277 54.8008 94.0916C54.659 93.9557 54.3295 93.7908 54.0684 93.7252C53.8074 93.6598 53.5938 93.5334 53.5938 93.4445C53.5938 93.3559 53.2861 93.1719 52.9102 93.0359C52.5342 92.9 52.2266 92.7242 52.2266 92.6453C52.2266 92.5664 51.9189 92.3906 51.543 92.2547C51.167 92.1188 50.8594 91.943 50.8594 91.8641C50.8594 91.7852 50.5518 91.6094 50.1758 91.4734C49.7998 91.3375 49.4922 91.1617 49.4922 91.0828C49.4922 91.0039 49.1846 90.8281 48.8086 90.6922C48.4326 90.5563 48.125 90.3816 48.125 90.3041C48.125 90.2266 47.8174 90.0615 47.4414 89.9375C47.0654 89.8135 46.7578 89.6377 46.7578 89.5469C46.7578 89.4561 46.4502 89.2803 46.0742 89.1562C45.6982 89.0322 45.3906 88.8564 45.3906 88.7656C45.3906 88.6748 45.083 88.499 44.707 88.375C44.3311 88.251 44.0234 88.0752 44.0234 87.9844C44.0234 87.8936 43.7158 87.7178 43.3398 87.5938C42.9639 87.4697 42.6562 87.2939 42.6562 87.2031C42.6562 87.1123 42.3486 86.9365 41.9727 86.8125C41.5967 86.6885 41.2891 86.5127 41.2891 86.4219C41.2891 86.3311 40.9814 86.1553 40.6055 86.0312C40.2295 85.9072 39.9219 85.7314 39.9219 85.6406C39.9219 85.5498 39.6143 85.374 39.2383 85.25C38.8623 85.126 38.5547 84.9449 38.5547 84.8479C38.5547 84.751 38.335 84.6164 38.0664 84.549C37.7979 84.4816 37.5781 84.3537 37.5781 84.2648C37.5781 84.1762 37.2705 83.9922 36.8945 83.8563C36.5186 83.7203 36.2109 83.5389 36.2109 83.4529C36.2109 83.3672 36.123 83.2969 36.0156 83.2969C35.9082 83.2969 35.6445 83.1211 35.4297 82.9062C35.2148 82.6914 35.0391 82.4277 35.0391 82.3203C35.0391 82.2129 34.9512 82.125 34.8438 82.125C34.7363 82.125 34.6664 82.0592 34.6885 81.9785C34.7105 81.8979 34.6131 81.4939 34.4719 81.0809C34.235 80.3879 34.2566 80.232 34.7506 79.0697C35.407 77.5256 36.2518 76.9748 37.9822 76.9631C39.0604 76.9559 40.7031 77.5029 40.7031 77.8693C40.7031 77.9668 40.791 77.9922 40.8984 77.9258C41.0059 77.8594 41.0938 77.8844 41.0938 77.9814C41.0938 78.0783 42.0826 78.6254 43.291 79.1971C44.4996 79.7688 45.5178 80.3103 45.5537 80.4008C45.5898 80.491 45.6996 80.5152 45.7979 80.4545C45.8961 80.3937 45.9766 80.4424 45.9766 80.5625C45.9766 80.6826 46.0645 80.7266 46.1719 80.6602C46.2793 80.5938 46.3672 80.6193 46.3672 80.7168C46.3672 80.8145 47.268 81.3162 48.3691 81.8322C49.4701 82.3482 50.4006 82.8453 50.4365 82.9371C50.4727 83.0289 50.5824 83.0543 50.6807 82.9936C50.7789 82.9328 50.8594 82.9625 50.8594 83.0596C50.8594 83.1564 51.8482 83.7035 53.0566 84.2752C54.2652 84.8469 55.2834 85.3885 55.3193 85.4789C55.3555 85.5691 55.4652 85.5934 55.5635 85.5326C55.6617 85.4719 55.7422 85.5154 55.7422 85.6291C55.7422 85.7428 55.8605 85.8359 56.0051 85.8359C56.1498 85.8359 56.5672 85.9869 56.9328 86.1715C57.4055 86.4102 58.1908 86.5238 59.6484 86.5645C60.7764 86.5961 62.3145 86.665 63.0664 86.7176C65.1037 86.8602 66.9053 86.8654 67.5068 86.7305C68.0371 86.6115 73.5396 84.7775 74.1016 84.5326C74.2627 84.4623 74.4604 84.3863 74.541 84.3635C74.6217 84.3408 74.7314 84.3002 74.7852 84.2734C74.8389 84.2467 74.9707 84.2025 75.0781 84.1758C75.1855 84.149 75.3174 84.1049 75.3711 84.0781C75.4248 84.0514 75.5566 84.0072 75.6641 83.9805C75.7715 83.9537 75.9033 83.9096 75.957 83.8828C76.0107 83.8561 76.1426 83.8119 76.25 83.7852C76.3574 83.7584 76.4893 83.7143 76.543 83.6875C76.5967 83.6607 76.7285 83.6166 76.8359 83.5898C76.9434 83.5631 77.0752 83.5189 77.1289 83.4922C77.1826 83.4654 77.3145 83.4213 77.4219 83.3945C77.5293 83.3678 77.6611 83.3236 77.7148 83.2969C77.7686 83.2701 77.9004 83.226 78.0078 83.1992C78.1152 83.1725 78.2471 83.1283 78.3008 83.1016C78.3545 83.0748 78.4863 83.0307 78.5938 83.0039C78.7012 82.9771 78.8111 82.9375 78.8379 82.9162C78.8646 82.8947 79.0869 82.84 79.3314 82.7945C79.576 82.749 80.1033 82.5658 80.5033 82.3873C80.9033 82.2088 81.2891 82.0547 81.3605 82.0449C81.432 82.0354 81.6738 81.8162 81.8977 81.558C83.0711 80.2051 81.7756 78.1525 79.9609 78.4896C79.6924 78.5395 79.4506 78.5978 79.4238 78.6193C79.3971 78.6406 79.2871 78.6803 79.1797 78.707C79.0723 78.7338 78.9404 78.7779 78.8867 78.8047C78.833 78.8314 78.7012 78.8756 78.5938 78.9023C78.4863 78.9291 78.3545 78.9732 78.3008 79C78.2471 79.0268 78.1152 79.0709 78.0078 79.0977C77.9004 79.1244 77.7686 79.1686 77.7148 79.1953C77.6611 79.2221 77.5293 79.2662 77.4219 79.293C77.3145 79.3197 77.1826 79.3639 77.1289 79.3906C77.0752 79.4174 76.9434 79.4615 76.8359 79.4883C76.7285 79.515 76.5967 79.5592 76.543 79.5859C76.4893 79.6127 76.3574 79.6568 76.25 79.6836C76.1426 79.7104 76.0107 79.7545 75.957 79.7812C75.9033 79.808 75.7715 79.8521 75.6641 79.8789C75.5566 79.9057 75.4248 79.9498 75.3711 79.9766C75.3174 80.0033 75.1855 80.0475 75.0781 80.0742C74.9707 80.101 74.8607 80.1408 74.834 80.1625C74.8072 80.184 74.6533 80.2287 74.4922 80.2617C74.1822 80.3254 67.9605 82.4352 67.4609 82.6461C66.7271 82.9561 64.9506 83.1107 64.8063 82.8772C64.7477 82.7822 64.6178 82.7551 64.5178 82.817C64.4178 82.8787 64.3359 82.8465 64.3359 82.7453C64.3359 82.6439 64.1654 82.5166 63.9568 82.4621C63.4904 82.34 62.9279 81.0938 62.923 80.1719C62.9191 79.423 63.285 78.4881 63.7627 78.0262C64.1469 77.6547 65.3125 76.9863 65.3125 77.1375C65.3125 77.1994 65.6859 77.0549 66.1426 76.816C66.5992 76.5773 67.0387 76.3998 67.1191 76.4215C67.1996 76.4432 67.2656 76.3584 67.2656 76.233C67.2656 76.1078 67.3205 76.06 67.3875 76.127C67.4545 76.1941 67.8719 76.0592 68.3152 75.8271C68.7584 75.5951 69.1871 75.4232 69.2676 75.4449C69.348 75.4666 69.4141 75.3818 69.4141 75.2564C69.4141 75.1312 69.4727 75.0873 69.5445 75.159C69.6162 75.2307 70.1436 75.025 70.7164 74.7016C71.2891 74.3783 71.7578 74.167 71.7578 74.2318C71.7578 74.2967 72.2412 74.077 72.832 73.7436C73.4229 73.4102 73.9062 73.1904 73.9062 73.2551C73.9062 73.3199 74.3018 73.1412 74.7852 72.858C75.2686 72.5746 75.6641 72.399 75.6641 72.4674C75.6641 72.5359 76.1256 72.3316 76.6895 72.0133C77.2533 71.6949 77.7588 71.4418 77.8125 71.4508C77.8926 71.4641 79.1582 71.0336 80.7422 70.4543C81.3297 70.2396 82.1236 70.0785 83.3588 69.9236C83.7773 69.8711 84.1436 69.8043 84.1725 69.7754C84.2652 69.6826 88.6262 69.7951 89.3359 69.9086ZM110.695 71.668C109.244 72.6848 110.018 75.0938 111.797 75.0938C113.083 75.0938 114.032 73.7066 113.547 72.5354C113.228 71.7656 112.647 71.3828 111.797 71.3828C111.415 71.3828 110.919 71.5111 110.695 71.668Z" fill="white"/>
<path fill-rule="evenodd" clip-rule="evenodd" d="M20.5148 1.38984L20 1.90488V19.1367V36.3686L20.5148 36.8836L21.0299 37.3984H28.2031H35.3764L35.8914 36.8836C36.3781 36.3969 36.4062 36.2633 36.4062 34.4422V32.5156H37.3828H38.3594V46.8445V61.1732L38.8742 61.6883L39.3893 62.2031H73.9062H108.423L108.938 61.6883L109.453 61.1732V42.2812V23.3893L108.938 22.8742C108.487 22.4229 108.266 22.3594 107.146 22.3594H105.869L91.6725 14.7424C83.8645 10.5529 76.8268 6.85625 76.033 6.52773C75.2393 6.19902 73.7549 5.69707 72.7344 5.4123L70.8789 4.89434L53.6426 4.83086L36.4062 4.76719V3.33594C36.4062 2.05 36.3539 1.85254 35.8914 1.38984L35.3764 0.875H28.2031H21.0299L20.5148 1.38984ZM32.5 19.1367V33.4922H28.2031H23.9062V19.1367V4.78125H28.2031H32.5V19.1367ZM71.4648 9.14629C74.473 10.0281 74.9951 10.2865 89.4797 18.0625L97.3016 22.2617L82.1371 22.3594C65.3064 22.4678 66.2785 22.3871 64.9457 23.7873C63.5756 25.2266 63.5164 27.6145 64.8133 29.1295C65.2428 29.6314 66.8916 30.7361 69.6826 32.3922C72.0033 33.7691 74.1229 35.1582 74.3926 35.4785C75.5977 36.9107 74.4713 39.1562 72.5479 39.1562C72.2148 39.1562 67.7906 37.4211 62.5285 35.2268C57.3459 33.0654 52.0947 30.965 50.8594 30.5592C46.9396 29.2717 42.835 28.6139 38.7012 28.6109L36.4062 28.6094V18.6412V8.67324L53.3496 8.73789C68.8268 8.79707 70.3943 8.83242 71.4648 9.14629ZM42.3299 12.8785C41.5939 13.1986 41.2891 13.6994 41.2891 14.5883C41.2891 15.4385 41.7172 16.027 42.5311 16.2955C43.341 16.5629 44.0094 16.3395 44.5838 15.6094C45.3188 14.675 45.0094 13.4141 43.918 12.8961C43.157 12.535 43.1203 12.5346 42.3299 12.8785ZM49.1945 12.8664C47.7533 13.4943 47.8369 15.7664 49.3201 16.2836C50.3191 16.6318 64.3551 16.5789 65.2055 16.2236C65.9701 15.9041 66.2891 15.4105 66.2891 14.5469C66.2891 13.6832 65.9701 13.1896 65.2055 12.8701C64.274 12.4811 50.0867 12.4777 49.1945 12.8664ZM97.5465 27.6559C98.5023 30.6285 101.184 33.3102 104.157 34.266L105.547 34.7131V42.2812V49.8494L104.157 50.2965C101.176 51.2549 98.4055 54.033 97.5186 56.9533L97.1104 58.2969H73.9117H50.7131L50.266 56.9066C49.3102 53.934 46.6285 51.2523 43.6559 50.2965L42.2656 49.8494V41.1803V32.5109L43.0957 32.6307C47.2578 33.2301 49.7387 33.9937 55.9375 36.5834C60.5111 38.4939 60.5271 38.5029 60.4789 39.0727C60.176 42.6557 60.1978 43.81 60.5992 45.417C61.6389 49.5799 64.0857 52.6018 67.9492 54.4934C75.4104 58.1465 84.3322 54.2217 86.8297 46.1875C87.2043 44.9826 87.2852 44.2893 87.2852 42.2812C87.2852 40.1143 87.2215 39.6453 86.7184 38.1104C85.3096 33.8123 81.685 30.3502 77.4131 29.2223C75.577 28.7375 73.9408 28.5871 72.4414 28.765C71.2779 28.9031 71.2564 28.8965 69.4629 27.8475C68.4691 27.2662 67.6562 26.6727 67.6562 26.5281C67.6562 26.3105 70.1799 26.2656 82.3779 26.2656H97.0994L97.5465 27.6559ZM105.547 28.5117C105.547 29.7471 105.499 30.7578 105.441 30.7578C105.121 30.7578 103.664 29.8625 102.98 29.2449C102.284 28.6158 101.062 26.8158 101.056 26.4121C101.055 26.3316 102.065 26.2656 103.301 26.2656H105.547V28.5117ZM27.2047 26.9492C25.5732 27.8357 26.3127 30.3672 28.2031 30.3672C28.7873 30.3672 29.1289 30.2404 29.4736 29.8957C31.0934 28.276 29.226 25.8506 27.2047 26.9492ZM79.293 34.1947C82.3668 36.235 84.0959 40.1885 83.4873 43.785C82.8416 47.6002 79.9672 50.8029 76.3408 51.7475C74.8723 52.1301 72.7449 52.1301 71.2764 51.7475C67.6629 50.8063 64.7746 47.602 64.1381 43.8283C63.9184 42.5264 64.0273 40.1326 64.3063 40.133C64.3764 40.133 65.9277 40.7594 67.7539 41.5248C71.0875 42.9223 71.5561 43.0344 74.1592 43.0576C74.8512 43.0639 75.6641 43.858 75.6641 44.5277C75.6641 44.8246 75.4502 45.2326 75.1473 45.5133C74.4 46.2059 73.2656 46.1615 72.2602 45.4008C70.7645 44.2691 69.0234 44.9164 69.0234 46.6041C69.0234 47.5123 69.957 48.6664 71.1162 49.1908C71.6418 49.4287 71.9473 49.742 72.1729 50.2746C72.6127 51.3133 73.5826 51.6514 74.6398 51.1348C75.1516 50.8846 75.4262 50.5906 75.5543 50.1557C75.6867 49.7061 75.9447 49.4406 76.4863 49.1965C77.3955 48.7863 78.7096 47.4016 79.1207 46.4199C79.5045 45.5035 79.5094 43.5629 79.1303 42.6576C78.9695 42.2738 78.5498 41.6318 78.1977 41.2307L77.5576 40.5016L77.958 39.7801C78.8973 38.0877 78.9119 35.8502 77.9953 34.0537C77.5016 33.0855 77.6457 33.1014 79.293 34.1947ZM51.1523 40.4941C50.1912 40.8066 49.6875 41.4547 49.6875 42.3789C49.6875 43.8359 50.5264 44.2344 53.5938 44.2344C56.7441 44.2344 57.5 43.8484 57.5 42.2398C57.5 41.3564 57.0488 40.7746 56.176 40.532C55.3904 40.3139 51.7902 40.2867 51.1523 40.4941ZM91.3467 40.5348C90.5641 40.773 90.1172 41.3928 90.1172 42.2398C90.1172 43.8484 90.873 44.2344 94.0234 44.2344C96.5213 44.2344 97.3236 44.0252 97.7285 43.2686C98.165 42.4529 97.8533 41.2135 97.0857 40.7135C96.5691 40.377 92.301 40.2439 91.3467 40.5348ZM43.5443 54.3738C44.6773 55.0236 45.7824 56.1742 46.3588 57.3037C46.5783 57.734 46.7578 58.1334 46.7578 58.1914C46.7578 58.2494 45.7471 58.2969 44.5117 58.2969H42.2656V56.0508C42.2656 54.8154 42.3316 53.8055 42.4121 53.8064C42.4926 53.8076 43.0021 54.0629 43.5443 54.3738ZM105.547 56.0508V58.2969H103.301C102.065 58.2969 101.055 58.2494 101.055 58.1914C101.055 57.8705 101.95 56.4139 102.568 55.7303C103.197 55.034 104.997 53.8115 105.4 53.8064C105.481 53.8055 105.547 54.8154 105.547 56.0508ZM104.109 64.8664C103.61 65.365 103.594 65.4555 103.594 67.6984C103.594 69.0051 103.514 70.0156 103.411 70.0156C103.311 70.0156 101.078 69.2779 98.4502 68.3764C91.4715 65.9822 90.7779 65.8354 86.4062 65.825C82.5535 65.8158 81.299 66.0004 78.2445 67.026C76.1492 67.7295 62.2111 74.125 61.3637 74.7717C59.6998 76.0416 58.7529 78.3152 58.9182 80.6447C58.9721 81.4051 59.0783 82.1773 59.1545 82.3605C59.2746 82.6494 59.2164 82.6719 58.7174 82.5287C58.4008 82.4379 54.3191 80.3756 49.6475 77.9457C44.9756 75.5158 40.7385 73.3865 40.2316 73.2139C39.5539 72.9828 38.8359 72.9223 37.5164 72.9848C35.9918 73.0568 35.5443 73.1609 34.5336 73.6779C30.7658 75.6053 29.3432 80.1871 31.3131 84.0486C32.1881 85.7639 32.975 86.2939 44.0539 92.632C49.925 95.9908 55.267 98.9576 55.9248 99.225C57.6648 99.932 59.6137 100.289 61.7324 100.289C63.5568 100.289 65.7104 99.9529 99.1504 94.4486L103.594 93.7172V96.7812C103.594 99.8313 103.596 99.8475 104.109 100.36L104.624 100.875H111.797H118.97L119.485 100.36L120 99.8451V82.6133V65.3814L119.485 64.8664L118.97 64.3516H111.797H104.624L104.109 64.8664ZM116.094 82.6133V96.9688H111.797H107.5V82.6133V68.2578H111.797H116.094V82.6133ZM89.8049 69.9201C91.1736 70.1588 96.8428 71.9668 102.666 74.0219L103.594 74.3492V82.0457C103.594 86.2787 103.56 89.7422 103.519 89.7422C103.477 89.7422 94.3148 91.2439 83.1574 93.0795C64.7869 96.1018 62.7051 96.4084 61.1133 96.3268C60.0479 96.2719 58.873 96.0715 58.1307 95.8178C56.5152 95.2658 36.0992 83.6076 35.31 82.7867C34.6332 82.0822 34.183 80.658 34.3754 79.8283C34.6363 78.702 35.4018 77.6813 36.3178 77.2377C38.0506 76.399 38.2566 76.4742 47.7004 81.3957C52.3547 83.8211 56.5295 85.9563 56.9777 86.1406C57.6074 86.3994 58.7932 86.516 62.1875 86.6527C64.6045 86.75 66.8457 86.7822 67.168 86.7242C67.4902 86.6662 70.7861 85.5902 74.4922 84.3332C81.642 81.9078 82.3047 81.5803 82.3047 80.4701C82.3047 79.675 81.8 78.8857 81.1084 78.5992C80.5111 78.352 80.1207 78.4586 73.3355 80.7219C69.4062 82.0326 65.9264 83.1043 65.6023 83.1033C64.218 83.0992 62.7838 81.6322 62.7766 80.2129C62.7727 79.4164 63.4135 78.1227 63.9967 77.7498C65.0215 77.0945 78.8373 70.9867 80.3516 70.5195C83.3104 69.6064 86.7541 69.3881 89.8049 69.9201ZM110.695 71.668C109.244 72.6848 110.018 75.0938 111.797 75.0938C113.083 75.0938 114.032 73.7066 113.547 72.5354C113.228 71.7656 112.647 71.3828 111.797 71.3828C111.415 71.3828 110.919 71.5111 110.695 71.668Z" fill="black"/>
<path d="M1.07195 160.875V157.799L3.79656 157.271V138.902L1.07195 138.375V135.281H3.79656H13.2536C15.2106 135.281 16.8981 135.627 18.3161 136.318C19.7341 136.998 20.8239 137.953 21.5856 139.184C22.3473 140.402 22.7282 141.826 22.7282 143.455C22.7282 145.084 22.3473 146.514 21.5856 147.744C20.8239 148.963 19.7341 149.912 18.3161 150.592C16.8981 151.26 15.2106 151.594 13.2536 151.594H8.92937V157.271L11.6716 157.799V160.875H1.07195ZM8.92937 147.639H13.2536C14.6833 147.639 15.7614 147.252 16.488 146.479C17.2262 145.693 17.5954 144.697 17.5954 143.49C17.5954 142.26 17.2262 141.246 16.488 140.449C15.7614 139.641 14.6833 139.236 13.2536 139.236H8.92937V147.639ZM29.2159 161.244C27.3292 161.244 25.8292 160.74 24.7159 159.732C23.6027 158.713 23.046 157.33 23.046 155.584C23.046 154.389 23.3683 153.34 24.0128 152.438C24.6691 151.535 25.63 150.826 26.8956 150.311C28.173 149.795 29.7433 149.537 31.6066 149.537H34.1202V148.131C34.1202 147.217 33.8507 146.479 33.3116 145.916C32.7843 145.342 31.9874 145.055 30.921 145.055C30.3702 145.055 29.878 145.125 29.4445 145.266C29.0109 145.395 28.6124 145.582 28.2491 145.828L27.8448 148.342H24.1534L24.0831 143.402C25.0792 142.84 26.1573 142.383 27.3175 142.031C28.4777 141.68 29.7726 141.504 31.2023 141.504C33.6866 141.504 35.6495 142.084 37.0909 143.244C38.5323 144.393 39.253 146.039 39.253 148.184V156.023C39.253 156.281 39.253 156.539 39.253 156.797C39.2648 157.043 39.2882 157.283 39.3234 157.518L41.3097 157.799V160.875H34.9464C34.8175 160.547 34.6886 160.195 34.5597 159.82C34.4308 159.445 34.337 159.07 34.2784 158.695C33.6691 159.469 32.9484 160.09 32.1163 160.559C31.296 161.016 30.3292 161.244 29.2159 161.244ZM30.587 157.447C31.3019 157.447 31.9816 157.289 32.6261 156.973C33.2706 156.645 33.7687 156.217 34.1202 155.689V152.684H31.589C30.464 152.684 29.6085 152.941 29.0226 153.457C28.4484 153.973 28.1612 154.594 28.1612 155.32C28.1612 156 28.3722 156.527 28.7941 156.902C29.2277 157.266 29.8253 157.447 30.587 157.447ZM46.1627 168.557C45.7173 168.557 45.2427 168.516 44.7388 168.434C44.2466 168.363 43.7779 168.264 43.3326 168.135L43.9127 164.373C44.1353 164.42 44.3814 164.455 44.6509 164.479C44.9205 164.502 45.1548 164.514 45.3541 164.514C46.0923 164.514 46.731 164.32 47.2701 163.934C47.8091 163.547 48.2017 162.99 48.4478 162.264L48.8697 161.086L42.5064 145.283L40.1685 144.949V141.855H50.2584V144.949L47.938 145.301L50.9263 153.686L51.2955 154.723H51.4009L54.9341 145.266L52.6666 144.949V141.855H62.0709V144.949L59.9263 145.248L52.6666 163.705C52.315 164.584 51.8638 165.387 51.313 166.113C50.774 166.852 50.0826 167.443 49.2388 167.889C48.4068 168.334 47.3814 168.557 46.1627 168.557ZM61.9316 160.875V157.799L64.6562 157.271V138.902L61.9316 138.375V135.281H64.6562H69.8594L81.0039 153.035L81.1094 153.018V138.902L77.8398 138.375V135.281H85.6973H88.4395V138.375L85.6973 138.902V160.875H80.7402L69.3496 143.297L69.2441 143.314V157.271L72.5312 157.799V160.875H61.9316ZM97.9155 161.244C96.0991 161.244 94.5112 160.846 93.1518 160.049C91.7924 159.24 90.7377 158.133 89.9877 156.727C89.2495 155.32 88.8803 153.715 88.8803 151.91V151.207C88.8803 149.32 89.2319 147.65 89.935 146.197C90.6381 144.732 91.6284 143.584 92.9057 142.752C94.1948 141.908 95.7123 141.492 97.4584 141.504C99.1811 141.504 100.628 141.844 101.8 142.523C102.972 143.203 103.863 144.182 104.472 145.459C105.081 146.736 105.386 148.283 105.386 150.1V152.895H94.2065L94.1713 153C94.2416 153.832 94.4467 154.576 94.7866 155.232C95.1381 155.877 95.6303 156.387 96.2631 156.762C96.8959 157.125 97.6635 157.307 98.5659 157.307C99.5034 157.307 100.376 157.189 101.185 156.955C102.005 156.709 102.802 156.352 103.576 155.883L104.964 159.047C104.179 159.68 103.189 160.207 101.994 160.629C100.81 161.039 99.4506 161.244 97.9155 161.244ZM94.2416 149.502H100.587V149.045C100.587 148.271 100.482 147.609 100.271 147.059C100.072 146.496 99.7436 146.062 99.2866 145.758C98.8412 145.453 98.2612 145.301 97.5463 145.301C96.8666 145.301 96.2924 145.482 95.8237 145.846C95.3549 146.197 94.9858 146.684 94.7162 147.305C94.4584 147.926 94.2827 148.629 94.1889 149.414L94.2416 149.502ZM105.739 160.875V157.799L108.183 157.482L113.632 151.348L108.481 145.248L106.179 144.949V141.855H115.6V144.809L114.124 145.037L116.884 148.658L119.643 145.037L118.009 144.809V141.855H127.097V144.949L124.97 145.248L120.1 151.137L125.532 157.482L127.87 157.799V160.875H118.114V157.939L119.766 157.711L116.831 154.072L113.966 157.729L115.583 157.939V160.875H105.739ZM135.553 161.244C133.784 161.244 132.418 160.758 131.457 159.785C130.508 158.812 130.034 157.271 130.034 155.162V145.459H127.414V141.855H130.034V137.197H135.149V141.855H138.647V145.459H135.149V155.145C135.149 155.883 135.301 156.41 135.606 156.727C135.922 157.043 136.35 157.201 136.889 157.201C137.182 157.201 137.487 157.184 137.803 157.148C138.131 157.102 138.412 157.055 138.647 157.008L139.086 160.717C138.559 160.869 137.985 160.992 137.364 161.086C136.754 161.191 136.151 161.244 135.553 161.244Z" fill="white"/>
</svg>