<svg width="45" height="31" viewBox="0 0 45 31" fill="none" xmlns="http://www.w3.org/2000/svg">
<g clip-path="url(#clip0_1_8574)">
<rect x="0.453125" y="0.40625" width="44" height="30" rx="3" fill="white"/>
<path fill-rule="evenodd" clip-rule="evenodd" d="M0.453125 0.40625H19.3103V14.4062H0.453125V0.40625Z" fill="#1A47B8"/>
<path fill-rule="evenodd" clip-rule="evenodd" d="M19.3103 0.40625V2.40625H44.4531V0.40625H19.3103ZM19.3103 4.40625V6.40625H44.4531V4.40625H19.3103ZM19.3103 8.40625V10.4062H44.4531V8.40625H19.3103ZM19.3103 12.4062V14.4062H44.4531V12.4062H19.3103ZM0.453125 16.4062V18.4062H44.4531V16.4062H0.453125ZM0.453125 20.4062V22.4062H44.4531V20.4062H0.453125ZM0.453125 24.4062V26.4062H44.4531V24.4062H0.453125ZM0.453125 28.4062V30.4062H44.4531V28.4062H0.453125Z" fill="#F93939"/>
<path fill-rule="evenodd" clip-rule="evenodd" d="M2.54883 2.40625V4.40625H4.64407V2.40625H2.54883ZM6.7393 2.40625V4.40625H8.83454V2.40625H6.7393ZM10.9298 2.40625V4.40625H13.025V2.40625H10.9298ZM15.1203 2.40625V4.40625H17.2155V2.40625H15.1203ZM13.025 4.40625V6.40625H15.1203V4.40625H13.025ZM8.83454 4.40625V6.40625H10.9298V4.40625H8.83454ZM4.64407 4.40625V6.40625H6.7393V4.40625H4.64407ZM2.54883 6.40625V8.40625H4.64407V6.40625H2.54883ZM6.7393 6.40625V8.40625H8.83454V6.40625H6.7393ZM10.9298 6.40625V8.40625H13.025V6.40625H10.9298ZM15.1203 6.40625V8.40625H17.2155V6.40625H15.1203ZM2.54883 10.4062V12.4062H4.64407V10.4062H2.54883ZM6.7393 10.4062V12.4062H8.83454V10.4062H6.7393ZM10.9298 10.4062V12.4062H13.025V10.4062H10.9298ZM15.1203 10.4062V12.4062H17.2155V10.4062H15.1203ZM13.025 8.40625V10.4062H15.1203V8.40625H13.025ZM8.83454 8.40625V10.4062H10.9298V8.40625H8.83454ZM4.64407 8.40625V10.4062H6.7393V8.40625H4.64407Z" fill="white"/>
</g>
<defs>
<clipPath id="clip0_1_8574">
<rect x="0.453125" y="0.40625" width="44" height="30" rx="3" fill="white"/>
</clipPath>
</defs>
</svg>
