<svg width="100" height="101" viewBox="0 0 100 101" fill="none" xmlns="http://www.w3.org/2000/svg">
<path fill-rule="evenodd" clip-rule="evenodd" d="M0.514844 1.38984L0 1.90488V19.1367V36.3686L0.514844 36.8836L1.02988 37.3984H8.20312H15.3764L15.8914 36.8836C16.3781 36.3969 16.4062 36.2633 16.4062 34.4422V32.5156H17.3828H18.3594V46.8445V61.1732L18.8742 61.6883L19.3893 62.2031H53.9062H88.4232L88.9383 61.6883L89.4531 61.1732V42.2812V23.3893L88.9383 22.8742C88.4869 22.4229 88.2656 22.3594 87.1461 22.3594H85.8688L71.6725 14.7424C63.8645 10.5529 56.8268 6.85625 56.033 6.52773C55.2393 6.19902 53.7549 5.69707 52.7344 5.4123L50.8789 4.89434L33.6426 4.83086L16.4062 4.76719V3.33594C16.4062 2.05 16.3539 1.85254 15.8914 1.38984L15.3764 0.875H8.20312H1.02988L0.514844 1.38984ZM12.5 19.1367V33.4922H8.20312H3.90625V19.1367V4.78125H8.20312H12.5V19.1367ZM51.4648 9.14629C54.473 10.0281 54.9951 10.2865 69.4797 18.0625L77.3016 22.2617L62.1371 22.3594C45.3064 22.4678 46.2785 22.3871 44.9457 23.7873C43.5756 25.2266 43.5164 27.6145 44.8133 29.1295C45.2428 29.6314 46.8916 30.7361 49.6826 32.3922C52.0033 33.7691 54.1229 35.1582 54.3926 35.4785C55.5977 36.9107 54.4713 39.1562 52.5479 39.1562C52.2148 39.1562 47.7906 37.4211 42.5285 35.2268C37.3459 33.0654 32.0947 30.965 30.8594 30.5592C26.9396 29.2717 22.835 28.6139 18.7012 28.6109L16.4062 28.6094V18.6412V8.67324L33.3496 8.73789C48.8268 8.79707 50.3943 8.83242 51.4648 9.14629ZM22.3299 12.8785C21.5939 13.1986 21.2891 13.6994 21.2891 14.5883C21.2891 15.4385 21.7172 16.027 22.5311 16.2955C23.341 16.5629 24.0094 16.3395 24.5838 15.6094C25.3188 14.675 25.0094 13.4141 23.918 12.8961C23.157 12.535 23.1203 12.5346 22.3299 12.8785ZM29.1945 12.8664C27.7533 13.4943 27.8369 15.7664 29.3201 16.2836C30.3191 16.6318 44.3551 16.5789 45.2055 16.2236C45.9701 15.9041 46.2891 15.4105 46.2891 14.5469C46.2891 13.6832 45.9701 13.1896 45.2055 12.8701C44.274 12.4811 30.0867 12.4777 29.1945 12.8664ZM77.5465 27.6559C78.5023 30.6285 81.184 33.3102 84.1566 34.266L85.5469 34.7131V42.2812V49.8494L84.1566 50.2965C81.1758 51.2549 78.4055 54.033 77.5186 56.9533L77.1104 58.2969H53.9117H30.7131L30.266 56.9066C29.3102 53.934 26.6285 51.2523 23.6559 50.2965L22.2656 49.8494V41.1803V32.5109L23.0957 32.6307C27.2578 33.2301 29.7387 33.9937 35.9375 36.5834C40.5111 38.4939 40.5271 38.5029 40.4789 39.0727C40.176 42.6557 40.1978 43.81 40.5992 45.417C41.6389 49.5799 44.0857 52.6018 47.9492 54.4934C55.4104 58.1465 64.3322 54.2217 66.8297 46.1875C67.2043 44.9826 67.2852 44.2893 67.2852 42.2812C67.2852 40.1143 67.2215 39.6453 66.7184 38.1104C65.3096 33.8123 61.685 30.3502 57.4131 29.2223C55.577 28.7375 53.9408 28.5871 52.4414 28.765C51.2779 28.9031 51.2564 28.8965 49.4629 27.8475C48.4691 27.2662 47.6562 26.6727 47.6562 26.5281C47.6562 26.3105 50.1799 26.2656 62.3779 26.2656H77.0994L77.5465 27.6559ZM85.5469 28.5117C85.5469 29.7471 85.4994 30.7578 85.4414 30.7578C85.1205 30.7578 83.6639 29.8625 82.9803 29.2449C82.284 28.6158 81.0615 26.8158 81.0564 26.4121C81.0555 26.3316 82.0654 26.2656 83.3008 26.2656H85.5469V28.5117ZM7.20469 26.9492C5.57324 27.8357 6.3127 30.3672 8.20312 30.3672C8.7873 30.3672 9.12891 30.2404 9.47363 29.8957C11.0934 28.276 9.22598 25.8506 7.20469 26.9492ZM59.293 34.1947C62.3668 36.235 64.0959 40.1885 63.4873 43.785C62.8416 47.6002 59.9672 50.8029 56.3408 51.7475C54.8723 52.1301 52.7449 52.1301 51.2764 51.7475C47.6629 50.8063 44.7746 47.602 44.1381 43.8283C43.9184 42.5264 44.0273 40.1326 44.3063 40.133C44.3764 40.133 45.9277 40.7594 47.7539 41.5248C51.0875 42.9223 51.5561 43.0344 54.1592 43.0576C54.8512 43.0639 55.6641 43.858 55.6641 44.5277C55.6641 44.8246 55.4502 45.2326 55.1473 45.5133C54.4 46.2059 53.2656 46.1615 52.2602 45.4008C50.7645 44.2691 49.0234 44.9164 49.0234 46.6041C49.0234 47.5123 49.957 48.6664 51.1162 49.1908C51.6418 49.4287 51.9473 49.742 52.1729 50.2746C52.6127 51.3133 53.5826 51.6514 54.6398 51.1348C55.1516 50.8846 55.4262 50.5906 55.5543 50.1557C55.6867 49.7061 55.9447 49.4406 56.4863 49.1965C57.3955 48.7863 58.7096 47.4016 59.1207 46.4199C59.5045 45.5035 59.5094 43.5629 59.1303 42.6576C58.9695 42.2738 58.5498 41.6318 58.1977 41.2307L57.5576 40.5016L57.958 39.7801C58.8973 38.0877 58.9119 35.8502 57.9953 34.0537C57.5016 33.0855 57.6457 33.1014 59.293 34.1947ZM31.1523 40.4941C30.1912 40.8066 29.6875 41.4547 29.6875 42.3789C29.6875 43.8359 30.5264 44.2344 33.5938 44.2344C36.7441 44.2344 37.5 43.8484 37.5 42.2398C37.5 41.3564 37.0488 40.7746 36.176 40.532C35.3904 40.3139 31.7902 40.2867 31.1523 40.4941ZM71.3467 40.5348C70.5641 40.773 70.1172 41.3928 70.1172 42.2398C70.1172 43.8484 70.873 44.2344 74.0234 44.2344C76.5213 44.2344 77.3236 44.0252 77.7285 43.2686C78.165 42.4529 77.8533 41.2135 77.0857 40.7135C76.5691 40.377 72.301 40.2439 71.3467 40.5348ZM23.5443 54.3738C24.6773 55.0236 25.7824 56.1742 26.3588 57.3037C26.5783 57.734 26.7578 58.1334 26.7578 58.1914C26.7578 58.2494 25.7471 58.2969 24.5117 58.2969H22.2656V56.0508C22.2656 54.8154 22.3316 53.8055 22.4121 53.8064C22.4926 53.8076 23.0021 54.0629 23.5443 54.3738ZM85.5469 56.0508V58.2969H83.3008C82.0654 58.2969 81.0547 58.2494 81.0547 58.1914C81.0547 57.8705 81.95 56.4139 82.5676 55.7303C83.1967 55.034 84.9967 53.8115 85.4004 53.8064C85.4811 53.8055 85.5469 54.8154 85.5469 56.0508ZM84.1086 64.8664C83.6102 65.365 83.5938 65.4555 83.5938 67.6984C83.5938 69.0051 83.5141 70.0156 83.4111 70.0156C83.3107 70.0156 81.0783 69.2779 78.4502 68.3764C71.4715 65.9822 70.7779 65.8354 66.4062 65.825C62.5535 65.8158 61.299 66.0004 58.2445 67.026C56.1492 67.7295 42.2111 74.125 41.3637 74.7717C39.6998 76.0416 38.7529 78.3152 38.9182 80.6447C38.9721 81.4051 39.0783 82.1773 39.1545 82.3605C39.2746 82.6494 39.2164 82.6719 38.7174 82.5287C38.4008 82.4379 34.3191 80.3756 29.6475 77.9457C24.9756 75.5158 20.7385 73.3865 20.2316 73.2139C19.5539 72.9828 18.8359 72.9223 17.5164 72.9848C15.9918 73.0568 15.5443 73.1609 14.5336 73.6779C10.7658 75.6053 9.34316 80.1871 11.3131 84.0486C12.1881 85.7639 12.975 86.2939 24.0539 92.632C29.925 95.9908 35.267 98.9576 35.9248 99.225C37.6648 99.932 39.6137 100.289 41.7324 100.289C43.5568 100.289 45.7104 99.9529 79.1504 94.4486L83.5938 93.7172V96.7812C83.5938 99.8313 83.5961 99.8475 84.1086 100.36L84.6236 100.875H91.7969H98.9701L99.4852 100.36L100 99.8451V82.6133V65.3814L99.4852 64.8664L98.9701 64.3516H91.7969H84.6236L84.1086 64.8664ZM96.0938 82.6133V96.9688H91.7969H87.5V82.6133V68.2578H91.7969H96.0938V82.6133ZM69.8049 69.9201C71.1736 70.1588 76.8428 71.9668 82.666 74.0219L83.5938 74.3492V82.0457C83.5938 86.2787 83.56 89.7422 83.5188 89.7422C83.4773 89.7422 74.3148 91.2439 63.1574 93.0795C44.7869 96.1018 42.7051 96.4084 41.1133 96.3268C40.0479 96.2719 38.873 96.0715 38.1307 95.8178C36.5152 95.2658 16.0992 83.6076 15.31 82.7867C14.6332 82.0822 14.183 80.658 14.3754 79.8283C14.6363 78.702 15.4018 77.6813 16.3178 77.2377C18.0506 76.399 18.2566 76.4742 27.7004 81.3957C32.3547 83.8211 36.5295 85.9563 36.9777 86.1406C37.6074 86.3994 38.7932 86.516 42.1875 86.6527C44.6045 86.75 46.8457 86.7822 47.168 86.7242C47.4902 86.6662 50.7861 85.5902 54.4922 84.3332C61.642 81.9078 62.3047 81.5803 62.3047 80.4701C62.3047 79.675 61.8 78.8857 61.1084 78.5992C60.5111 78.352 60.1207 78.4586 53.3355 80.7219C49.4062 82.0326 45.9264 83.1043 45.6023 83.1033C44.218 83.0992 42.7838 81.6322 42.7766 80.2129C42.7727 79.4164 43.4135 78.1227 43.9967 77.7498C45.0215 77.0945 58.8373 70.9867 60.3516 70.5195C63.3104 69.6064 66.7541 69.3881 69.8049 69.9201ZM90.6953 71.668C89.2438 72.6848 90.0184 75.0938 91.7969 75.0938C93.083 75.0938 94.0318 73.7066 93.5467 72.5354C93.2279 71.7656 92.6467 71.3828 91.7969 71.3828C91.415 71.3828 90.9193 71.5111 90.6953 71.668Z" fill="#34A8FA"/>
</svg>
